<?xml version="1.0" encoding="utf-8"?>
<!-- Generator: Adobe Illustrator 24.0.1, SVG Export Plug-In . SVG Version: 6.00 Build 0)  -->
<svg version="1.1" id="Camada_1" xmlns="http://www.w3.org/2000/svg" xmlns:xlink="http://www.w3.org/1999/xlink" x="0px" y="0px"
	 viewBox="0 0 150 100" style="enable-background:new 0 0 150 100;" xml:space="preserve">
<style type="text/css">
	.st0{opacity:0.702;fill:#494849;}
	.st1{fill:#F0F0F0;}
	.st2{fill:#B08027;}
</style>
<g>
	<path class="st0" d="M141.21,66.79c-0.14,0.06-0.28,0.13-0.43,0.19l0.22,0.5l0,0c-0.8,0.35-1.61,0.7-2.43,1.02l0,0
		c-0.01,0-0.02,0.01-0.04,0.01c-0.02,0.01-0.03,0.01-0.05,0.02c0,0,0,0-0.01,0c-0.02,0.01-0.04,0.01-0.05,0.02c0,0-0.01,0-0.01,0
		c-0.01,0-0.01,0.01-0.02,0.01c-7.33,2.91-17.87,5.75-32.14,5.75c0,0,0,0,0,0l0,0l0,0c0,0-0.01,0-0.01,0l0,0h0
		c-9.52,0-20.71-1.26-33.7-4.6l-0.04,0.15c13.29,3.47,24.7,4.78,34.39,4.78h0c0,0,0.01,0,0.01,0c14.39,0,24.98-2.88,32.32-5.82
		c0.82-0.33,1.63-0.67,2.43-1.02L141.21,66.79"/>
	<path class="st1" d="M140.56,66.47c-0.79,0.35-1.58,0.68-2.39,1.01c-7.23,2.89-17.67,5.74-31.91,5.74
		c-9.59,0-20.91-1.29-34.12-4.75l-0.28,1.07c0.23,0.06,0.46,0.12,0.69,0.18c12.99,3.34,24.18,4.6,33.7,4.6h0l0,0c0,0,0.01,0,0.01,0
		l0,0c0,0,0,0,0,0c14.27,0,24.81-2.84,32.14-5.75c0.01,0,0.01-0.01,0.02-0.01c0,0,0.01,0,0.01,0c0.02-0.01,0.04-0.01,0.05-0.02
		c0,0,0,0,0.01,0c0.02-0.01,0.03-0.01,0.05-0.02c0.01,0,0.02-0.01,0.04-0.01l0,0c0.82-0.33,1.63-0.67,2.43-1.02l0,0l-0.22-0.5
		L140.56,66.47"/>
	<path class="st0" d="M7.27,43.83c-0.36,0-0.7-0.02-1.02-0.05c-0.31-0.03-0.58-0.09-0.8-0.16c0-0.44,0.2-1.22,0.6-2.36
		c0.4-1.14,1.05-2.69,1.95-4.67c0.35-0.78,0.7-1.54,1.06-2.28c0.36-0.74,0.7-1.42,1.03-2.05c0.32-0.62,0.61-1.15,0.85-1.59
		c0.24-0.44,0.43-0.74,0.56-0.91c-0.17-0.16-0.49-0.37-0.94-0.64c-0.46-0.27-1.03-0.53-1.72-0.78c0.71-0.22,1.46-0.33,2.24-0.33
		c1.72,0,3.08,0.44,4.09,1.33c1.01,0.89,1.51,2.13,1.51,3.74c0,1.43-0.25,2.8-0.74,4.1c-0.5,1.3-1.17,2.44-2.03,3.42
		c-0.86,0.98-1.86,1.76-3,2.35C9.75,43.54,8.54,43.83,7.27,43.83 M10.06,26.84c-0.99,0-1.92,0.11-2.79,0.34
		c-0.87,0.23-1.63,0.55-2.29,0.97c-0.66,0.42-1.21,0.93-1.64,1.52c-0.43,0.59-0.73,1.25-0.89,1.96c0.09,0.48,0.29,0.88,0.59,1.2
		c0.3,0.32,0.63,0.54,0.99,0.67c0.36-1.25,0.9-2.28,1.61-3.11c0.71-0.83,1.56-1.44,2.55-1.85c-0.11,0.37-0.29,0.91-0.53,1.61
		c-0.24,0.7-0.53,1.5-0.86,2.38c-0.33,0.89-0.69,1.83-1.06,2.82c-0.38,0.99-0.75,1.96-1.11,2.9c-0.36,0.94-0.71,1.82-1.04,2.63
		c-0.33,0.81-0.61,1.47-0.85,1.99c0.46,0.98,1.15,1.72,2.07,2.23c0.92,0.51,2.03,0.76,3.32,0.76c1.4,0,2.74-0.32,4.02-0.95
		c1.28-0.63,2.4-1.48,3.37-2.54c0.97-1.06,1.74-2.28,2.3-3.67c0.57-1.39,0.85-2.84,0.85-4.37c0-1.12-0.21-2.14-0.64-3.06
		c-0.43-0.92-1.02-1.71-1.77-2.36c-0.76-0.65-1.66-1.16-2.72-1.53C12.47,27.03,11.32,26.84,10.06,26.84"/>
	<path class="st0" d="M23.42,33.01c-0.5,0.36-0.98,0.85-1.43,1.48c-0.45,0.63-0.85,1.31-1.22,2.03c-0.36,0.72-0.68,1.46-0.96,2.21
		c-0.28,0.75-0.48,1.42-0.63,2.01c-0.08,0.33-0.13,0.63-0.15,0.91c-0.02,0.28-0.04,0.64-0.04,1.08c0.06,0.28,0.19,0.53,0.37,0.75
		c0.18,0.22,0.39,0.41,0.64,0.56c0.24,0.16,0.5,0.28,0.78,0.36c0.27,0.09,0.54,0.13,0.79,0.13c0.11-0.02,0.26-0.09,0.44-0.21
		c0.18-0.13,0.37-0.3,0.58-0.51c0.13-0.15,0.31-0.4,0.57-0.72c0.25-0.33,0.51-0.66,0.77-1c0.26-0.34,0.5-0.64,0.72-0.89
		c0.22-0.25,0.36-0.37,0.42-0.37c-0.08,0.23-0.12,0.51-0.12,0.84c0,0.26,0.05,0.58,0.15,0.96c0.1,0.37,0.3,0.69,0.6,0.94
		c0.19,0.13,0.39,0.24,0.6,0.35c0.21,0.11,0.43,0.21,0.64,0.29s0.41,0.15,0.58,0.2c0.17,0.05,0.31,0.07,0.42,0.07l0.05-0.02
		l0.05-0.07l-0.08-0.28c-0.06-0.11-0.11-0.25-0.18-0.41c-0.06-0.16-0.12-0.37-0.18-0.61c-0.06-0.24-0.08-0.53-0.08-0.85
		c0-0.61,0.1-1.23,0.31-1.87c0.2-0.64,0.46-1.28,0.76-1.93c0.3-0.65,0.62-1.3,0.97-1.97c0.35-0.67,0.66-1.35,0.95-2.03
		c-0.08-0.09-0.2-0.18-0.35-0.27c-0.16-0.08-0.34-0.16-0.55-0.23c-0.21-0.07-0.44-0.13-0.67-0.18c-0.24-0.05-0.46-0.07-0.66-0.07
		c-0.27,0.25-0.5,0.52-0.7,0.81c-0.2,0.29-0.37,0.57-0.52,0.85c-0.15,0.28-0.28,0.55-0.38,0.81c-0.1,0.26-0.19,0.48-0.25,0.67
		c-0.13,0.34-0.29,0.69-0.48,1.03c-0.2,0.34-0.41,0.67-0.63,0.99c-0.22,0.32-0.44,0.62-0.65,0.9c-0.21,0.28-0.4,0.53-0.55,0.75
		c-0.65,0.87-1.15,1.52-1.51,1.94c-0.36,0.42-0.66,0.68-0.9,0.77l-0.11-0.14c-0.04-0.06-0.06-0.16-0.06-0.28
		c0-0.2,0.04-0.48,0.11-0.82c0.07-0.34,0.16-0.69,0.27-1.05c0.11-0.36,0.22-0.7,0.33-1.03c0.11-0.33,0.2-0.58,0.28-0.75
		c0.71-1.67,1.35-2.94,1.93-3.83c0.57-0.89,0.93-1.41,1.07-1.57c-0.13-0.14-0.28-0.25-0.46-0.34c-0.18-0.09-0.37-0.16-0.57-0.22
		c-0.2-0.06-0.39-0.1-0.58-0.13C23.73,33.03,23.57,33.01,23.42,33.01"/>
	<path class="st0" d="M36.46,33.41c-0.65,0-1.31,0.28-2.01,0.83c-0.69,0.56-1.33,1.25-1.92,2.08c-0.59,0.83-1.07,1.73-1.45,2.7
		c-0.38,0.97-0.57,1.89-0.57,2.77c0,0.81,0.18,1.48,0.54,2.01s0.83,0.79,1.42,0.79c0.36-0.06,0.76-0.24,1.19-0.55
		c0.43-0.3,0.86-0.69,1.29-1.18c0.43-0.48,0.84-1.04,1.25-1.66c0.41-0.63,0.77-1.3,1.09-2.01c-0.6,1.54-0.9,2.76-0.9,3.65
		c0,1.15,0.43,1.73,1.28,1.73c0.24,0,0.5-0.04,0.8-0.12c0.3-0.08,0.54-0.18,0.73-0.3c-0.22-0.13-0.38-0.33-0.47-0.62
		c-0.09-0.29-0.14-0.65-0.14-1.09c0-0.39,0.05-0.85,0.15-1.38s0.25-1.1,0.44-1.71c0.19-0.61,0.42-1.24,0.69-1.9
		c0.27-0.66,0.56-1.32,0.87-1.97c0-0.08-0.06-0.16-0.18-0.26s-0.26-0.18-0.44-0.27c-0.17-0.09-0.37-0.16-0.58-0.21
		c-0.21-0.05-0.4-0.08-0.56-0.08c-0.17,0.36-0.36,0.73-0.56,1.11c-0.2,0.38-0.4,0.76-0.6,1.13c-0.2,0.37-0.41,0.73-0.6,1.07
		c-0.2,0.34-0.37,0.65-0.53,0.93c-0.85,1.42-1.57,2.47-2.17,3.14c-0.6,0.68-1.13,1.06-1.58,1.16c-0.22-0.08-0.33-0.26-0.33-0.56
		c0-0.72,0.17-1.48,0.52-2.31c0.35-0.82,0.79-1.6,1.33-2.32c0.54-0.72,1.15-1.34,1.82-1.85c0.67-0.51,1.32-0.82,1.95-0.91
		c-0.02-0.14-0.09-0.31-0.21-0.5c-0.13-0.19-0.28-0.38-0.46-0.57c-0.18-0.19-0.37-0.35-0.57-0.49
		C36.8,33.55,36.62,33.46,36.46,33.41"/>
	<path class="st0" d="M45.27,32.87c-0.19,0.19-0.36,0.42-0.52,0.69c-0.16,0.27-0.34,0.65-0.54,1.13c-0.28,0.67-0.58,1.43-0.87,2.27
		c-0.3,0.84-0.58,1.68-0.85,2.51c-0.27,0.83-0.5,1.62-0.7,2.36c-0.2,0.74-0.33,1.34-0.41,1.79c0.05,0.13,0.15,0.26,0.31,0.4
		c0.16,0.14,0.33,0.27,0.53,0.4c0.2,0.12,0.39,0.23,0.59,0.32c0.2,0.09,0.37,0.14,0.51,0.15c0.24-1.07,0.48-2,0.74-2.78
		c0.26-0.78,0.57-1.47,0.94-2.07c0.37-0.6,0.81-1.15,1.33-1.64s1.15-0.99,1.89-1.51c0.16,0.45,0.4,0.87,0.73,1.25
		c0.33,0.38,0.71,0.68,1.13,0.9c0.24-0.23,0.45-0.48,0.65-0.75c0.2-0.26,0.3-0.44,0.32-0.54c-0.21-0.34-0.31-0.86-0.31-1.54
		c0-0.73,0.14-1.47,0.42-2.22c-0.08-0.12-0.22-0.22-0.42-0.29c-0.2-0.07-0.42-0.1-0.64-0.1c-0.24,0-0.4,0.04-0.5,0.12
		c-0.57,0.84-1.18,1.6-1.83,2.29c-0.65,0.69-1.41,1.4-2.26,2.15c0.33-1,0.66-1.81,0.98-2.45c0.32-0.64,0.7-1.21,1.12-1.71
		c-0.09-0.11-0.23-0.22-0.4-0.34s-0.37-0.23-0.59-0.34c-0.22-0.11-0.45-0.2-0.68-0.28C45.72,32.96,45.49,32.91,45.27,32.87"/>
	<path class="st0" d="M57.6,29.77c-0.13,0.08-0.3,0.25-0.53,0.51c-0.23,0.26-0.47,0.58-0.73,0.96c-0.26,0.38-0.53,0.79-0.8,1.25
		c-0.28,0.45-0.53,0.91-0.77,1.37c-0.31,0-0.66,0-1.04,0c-0.38,0-0.77-0.03-1.18-0.09c0,0.22,0.03,0.48,0.09,0.78
		c0.06,0.3,0.13,0.5,0.21,0.6h1.35c-0.3,0.72-0.58,1.44-0.83,2.18c-0.25,0.73-0.47,1.44-0.66,2.11c-0.19,0.67-0.33,1.29-0.44,1.86
		c-0.1,0.57-0.15,1.04-0.15,1.42c0,0.28,0.1,0.57,0.31,0.85c0.2,0.29,0.47,0.55,0.79,0.78c0.32,0.23,0.68,0.43,1.08,0.58
		c0.39,0.16,0.79,0.23,1.18,0.23c0.13-0.02,0.31-0.09,0.57-0.21c0.25-0.13,0.51-0.28,0.78-0.45c0.27-0.18,0.52-0.36,0.74-0.54
		c0.23-0.19,0.39-0.35,0.48-0.49c-0.02-0.09-0.07-0.21-0.17-0.35c-0.33,0.27-0.71,0.48-1.13,0.65c-0.42,0.17-0.87,0.29-1.35,0.35
		c-0.52-0.08-0.78-0.46-0.78-1.15c0-0.48,0.06-1.03,0.18-1.64c0.12-0.61,0.28-1.26,0.5-1.94c0.21-0.69,0.47-1.4,0.78-2.14
		c0.31-0.74,0.66-1.49,1.05-2.24c1.1,0,2.04-0.15,2.81-0.44c0-0.13-0.02-0.25-0.07-0.36l-0.19-0.29c-0.33,0.05-0.66,0.07-0.98,0.07
		c-0.32,0-0.64,0-0.96,0c0.39-0.65,0.76-1.23,1.1-1.73s0.74-1.05,1.22-1.64c-0.08-0.09-0.22-0.19-0.42-0.28
		c-0.2-0.09-0.43-0.18-0.69-0.27c-0.25-0.09-0.5-0.16-0.74-0.21C57.96,29.79,57.76,29.77,57.6,29.77"/>
	<path class="st0" d="M62.11,40.47c0.19-0.72,0.45-1.39,0.78-2.01c0.33-0.62,0.7-1.17,1.1-1.64c0.4-0.47,0.83-0.84,1.29-1.12
		c0.46-0.28,0.9-0.45,1.32-0.51c-0.06,1.08-0.51,2.07-1.35,2.98C64.42,39.08,63.37,39.85,62.11,40.47 M66.2,33.08
		c-0.52,0-1.04,0.12-1.57,0.35c-0.53,0.23-1.04,0.55-1.53,0.96c-0.5,0.41-0.96,0.88-1.39,1.43c-0.43,0.54-0.81,1.12-1.13,1.74
		c-0.32,0.62-0.58,1.25-0.76,1.92c-0.18,0.66-0.27,1.31-0.27,1.95c0,0.93,0.3,1.73,0.91,2.4c0.61,0.66,1.45,1.05,2.54,1.18
		c0.76-0.17,1.55-0.56,2.4-1.18c0.84-0.62,1.62-1.39,2.33-2.33c-0.11-0.12-0.24-0.26-0.4-0.4c-0.25,0.26-0.54,0.56-0.86,0.88
		c-0.32,0.32-0.67,0.62-1.04,0.89c-0.37,0.27-0.76,0.5-1.17,0.69c-0.41,0.19-0.83,0.28-1.25,0.28c-0.22,0-0.4-0.06-0.54-0.18
		c-0.14-0.12-0.25-0.27-0.33-0.46c-0.08-0.19-0.13-0.39-0.17-0.61c-0.03-0.22-0.05-0.43-0.05-0.63l0.01-0.32l0.01-0.29
		c1.01-0.39,1.89-0.79,2.65-1.21c0.76-0.42,1.4-0.89,1.93-1.41c0.53-0.52,0.93-1.13,1.22-1.82c0.28-0.69,0.46-1.52,0.52-2.49
		C67.6,33.62,66.92,33.18,66.2,33.08"/>
	<path class="st0" d="M72.76,24.65c0.09,0.75,0.14,1.43,0.14,2.06c0,0.83-0.09,1.57-0.26,2.23c-0.17,0.66-0.46,1.32-0.85,1.98
		c0,0.16,0.04,0.32,0.12,0.5c0.08,0.18,0.17,0.31,0.26,0.39c2.03-1.06,3.35-2.89,3.94-5.49c-0.05-0.19-0.17-0.38-0.38-0.57
		c-0.21-0.19-0.46-0.37-0.77-0.51c-0.31-0.15-0.65-0.27-1.04-0.37C73.54,24.75,73.15,24.68,72.76,24.65"/>
	<path class="st0" d="M73.37,45.41c-0.31-0.22-0.47-0.5-0.47-0.84c0-0.27,0.11-0.58,0.33-0.93c0.22-0.36,0.5-0.71,0.83-1.04
		c0.33-0.33,0.68-0.62,1.06-0.86c0.38-0.24,0.72-0.39,1.04-0.43c0,0.41-0.07,0.82-0.22,1.24c-0.15,0.42-0.35,0.82-0.6,1.19
		c-0.25,0.37-0.55,0.71-0.89,1C74.11,45.03,73.75,45.26,73.37,45.41 M78.45,32.02c-0.41,0.09-0.8,0.27-1.18,0.52
		c-0.38,0.25-0.71,0.55-0.99,0.9c-0.28,0.35-0.51,0.73-0.69,1.15c-0.17,0.42-0.26,0.83-0.26,1.26c0,0.33,0.04,0.66,0.12,1
		c0.08,0.34,0.16,0.68,0.25,1.03c0.09,0.35,0.17,0.72,0.25,1.09c0.08,0.38,0.12,0.76,0.12,1.15c-0.69,0-1.33,0.13-1.93,0.39
		c-0.59,0.26-1.1,0.6-1.54,1.01c-0.43,0.42-0.78,0.9-1.03,1.44c-0.25,0.54-0.38,1.11-0.38,1.71c0.06,0.22,0.17,0.43,0.33,0.64
		c0.16,0.21,0.34,0.4,0.55,0.57c0.21,0.17,0.44,0.31,0.67,0.42c0.24,0.11,0.46,0.17,0.69,0.19c1.27-0.13,2.27-0.58,2.99-1.38
		c0.72-0.79,1.07-1.84,1.07-3.14c0-0.19,0-0.34-0.01-0.46c-0.01-0.12-0.01-0.25-0.01-0.37l0.04-0.22l0.2-0.15
		c0.11-0.05,0.27-0.1,0.48-0.15c0.21-0.05,0.5-0.12,0.86-0.2c0.06-0.06,0.09-0.16,0.09-0.3l-0.02-0.19c-0.25,0-0.51,0-0.77,0
		c-0.26,0-0.56,0-0.89,0c-0.02-0.03-0.02-0.12-0.02-0.28c0-1.5,0.17-2.64,0.5-3.42c0.33-0.77,0.81-1.16,1.44-1.16
		c0.17,0,0.31,0.07,0.41,0.22c0.1,0.15,0.15,0.33,0.15,0.55c0,0.09-0.02,0.2-0.06,0.33c-0.04,0.12-0.08,0.25-0.13,0.37
		c-0.05,0.13-0.09,0.24-0.13,0.34l-0.06,0.22c0.03,0.22,0.13,0.34,0.31,0.35c0.13,0,0.26-0.08,0.4-0.26
		c0.14-0.17,0.27-0.38,0.4-0.64c0.13-0.26,0.23-0.54,0.32-0.87c0.09-0.32,0.14-0.63,0.15-0.92c-0.05-0.19-0.18-0.42-0.4-0.71
		c-0.22-0.29-0.47-0.57-0.76-0.85c-0.28-0.28-0.57-0.53-0.86-0.76C78.86,32.2,78.63,32.07,78.45,32.02"/>
	<path class="st2" d="M2.08,42.55c0.24-0.51,0.52-1.18,0.85-1.99c0.33-0.81,0.68-1.69,1.04-2.63c0.36-0.94,0.73-1.91,1.11-2.9
		c0.38-0.99,0.73-1.93,1.06-2.82c0.33-0.89,0.62-1.68,0.86-2.38c0.24-0.7,0.42-1.24,0.53-1.61c-0.99,0.41-1.84,1.02-2.55,1.85
		c-0.71,0.83-1.24,1.86-1.61,3.11c-0.36-0.12-0.69-0.35-0.99-0.67c-0.3-0.32-0.5-0.72-0.59-1.2c0.16-0.72,0.45-1.37,0.89-1.96
		c0.43-0.59,0.98-1.1,1.64-1.52c0.66-0.42,1.42-0.74,2.29-0.97c0.87-0.23,1.8-0.34,2.79-0.34c1.26,0,2.42,0.18,3.47,0.55
		c1.05,0.37,1.96,0.88,2.72,1.53c0.76,0.65,1.35,1.44,1.77,2.36C17.79,31.88,18,32.9,18,34.02c0,1.53-0.28,2.98-0.85,4.37
		s-1.33,2.61-2.3,3.67c-0.97,1.06-2.09,1.9-3.36,2.54c-1.28,0.63-2.61,0.95-4.02,0.95c-1.29,0-2.4-0.25-3.32-0.76
		C3.22,44.27,2.54,43.53,2.08,42.55z M10.42,27.69c-0.79,0-1.53,0.11-2.24,0.33c0.69,0.25,1.27,0.51,1.72,0.78s0.77,0.49,0.94,0.64
		c-0.13,0.17-0.31,0.48-0.56,0.91c-0.24,0.44-0.53,0.97-0.85,1.59c-0.32,0.62-0.67,1.31-1.03,2.05c-0.36,0.74-0.72,1.5-1.06,2.28
		c-0.9,1.98-1.55,3.54-1.95,4.67C5,42.07,4.8,42.86,4.8,43.3c0.22,0.08,0.49,0.13,0.8,0.16c0.32,0.03,0.65,0.05,1.02,0.05
		c1.27,0,2.48-0.29,3.63-0.88c1.14-0.58,2.14-1.37,3-2.35c0.86-0.98,1.53-2.12,2.03-3.42c0.5-1.3,0.74-2.67,0.74-4.1
		c0-1.6-0.5-2.85-1.51-3.74C13.5,28.13,12.13,27.69,10.42,27.69z"/>
	<path class="st2" d="M25.06,43.25c-0.3-0.25-0.5-0.56-0.6-0.93c-0.1-0.37-0.15-0.69-0.15-0.96c0-0.33,0.04-0.61,0.12-0.84
		c-0.06,0-0.21,0.12-0.42,0.37c-0.22,0.25-0.46,0.54-0.72,0.89c-0.26,0.34-0.52,0.68-0.77,1s-0.44,0.57-0.57,0.72
		c-0.2,0.22-0.4,0.39-0.58,0.51c-0.18,0.12-0.33,0.19-0.44,0.21c-0.25,0-0.52-0.04-0.79-0.13c-0.28-0.09-0.54-0.21-0.78-0.36
		c-0.24-0.16-0.46-0.35-0.64-0.56s-0.3-0.47-0.37-0.75c0-0.44,0.01-0.79,0.04-1.07c0.02-0.28,0.07-0.58,0.15-0.91
		c0.14-0.59,0.35-1.26,0.63-2.01c0.27-0.75,0.59-1.48,0.96-2.21c0.36-0.72,0.77-1.4,1.22-2.03c0.45-0.63,0.92-1.13,1.43-1.48
		c0.14,0,0.31,0.01,0.5,0.04c0.19,0.02,0.38,0.07,0.58,0.13c0.2,0.06,0.39,0.14,0.57,0.22c0.18,0.09,0.33,0.2,0.46,0.34
		c-0.14,0.16-0.5,0.68-1.08,1.57c-0.58,0.89-1.22,2.17-1.92,3.83c-0.08,0.17-0.17,0.42-0.28,0.75c-0.11,0.33-0.22,0.67-0.33,1.03
		c-0.11,0.36-0.2,0.71-0.27,1.05c-0.07,0.34-0.11,0.62-0.11,0.82c0,0.12,0.02,0.22,0.06,0.28l0.11,0.14
		c0.24-0.09,0.54-0.35,0.9-0.77c0.36-0.42,0.87-1.07,1.51-1.94c0.16-0.22,0.34-0.47,0.55-0.75c0.21-0.28,0.43-0.58,0.65-0.9
		c0.22-0.32,0.43-0.65,0.63-0.99c0.2-0.34,0.36-0.69,0.48-1.03c0.06-0.19,0.15-0.41,0.25-0.67s0.23-0.53,0.38-0.81
		c0.15-0.28,0.32-0.56,0.52-0.85c0.2-0.29,0.43-0.56,0.7-0.81c0.2,0,0.43,0.02,0.66,0.07c0.24,0.05,0.46,0.11,0.67,0.18
		c0.21,0.07,0.4,0.15,0.55,0.23c0.16,0.09,0.28,0.18,0.35,0.27c-0.28,0.69-0.6,1.36-0.94,2.03c-0.35,0.67-0.67,1.33-0.97,1.98
		c-0.3,0.65-0.55,1.29-0.76,1.93c-0.21,0.64-0.31,1.26-0.31,1.87c0,0.33,0.03,0.61,0.08,0.85c0.06,0.24,0.11,0.44,0.18,0.61
		c0.06,0.16,0.12,0.3,0.18,0.41l0.08,0.28l-0.05,0.07l-0.05,0.02c-0.11,0-0.25-0.02-0.42-0.07c-0.17-0.05-0.37-0.11-0.58-0.2
		c-0.21-0.09-0.42-0.18-0.64-0.29C25.45,43.49,25.25,43.37,25.06,43.25z"/>
	<path class="st2" d="M38.33,34.32c0.16,0,0.34,0.03,0.56,0.08c0.21,0.05,0.4,0.12,0.58,0.21c0.17,0.09,0.32,0.18,0.44,0.27
		c0.12,0.09,0.18,0.18,0.18,0.26c-0.32,0.65-0.61,1.31-0.87,1.97c-0.27,0.66-0.5,1.3-0.69,1.9c-0.19,0.61-0.33,1.18-0.44,1.71
		c-0.1,0.53-0.15,0.99-0.15,1.38c0,0.44,0.05,0.8,0.14,1.09s0.25,0.49,0.47,0.62c-0.19,0.12-0.43,0.23-0.73,0.3
		c-0.3,0.08-0.57,0.12-0.8,0.12c-0.85,0-1.28-0.58-1.28-1.73c0-0.89,0.3-2.1,0.9-3.65c-0.32,0.71-0.68,1.39-1.09,2.01
		c-0.41,0.63-0.83,1.18-1.25,1.66c-0.42,0.48-0.85,0.87-1.29,1.18c-0.43,0.3-0.83,0.48-1.19,0.55c-0.58,0-1.06-0.26-1.42-0.79
		c-0.36-0.52-0.54-1.19-0.54-2.01c0-0.88,0.19-1.8,0.57-2.77c0.38-0.97,0.86-1.87,1.45-2.7s1.23-1.52,1.93-2.08
		c0.69-0.56,1.36-0.83,2.01-0.83c0.16,0.05,0.33,0.14,0.53,0.28c0.2,0.14,0.39,0.3,0.57,0.49c0.18,0.19,0.33,0.38,0.46,0.57
		c0.13,0.19,0.2,0.36,0.21,0.5c-0.63,0.09-1.28,0.4-1.95,0.91c-0.67,0.51-1.27,1.13-1.82,1.85c-0.54,0.72-0.99,1.5-1.33,2.32
		c-0.35,0.82-0.52,1.59-0.52,2.31c0,0.29,0.11,0.48,0.33,0.56c0.46-0.09,0.98-0.48,1.58-1.16c0.6-0.68,1.32-1.73,2.17-3.14
		c0.16-0.28,0.33-0.59,0.53-0.93c0.2-0.34,0.4-0.7,0.6-1.07c0.21-0.37,0.41-0.75,0.6-1.13C37.98,35.05,38.16,34.68,38.33,34.32z"/>
	<path class="st2" d="M40.72,43.3c0.08-0.45,0.22-1.05,0.41-1.79c0.2-0.74,0.43-1.53,0.7-2.36c0.27-0.83,0.55-1.67,0.85-2.51
		c0.3-0.84,0.59-1.6,0.87-2.27c0.2-0.48,0.39-0.86,0.54-1.13s0.33-0.5,0.52-0.69c0.22,0.03,0.45,0.09,0.69,0.16
		c0.24,0.08,0.46,0.17,0.68,0.28c0.22,0.11,0.42,0.22,0.59,0.34c0.17,0.12,0.31,0.23,0.4,0.34c-0.43,0.5-0.8,1.07-1.12,1.71
		c-0.32,0.64-0.65,1.46-0.98,2.45c0.85-0.75,1.6-1.46,2.26-2.15c0.65-0.69,1.26-1.45,1.83-2.29c0.09-0.08,0.26-0.12,0.5-0.12
		c0.22,0,0.43,0.03,0.64,0.1c0.2,0.07,0.35,0.17,0.42,0.29c-0.28,0.75-0.42,1.49-0.42,2.22c0,0.69,0.1,1.2,0.31,1.54
		c-0.02,0.09-0.12,0.27-0.32,0.54c-0.2,0.27-0.41,0.51-0.65,0.75c-0.42-0.22-0.8-0.52-1.13-0.9c-0.33-0.38-0.58-0.8-0.73-1.25
		c-0.74,0.51-1.37,1.02-1.89,1.51s-0.96,1.04-1.33,1.64c-0.37,0.6-0.69,1.29-0.94,2.07c-0.26,0.78-0.51,1.71-0.74,2.78
		c-0.14-0.02-0.31-0.07-0.51-0.15c-0.2-0.09-0.39-0.19-0.59-0.32c-0.2-0.13-0.37-0.26-0.53-0.4C40.87,43.55,40.77,43.42,40.72,43.3z
		"/>
	<path class="st2" d="M52.2,34.81c-0.08-0.09-0.15-0.29-0.21-0.6s-0.09-0.56-0.09-0.78c0.41,0.06,0.8,0.09,1.18,0.09s0.72,0,1.04,0
		c0.24-0.46,0.49-0.92,0.77-1.37c0.28-0.45,0.54-0.87,0.8-1.25c0.26-0.38,0.5-0.7,0.73-0.96c0.23-0.26,0.4-0.43,0.53-0.51
		c0.16,0,0.36,0.03,0.6,0.08c0.24,0.06,0.49,0.13,0.74,0.21c0.25,0.09,0.48,0.18,0.69,0.27c0.2,0.09,0.35,0.19,0.42,0.28
		c-0.47,0.59-0.88,1.13-1.22,1.64c-0.34,0.5-0.7,1.08-1.1,1.73c0.31,0,0.63,0,0.96,0c0.32,0,0.65-0.02,0.98-0.07l0.19,0.29
		c0.05,0.12,0.07,0.24,0.07,0.36c-0.77,0.3-1.71,0.44-2.81,0.44c-0.39,0.75-0.74,1.5-1.05,2.24c-0.31,0.74-0.57,1.46-0.78,2.14
		c-0.21,0.69-0.38,1.34-0.5,1.94c-0.12,0.61-0.18,1.16-0.18,1.64c0,0.69,0.26,1.07,0.78,1.15c0.47-0.06,0.92-0.18,1.35-0.35
		c0.43-0.17,0.8-0.39,1.13-0.65c0.09,0.14,0.15,0.26,0.17,0.35c-0.09,0.14-0.26,0.3-0.48,0.49c-0.23,0.19-0.48,0.37-0.74,0.54
		c-0.27,0.18-0.53,0.33-0.78,0.45c-0.25,0.12-0.44,0.19-0.57,0.21c-0.39,0-0.79-0.08-1.18-0.23c-0.39-0.16-0.75-0.35-1.07-0.59
		c-0.32-0.23-0.59-0.5-0.79-0.78s-0.31-0.57-0.31-0.85c0-0.37,0.05-0.85,0.15-1.42c0.1-0.57,0.25-1.19,0.44-1.86
		c0.19-0.67,0.41-1.37,0.66-2.11c0.25-0.73,0.53-1.46,0.83-2.18H52.2z"/>
	<path class="st2" d="M67.57,34.09c-0.06,0.97-0.24,1.8-0.52,2.49c-0.28,0.69-0.69,1.3-1.22,1.82c-0.53,0.52-1.17,0.99-1.92,1.41
		c-0.76,0.42-1.64,0.83-2.65,1.21l-0.01,0.29l-0.01,0.32c0,0.2,0.02,0.41,0.05,0.63c0.03,0.22,0.09,0.42,0.17,0.61
		c0.08,0.19,0.19,0.34,0.33,0.46c0.14,0.12,0.32,0.18,0.54,0.18c0.42,0,0.84-0.09,1.25-0.28c0.41-0.19,0.8-0.42,1.17-0.69
		c0.37-0.27,0.72-0.57,1.04-0.89c0.32-0.32,0.61-0.61,0.86-0.88c0.16,0.14,0.29,0.27,0.4,0.4c-0.71,0.94-1.48,1.71-2.33,2.33
		c-0.84,0.62-1.64,1.01-2.4,1.18c-1.09-0.13-1.93-0.52-2.54-1.18c-0.61-0.66-0.91-1.46-0.91-2.4c0-0.64,0.09-1.29,0.27-1.95
		s0.43-1.3,0.76-1.92c0.32-0.62,0.7-1.2,1.13-1.74c0.43-0.55,0.9-1.02,1.39-1.43c0.5-0.4,1.01-0.72,1.53-0.96
		c0.53-0.23,1.05-0.35,1.57-0.35C66.26,32.85,66.94,33.29,67.57,34.09z M65.94,34.86c-0.43,0.06-0.87,0.23-1.32,0.51
		c-0.46,0.28-0.89,0.65-1.29,1.12c-0.4,0.47-0.77,1.01-1.1,1.64c-0.33,0.62-0.59,1.29-0.78,2.01c1.26-0.62,2.31-1.39,3.14-2.3
		C65.43,36.93,65.88,35.94,65.94,34.86z"/>
	<path class="st2" d="M71.52,31.47c-0.09-0.08-0.18-0.21-0.26-0.39c-0.08-0.18-0.12-0.35-0.12-0.5c0.39-0.65,0.68-1.31,0.85-1.98
		c0.17-0.66,0.26-1.41,0.26-2.23c0-0.62-0.05-1.31-0.14-2.06c0.39,0.03,0.78,0.1,1.17,0.2c0.39,0.1,0.73,0.23,1.04,0.37
		c0.31,0.15,0.56,0.32,0.77,0.51s0.33,0.39,0.38,0.57C74.86,28.58,73.55,30.41,71.52,31.47z"/>
	<path class="st2" d="M80.51,34.43c-0.02,0.3-0.07,0.6-0.15,0.92c-0.09,0.32-0.19,0.61-0.32,0.86c-0.13,0.26-0.26,0.47-0.4,0.64
		c-0.14,0.17-0.28,0.26-0.4,0.26c-0.17-0.02-0.28-0.13-0.31-0.35l0.06-0.22c0.04-0.1,0.08-0.21,0.13-0.34
		c0.05-0.12,0.09-0.25,0.13-0.37c0.04-0.12,0.06-0.23,0.06-0.33c0-0.22-0.05-0.4-0.15-0.55c-0.1-0.15-0.24-0.22-0.41-0.22
		c-0.63,0-1.11,0.39-1.44,1.16c-0.33,0.78-0.5,1.92-0.5,3.42c0,0.16,0.01,0.25,0.02,0.28c0.33,0,0.63,0,0.89,0s0.52,0,0.77,0
		l0.02,0.19c0,0.14-0.03,0.24-0.09,0.3c-0.36,0.08-0.65,0.14-0.86,0.2c-0.21,0.05-0.37,0.1-0.48,0.15l-0.2,0.15l-0.04,0.22
		c0,0.12,0,0.25,0.01,0.37c0.01,0.12,0.01,0.28,0.01,0.46c0,1.3-0.36,2.35-1.07,3.14c-0.72,0.79-1.71,1.25-2.99,1.38
		c-0.22-0.02-0.45-0.08-0.69-0.19c-0.24-0.11-0.46-0.25-0.67-0.42s-0.4-0.36-0.55-0.57c-0.16-0.21-0.27-0.42-0.33-0.64
		c0-0.6,0.13-1.17,0.38-1.71c0.25-0.54,0.6-1.02,1.03-1.44c0.43-0.42,0.95-0.75,1.54-1.01c0.59-0.26,1.23-0.39,1.93-0.39
		c0-0.39-0.04-0.77-0.12-1.15c-0.08-0.38-0.16-0.74-0.25-1.09c-0.09-0.35-0.17-0.7-0.25-1.03c-0.08-0.34-0.12-0.67-0.12-1
		c0-0.42,0.09-0.84,0.26-1.26c0.17-0.41,0.4-0.8,0.69-1.15c0.28-0.35,0.61-0.65,0.99-0.9c0.38-0.25,0.77-0.42,1.18-0.52
		c0.17,0.05,0.4,0.18,0.7,0.41c0.29,0.23,0.58,0.48,0.86,0.76c0.28,0.28,0.54,0.56,0.76,0.85C80.33,34,80.47,34.24,80.51,34.43z
		 M72.72,45.08c0.38-0.16,0.74-0.38,1.07-0.68c0.34-0.3,0.63-0.63,0.89-1c0.25-0.37,0.45-0.77,0.6-1.19
		c0.15-0.42,0.22-0.83,0.22-1.24c-0.31,0.05-0.66,0.19-1.04,0.43c-0.38,0.24-0.73,0.53-1.06,0.86c-0.33,0.33-0.61,0.68-0.83,1.04
		c-0.22,0.36-0.33,0.67-0.33,0.94C72.25,44.58,72.4,44.86,72.72,45.08z"/>
	<path class="st0" d="M73.78,52.25l-0.29,0.03l-0.3,0.05c-0.16,0.04-0.3,0.08-0.43,0.13c-0.26,0.08-0.47,0.19-0.63,0.32
		c0.1,0.39,0.16,0.83,0.2,1.33s0.05,0.95,0.05,1.38c0,0.5-0.02,1.01-0.05,1.52c-0.05,0.62-0.14,1.32-0.29,2.09
		c-0.14,0.77-0.33,1.55-0.55,2.35c-0.22,0.79-0.47,1.57-0.73,2.32s-0.55,1.42-0.83,2.02c-0.29,0.59-0.58,1.07-0.87,1.42
		c-0.29,0.36-0.57,0.54-0.83,0.54c-0.23,0-0.42-0.19-0.58-0.58c-0.16-0.39-0.27-0.94-0.34-1.65c-0.07-0.71-0.07-1.56-0.03-2.56
		c0.05-1,0.18-2.11,0.39-3.34c0.13-0.47,0.27-0.95,0.41-1.46c0.14-0.51,0.27-1.01,0.39-1.5c0.11-0.5,0.21-0.96,0.3-1.4
		s0.14-0.81,0.16-1.12c0.01-0.24-0.02-0.43-0.09-0.57c-0.07-0.14-0.19-0.21-0.36-0.21c-0.24,0.01-0.52,0.17-0.84,0.47
		s-0.6,0.78-0.84,1.42c-0.12,0.33-0.22,0.7-0.29,1.1c-0.07,0.4-0.13,0.81-0.17,1.22c-0.04,0.41-0.07,0.82-0.08,1.22
		c-0.01,0.4-0.02,0.78-0.02,1.14c-0.1,0.29-0.2,0.61-0.32,0.96c-0.12,0.35-0.24,0.71-0.37,1.07s-0.25,0.71-0.38,1.05
		c-0.13,0.34-0.24,0.65-0.35,0.92c-0.18,0.43-0.37,0.87-0.57,1.31s-0.41,0.84-0.62,1.2c-0.21,0.36-0.42,0.65-0.62,0.88
		c-0.2,0.23-0.39,0.34-0.57,0.34c-0.37,0-0.66-0.36-0.86-1.08c-0.2-0.72-0.26-1.82-0.16-3.29c0.06-0.73,0.18-1.51,0.35-2.34
		c0.17-0.83,0.38-1.65,0.61-2.45c0.23-0.81,0.48-1.57,0.74-2.28c0.26-0.72,0.51-1.33,0.75-1.83c0.11-0.25,0.23-0.48,0.36-0.7
		c0.11-0.19,0.22-0.37,0.35-0.55s0.25-0.3,0.39-0.39l-0.25-0.11l-0.29-0.05c-0.11-0.01-0.22-0.02-0.34-0.02
		c-0.14,0-0.3,0.02-0.46,0.04c-0.16,0.03-0.31,0.07-0.45,0.12c-0.14,0.05-0.26,0.11-0.36,0.17l-0.21,0.19
		c-0.02,0.05-0.09,0.21-0.21,0.5c-0.11,0.29-0.26,0.67-0.43,1.14c-0.17,0.47-0.36,1.01-0.56,1.62c-0.2,0.61-0.39,1.26-0.57,1.94
		c-0.18,0.69-0.34,1.4-0.48,2.13c-0.14,0.73-0.24,1.45-0.29,2.16c-0.08,1.06-0.09,2.01-0.01,2.84c0.08,0.83,0.21,1.53,0.39,2.1
		c0.19,0.57,0.42,1,0.72,1.31c0.29,0.3,0.61,0.46,0.96,0.46c0.35,0,0.7-0.15,1.05-0.44c0.35-0.29,0.7-0.68,1.04-1.16
		c0.34-0.48,0.67-1.04,0.99-1.66c0.32-0.62,0.61-1.27,0.89-1.93c-0.01,0.51,0,1.07,0.04,1.68c0.04,0.61,0.12,1.18,0.25,1.71
		c0.13,0.53,0.32,0.97,0.57,1.33c0.25,0.35,0.58,0.53,1,0.53c0.39,0,0.81-0.19,1.25-0.55c0.44-0.37,0.87-0.89,1.31-1.56
		s0.86-1.46,1.27-2.37c0.41-0.91,0.79-1.92,1.12-3.01c0.33-1.09,0.62-2.25,0.85-3.47c0.23-1.22,0.4-2.46,0.49-3.73
		c0.02-0.32,0.03-0.63,0.02-0.93c-0.01-0.25-0.03-0.51-0.06-0.77c-0.03-0.26-0.08-0.48-0.15-0.64L73.78,52.25"/>
	<path class="st0" d="M76.07,62.51c0.08-0.5,0.21-0.95,0.38-1.33c0.17-0.39,0.35-0.72,0.54-0.98c0.19-0.27,0.38-0.48,0.58-0.62
		c0.2-0.14,0.37-0.21,0.51-0.21c0.13,0,0.23,0.05,0.3,0.15c0.07,0.1,0.09,0.27,0.07,0.49c-0.02,0.21-0.14,0.47-0.34,0.77
		c-0.2,0.3-0.56,0.64-1.07,1.04c-0.17,0.13-0.33,0.25-0.5,0.37C76.37,62.29,76.22,62.4,76.07,62.51 M78.58,58.34
		c-0.48,0-0.95,0.15-1.42,0.45c-0.47,0.3-0.9,0.67-1.27,1.13c-0.38,0.45-0.69,0.95-0.95,1.5c-0.26,0.54-0.41,1.06-0.46,1.55
		c-0.06,0.6-0.01,1.1,0.13,1.52c0.15,0.42,0.35,0.76,0.6,1.02c0.25,0.26,0.53,0.46,0.83,0.58c0.3,0.13,0.59,0.19,0.85,0.19
		c0.5,0,1.02-0.12,1.55-0.36c0.53-0.24,1.05-0.55,1.56-0.94c0.51-0.39,0.99-0.83,1.44-1.33l0.2-0.22c-0.01-0.24-0.01-0.49,0-0.77
		c0-0.1,0.01-0.2,0.01-0.3c-0.1,0.11-0.21,0.23-0.32,0.36c-0.36,0.39-0.76,0.77-1.18,1.14c-0.42,0.36-0.86,0.67-1.3,0.93
		c-0.44,0.26-0.87,0.39-1.27,0.39c-0.19,0-0.38-0.03-0.56-0.08c-0.19-0.05-0.35-0.14-0.49-0.27c-0.14-0.13-0.26-0.29-0.36-0.49
		c-0.1-0.2-0.15-0.46-0.16-0.75c0.18-0.13,0.39-0.28,0.63-0.44c0.24-0.16,0.49-0.33,0.75-0.51c0.24-0.17,0.49-0.35,0.76-0.56
		c0.27-0.2,0.52-0.43,0.76-0.68c0.24-0.25,0.44-0.53,0.62-0.84c0.17-0.31,0.28-0.65,0.31-1.02c0.02-0.33-0.07-0.62-0.27-0.84
		C79.36,58.45,79.03,58.34,78.58,58.34"/>
	<path class="st0" d="M85.41,52.89c-0.09,0-0.18,0.01-0.28,0.03c-0.14,0.03-0.28,0.08-0.42,0.14c-0.14,0.07-0.27,0.16-0.38,0.29
		c-0.08,0.1-0.21,0.31-0.37,0.65s-0.34,0.75-0.53,1.25c-0.19,0.5-0.39,1.05-0.6,1.67c-0.21,0.62-0.4,1.25-0.56,1.91
		c-0.17,0.66-0.31,1.31-0.43,1.97c-0.1,0.54-0.16,1.07-0.19,1.56c0,0.1-0.01,0.2-0.01,0.3c-0.01,0.28-0.01,0.53,0,0.77
		c0.02,0.51,0.08,0.92,0.18,1.24c0.14,0.47,0.32,0.82,0.52,1.03s0.41,0.34,0.63,0.38c0.22,0.04,0.39,0.05,0.52,0.05
		c0.42,0,0.84-0.15,1.28-0.47c0.44-0.31,0.83-0.7,1.19-1.17c0.36-0.47,0.66-0.99,0.91-1.54c0.25-0.55,0.4-1.07,0.45-1.55
		c0.21,0,0.45-0.02,0.72-0.07c0.26-0.05,0.54-0.11,0.82-0.2c0.29-0.08,0.58-0.19,0.87-0.31c0.29-0.13,0.58-0.27,0.85-0.42l0.21-0.21
		l0.01-0.24l-0.17-0.14l-0.08-0.01c-0.07,0-0.15,0.02-0.24,0.06c-0.47,0.2-0.96,0.37-1.49,0.5c-0.53,0.13-1.03,0.2-1.5,0.21
		c-0.05-0.39-0.14-0.72-0.29-0.98c-0.14-0.26-0.32-0.38-0.52-0.38c-0.13,0-0.28,0.03-0.43,0.09c-0.16,0.06-0.3,0.14-0.43,0.25
		c-0.13,0.11-0.25,0.24-0.34,0.39c-0.1,0.15-0.14,0.31-0.14,0.47c0,0.25,0.08,0.45,0.23,0.6c0.15,0.15,0.35,0.25,0.57,0.31
		c-0.04,0.35-0.13,0.74-0.28,1.17c-0.15,0.44-0.33,0.84-0.54,1.23c-0.21,0.38-0.46,0.71-0.73,0.97c-0.28,0.26-0.56,0.39-0.84,0.39
		c-0.35,0-0.58-0.26-0.7-0.79c-0.12-0.53-0.12-1.22,0-2.08c0.18-0.35,0.38-0.75,0.62-1.22c0.23-0.47,0.47-0.98,0.7-1.55
		c0.23-0.57,0.46-1.18,0.68-1.83c0.22-0.65,0.42-1.33,0.6-2.05c0.2-0.75,0.32-1.37,0.35-1.84c0.03-0.48,0.01-0.74-0.06-0.79
		l-0.25-0.05L85.41,52.89"/>
	<path class="st0" d="M100.42,52.23c-0.42,0-0.9,0.05-1.42,0.16c-0.35,0.07-0.74,0.24-1.19,0.5c-0.45,0.26-0.86,0.6-1.24,1.02
		c-0.38,0.42-0.67,0.9-0.9,1.46c-0.22,0.56-0.28,1.17-0.19,1.84c0.07,0.48,0.21,0.92,0.42,1.33c0.21,0.41,0.45,0.78,0.71,1.13
		c0.26,0.35,0.53,0.67,0.8,0.96s0.5,0.56,0.69,0.81c0.19,0.25,0.38,0.55,0.56,0.91c0.19,0.35,0.33,0.73,0.45,1.14
		c0.11,0.41,0.17,0.83,0.16,1.27c0,0.44-0.11,0.88-0.31,1.31c-0.6,1.36-1.33,2.04-2.18,2.04l-0.04,0c-0.36-0.01-0.64-0.12-0.86-0.33
		c-0.21-0.21-0.38-0.46-0.49-0.75c-0.11-0.29-0.18-0.6-0.2-0.91c-0.02-0.32,0-0.59,0.05-0.82l0.11-0.25
		c0.07-0.18,0.2-0.37,0.38-0.57c-0.12-0.04-0.24-0.06-0.37-0.06l-0.05,0c-0.15,0.01-0.29,0.02-0.42,0.04
		c-0.16,0.04-0.31,0.08-0.46,0.13c-0.13,0.06-0.26,0.13-0.38,0.2l-0.32,0.21l-0.3,0.29c-0.13,0.42-0.16,0.82-0.1,1.21
		c0.07,0.39,0.17,0.73,0.3,1.03c0.14,0.35,0.34,0.67,0.59,0.97c0.22,0.26,0.46,0.46,0.73,0.58c0.27,0.13,0.55,0.21,0.81,0.25
		c0.16,0.02,0.31,0.04,0.46,0.04c0.11,0,0.21-0.01,0.31-0.02c0.25-0.03,0.46-0.06,0.64-0.1c0.23-0.05,0.51-0.15,0.86-0.31
		c0.34-0.16,0.69-0.42,1.03-0.78c0.34-0.36,0.66-0.83,0.94-1.42c0.29-0.59,0.49-1.33,0.63-2.21c0.08-0.61,0.09-1.16,0.02-1.67
		c-0.07-0.5-0.2-0.96-0.38-1.36c-0.18-0.41-0.39-0.77-0.63-1.09c-0.24-0.32-0.48-0.61-0.72-0.87c-0.24-0.26-0.46-0.49-0.66-0.69
		c-0.21-0.2-0.35-0.39-0.45-0.55c-0.07-0.12-0.15-0.26-0.23-0.41c-0.08-0.16-0.16-0.32-0.23-0.5c-0.07-0.18-0.13-0.38-0.17-0.59
		c-0.04-0.21-0.05-0.45-0.03-0.7c0.02-0.31,0.13-0.62,0.31-0.91c0.19-0.3,0.41-0.57,0.67-0.82c0.26-0.24,0.55-0.46,0.87-0.64
		c0.32-0.19,0.62-0.32,0.91-0.41c0.25-0.08,0.47-0.11,0.67-0.11l0.12,0c0.23,0.02,0.41,0.1,0.53,0.24c0.2,0.27,0.33,0.56,0.38,0.86
		c0.05,0.3,0.05,0.6,0.01,0.9c-0.04,0.3-0.11,0.59-0.21,0.87c-0.1,0.28-0.2,0.53-0.3,0.75c-0.1,0.22-0.19,0.41-0.28,0.56
		c-0.08,0.15-0.12,0.24-0.11,0.28l0.25,0.07l0.27,0.02l0.29-0.04c0.34-0.07,0.6-0.15,0.75-0.23c0.15-0.08,0.27-0.16,0.34-0.23
		c0.04-0.02,0.11-0.16,0.22-0.42c0.12-0.26,0.21-0.57,0.29-0.95c0.08-0.38,0.1-0.79,0.08-1.23c-0.03-0.44-0.16-0.86-0.41-1.25
		C102.35,52.61,101.56,52.23,100.42,52.23"/>
	<path class="st0" d="M104.36,62.51c0.08-0.5,0.21-0.95,0.38-1.33c0.17-0.39,0.35-0.72,0.54-0.98c0.19-0.27,0.38-0.48,0.58-0.62
		c0.2-0.14,0.37-0.21,0.51-0.21c0.13,0,0.23,0.05,0.3,0.15c0.07,0.1,0.1,0.27,0.07,0.49c-0.02,0.21-0.14,0.47-0.34,0.77
		c-0.2,0.3-0.56,0.64-1.07,1.04c-0.17,0.13-0.33,0.25-0.5,0.37C104.66,62.29,104.5,62.4,104.36,62.51 M106.87,58.34
		c-0.48,0-0.95,0.15-1.42,0.45c-0.47,0.3-0.9,0.67-1.27,1.13c-0.38,0.45-0.69,0.95-0.95,1.5c-0.26,0.54-0.41,1.06-0.46,1.55
		c-0.06,0.6-0.02,1.1,0.13,1.52c0.15,0.42,0.35,0.76,0.6,1.02c0.25,0.26,0.53,0.46,0.83,0.58c0.3,0.13,0.59,0.19,0.85,0.19
		c0.5,0,1.02-0.12,1.55-0.36c0.53-0.24,1.05-0.55,1.56-0.94c0.18-0.14,0.36-0.29,0.54-0.44c0.07-0.14,0.14-0.28,0.22-0.44
		c0.17-0.35,0.36-0.73,0.56-1.15c0.08-0.17,0.17-0.34,0.25-0.5l-0.24,0.26c-0.37,0.39-0.76,0.77-1.18,1.14
		c-0.42,0.36-0.86,0.67-1.3,0.93c-0.44,0.26-0.87,0.39-1.27,0.39c-0.19,0-0.38-0.03-0.56-0.08c-0.19-0.05-0.35-0.14-0.49-0.27
		c-0.14-0.13-0.26-0.29-0.36-0.49c-0.1-0.2-0.15-0.46-0.16-0.75c0.18-0.13,0.39-0.28,0.63-0.44c0.24-0.16,0.49-0.33,0.75-0.51
		c0.24-0.17,0.49-0.35,0.76-0.56c0.27-0.2,0.52-0.43,0.76-0.68c0.24-0.25,0.45-0.53,0.62-0.84c0.17-0.31,0.28-0.65,0.31-1.02
		c0.02-0.33-0.07-0.62-0.27-0.84C107.65,58.45,107.32,58.34,106.87,58.34"/>
	<path class="st0" d="M112.22,57.35c-0.18,0-0.37,0.08-0.56,0.25s-0.36,0.37-0.52,0.6c-0.15,0.23-0.28,0.47-0.38,0.73
		s-0.13,0.45-0.11,0.61c0.02,0.18,0.06,0.3,0.11,0.35c0.05,0.05,0.14,0.14,0.27,0.26c-0.07,0.13-0.19,0.34-0.34,0.64
		c-0.16,0.29-0.33,0.62-0.51,0.99c-0.11,0.22-0.22,0.44-0.33,0.67c-0.08,0.16-0.16,0.33-0.25,0.5c-0.2,0.41-0.39,0.79-0.56,1.15
		c-0.08,0.16-0.15,0.3-0.22,0.44c-0.08,0.17-0.16,0.33-0.23,0.47c-0.13,0.25-0.21,0.41-0.24,0.48c-0.07,0.14-0.1,0.26-0.07,0.36
		l0.15,0.19l0.27-0.02c0.1-0.04,0.2-0.13,0.28-0.26c0.04-0.05,0.13-0.19,0.28-0.44c0.15-0.25,0.33-0.54,0.55-0.9
		c0.21-0.35,0.44-0.73,0.69-1.14c0.24-0.41,0.48-0.79,0.7-1.17c0.22-0.37,0.42-0.69,0.58-0.97c0.17-0.28,0.28-0.45,0.32-0.54
		l0.3,0.11c0.11,0.05,0.24,0.07,0.39,0.07l0.24-0.01l0.13-0.01l0.09-0.01l0.15-0.01l0.23,0.13l0.07,0.29c0,0.17-0.06,0.37-0.19,0.62
		c-0.13,0.24-0.29,0.54-0.49,0.89c-0.08,0.17-0.18,0.34-0.28,0.51c-0.1,0.17-0.2,0.35-0.29,0.52c-0.09,0.17-0.17,0.34-0.23,0.5
		s-0.1,0.31-0.12,0.46c-0.01,0.18,0.01,0.37,0.06,0.58c0.05,0.21,0.14,0.4,0.27,0.57c0.13,0.17,0.29,0.32,0.49,0.44
		c0.2,0.12,0.46,0.18,0.77,0.18c0.3,0,0.61-0.09,0.94-0.27c0.33-0.18,0.66-0.41,0.99-0.69c0.33-0.28,0.64-0.59,0.94-0.93
		s0.57-0.67,0.81-0.99c-0.03-0.25-0.06-0.51-0.07-0.78c-0.01-0.1-0.01-0.2-0.01-0.29c-0.09,0.12-0.18,0.24-0.28,0.36
		c-0.21,0.27-0.45,0.54-0.7,0.82c-0.25,0.28-0.5,0.54-0.76,0.77c-0.26,0.23-0.51,0.42-0.75,0.57c-0.24,0.15-0.47,0.22-0.67,0.22
		c-0.28,0-0.44-0.05-0.5-0.14c-0.06-0.1-0.1-0.22-0.13-0.38c-0.02-0.24,0.05-0.51,0.21-0.81c0.17-0.3,0.33-0.57,0.5-0.81
		c0.28-0.38,0.51-0.73,0.7-1.06s0.27-0.63,0.23-0.93c-0.01-0.14-0.04-0.3-0.08-0.47c-0.04-0.17-0.11-0.33-0.19-0.48
		s-0.19-0.28-0.32-0.38c-0.13-0.1-0.3-0.15-0.5-0.15c-0.17,0-0.29,0.01-0.37,0.04s-0.21,0.04-0.4,0.04c-0.13,0-0.23-0.02-0.29-0.04
		l-0.14-0.08c0.13-0.19,0.22-0.41,0.27-0.65c0.05-0.24,0.06-0.44,0.04-0.59c-0.02-0.23-0.1-0.45-0.24-0.66
		C112.79,57.46,112.56,57.35,112.22,57.35"/>
	<path class="st0" d="M123.31,58.62c-0.15,0-0.33,0.06-0.53,0.19c-0.2,0.12-0.39,0.3-0.57,0.53c-0.19,0.23-0.35,0.5-0.49,0.83
		c-0.14,0.33-0.23,0.7-0.27,1.1c-0.01,0.26,0.02,0.49,0.09,0.68c-0.2,0.37-0.42,0.73-0.65,1.08c-0.23,0.35-0.45,0.65-0.66,0.91
		c-0.21,0.26-0.39,0.48-0.55,0.64c-0.16,0.16-0.27,0.24-0.33,0.24c-0.05,0-0.11-0.06-0.2-0.18c-0.08-0.12-0.16-0.3-0.23-0.53
		c-0.07-0.23-0.13-0.52-0.16-0.86c-0.04-0.34-0.04-0.74,0-1.19c0.02-0.26,0.06-0.54,0.12-0.82c0.05-0.29,0.11-0.56,0.17-0.82
		c0.06-0.26,0.12-0.5,0.17-0.71c0.05-0.21,0.09-0.37,0.12-0.47c0.04-0.12,0.03-0.21-0.02-0.27l-0.21-0.12l-0.3-0.01l-0.29,0.05
		c-0.19,0.05-0.35,0.11-0.47,0.18c-0.13,0.07-0.23,0.19-0.32,0.34c-0.09,0.15-0.16,0.37-0.22,0.65c-0.06,0.28-0.11,0.65-0.16,1.12
		c-0.03,0.39-0.04,0.82-0.02,1.29c0,0.09,0.01,0.19,0.01,0.29c0.01,0.27,0.04,0.53,0.07,0.78c0.04,0.31,0.09,0.6,0.16,0.88
		c0.13,0.52,0.3,0.96,0.54,1.31c0.23,0.35,0.54,0.53,0.91,0.53c0.15,0,0.36-0.1,0.62-0.31c0.26-0.21,0.54-0.48,0.84-0.82
		c0.3-0.34,0.62-0.73,0.95-1.16c0.33-0.43,0.65-0.87,0.96-1.33c0.12,0.04,0.23,0.06,0.34,0.07l0.27,0.02c0.82,0,1.54-0.16,2.16-0.48
		c0.13-0.07,0.25-0.14,0.37-0.21l0,0c0.02-0.1,0.03-0.2,0.05-0.3c0.03-0.18,0.07-0.36,0.1-0.53c-0.11,0.08-0.23,0.15-0.36,0.22
		c-0.24,0.13-0.53,0.25-0.86,0.34c-0.33,0.1-0.7,0.14-1.1,0.14l-0.25-0.04l-0.2-0.07c0.31-0.51,0.56-0.99,0.76-1.42
		c0.2-0.44,0.31-0.78,0.33-1.03c0.02-0.17,0-0.33-0.08-0.49C123.82,58.7,123.62,58.62,123.31,58.62"/>
	<path class="st0" d="M127.91,58.75l-0.13,0c-0.15,0.01-0.31,0.02-0.49,0.05c-0.18,0.03-0.35,0.07-0.52,0.12
		c-0.17,0.05-0.28,0.11-0.34,0.18c-0.19,0.24-0.36,0.6-0.51,1.09c-0.1,0.33-0.19,0.67-0.26,1.02l0,0l0,0
		c-0.04,0.17-0.07,0.35-0.1,0.53c-0.02,0.1-0.03,0.2-0.05,0.3l0,0c-0.07,0.44-0.12,0.87-0.15,1.3c-0.04,0.52-0.04,0.93,0,1.23
		c0.01,0.2,0.07,0.4,0.18,0.58c0.11,0.19,0.24,0.35,0.4,0.48c0.16,0.14,0.34,0.24,0.54,0.32c0.17,0.07,0.34,0.1,0.52,0.1l0.08,0
		c0.25-0.01,0.58-0.17,0.98-0.47c0.4-0.3,0.81-0.66,1.23-1.08c0.21-0.21,0.4-0.42,0.6-0.64c-0.04-0.26-0.06-0.51-0.06-0.77l0,0l0,0
		c0-0.11,0.01-0.23,0.02-0.36c-0.26,0.29-0.54,0.58-0.84,0.87c-0.38,0.36-0.75,0.68-1.11,0.94c-0.36,0.26-0.67,0.39-0.9,0.39
		l-0.23-0.08c-0.07-0.05-0.14-0.15-0.2-0.3c-0.06-0.12-0.08-0.29-0.05-0.52c0.02-0.23,0.07-0.47,0.13-0.72
		c0.07-0.26,0.14-0.52,0.22-0.79c0.08-0.27,0.16-0.51,0.22-0.72c0.06-0.22,0.15-0.49,0.27-0.83c0.12-0.34,0.23-0.67,0.34-0.99
		c0.11-0.32,0.2-0.6,0.27-0.84c0.07-0.24,0.1-0.36,0.09-0.38L127.91,58.75 M128.42,54.06l-0.09,0.01c-0.13,0.02-0.29,0.11-0.47,0.24
		c-0.18,0.14-0.33,0.3-0.45,0.5c-0.12,0.2-0.17,0.41-0.16,0.63c0.01,0.22,0.14,0.43,0.39,0.62l0.23,0.08l0.09-0.01
		c0.13-0.02,0.26-0.07,0.38-0.15c0.13-0.08,0.24-0.18,0.34-0.3c0.1-0.13,0.17-0.25,0.21-0.38c0.04-0.12,0.05-0.26,0.04-0.41
		c-0.01-0.16-0.03-0.3-0.08-0.42c-0.05-0.13-0.12-0.23-0.21-0.3C128.59,54.09,128.51,54.06,128.42,54.06"/>
	<path class="st0" d="M129.84,62.74L129.84,62.74c-0.01,0.13-0.02,0.25-0.02,0.36l0,0C129.81,62.99,129.82,62.87,129.84,62.74
		 M133.83,58.28c-0.68,0-1.27,0.18-1.77,0.55c-0.5,0.37-0.92,0.8-1.25,1.31c-0.33,0.51-0.58,1.04-0.74,1.59
		c-0.12,0.38-0.19,0.72-0.23,1.02l0,0l0,0c-0.01,0.13-0.02,0.25-0.02,0.36c0,0.26,0.02,0.51,0.06,0.77
		c0.02,0.12,0.04,0.23,0.07,0.35c0.08,0.38,0.23,0.72,0.44,1.03c0.21,0.31,0.49,0.56,0.84,0.76c0.35,0.2,0.79,0.3,1.32,0.3
		c0.38,0,0.77-0.09,1.17-0.26c0.39-0.17,0.78-0.39,1.15-0.66c0.37-0.27,0.72-0.57,1.07-0.9c0.24-0.23,0.46-0.46,0.66-0.68
		c-0.01-0.12-0.02-0.24-0.02-0.36c0-0.16,0.01-0.32,0.03-0.49c0.01-0.09,0.02-0.18,0.04-0.27c-0.32,0.37-0.67,0.72-1.05,1.08
		c-0.42,0.39-0.86,0.74-1.31,1.03c-0.45,0.29-0.86,0.44-1.23,0.44c-0.2,0-0.41-0.03-0.63-0.09c-0.21-0.06-0.41-0.16-0.59-0.3
		c-0.18-0.14-0.33-0.34-0.45-0.59c-0.12-0.25-0.17-0.57-0.16-0.97c0.01-0.68,0.13-1.28,0.36-1.79c0.23-0.51,0.49-0.94,0.78-1.28
		c0.29-0.34,0.58-0.6,0.86-0.77c0.28-0.17,0.47-0.26,0.58-0.26l0.23,0.09l0.07,0.21l-0.06,0.23l-0.17,0.16L133.61,60l-0.2,0.18
		c-0.02,0.05-0.04,0.14-0.06,0.29c-0.02,0.14-0.02,0.29,0,0.44c0.02,0.15,0.07,0.28,0.14,0.39c0.08,0.11,0.19,0.17,0.35,0.17
		c0.19,0,0.37-0.05,0.53-0.14c0.16-0.1,0.3-0.22,0.42-0.38c0.12-0.16,0.21-0.35,0.29-0.56c0.07-0.21,0.11-0.42,0.11-0.64
		c0.01-0.45-0.12-0.81-0.38-1.08C134.53,58.41,134.21,58.28,133.83,58.28"/>
	<path class="st0" d="M138.18,62.51c0.08-0.5,0.21-0.95,0.38-1.33c0.17-0.39,0.35-0.72,0.54-0.98c0.19-0.27,0.38-0.48,0.58-0.62
		c0.2-0.14,0.37-0.21,0.51-0.21c0.13,0,0.23,0.05,0.3,0.15c0.07,0.1,0.1,0.27,0.07,0.49c-0.02,0.21-0.14,0.47-0.34,0.77
		c-0.2,0.3-0.56,0.64-1.08,1.04c-0.17,0.13-0.33,0.25-0.5,0.37C138.48,62.29,138.32,62.4,138.18,62.51 M140.69,58.34
		c-0.48,0-0.95,0.15-1.42,0.45c-0.47,0.3-0.9,0.67-1.27,1.13c-0.38,0.45-0.69,0.95-0.95,1.5c-0.21,0.45-0.35,0.87-0.42,1.28l0,0l0,0
		c-0.02,0.09-0.03,0.18-0.04,0.27c-0.02,0.17-0.03,0.33-0.03,0.49c0,0.12,0.01,0.25,0.02,0.36c0.02,0.25,0.07,0.47,0.14,0.67
		c0.15,0.42,0.35,0.76,0.6,1.02c0.25,0.26,0.53,0.46,0.83,0.58c0.3,0.13,0.59,0.19,0.85,0.19c0.5,0,1.02-0.12,1.55-0.36
		c0.53-0.24,1.05-0.55,1.56-0.94c0.51-0.39,0.99-0.83,1.44-1.33c0.35-0.38,0.67-0.77,0.96-1.17c-0.1,0.13-0.18,0.23-0.23,0.28
		l-0.28,0.19l-0.22-0.05l-0.1-0.23c-0.01-0.1,0.04-0.22,0.13-0.37l0.04-0.06c-0.13,0.15-0.28,0.31-0.43,0.47
		c-0.36,0.39-0.76,0.77-1.18,1.14c-0.42,0.36-0.86,0.67-1.3,0.93c-0.44,0.26-0.87,0.39-1.27,0.39c-0.19,0-0.38-0.03-0.56-0.08
		c-0.19-0.05-0.35-0.14-0.49-0.27c-0.14-0.13-0.26-0.29-0.36-0.49c-0.1-0.2-0.15-0.46-0.16-0.75c0.18-0.13,0.39-0.28,0.63-0.44
		c0.24-0.16,0.49-0.33,0.75-0.51c0.24-0.17,0.49-0.35,0.76-0.56c0.27-0.2,0.52-0.43,0.76-0.68c0.24-0.25,0.45-0.53,0.62-0.84
		c0.17-0.31,0.28-0.65,0.31-1.02c0.02-0.33-0.07-0.62-0.27-0.84C141.47,58.45,141.14,58.34,140.69,58.34"/>
	<path class="st0" d="M146.96,57.72c-0.1,0-0.21,0.02-0.33,0.06c-0.24,0.09-0.47,0.22-0.7,0.4c-0.23,0.18-0.42,0.38-0.59,0.6
		c-0.17,0.22-0.28,0.41-0.32,0.58c-0.06,0.2-0.04,0.38,0.04,0.54c0.09,0.16,0.12,0.28,0.1,0.38c-0.01,0.04-0.08,0.14-0.2,0.31
		c-0.12,0.17-0.25,0.37-0.39,0.59c-0.14,0.22-0.29,0.44-0.43,0.64c-0.12,0.17-0.21,0.3-0.28,0.4l-0.04,0.06
		c-0.1,0.14-0.14,0.27-0.13,0.37l0.1,0.23l0.22,0.05l0.28-0.19c0.05-0.06,0.12-0.15,0.23-0.28l0.09-0.12
		c0.15-0.2,0.32-0.41,0.49-0.64c0.17-0.23,0.33-0.46,0.48-0.67c0.15-0.21,0.25-0.37,0.31-0.47c0.02,0.05,0.06,0.13,0.1,0.26
		c0.04,0.13,0.09,0.25,0.13,0.38c0.05,0.16,0.11,0.32,0.18,0.5c0.08,0.24,0.19,0.5,0.3,0.79c0.12,0.29,0.23,0.57,0.33,0.85
		c0.1,0.28,0.18,0.54,0.22,0.79c0.05,0.25,0.05,0.43,0,0.56c-0.05,0.13-0.12,0.24-0.22,0.32l-0.32,0.2l-0.34,0.07l-0.28-0.07
		c-0.06-0.05-0.13-0.14-0.2-0.27c-0.06-0.12-0.14-0.28-0.23-0.49c-0.1-0.21-0.2-0.5-0.32-0.87c-0.14,0.05-0.27,0.09-0.38,0.13
		l-0.25,0.11l-0.18,0.13c-0.12,0.11-0.21,0.2-0.27,0.29c-0.06,0.08-0.13,0.2-0.2,0.34c-0.06,0.11-0.05,0.26,0.03,0.47
		c0.08,0.2,0.2,0.41,0.36,0.62c0.16,0.21,0.36,0.39,0.59,0.55c0.23,0.16,0.48,0.23,0.73,0.23c0.36,0,0.7-0.1,1.03-0.29
		s0.62-0.42,0.88-0.69s0.47-0.55,0.64-0.83c0.17-0.29,0.28-0.53,0.31-0.73c0.02-0.13,0.01-0.29-0.05-0.48
		c-0.06-0.19-0.14-0.4-0.23-0.62c-0.1-0.22-0.2-0.45-0.32-0.67c-0.12-0.23-0.23-0.45-0.34-0.66c-0.08-0.17-0.16-0.35-0.23-0.56
		c-0.06-0.17-0.12-0.36-0.19-0.59s-0.12-0.48-0.15-0.75c0.18-0.21,0.32-0.39,0.41-0.53c0.1-0.14,0.17-0.25,0.21-0.35l0.11-0.23
		c0.02-0.12-0.01-0.24-0.11-0.35c-0.1-0.11-0.22-0.22-0.38-0.31C147.18,57.75,147.08,57.72,146.96,57.72"/>
	<path class="st1" d="M61.48,68.94c-0.35,0-0.67-0.15-0.96-0.46c-0.29-0.3-0.53-0.74-0.72-1.31c-0.19-0.57-0.32-1.27-0.39-2.1
		c-0.08-0.83-0.07-1.78,0.01-2.84c0.05-0.71,0.14-1.42,0.29-2.16c0.14-0.73,0.3-1.44,0.48-2.13c0.18-0.69,0.37-1.33,0.57-1.94
		c0.2-0.61,0.39-1.15,0.56-1.62c0.17-0.47,0.32-0.85,0.43-1.14c0.11-0.29,0.18-0.45,0.21-0.5l0.21-0.19
		c0.1-0.07,0.22-0.12,0.36-0.17c0.14-0.05,0.29-0.09,0.45-0.12c0.16-0.03,0.31-0.04,0.46-0.04c0.12,0,0.23,0.01,0.34,0.02l0.29,0.05
		l0.25,0.11c-0.13,0.08-0.26,0.21-0.39,0.38c-0.13,0.17-0.24,0.36-0.35,0.55c-0.13,0.21-0.25,0.45-0.36,0.7
		c-0.24,0.5-0.49,1.11-0.75,1.83c-0.26,0.72-0.51,1.48-0.74,2.28c-0.23,0.81-0.44,1.62-0.61,2.45c-0.17,0.83-0.29,1.61-0.35,2.34
		c-0.1,1.47-0.04,2.56,0.16,3.29s0.49,1.08,0.86,1.08c0.18,0,0.37-0.11,0.57-0.34s0.41-0.52,0.62-0.88c0.21-0.36,0.41-0.76,0.62-1.2
		c0.2-0.44,0.39-0.88,0.57-1.31c0.11-0.27,0.22-0.58,0.35-0.92c0.13-0.34,0.25-0.69,0.38-1.05c0.13-0.36,0.25-0.71,0.37-1.07
		c0.12-0.35,0.23-0.67,0.32-0.96c0-0.36,0.01-0.74,0.02-1.14s0.04-0.81,0.08-1.22c0.04-0.41,0.1-0.82,0.17-1.22s0.17-0.77,0.29-1.1
		c0.24-0.64,0.52-1.12,0.84-1.42c0.32-0.3,0.6-0.46,0.84-0.47c0.17,0,0.29,0.07,0.36,0.21c0.07,0.14,0.1,0.33,0.09,0.57
		c-0.02,0.31-0.08,0.68-0.16,1.12c-0.08,0.44-0.18,0.9-0.3,1.4c-0.11,0.5-0.24,1-0.38,1.5c-0.14,0.51-0.28,0.99-0.41,1.46
		c-0.22,1.23-0.35,2.34-0.39,3.34c-0.05,1-0.04,1.85,0.03,2.56c0.06,0.71,0.18,1.26,0.34,1.65s0.35,0.58,0.58,0.58
		c0.26,0,0.54-0.18,0.83-0.54c0.29-0.36,0.58-0.83,0.87-1.42c0.29-0.59,0.56-1.26,0.83-2.01c0.27-0.75,0.51-1.53,0.73-2.32
		c0.22-0.79,0.4-1.58,0.55-2.35c0.14-0.77,0.24-1.47,0.29-2.09c0.04-0.51,0.05-1.02,0.05-1.52c0-0.43-0.02-0.89-0.05-1.38
		c-0.04-0.49-0.1-0.93-0.2-1.33c0.15-0.13,0.36-0.24,0.63-0.32c0.13-0.05,0.27-0.09,0.43-0.13l0.3-0.05l0.29-0.03l0.27,0.03
		c0.07,0.17,0.12,0.38,0.15,0.65c0.03,0.26,0.05,0.52,0.06,0.77c0.01,0.3,0.01,0.61-0.02,0.93c-0.1,1.27-0.26,2.51-0.49,3.73
		s-0.52,2.37-0.85,3.47c-0.33,1.09-0.71,2.1-1.12,3.01c-0.41,0.91-0.84,1.7-1.27,2.37c-0.44,0.67-0.87,1.19-1.31,1.56
		c-0.44,0.37-0.85,0.56-1.24,0.56c-0.42,0-0.75-0.18-1-0.53c-0.25-0.35-0.44-0.79-0.57-1.33c-0.13-0.53-0.21-1.1-0.25-1.71
		c-0.04-0.61-0.05-1.17-0.04-1.68c-0.27,0.67-0.57,1.31-0.89,1.93c-0.32,0.62-0.64,1.17-0.98,1.66c-0.34,0.48-0.69,0.87-1.04,1.17
		C62.18,68.79,61.83,68.94,61.48,68.94z"/>
	<path class="st1" d="M82.01,61.79c-0.36,0.53-0.76,1.04-1.22,1.53s-0.93,0.94-1.44,1.33c-0.51,0.39-1.03,0.7-1.56,0.94
		s-1.05,0.36-1.55,0.36c-0.26,0-0.55-0.06-0.85-0.19c-0.3-0.13-0.58-0.32-0.83-0.58c-0.25-0.26-0.45-0.6-0.6-1.02
		c-0.15-0.42-0.19-0.92-0.13-1.52c0.05-0.49,0.2-1.01,0.46-1.55c0.26-0.54,0.57-1.04,0.95-1.5c0.38-0.45,0.8-0.83,1.27-1.13
		s0.95-0.45,1.42-0.45c0.45,0,0.78,0.11,0.99,0.34s0.29,0.51,0.27,0.84c-0.04,0.37-0.14,0.71-0.31,1.02
		c-0.17,0.31-0.38,0.59-0.62,0.84c-0.24,0.25-0.49,0.48-0.76,0.68s-0.52,0.39-0.76,0.56c-0.26,0.18-0.51,0.35-0.75,0.51
		c-0.24,0.16-0.45,0.31-0.63,0.44c0.01,0.3,0.07,0.55,0.16,0.75c0.1,0.2,0.21,0.37,0.36,0.49c0.14,0.13,0.31,0.21,0.49,0.27
		s0.37,0.08,0.56,0.08c0.41,0,0.83-0.13,1.27-0.38c0.44-0.26,0.87-0.57,1.3-0.93c0.42-0.36,0.82-0.74,1.18-1.14
		c0.36-0.39,0.67-0.73,0.91-1.02l0.26-0.17l0.21,0.04l0.08,0.21C82.13,61.54,82.09,61.66,82.01,61.79z M77.42,59.03
		c-0.14,0-0.31,0.07-0.51,0.21s-0.39,0.35-0.58,0.62c-0.19,0.27-0.37,0.6-0.54,0.99c-0.17,0.39-0.29,0.83-0.38,1.33
		c0.14-0.11,0.3-0.22,0.47-0.33c0.17-0.11,0.33-0.24,0.5-0.37c0.51-0.39,0.87-0.74,1.08-1.04c0.2-0.3,0.32-0.55,0.34-0.77
		c0.02-0.23,0-0.39-0.07-0.49C77.66,59.08,77.55,59.03,77.42,59.03z"/>
	<path class="st1" d="M84.82,55.25c-0.18,0.72-0.38,1.4-0.6,2.05s-0.45,1.26-0.68,1.83c-0.23,0.57-0.46,1.08-0.7,1.55
		c-0.23,0.47-0.44,0.87-0.62,1.22c-0.12,0.86-0.12,1.55,0,2.08c0.12,0.53,0.35,0.79,0.7,0.79c0.29,0,0.57-0.13,0.84-0.39
		c0.27-0.26,0.52-0.58,0.73-0.97s0.4-0.79,0.54-1.23c0.15-0.44,0.24-0.83,0.28-1.17c-0.23-0.06-0.42-0.16-0.57-0.31
		c-0.16-0.15-0.23-0.35-0.23-0.6c0-0.17,0.05-0.32,0.14-0.47c0.09-0.15,0.21-0.28,0.34-0.38c0.13-0.11,0.27-0.19,0.43-0.25
		c0.15-0.06,0.3-0.09,0.43-0.09c0.2,0,0.38,0.13,0.52,0.39c0.14,0.26,0.24,0.58,0.29,0.98c0.48-0.01,0.98-0.08,1.5-0.21
		c0.52-0.13,1.02-0.3,1.49-0.5c0.13-0.06,0.24-0.08,0.32-0.05l0.17,0.14l-0.01,0.24l-0.21,0.21c-0.28,0.16-0.56,0.3-0.85,0.42
		c-0.29,0.13-0.58,0.23-0.87,0.31c-0.29,0.08-0.56,0.15-0.82,0.2c-0.26,0.05-0.5,0.07-0.72,0.07c-0.05,0.48-0.2,0.99-0.45,1.55
		s-0.56,1.07-0.91,1.54c-0.36,0.47-0.76,0.86-1.19,1.17c-0.43,0.31-0.86,0.47-1.28,0.47c-0.13,0-0.3-0.02-0.52-0.05
		c-0.22-0.04-0.42-0.16-0.63-0.38c-0.2-0.21-0.38-0.56-0.52-1.03c-0.14-0.47-0.2-1.14-0.18-2.02c0.01-0.58,0.08-1.21,0.2-1.86
		c0.12-0.66,0.26-1.31,0.43-1.97s0.36-1.29,0.56-1.91s0.41-1.17,0.6-1.67c0.19-0.5,0.37-0.91,0.53-1.25s0.28-0.55,0.37-0.64
		c0.11-0.13,0.23-0.23,0.38-0.3c0.14-0.06,0.28-0.11,0.42-0.14c0.14-0.03,0.27-0.04,0.39-0.03l0.25,0.05
		c0.07,0.05,0.09,0.31,0.06,0.79C85.14,53.88,85.02,54.5,84.82,55.25z"/>
	<path class="st1" d="M100.05,57.29c-0.01-0.04,0.02-0.13,0.11-0.28c0.08-0.15,0.18-0.33,0.28-0.55c0.1-0.22,0.21-0.47,0.3-0.75
		c0.1-0.28,0.17-0.57,0.21-0.87c0.04-0.3,0.04-0.6-0.01-0.9c-0.05-0.3-0.17-0.58-0.38-0.86c-0.12-0.14-0.3-0.22-0.53-0.24
		c-0.23-0.02-0.49,0.02-0.79,0.11c-0.29,0.09-0.6,0.23-0.91,0.41c-0.32,0.19-0.61,0.4-0.87,0.65c-0.26,0.24-0.49,0.52-0.67,0.81
		c-0.18,0.3-0.29,0.6-0.31,0.91c-0.03,0.25-0.02,0.48,0.03,0.7c0.04,0.21,0.1,0.41,0.17,0.59c0.07,0.18,0.15,0.35,0.23,0.5
		c0.08,0.16,0.16,0.29,0.23,0.41c0.09,0.17,0.24,0.35,0.45,0.56c0.2,0.2,0.42,0.43,0.66,0.69c0.24,0.26,0.48,0.55,0.72,0.87
		c0.24,0.32,0.45,0.69,0.63,1.09c0.18,0.41,0.3,0.86,0.38,1.36c0.07,0.5,0.06,1.06-0.02,1.67c-0.13,0.88-0.34,1.62-0.63,2.21
		c-0.29,0.59-0.6,1.07-0.94,1.42c-0.34,0.36-0.68,0.62-1.03,0.78c-0.35,0.16-0.63,0.27-0.86,0.31c-0.18,0.04-0.39,0.07-0.64,0.1
		s-0.5,0.02-0.77-0.02s-0.54-0.13-0.81-0.25c-0.28-0.13-0.52-0.32-0.73-0.58c-0.25-0.3-0.45-0.62-0.59-0.97
		c-0.13-0.3-0.23-0.64-0.3-1.03c-0.06-0.39-0.03-0.79,0.1-1.21l0.3-0.29l0.32-0.21c0.12-0.07,0.24-0.14,0.38-0.2
		c0.15-0.05,0.31-0.09,0.47-0.13c0.13-0.02,0.27-0.04,0.42-0.04c0.15-0.01,0.29,0.01,0.42,0.06c-0.18,0.2-0.3,0.39-0.38,0.57
		l-0.11,0.25c-0.05,0.23-0.06,0.5-0.05,0.81c0.02,0.32,0.08,0.62,0.2,0.91c0.11,0.29,0.28,0.54,0.49,0.75
		c0.21,0.21,0.5,0.32,0.86,0.33c0.87,0.02,1.61-0.66,2.22-2.04c0.2-0.43,0.31-0.87,0.31-1.31s-0.05-0.87-0.16-1.27
		s-0.26-0.79-0.45-1.14c-0.18-0.35-0.37-0.65-0.56-0.9c-0.19-0.25-0.42-0.52-0.69-0.82s-0.54-0.61-0.8-0.96
		c-0.26-0.35-0.5-0.72-0.71-1.13c-0.21-0.41-0.35-0.85-0.42-1.33c-0.1-0.67-0.03-1.28,0.19-1.84c0.22-0.56,0.52-1.04,0.9-1.46
		c0.38-0.42,0.79-0.76,1.24-1.02c0.45-0.26,0.84-0.43,1.19-0.5c1.92-0.38,3.18-0.06,3.78,0.97c0.25,0.39,0.39,0.81,0.41,1.25
		c0.02,0.44,0,0.85-0.08,1.23c-0.08,0.38-0.17,0.69-0.29,0.95c-0.11,0.26-0.19,0.4-0.22,0.42c-0.07,0.07-0.19,0.15-0.34,0.23
		c-0.16,0.08-0.41,0.16-0.75,0.23l-0.29,0.04l-0.27-0.02L100.05,57.29z"/>
	<path class="st1" d="M110.3,61.79c-0.36,0.53-0.76,1.04-1.22,1.53s-0.93,0.94-1.44,1.33c-0.51,0.39-1.03,0.7-1.56,0.94
		s-1.05,0.36-1.55,0.36c-0.26,0-0.55-0.06-0.85-0.19s-0.58-0.32-0.83-0.58c-0.25-0.26-0.45-0.6-0.6-1.02
		c-0.15-0.42-0.19-0.92-0.13-1.52c0.05-0.49,0.2-1.01,0.46-1.55c0.26-0.54,0.57-1.04,0.95-1.5c0.38-0.45,0.8-0.83,1.27-1.13
		c0.47-0.3,0.95-0.45,1.42-0.45c0.45,0,0.78,0.11,0.99,0.34c0.2,0.23,0.29,0.51,0.27,0.84c-0.04,0.37-0.14,0.71-0.31,1.02
		c-0.17,0.31-0.38,0.59-0.62,0.84s-0.49,0.48-0.76,0.68s-0.52,0.39-0.76,0.56c-0.26,0.18-0.51,0.35-0.75,0.51s-0.45,0.31-0.63,0.44
		c0.01,0.3,0.07,0.55,0.16,0.75c0.1,0.2,0.21,0.37,0.36,0.49c0.14,0.13,0.31,0.21,0.49,0.27s0.37,0.08,0.56,0.08
		c0.41,0,0.83-0.13,1.27-0.38c0.44-0.26,0.88-0.57,1.3-0.93c0.42-0.36,0.82-0.74,1.18-1.14c0.36-0.39,0.67-0.73,0.9-1.02l0.26-0.17
		l0.21,0.04l0.08,0.21C110.42,61.54,110.38,61.66,110.3,61.79z M105.71,59.03c-0.14,0-0.31,0.07-0.51,0.21s-0.39,0.35-0.58,0.62
		s-0.37,0.6-0.54,0.99c-0.17,0.39-0.29,0.83-0.38,1.33c0.14-0.11,0.3-0.22,0.47-0.33c0.17-0.11,0.33-0.24,0.5-0.37
		c0.51-0.39,0.87-0.74,1.07-1.04c0.2-0.3,0.32-0.55,0.34-0.77c0.02-0.23,0-0.39-0.07-0.49C105.94,59.08,105.84,59.03,105.71,59.03z"
		/>
	<path class="st1" d="M108.33,65.42c-0.08,0.13-0.18,0.22-0.28,0.26l-0.27,0.02l-0.15-0.19c-0.02-0.1,0-0.21,0.07-0.36
		c0.04-0.07,0.12-0.23,0.24-0.48c0.13-0.25,0.28-0.55,0.45-0.9s0.36-0.73,0.56-1.15s0.4-0.8,0.58-1.17c0.19-0.37,0.36-0.7,0.51-0.99
		c0.15-0.29,0.27-0.5,0.34-0.64c-0.13-0.12-0.22-0.21-0.27-0.26c-0.05-0.05-0.08-0.17-0.11-0.35c-0.02-0.16,0.01-0.36,0.11-0.61
		s0.22-0.49,0.38-0.73c0.16-0.23,0.33-0.43,0.52-0.6c0.19-0.17,0.38-0.25,0.56-0.25c0.33,0,0.57,0.11,0.71,0.32
		c0.14,0.21,0.22,0.44,0.24,0.66c0.02,0.15,0.01,0.35-0.04,0.59c-0.05,0.24-0.14,0.45-0.27,0.64l0.14,0.08
		c0.06,0.03,0.16,0.04,0.29,0.04c0.19,0,0.32-0.01,0.4-0.04s0.2-0.04,0.37-0.04c0.2,0,0.37,0.05,0.5,0.15
		c0.13,0.1,0.24,0.23,0.32,0.38c0.08,0.15,0.15,0.31,0.19,0.48s0.07,0.33,0.08,0.47c0.04,0.3-0.04,0.61-0.23,0.93
		c-0.19,0.32-0.42,0.67-0.7,1.06c-0.17,0.24-0.33,0.51-0.5,0.81c-0.17,0.3-0.24,0.57-0.21,0.81c0.02,0.15,0.07,0.28,0.13,0.38
		c0.06,0.1,0.23,0.14,0.5,0.14c0.2,0,0.43-0.07,0.67-0.22c0.24-0.15,0.5-0.34,0.75-0.57c0.26-0.23,0.51-0.49,0.76-0.77
		c0.25-0.28,0.48-0.56,0.7-0.82s0.4-0.51,0.55-0.73c0.15-0.21,0.26-0.37,0.33-0.47l0.23-0.2h0.25l0.13,0.21
		c0.02,0.11-0.03,0.25-0.13,0.43c-0.07,0.12-0.19,0.31-0.37,0.57c-0.17,0.26-0.38,0.55-0.63,0.88c-0.24,0.32-0.52,0.65-0.82,1
		c-0.3,0.34-0.61,0.65-0.94,0.93c-0.33,0.28-0.66,0.51-0.98,0.69c-0.33,0.18-0.64,0.27-0.94,0.27c-0.31,0-0.57-0.06-0.77-0.18
		c-0.2-0.12-0.37-0.27-0.49-0.44c-0.13-0.17-0.21-0.37-0.27-0.57c-0.05-0.21-0.07-0.4-0.06-0.58c0.01-0.14,0.05-0.3,0.12-0.46
		s0.14-0.33,0.23-0.5c0.09-0.17,0.19-0.35,0.29-0.52c0.1-0.17,0.19-0.34,0.28-0.51c0.2-0.35,0.37-0.64,0.49-0.89
		c0.13-0.25,0.19-0.45,0.19-0.62l-0.07-0.29l-0.23-0.13l-0.15,0.01l-0.09,0.01l-0.13,0.01l-0.24,0.01c-0.16,0-0.29-0.02-0.39-0.07
		l-0.3-0.11c-0.05,0.08-0.16,0.26-0.32,0.54c-0.17,0.28-0.36,0.6-0.58,0.97c-0.22,0.37-0.45,0.76-0.7,1.16
		c-0.24,0.41-0.47,0.79-0.69,1.14s-0.4,0.65-0.55,0.9C108.45,65.23,108.36,65.38,108.33,65.42z"/>
	<path class="st1" d="M121.71,62.33c-0.31,0.45-0.63,0.9-0.96,1.33c-0.33,0.43-0.64,0.81-0.95,1.16c-0.3,0.34-0.58,0.62-0.84,0.82
		c-0.26,0.21-0.46,0.31-0.62,0.31c-0.37,0-0.67-0.18-0.91-0.53c-0.23-0.35-0.41-0.79-0.54-1.31c-0.13-0.52-0.2-1.07-0.23-1.67
		c-0.03-0.59-0.03-1.12,0.01-1.59c0.05-0.47,0.1-0.84,0.16-1.12s0.13-0.5,0.22-0.65c0.09-0.15,0.2-0.27,0.32-0.34
		c0.13-0.07,0.28-0.13,0.48-0.18l0.29-0.05l0.3,0.01l0.21,0.12c0.05,0.06,0.05,0.15,0.02,0.27c-0.02,0.11-0.06,0.27-0.12,0.47
		c-0.05,0.21-0.11,0.45-0.17,0.71c-0.06,0.26-0.12,0.54-0.17,0.82c-0.05,0.29-0.09,0.56-0.12,0.82c-0.04,0.45-0.04,0.85,0,1.19
		c0.04,0.34,0.09,0.63,0.16,0.86c0.07,0.23,0.15,0.41,0.23,0.53c0.08,0.12,0.15,0.18,0.2,0.18c0.06,0,0.17-0.08,0.33-0.24
		s0.35-0.37,0.55-0.64c0.21-0.26,0.43-0.57,0.66-0.91c0.23-0.35,0.45-0.7,0.65-1.07c-0.07-0.19-0.1-0.42-0.09-0.68
		c0.04-0.41,0.13-0.77,0.27-1.1c0.14-0.33,0.31-0.61,0.49-0.83s0.38-0.4,0.57-0.53c0.2-0.13,0.37-0.19,0.53-0.19
		c0.31,0,0.5,0.08,0.58,0.24s0.1,0.32,0.08,0.49c-0.02,0.25-0.13,0.59-0.33,1.03s-0.45,0.91-0.76,1.42l0.2,0.07l0.25,0.04
		c0.41,0,0.77-0.05,1.1-0.14c0.33-0.1,0.62-0.21,0.86-0.34c0.24-0.13,0.45-0.27,0.63-0.42c0.17-0.15,0.31-0.27,0.42-0.37l0.21-0.11
		l0.18,0.05l0.07,0.16l-0.11,0.23c-0.43,0.53-0.95,0.95-1.57,1.27c-0.62,0.32-1.33,0.48-2.16,0.48l-0.27-0.02
		C121.94,62.39,121.83,62.36,121.71,62.33z"/>
	<path class="st1" d="M125.77,58.78c0.06-0.07,0.17-0.13,0.34-0.18c0.17-0.05,0.34-0.09,0.52-0.12c0.18-0.03,0.34-0.05,0.49-0.05
		c0.15-0.01,0.24,0,0.26,0.01c0.01,0.01-0.02,0.14-0.09,0.38c-0.07,0.24-0.16,0.52-0.27,0.84s-0.22,0.65-0.34,0.99
		c-0.12,0.34-0.21,0.62-0.27,0.83c-0.06,0.21-0.13,0.46-0.21,0.73c-0.08,0.27-0.16,0.53-0.22,0.79c-0.07,0.26-0.11,0.5-0.13,0.73
		s-0.01,0.4,0.05,0.52c0.06,0.14,0.13,0.24,0.2,0.3l0.23,0.08c0.24,0,0.54-0.13,0.9-0.39c0.37-0.26,0.73-0.58,1.11-0.94
		c0.38-0.37,0.73-0.73,1.05-1.11c0.32-0.38,0.56-0.68,0.72-0.9c0.1-0.12,0.2-0.2,0.3-0.23l0.25,0.02l0.11,0.23
		c0.01,0.11-0.03,0.23-0.12,0.38c-0.19,0.33-0.47,0.73-0.84,1.19c-0.37,0.46-0.76,0.9-1.18,1.33c-0.42,0.42-0.83,0.79-1.23,1.08
		c-0.4,0.3-0.73,0.45-0.98,0.47c-0.2,0.01-0.4-0.02-0.6-0.1s-0.38-0.19-0.54-0.32c-0.16-0.14-0.3-0.3-0.4-0.48s-0.17-0.38-0.18-0.58
		c-0.04-0.3-0.04-0.71,0-1.23c0.04-0.52,0.1-1.05,0.2-1.59c0.1-0.54,0.22-1.06,0.37-1.55C125.41,59.38,125.58,59.02,125.77,58.78z
		 M128.25,54.96c-0.04,0.13-0.11,0.26-0.21,0.39c-0.1,0.13-0.21,0.23-0.34,0.3c-0.13,0.08-0.25,0.13-0.38,0.15s-0.24,0-0.32-0.07
		c-0.25-0.19-0.38-0.4-0.39-0.62s0.04-0.43,0.16-0.63s0.27-0.36,0.45-0.5c0.18-0.14,0.33-0.22,0.47-0.24s0.24,0,0.33,0.08
		s0.16,0.18,0.21,0.3c0.05,0.13,0.07,0.27,0.08,0.42C128.3,54.71,128.28,54.84,128.25,54.96z"/>
	<path class="st1" d="M132.38,64.91c0.37,0,0.78-0.15,1.23-0.44c0.45-0.29,0.88-0.64,1.31-1.03c0.42-0.39,0.81-0.8,1.16-1.21
		s0.62-0.74,0.8-0.99c0.11-0.15,0.21-0.25,0.3-0.28L137.4,61c0.05,0.06,0.07,0.15,0.05,0.28c-0.01,0.13-0.07,0.27-0.16,0.42
		c-0.08,0.14-0.22,0.35-0.42,0.62s-0.43,0.56-0.7,0.88s-0.57,0.64-0.91,0.97c-0.34,0.33-0.7,0.63-1.07,0.9
		c-0.37,0.27-0.75,0.49-1.15,0.66c-0.39,0.17-0.78,0.26-1.17,0.26c-0.53,0-0.96-0.1-1.32-0.29c-0.35-0.2-0.63-0.45-0.84-0.76
		s-0.36-0.65-0.44-1.03c-0.08-0.38-0.13-0.75-0.13-1.12s0.08-0.83,0.25-1.38c0.17-0.55,0.42-1.08,0.74-1.58
		c0.33-0.51,0.74-0.94,1.25-1.31c0.5-0.36,1.09-0.55,1.77-0.55c0.38,0,0.71,0.13,0.98,0.39s0.4,0.62,0.38,1.08
		c0,0.21-0.04,0.43-0.11,0.64c-0.07,0.21-0.17,0.39-0.29,0.55c-0.12,0.16-0.26,0.29-0.42,0.39s-0.34,0.14-0.53,0.14
		c-0.15,0-0.27-0.06-0.35-0.17c-0.08-0.11-0.13-0.24-0.14-0.39s-0.02-0.3,0-0.44c0.02-0.14,0.04-0.24,0.06-0.29l0.2-0.18l0.25-0.13
		l0.17-0.16l0.06-0.23l-0.07-0.22l-0.23-0.09c-0.11,0-0.3,0.09-0.58,0.26s-0.57,0.43-0.86,0.77c-0.29,0.34-0.55,0.77-0.78,1.28
		s-0.35,1.11-0.36,1.79c-0.01,0.39,0.04,0.72,0.16,0.97s0.27,0.45,0.45,0.59c0.18,0.14,0.38,0.24,0.59,0.3
		S132.18,64.91,132.38,64.91z"/>
	<path class="st1" d="M144.12,61.79c-0.36,0.53-0.76,1.04-1.22,1.53c-0.46,0.5-0.93,0.94-1.44,1.33s-1.03,0.7-1.56,0.94
		s-1.05,0.36-1.55,0.36c-0.26,0-0.55-0.06-0.85-0.19s-0.58-0.32-0.83-0.58c-0.25-0.26-0.45-0.6-0.6-1.02
		c-0.15-0.42-0.2-0.92-0.13-1.52c0.05-0.49,0.2-1.01,0.46-1.55c0.26-0.54,0.57-1.04,0.95-1.5s0.8-0.83,1.27-1.13
		c0.47-0.3,0.95-0.45,1.42-0.45c0.45,0,0.78,0.11,0.99,0.34c0.2,0.23,0.29,0.51,0.27,0.84c-0.04,0.37-0.14,0.71-0.31,1.02
		c-0.17,0.31-0.38,0.59-0.62,0.84s-0.49,0.48-0.76,0.68s-0.52,0.39-0.76,0.56c-0.26,0.18-0.51,0.35-0.75,0.51s-0.45,0.31-0.63,0.44
		c0.01,0.3,0.07,0.55,0.16,0.75c0.1,0.2,0.21,0.37,0.36,0.49c0.14,0.13,0.31,0.21,0.49,0.27s0.37,0.08,0.56,0.08
		c0.41,0,0.83-0.13,1.27-0.38s0.88-0.57,1.3-0.93c0.42-0.36,0.82-0.74,1.18-1.14c0.37-0.39,0.67-0.73,0.91-1.02l0.26-0.17l0.21,0.04
		l0.08,0.21C144.24,61.54,144.2,61.66,144.12,61.79z M139.53,59.03c-0.14,0-0.31,0.07-0.51,0.21s-0.39,0.35-0.58,0.62
		s-0.37,0.6-0.54,0.99c-0.17,0.39-0.29,0.83-0.38,1.33c0.14-0.11,0.3-0.22,0.47-0.33c0.17-0.11,0.33-0.24,0.5-0.37
		c0.51-0.39,0.87-0.74,1.08-1.04c0.2-0.3,0.32-0.55,0.34-0.77c0.02-0.23,0-0.39-0.07-0.49C139.76,59.08,139.66,59.03,139.53,59.03z"
		/>
	<path class="st1" d="M145.35,64.91l0.28,0.07l0.34-0.07l0.32-0.2c0.1-0.08,0.18-0.19,0.22-0.32c0.05-0.13,0.05-0.32,0-0.56
		c-0.05-0.24-0.12-0.51-0.22-0.79c-0.1-0.28-0.21-0.56-0.33-0.85c-0.12-0.29-0.22-0.55-0.3-0.79c-0.07-0.18-0.13-0.35-0.18-0.5
		c-0.05-0.13-0.09-0.26-0.13-0.39c-0.04-0.13-0.07-0.21-0.1-0.26c-0.06,0.1-0.16,0.25-0.31,0.47c-0.15,0.21-0.31,0.44-0.48,0.67
		c-0.17,0.23-0.34,0.45-0.49,0.65c-0.16,0.2-0.26,0.33-0.32,0.4l-0.28,0.19l-0.22-0.05l-0.1-0.23c-0.01-0.1,0.04-0.22,0.13-0.37
		c0.07-0.1,0.18-0.25,0.32-0.46c0.14-0.21,0.29-0.42,0.43-0.65c0.14-0.22,0.28-0.42,0.39-0.59s0.19-0.28,0.2-0.31
		c0.02-0.1-0.01-0.22-0.1-0.38c-0.09-0.16-0.11-0.33-0.04-0.54c0.05-0.17,0.15-0.36,0.32-0.58c0.17-0.22,0.36-0.42,0.59-0.6
		c0.23-0.18,0.46-0.31,0.7-0.4s0.45-0.09,0.64,0.01c0.16,0.1,0.28,0.2,0.38,0.31c0.1,0.11,0.13,0.23,0.11,0.35L147,58.37
		c-0.05,0.1-0.12,0.21-0.21,0.35s-0.23,0.31-0.41,0.53c0.04,0.28,0.09,0.53,0.15,0.75s0.13,0.42,0.19,0.59
		c0.07,0.2,0.15,0.39,0.23,0.56c0.11,0.21,0.22,0.44,0.34,0.66s0.23,0.45,0.32,0.67c0.1,0.22,0.17,0.43,0.23,0.62
		c0.06,0.19,0.08,0.35,0.05,0.48c-0.04,0.2-0.14,0.45-0.31,0.73c-0.17,0.29-0.39,0.56-0.64,0.83c-0.26,0.27-0.55,0.5-0.88,0.69
		c-0.33,0.19-0.67,0.29-1.03,0.29c-0.25,0-0.49-0.08-0.72-0.23c-0.23-0.16-0.43-0.34-0.59-0.55c-0.16-0.21-0.28-0.41-0.36-0.62
		c-0.08-0.2-0.09-0.36-0.03-0.47c0.07-0.14,0.14-0.26,0.2-0.34c0.06-0.08,0.15-0.18,0.27-0.29l0.18-0.13l0.25-0.11
		c0.11-0.04,0.23-0.08,0.38-0.13c0.12,0.37,0.23,0.66,0.32,0.87c0.1,0.21,0.17,0.37,0.23,0.49
		C145.23,64.77,145.29,64.86,145.35,64.91z"/>
	<path d="M132.93,45.77l-0.36-0.12c-0.45,1.37-1.41,2.42-2.6,3.02c-1.19,0.6-2.6,0.75-3.97,0.3c-1.37-0.45-2.42-1.41-3.02-2.6
		c-0.6-1.19-0.75-2.61-0.3-3.97c0.45-1.37,1.41-2.42,2.6-3.02c1.19-0.6,2.61-0.75,3.97-0.3c1.37,0.45,2.42,1.41,3.02,2.6
		c0.6,1.19,0.75,2.61,0.3,3.97L132.93,45.77l0.36,0.12c0.51-1.56,0.34-3.19-0.35-4.56c-0.69-1.36-1.9-2.46-3.46-2.98
		c-1.56-0.51-3.19-0.34-4.55,0.35s-2.46,1.9-2.98,3.47c-0.51,1.56-0.34,3.19,0.35,4.55c0.69,1.36,1.9,2.46,3.46,2.98
		c1.57,0.51,3.19,0.34,4.56-0.35c1.36-0.69,2.46-1.9,2.98-3.47L132.93,45.77z"/>
	<path d="M113.65,39.58l-0.36-0.12c-0.45,1.37-1.41,2.42-2.6,3.02c-1.19,0.6-2.61,0.75-3.97,0.3c-1.37-0.45-2.42-1.41-3.02-2.6
		c-0.6-1.19-0.75-2.61-0.3-3.97c0.45-1.37,1.41-2.42,2.6-3.02c1.19-0.6,2.61-0.75,3.97-0.3c1.37,0.45,2.42,1.41,3.02,2.6
		c0.6,1.19,0.75,2.61,0.3,3.97L113.65,39.58l0.36,0.12c0.51-1.56,0.34-3.19-0.34-4.56c-0.69-1.36-1.9-2.46-3.47-2.98
		c-1.56-0.51-3.19-0.34-4.55,0.35c-1.36,0.69-2.46,1.9-2.98,3.47c-0.51,1.56-0.34,3.19,0.35,4.56c0.69,1.36,1.9,2.46,3.46,2.98
		c1.57,0.51,3.19,0.34,4.56-0.35s2.46-1.9,2.98-3.47L113.65,39.58z"/>
	<path d="M114.14,38.42c0.15-0.18,0.42-0.48,0.81-0.78c0.39-0.3,0.91-0.61,1.56-0.8c0.12-0.03,0.26-0.08,0.43-0.11
		c0.26-0.06,0.57-0.11,0.93-0.11c0.35,0,0.75,0.05,1.16,0.18l0.03,0.01c0.66,0.22,1.15,0.6,1.52,0.98c0.18,0.19,0.33,0.38,0.46,0.56
		c0.12,0.17,0.22,0.33,0.29,0.45c0.38,0.63,0.58,1.26,0.67,1.8c0.09,0.54,0.09,0.99,0.07,1.25l0.76,0.04
		c0.02-0.3,0.03-0.81-0.08-1.42c-0.11-0.61-0.33-1.34-0.77-2.06c-0.07-0.12-0.18-0.29-0.32-0.49c-0.21-0.3-0.5-0.65-0.88-0.98
		c-0.39-0.33-0.87-0.64-1.47-0.84l-0.04-0.01c-0.67-0.22-1.29-0.25-1.81-0.2c-0.26,0.02-0.49,0.06-0.69,0.11
		c-0.2,0.04-0.36,0.09-0.48,0.13c-0.75,0.22-1.36,0.58-1.81,0.92c-0.46,0.35-0.76,0.69-0.93,0.9L114.14,38.42z"/>
	<path d="M104.78,34.02c3.34-2.54,6.33-4.28,8.55-5.43c0.54-0.28,1.22-0.63,2.03-1c0.81-0.37,1.76-0.75,2.84-1.1
		c0.47-0.15,0.91-0.29,1.39-0.41c0.48-0.12,0.98-0.21,1.56-0.27c1.81-0.18,3.29,0.1,4.27,0.38c0.2,0.06,0.41-0.06,0.47-0.26
		c0.06-0.2-0.06-0.41-0.26-0.47c-1.04-0.29-2.63-0.6-4.55-0.4c-0.62,0.06-1.16,0.17-1.66,0.29c-0.5,0.13-0.97,0.27-1.43,0.42
		c-1.12,0.35-2.09,0.75-2.93,1.13c-0.83,0.38-1.52,0.74-2.06,1.02c-2.25,1.17-5.27,2.93-8.66,5.5c-0.17,0.13-0.2,0.37-0.07,0.53
		C104.37,34.12,104.61,34.15,104.78,34.02z"/>
	<path d="M133.44,43.07c2.59-1.82,4.91-3.05,6.63-3.87c0.42-0.2,0.95-0.45,1.58-0.71c0.63-0.26,1.37-0.53,2.21-0.76
		c0.37-0.1,0.71-0.2,1.08-0.27c0.37-0.08,0.76-0.14,1.21-0.17c1.41-0.1,2.58,0.13,3.35,0.35c0.2,0.06,0.41-0.06,0.47-0.26
		c0.06-0.2-0.06-0.41-0.26-0.47c-0.83-0.24-2.09-0.49-3.62-0.38c-0.49,0.04-0.92,0.1-1.32,0.19c-0.4,0.08-0.76,0.19-1.13,0.29
		c-0.88,0.24-1.65,0.52-2.3,0.79c-0.65,0.27-1.19,0.52-1.61,0.72c-1.76,0.83-4.12,2.08-6.75,3.93c-0.17,0.12-0.21,0.36-0.09,0.53
		C133.03,43.15,133.27,43.19,133.44,43.07z"/>
</g>
</svg>
