<?xml version="1.0" encoding="utf-8"?>
<!-- Generator: Adobe Illustrator 24.0.1, SVG Export Plug-In . SVG Version: 6.00 Build 0)  -->
<svg version="1.1" id="Camada_2" xmlns="http://www.w3.org/2000/svg" xmlns:xlink="http://www.w3.org/1999/xlink" x="0px" y="0px"
	 viewBox="0 0 400 200" style="enable-background:new 0 0 400 200;" xml:space="preserve">
<style type="text/css">
	.st0{fill:#949090;}
	.st1{fill:#B08027;}
	.st2{fill:#F0F0F0;}
</style>
<g>
	<path class="st0" d="M94.46,54.81c1.41-2.25,3.18-4.35,5.31-6.25c4.65-4.14,9.31-6.16,13.56-6.24c0.08,0,0.17,0,0.25,0
		c4.15,0,7.36,1.95,9.76,5.53c2.19,3.27,3.62,6.83,4.46,10.59c0.84,3.77,1.11,7.43,0.9,11c-0.22,3.57-0.9,6.91-2.05,10.1
		c-1.15,3.2-2.8,5.93-5.07,8.36c-0.64,0.69-1.27,1.32-1.88,1.89c-0.61,0.56-1.18,1-1.73,1.31c-0.91-0.78-2.22-2.57-3.83-5.48
		c-1.6-2.91-3.56-7.15-5.54-12.92c-0.79-2.26-1.48-4.52-2.07-6.8c-0.59-2.27-1.06-4.41-1.44-6.4c-0.38-1.99-0.64-3.72-0.81-5.18
		c-0.17-1.45-0.23-2.51-0.21-3.15c-0.74,0.08-1.95,0.36-3.66,0.91C98.73,52.63,96.73,53.52,94.46,54.81 M115.83,39.2
		c-0.02,0-0.04,0-0.06,0c-3.19,0.01-6.64,0.76-10.26,2.34c-3.62,1.58-7.22,3.96-10.64,7.17c-2.69,2.53-4.93,5.24-6.68,8.04
		c-1.76,2.81-2.97,5.57-3.66,8.21c-0.69,2.64-0.85,5.11-0.52,7.36c0.33,2.25,1.15,4.18,2.41,5.78c0.78,0.31,1.58,0.47,2.38,0.47
		c0.5,0,1-0.06,1.5-0.17c1.32-0.3,2.49-0.83,3.52-1.58c-1.92-3.08-2.96-6.34-3.03-9.74c-0.08-3.4,0.74-6.84,2.46-10.21
		c0.45,1,1.06,2.49,1.86,4.45c0.8,1.95,1.71,4.18,2.76,6.65c1.05,2.47,2.19,5.06,3.45,7.76c1.26,2.7,2.55,5.29,3.86,7.78
		c1.31,2.49,2.56,4.78,3.74,6.89c1.18,2.11,2.16,3.83,2.91,5.19c1.08,0.22,2.13,0.32,3.16,0.32c1.75,0,3.42-0.31,5.03-0.9
		c2.57-0.94,4.88-2.55,7.09-4.83c2.39-2.47,4.16-5.29,5.46-8.65c1.29-3.36,2.12-6.9,2.49-10.74c0.37-3.83,0.26-7.77-0.41-11.85
		c-0.68-4.07-1.99-7.94-4.15-11.53c-1.59-2.64-3.61-4.7-6.14-6.09C121.84,39.94,118.99,39.2,115.83,39.2"/>
	<path class="st0" d="M160.8,32.93c-0.66,0-1.35,0.04-2.06,0.13c-0.73,0.09-1.4,0.24-2,0.43c-0.57,0.91-1.01,1.83-1.32,2.77
		c-0.31,0.94-0.54,1.85-0.7,2.72c-0.16,0.87-0.26,1.69-0.3,2.46c-0.04,0.77-0.05,1.42-0.04,1.96c-0.01,1.01-0.11,2.05-0.29,3.13
		c-0.18,1.08-0.39,2.14-0.63,3.18c-0.24,1.04-0.47,2.03-0.7,2.96c-0.23,0.93-0.42,1.76-0.56,2.47c-0.62,2.88-1.03,5.04-1.36,6.48
		c-0.33,1.44-0.68,2.4-1.1,2.9c-0.11-0.04-0.25-0.11-0.41-0.22c-0.17-0.11-0.33-0.31-0.48-0.62c-0.25-0.49-0.51-1.2-0.78-2.12
		c-0.26-0.92-0.49-1.89-0.67-2.9c-0.18-1.01-0.33-1.98-0.46-2.92c-0.13-0.94-0.19-1.67-0.2-2.18c-0.23-4.97,0.06-8.95,0.69-11.86
		c0.63-2.92,1.14-4.66,1.39-5.22c-0.51-0.21-1.07-0.32-1.68-0.33c-0.02,0-0.03,0-0.05,0c-0.6,0-1.2,0.04-1.82,0.12
		c-0.64,0.08-1.24,0.22-1.81,0.4c-0.57,0.18-1.06,0.37-1.47,0.55c-1.04,1.56-1.8,3.42-2.26,5.59c-0.46,2.16-0.69,4.38-0.69,6.63
		c0,2.26,0.17,4.47,0.51,6.64c0.34,2.17,0.77,4.04,1.26,5.64c0.27,0.88,0.58,1.67,0.92,2.36c0.34,0.69,0.81,1.56,1.42,2.59
		c0.53,0.58,1.15,1.02,1.84,1.31c0.69,0.3,1.41,0.48,2.14,0.56c0.32,0.04,0.64,0.05,0.95,0.05c0.41,0,0.81-0.03,1.2-0.09
		c0.7-0.11,1.32-0.3,1.87-0.57c0.22-0.16,0.44-0.49,0.69-0.99c0.24-0.5,0.46-1.13,0.65-1.88c0.09-0.52,0.23-1.31,0.43-2.39
		c0.19-1.08,0.41-2.18,0.64-3.3c0.23-1.13,0.48-2.12,0.75-2.97c0.27-0.85,0.48-1.31,0.64-1.37c0.05,0.67,0.25,1.42,0.6,2.25
		c0.28,0.67,0.74,1.43,1.37,2.28c0.63,0.85,1.42,1.46,2.35,1.82c0.56,0.15,1.13,0.27,1.72,0.37c0.59,0.1,1.17,0.17,1.73,0.22
		c0.44,0.04,0.85,0.06,1.21,0.06c0.1,0,0.19,0,0.29,0c0.44-0.01,0.78-0.06,1.03-0.14l0.09-0.1c0.04-0.1,0.06-0.18,0.05-0.22
		c-0.07-0.2-0.21-0.43-0.43-0.67c-0.22-0.24-0.48-0.55-0.77-0.93c-0.29-0.38-0.61-0.85-0.95-1.44c-0.35-0.58-0.67-1.3-0.96-2.15
		c-0.54-1.58-0.86-3.28-0.9-5.11c-0.04-1.83,0.05-3.72,0.31-5.66c0.25-1.94,0.6-3.93,1.05-5.98c0.45-2.04,0.85-4.08,1.19-6.12
		c-0.3-0.19-0.71-0.33-1.23-0.43c-0.53-0.1-1.13-0.15-1.81-0.16C160.85,32.93,160.83,32.93,160.8,32.93"/>
	<path class="st0" d="M181.22,27.29c-1.98,0.24-3.93,1.3-5.74,3.15c-1.81,1.86-3.33,4.09-4.52,6.68c-1.19,2.59-1.94,5.31-2.28,8.14
		c-0.34,2.83-0.15,5.41,0.48,7.73c0.58,2.16,1.5,3.81,2.71,4.98c0.97,0.94,1.96,1.41,3.01,1.41c0.27,0,0.54-0.03,0.81-0.09
		c0.8-0.35,1.62-1.03,2.49-2.04c0.87-1.01,1.71-2.25,2.54-3.71c0.83-1.47,1.65-3.12,2.48-4.97c0.83-1.84,1.57-3.78,2.21-5.82
		c-1.17,4.38-1.46,7.78-1.16,10.2c0.38,2.95,1.47,4.39,3.26,4.39c0.11,0,0.23-0.01,0.35-0.02c0.56-0.05,1.18-0.22,1.87-0.48
		c0.69-0.27,1.26-0.58,1.69-0.95c-0.55-0.31-0.97-0.85-1.25-1.62c-0.29-0.77-0.48-1.75-0.57-2.95c-0.08-1.06-0.05-2.33,0.11-3.8
		c0.16-1.47,0.44-3.05,0.84-4.74c0.41-1.69,0.94-3.47,1.61-5.32c0.67-1.85,1.45-3.68,2.33-5.5c-0.01-0.21-0.19-0.44-0.54-0.69
		c-0.36-0.25-0.8-0.48-1.32-0.69c-0.53-0.21-1.11-0.38-1.76-0.5c-0.51-0.09-0.96-0.14-1.36-0.14c-0.11,0-0.21,0-0.31,0.01
		c-0.45,1.01-0.93,2.07-1.42,3.15c-0.49,1.09-0.98,2.17-1.47,3.24c-0.49,1.08-0.95,2.11-1.4,3.1c-0.45,0.99-0.84,1.9-1.17,2.71
		c-1.84,4.13-3.24,7.26-4.43,9.34c-1.18,2.09-2.25,3.37-3.3,3.85c-0.58-0.1-0.95-0.54-1.12-1.33c-0.42-1.92-0.44-4.07,0-6.47
		c0.44-2.4,1.23-4.71,2.39-6.92c1.16-2.21,2.62-4.15,4.37-5.79c1.75-1.64,3.59-2.67,5.43-3.08c-0.08-0.38-0.33-0.82-0.75-1.32
		c-0.42-0.5-0.93-0.98-1.53-1.43c-0.6-0.45-1.22-0.84-1.86-1.15C182.29,27.55,181.72,27.36,181.22,27.29"/>
	<path class="st0" d="M208.43,25.23c-0.63,0.46-1.21,1.06-1.74,1.77c-0.53,0.71-1.15,1.71-1.84,3c-0.95,1.79-1.9,3.82-2.84,6.1
		c-0.93,2.28-1.78,4.55-2.53,6.83c-0.76,2.28-1.37,4.43-1.87,6.46c-0.5,2.03-0.82,3.67-1,4.91c0.12,0.34,0.37,0.7,0.75,1.08
		c0.38,0.38,0.8,0.75,1.27,1.09c0.47,0.35,0.93,0.64,1.39,0.89c0.46,0.24,0.85,0.4,1.18,0.45c0.66-2.93,1.37-5.44,2.14-7.54
		c0.77-2.1,1.7-3.94,2.8-5.51c1.1-1.57,2.44-2.96,4-4.15c1.57-1.19,3.49-2.35,5.8-3.44c0.26,1.29,0.77,2.53,1.51,3.71
		c0.74,1.18,1.61,2.17,2.64,2.98c0.76-0.51,1.47-1.06,2.16-1.66c0.69-0.6,1.08-1.02,1.18-1.26c-0.36-1.04-0.36-2.48,0.03-4.32
		c0.41-1.97,1.23-3.87,2.52-5.69c-0.16-0.38-0.53-0.74-1.1-1.05c-0.58-0.32-1.2-0.54-1.87-0.67c-0.33-0.06-0.61-0.09-0.86-0.09
		c-0.29,0-0.52,0.04-0.7,0.13c-2.13,1.96-4.26,3.74-6.41,5.34c-2.15,1.6-4.52,3.3-7.05,5.15c1.15-2.65,2.31-4.79,3.44-6.43
		c1.13-1.64,2.43-3.06,3.9-4.24c-0.25-0.33-0.61-0.69-1.1-1.08c-0.49-0.38-1.05-0.76-1.69-1.14c-0.64-0.37-1.32-0.7-2.03-0.98
		C209.8,25.58,209.11,25.37,208.43,25.23"/>
	<path class="st0" d="M249,25.73c-0.47,0.05-1.19,0.27-2.15,0.68c-0.96,0.41-2.02,0.97-3.16,1.66c-1.14,0.7-2.33,1.5-3.55,2.42
		c-1.22,0.91-2.36,1.87-3.43,2.87c-0.93-0.29-1.94-0.59-3.06-0.9c-1.12-0.31-2.26-0.71-3.44-1.18c-0.15,0.58-0.23,1.3-0.25,2.15
		c-0.02,0.85,0.04,1.43,0.21,1.74c1.3,0.34,2.59,0.69,3.88,1.07c-1.42,1.64-2.74,3.33-3.96,5.08c-1.23,1.75-2.31,3.46-3.27,5.11
		c-0.96,1.65-1.74,3.21-2.38,4.67c-0.63,1.45-1.06,2.68-1.31,3.68c-0.18,0.75-0.12,1.57,0.17,2.46c0.29,0.89,0.73,1.74,1.31,2.56
		c0.58,0.82,1.25,1.56,2.02,2.24c0.77,0.67,1.59,1.15,2.47,1.44c0.08,0.01,0.18,0.02,0.29,0.02c0.29,0,0.68-0.05,1.17-0.14
		c0.67-0.13,1.4-0.32,2.17-0.55c0.77-0.24,1.51-0.5,2.21-0.78c0.7-0.28,1.24-0.55,1.59-0.82c0.06-0.25,0.05-0.6-0.03-1.05
		c-1.03,0.38-2.12,0.61-3.25,0.7c-0.37,0.03-0.73,0.04-1.1,0.04c-0.77,0-1.54-0.06-2.31-0.19c-1.13-0.59-1.42-1.77-0.87-3.58
		c0.39-1.27,0.97-2.66,1.76-4.17c0.79-1.51,1.74-3.07,2.87-4.69c1.13-1.62,2.44-3.25,3.93-4.89c1.49-1.64,3.15-3.23,4.98-4.74
		c3.11,1.15,5.87,1.87,8.35,2.1c0.14-0.31,0.21-0.64,0.21-1c0-0.35-0.07-0.68-0.21-0.97c-0.99-0.29-1.94-0.63-2.86-1.01
		c-0.92-0.38-1.83-0.75-2.74-1.09c1.78-1.22,3.44-2.26,4.97-3.11c1.53-0.86,3.33-1.71,5.43-2.54c-0.13-0.34-0.46-0.77-0.98-1.28
		c-0.52-0.51-1.12-1.04-1.81-1.58c-0.68-0.54-1.38-1.03-2.08-1.48C250.1,26.23,249.5,25.92,249,25.73"/>
	<path class="st0" d="M249.73,58.05c-0.09,0-0.18,0-0.28,0c1.35-1.52,2.83-2.82,4.46-3.89c1.63-1.07,3.28-1.87,4.94-2.4
		c1.48-0.47,2.94-0.71,4.35-0.71c0.17,0,0.34,0,0.51,0.01c1.58,0.06,2.97,0.39,4.15,0.97c-1.78,2.36-4.41,3.88-7.74,4.77
		C256.88,57.66,253.42,58.05,249.73,58.05 M262.26,44.45c-0.83,0-1.67,0.06-2.52,0.17c-1.88,0.25-3.74,0.75-5.56,1.52
		c-1.83,0.76-3.51,1.72-5.07,2.86c-1.55,1.14-2.92,2.45-4.11,3.91c-1.2,1.46-2.13,3-2.83,4.61c-1.03,2.35-1.19,4.67-0.6,6.94
		c0.59,2.28,1.93,4.12,4.06,5.65c0.99,0.24,2.08,0.36,3.31,0.36c1.03,0,2.16-0.08,3.38-0.24c2.67-0.34,5.49-1.02,8.5-2.05
		c-0.05-0.45-0.13-0.95-0.27-1.51c-0.97,0.22-2.05,0.46-3.23,0.73c-1.19,0.27-2.38,0.48-3.57,0.62c-0.81,0.1-1.6,0.14-2.38,0.14
		c-0.38,0-0.75-0.01-1.12-0.03c-1.14-0.07-2.17-0.35-3.09-0.85c-0.48-0.26-0.8-0.61-0.96-1.05c-0.16-0.45-0.22-0.94-0.16-1.49
		c0.06-0.55,0.18-1.11,0.38-1.68c0.2-0.57,0.42-1.1,0.67-1.6c0.14-0.27,0.27-0.52,0.42-0.76c0.14-0.24,0.27-0.47,0.39-0.7
		c2.85,0.24,5.45,0.42,7.81,0.47c0.3,0.01,0.6,0.01,0.89,0.01c2.02,0,3.92-0.15,5.69-0.49c2.03-0.38,3.94-1.09,5.72-2.18
		c1.77-1.08,3.53-2.63,5.23-4.67c-0.34-2.93-1.46-5.17-3.27-6.64c-1.4-0.9-3-1.51-4.76-1.81C264.25,44.53,263.26,44.45,262.26,44.45
		"/>
	<path class="st0" d="M302.29,42.16c-1.1,1.77-2.23,3.29-3.37,4.56c-1.52,1.68-3.12,2.98-4.79,3.93c-1.67,0.95-3.61,1.64-5.79,2.13
		c-0.28,0.33-0.48,0.76-0.59,1.31c-0.12,0.55-0.13,1-0.03,1.38c3.14,1.03,6.23,1.57,9.3,1.57c3.79,0,7.54-0.83,11.28-2.62
		c0.25-0.48,0.3-1.2,0.14-2.13c-0.16-0.94-0.51-1.98-1.06-3.1c-0.55-1.13-1.27-2.31-2.15-3.54
		C304.34,44.4,303.36,43.24,302.29,42.16"/>
	<path class="st0" d="M268.82,86.13c-0.07,0-0.13,0-0.2,0c-1.18-0.02-2.25-0.18-3.22-0.5c-0.16-0.97,0.06-1.8,0.69-2.5
		c0.49-0.54,1.26-0.99,2.35-1.33c1.08-0.34,2.26-0.54,3.53-0.6c0.22-0.01,0.43-0.01,0.64-0.01c1.04,0,2.07,0.11,3.06,0.33
		c1.2,0.27,2.15,0.69,2.84,1.24c-0.81,0.76-1.77,1.39-2.89,1.89c-1.11,0.5-2.27,0.87-3.45,1.13
		C271.04,86.01,269.93,86.13,268.82,86.13 M294.19,68.26c-1.25,0-2.44,0.19-3.56,0.55c-1.21,0.39-2.21,1-3.04,1.81
		c-0.64,0.63-1.21,1.36-1.7,2.18c-0.49,0.82-1,1.66-1.51,2.52c-0.51,0.86-1.07,1.73-1.65,2.61c-0.59,0.88-1.27,1.68-2.05,2.42
		c-1.36-1.44-2.9-2.49-4.59-3.13c-1.51-0.57-3.02-0.85-4.49-0.85c-0.17,0-0.33,0-0.5,0.01c-1.63,0.07-3.18,0.47-4.64,1.18
		c-1.46,0.71-2.7,1.71-3.74,2.97c-0.26,0.56-0.43,1.19-0.51,1.88c-0.08,0.69-0.08,1.38,0,2.07c0.08,0.69,0.23,1.34,0.45,1.94
		c0.22,0.6,0.51,1.09,0.86,1.49c2.27,1.69,4.63,2.54,7.2,2.54c0.21,0,0.43-0.01,0.64-0.02c2.82-0.16,5.61-1.32,8.29-3.68
		c0.38-0.34,0.69-0.63,0.94-0.87c0.24-0.24,0.49-0.47,0.74-0.7c0.19-0.17,0.36-0.28,0.52-0.33c0.04-0.01,0.08-0.02,0.12-0.02
		c0.14,0,0.33,0.06,0.56,0.17c0.3,0.15,0.71,0.41,1.21,0.78c0.51,0.37,1.17,0.88,2,1.57c0.03,0,0.06,0.01,0.09,0.01
		c0.22,0,0.46-0.1,0.72-0.32c0.2-0.16,0.32-0.28,0.35-0.37c-0.46-0.58-0.94-1.15-1.43-1.73c-0.49-0.58-1.04-1.23-1.68-1.95
		c0.03-0.09,0.21-0.28,0.53-0.56c3.09-2.73,5.76-4.43,8.06-5.02c0.61-0.16,1.19-0.24,1.74-0.24c1.49,0,2.73,0.59,3.67,1.78
		c0.35,0.44,0.47,0.93,0.36,1.44c-0.11,0.52-0.41,0.95-0.88,1.32c-0.2,0.16-0.48,0.29-0.82,0.4c-0.35,0.11-0.7,0.21-1.06,0.3
		c-0.36,0.09-0.69,0.18-0.98,0.25c-0.29,0.07-0.49,0.15-0.59,0.23c-0.41,0.45-0.46,0.9-0.16,1.35c0.24,0.31,0.68,0.5,1.33,0.57
		c0.27,0.03,0.54,0.04,0.84,0.04c0.42,0,0.86-0.03,1.34-0.09c0.81-0.1,1.64-0.29,2.52-0.58c0.87-0.29,1.66-0.65,2.34-1.08
		c0.32-0.43,0.58-1.17,0.78-2.24c0.19-1.07,0.3-2.23,0.31-3.46c0.02-1.24-0.05-2.45-0.2-3.62c-0.15-1.17-0.38-2.03-0.66-2.58
		c-1.11-0.92-2.35-1.64-3.72-2.15c-1.37-0.51-2.73-0.77-4.07-0.8C294.37,68.26,294.28,68.26,294.19,68.26"/>
	<path class="st1" d="M109.83,93.59c-0.75-1.36-1.73-3.08-2.91-5.19c-1.18-2.11-2.43-4.4-3.74-6.89c-1.31-2.49-2.6-5.08-3.86-7.78
		c-1.26-2.7-2.41-5.29-3.45-7.76c-1.05-2.47-1.96-4.69-2.76-6.65c-0.8-1.95-1.41-3.44-1.86-4.45c-1.72,3.37-2.54,6.82-2.46,10.21
		c0.08,3.4,1.11,6.66,3.03,9.74c-1.03,0.75-2.2,1.28-3.52,1.58c-1.32,0.3-2.62,0.21-3.89-0.29c-1.26-1.61-2.08-3.53-2.41-5.78
		c-0.33-2.25-0.17-4.72,0.52-7.36c0.69-2.64,1.9-5.41,3.66-8.21c1.76-2.81,3.99-5.52,6.68-8.04c3.42-3.21,7.01-5.59,10.64-7.17
		c3.62-1.58,7.07-2.33,10.26-2.34c3.19-0.01,6.05,0.73,8.58,2.12c2.53,1.4,4.55,3.46,6.14,6.09c2.16,3.59,3.47,7.46,4.15,11.53
		c0.68,4.08,0.78,8.02,0.41,11.85c-0.37,3.84-1.2,7.38-2.49,10.74c-1.29,3.36-3.06,6.18-5.46,8.65c-2.21,2.28-4.52,3.88-7.09,4.83
		C115.46,93.96,112.74,94.18,109.83,93.59z M97.78,46.56c-2.13,1.9-3.91,4-5.31,6.25c2.27-1.3,4.26-2.19,5.97-2.73
		c1.7-0.54,2.92-0.83,3.66-0.91c-0.02,0.65,0.04,1.7,0.21,3.15c0.17,1.46,0.43,3.19,0.81,5.18c0.38,1.99,0.85,4.13,1.44,6.4
		c0.59,2.27,1.28,4.54,2.07,6.8c1.98,5.77,3.94,10.02,5.54,12.92c1.61,2.9,2.92,4.7,3.83,5.48c0.54-0.31,1.11-0.75,1.73-1.31
		c0.61-0.56,1.24-1.19,1.88-1.89c2.26-2.44,3.91-5.17,5.07-8.36c1.15-3.19,1.83-6.53,2.05-10.1c0.21-3.57-0.06-7.23-0.9-11
		c-0.84-3.76-2.27-7.32-4.46-10.59c-2.44-3.66-5.73-5.61-10-5.53C107.09,40.4,102.43,42.42,97.78,46.56z"/>
	<path class="st1" d="M157.26,59.38c-0.94-0.37-1.72-0.97-2.35-1.82c-0.63-0.85-1.09-1.61-1.37-2.28c-0.34-0.83-0.55-1.58-0.6-2.25
		c-0.15,0.06-0.37,0.52-0.64,1.37c-0.27,0.85-0.52,1.84-0.75,2.97c-0.23,1.13-0.44,2.23-0.64,3.3c-0.2,1.08-0.33,1.87-0.43,2.39
		c-0.19,0.76-0.41,1.38-0.65,1.88c-0.24,0.5-0.47,0.83-0.69,0.99c-0.54,0.28-1.16,0.47-1.87,0.57c-0.7,0.11-1.42,0.12-2.15,0.04
		c-0.73-0.08-1.45-0.27-2.14-0.56c-0.69-0.29-1.31-0.73-1.84-1.31c-0.61-1.03-1.08-1.89-1.42-2.59c-0.34-0.69-0.65-1.48-0.92-2.36
		c-0.49-1.59-0.92-3.47-1.26-5.64c-0.34-2.17-0.51-4.38-0.51-6.64c0-2.26,0.23-4.47,0.69-6.63c0.46-2.16,1.22-4.03,2.26-5.59
		c0.41-0.19,0.9-0.37,1.47-0.55c0.57-0.18,1.17-0.32,1.81-0.4c0.64-0.08,1.26-0.12,1.87-0.12c0.61,0,1.17,0.11,1.68,0.33
		c-0.25,0.56-0.76,2.3-1.39,5.22c-0.63,2.92-0.92,6.89-0.69,11.86c0.01,0.52,0.07,1.25,0.2,2.18s0.28,1.91,0.46,2.92
		c0.18,1.01,0.4,1.98,0.67,2.9c0.26,0.92,0.53,1.63,0.78,2.12c0.16,0.31,0.32,0.51,0.48,0.62c0.17,0.11,0.3,0.18,0.41,0.22
		c0.41-0.5,0.77-1.46,1.1-2.9c0.33-1.44,0.75-3.6,1.36-6.48c0.14-0.72,0.33-1.54,0.56-2.47c0.23-0.93,0.46-1.92,0.7-2.96
		c0.24-1.04,0.44-2.1,0.63-3.18c0.18-1.08,0.28-2.12,0.29-3.13c-0.01-0.54,0-1.2,0.04-1.96c0.04-0.76,0.13-1.58,0.3-2.46
		c0.16-0.87,0.39-1.78,0.7-2.72c0.31-0.94,0.75-1.87,1.32-2.77c0.6-0.19,1.27-0.34,2-0.43c0.73-0.09,1.44-0.13,2.12-0.13
		c0.68,0,1.28,0.06,1.81,0.16c0.53,0.1,0.94,0.24,1.23,0.43c-0.34,2.04-0.74,4.08-1.19,6.12c-0.45,2.04-0.8,4.04-1.05,5.98
		c-0.26,1.94-0.35,3.83-0.31,5.66c0.04,1.83,0.36,3.54,0.9,5.11c0.29,0.85,0.61,1.56,0.96,2.15c0.34,0.58,0.66,1.06,0.95,1.44
		c0.29,0.38,0.54,0.69,0.77,0.93c0.22,0.24,0.36,0.46,0.43,0.67c0.01,0.04,0,0.11-0.05,0.22l-0.09,0.1
		c-0.25,0.08-0.59,0.13-1.03,0.14c-0.44,0.01-0.93-0.01-1.5-0.05c-0.56-0.05-1.14-0.12-1.73-0.22
		C158.4,59.66,157.82,59.53,157.26,59.38z"/>
	<path class="st1" d="M187.2,27.95c0.47-0.03,1.03,0.01,1.68,0.13c0.65,0.12,1.23,0.28,1.76,0.5c0.52,0.22,0.97,0.45,1.32,0.69
		c0.36,0.25,0.54,0.48,0.54,0.69c-0.88,1.82-1.66,3.65-2.33,5.5c-0.67,1.85-1.2,3.62-1.61,5.32c-0.41,1.69-0.68,3.28-0.84,4.74
		c-0.16,1.47-0.19,2.73-0.11,3.8c0.09,1.19,0.28,2.18,0.57,2.95c0.29,0.77,0.7,1.31,1.25,1.62c-0.43,0.37-1,0.68-1.69,0.95
		c-0.69,0.27-1.31,0.43-1.87,0.48c-2,0.19-3.2-1.23-3.6-4.37c-0.3-2.42,0-5.82,1.16-10.2c-0.65,2.03-1.38,3.97-2.21,5.82
		c-0.83,1.85-1.65,3.5-2.48,4.97c-0.83,1.47-1.67,2.71-2.54,3.71c-0.87,1.01-1.69,1.69-2.49,2.04c-1.35,0.3-2.61-0.14-3.82-1.32
		c-1.21-1.18-2.13-2.83-2.71-4.98c-0.63-2.32-0.82-4.89-0.48-7.73c0.34-2.83,1.09-5.55,2.28-8.14c1.19-2.58,2.7-4.82,4.52-6.68
		c1.81-1.85,3.76-2.91,5.74-3.15c0.5,0.07,1.07,0.26,1.71,0.57c0.64,0.31,1.26,0.7,1.86,1.15c0.6,0.46,1.11,0.93,1.53,1.43
		c0.42,0.5,0.67,0.94,0.75,1.32c-1.84,0.41-3.68,1.44-5.43,3.08c-1.75,1.64-3.21,3.58-4.37,5.79c-1.16,2.21-1.94,4.52-2.39,6.92
		s-0.42,4.55,0,6.47c0.17,0.79,0.55,1.23,1.12,1.33c1.05-0.48,2.11-1.76,3.3-3.85c1.18-2.08,2.58-5.21,4.43-9.34
		c0.33-0.81,0.72-1.72,1.17-2.71c0.45-0.99,0.91-2.03,1.4-3.1c0.49-1.07,0.98-2.16,1.47-3.24C186.27,30.01,186.74,28.96,187.2,27.95
		z"/>
	<path class="st1" d="M194.61,52.29c0.18-1.24,0.5-2.88,1-4.91c0.5-2.03,1.11-4.18,1.87-6.46c0.76-2.27,1.6-4.55,2.53-6.83
		c0.93-2.28,1.89-4.31,2.84-6.1c0.69-1.29,1.3-2.29,1.84-3c0.53-0.71,1.11-1.3,1.74-1.77c0.68,0.14,1.37,0.35,2.08,0.63
		c0.71,0.28,1.39,0.61,2.03,0.98c0.64,0.37,1.21,0.75,1.69,1.14c0.49,0.38,0.85,0.74,1.1,1.08c-1.47,1.18-2.77,2.6-3.9,4.24
		c-1.13,1.64-2.29,3.78-3.44,6.43c2.53-1.84,4.9-3.54,7.05-5.15c2.15-1.6,4.28-3.38,6.41-5.34c0.33-0.16,0.85-0.17,1.56-0.03
		c0.67,0.13,1.29,0.35,1.87,0.67s0.94,0.67,1.1,1.05c-1.29,1.82-2.11,3.72-2.52,5.69c-0.39,1.84-0.39,3.28-0.03,4.32
		c-0.1,0.24-0.5,0.66-1.18,1.26c-0.69,0.6-1.4,1.15-2.16,1.66c-1.03-0.81-1.9-1.8-2.64-2.98c-0.74-1.18-1.24-2.42-1.51-3.71
		c-2.31,1.08-4.23,2.25-5.8,3.44c-1.57,1.19-2.9,2.58-4,4.15c-1.1,1.57-2.04,3.41-2.8,5.51c-0.77,2.1-1.49,4.62-2.14,7.54
		c-0.33-0.05-0.72-0.21-1.18-0.45c-0.46-0.25-0.92-0.54-1.39-0.89c-0.47-0.35-0.89-0.71-1.27-1.09
		C194.98,52.99,194.73,52.63,194.61,52.29z"/>
	<path class="st1" d="M228.17,33.16c-0.16-0.31-0.23-0.89-0.21-1.74c0.02-0.85,0.1-1.57,0.25-2.15c1.18,0.47,2.32,0.87,3.44,1.18
		s2.14,0.62,3.06,0.9c1.07-1,2.21-1.95,3.43-2.87c1.22-0.91,2.4-1.72,3.55-2.42c1.14-0.7,2.2-1.25,3.16-1.66
		c0.96-0.41,1.68-0.64,2.15-0.68c0.49,0.19,1.09,0.5,1.8,0.94c0.7,0.44,1.4,0.93,2.08,1.48c0.68,0.54,1.29,1.07,1.81,1.58
		c0.52,0.51,0.84,0.94,0.98,1.28c-2.09,0.83-3.89,1.68-5.43,2.54c-1.53,0.86-3.2,1.89-4.97,3.11c0.9,0.35,1.82,0.71,2.74,1.09
		c0.92,0.38,1.87,0.72,2.86,1.01c0.14,0.29,0.21,0.62,0.21,0.97c0,0.35-0.07,0.68-0.21,1c-2.49-0.22-5.24-0.94-8.35-2.1
		c-1.83,1.52-3.49,3.1-4.98,4.74c-1.5,1.64-2.8,3.28-3.93,4.89c-1.13,1.62-2.08,3.18-2.87,4.69s-1.37,2.9-1.76,4.17
		c-0.55,1.8-0.25,2.99,0.87,3.58c1.14,0.19,2.27,0.24,3.41,0.15c1.14-0.09,2.22-0.32,3.25-0.7c0.08,0.44,0.09,0.79,0.03,1.05
		c-0.36,0.27-0.89,0.54-1.59,0.82c-0.7,0.28-1.44,0.53-2.21,0.78c-0.77,0.24-1.49,0.42-2.17,0.55c-0.68,0.13-1.16,0.17-1.45,0.12
		c-0.88-0.29-1.7-0.77-2.47-1.44c-0.77-0.67-1.44-1.42-2.02-2.24c-0.58-0.82-1.02-1.67-1.31-2.56c-0.29-0.89-0.36-1.71-0.17-2.46
		c0.24-1,0.67-2.23,1.31-3.68c0.63-1.45,1.42-3.01,2.38-4.67c0.96-1.65,2.04-3.36,3.27-5.11c1.23-1.75,2.54-3.45,3.96-5.08
		C230.76,33.86,229.47,33.5,228.17,33.16z"/>
	<path class="st1" d="M271.24,51.14c-1.7,2.04-3.45,3.59-5.23,4.67c-1.78,1.08-3.68,1.79-5.72,2.18c-2.04,0.38-4.23,0.53-6.59,0.48
		c-2.36-0.05-4.96-0.23-7.81-0.47c-0.12,0.23-0.25,0.46-0.39,0.7c-0.14,0.24-0.28,0.49-0.42,0.76c-0.25,0.5-0.48,1.03-0.67,1.6
		c-0.2,0.57-0.33,1.13-0.38,1.68c-0.06,0.55-0.01,1.04,0.16,1.49c0.16,0.45,0.48,0.8,0.96,1.05c0.93,0.5,1.95,0.78,3.09,0.85
		c1.14,0.07,2.31,0.03,3.5-0.11c1.19-0.14,2.39-0.35,3.57-0.62c1.19-0.27,2.27-0.51,3.23-0.73c0.13,0.56,0.22,1.06,0.27,1.51
		c-3.01,1.03-5.83,1.71-8.5,2.05c-2.67,0.34-4.87,0.33-6.69-0.12c-2.13-1.53-3.47-3.38-4.06-5.65c-0.59-2.27-0.43-4.58,0.6-6.94
		c0.7-1.6,1.63-3.15,2.83-4.61c1.19-1.46,2.56-2.77,4.11-3.91c1.55-1.14,3.24-2.1,5.07-2.86c1.83-0.76,3.68-1.27,5.56-1.52
		c1.88-0.25,3.71-0.22,5.47,0.08c1.76,0.3,3.36,0.9,4.76,1.81C269.78,45.97,270.91,48.21,271.24,51.14z M265.88,50.02
		c-1.18-0.57-2.58-0.9-4.15-0.97c-1.58-0.06-3.21,0.17-4.87,0.7s-3.31,1.33-4.94,2.4c-1.63,1.07-3.11,2.37-4.46,3.89
		c3.79,0.02,7.34-0.36,10.68-1.25C261.47,53.91,264.1,52.39,265.88,50.02z"/>
	<path class="st1" d="M285.72,53.46c-0.1-0.37-0.09-0.83,0.03-1.38c0.12-0.55,0.31-0.98,0.59-1.31c2.18-0.49,4.12-1.18,5.79-2.13
		c1.67-0.95,3.27-2.25,4.79-3.93c1.14-1.27,2.27-2.79,3.37-4.56c1.07,1.08,2.05,2.24,2.94,3.47c0.89,1.23,1.6,2.42,2.15,3.54
		c0.55,1.13,0.9,2.17,1.06,3.1c0.16,0.94,0.11,1.65-0.14,2.13C299.53,55.64,292.75,55.76,285.72,53.46z"/>
	<path class="st1" d="M300.03,81.11c-0.69,0.44-1.47,0.79-2.34,1.08c-0.87,0.29-1.71,0.48-2.52,0.58c-0.81,0.1-1.53,0.11-2.17,0.04
		c-0.65-0.07-1.08-0.26-1.33-0.57c-0.3-0.45-0.25-0.9,0.16-1.35c0.1-0.08,0.3-0.16,0.59-0.23c0.29-0.07,0.62-0.16,0.98-0.25
		s0.71-0.19,1.06-0.3c0.35-0.11,0.62-0.24,0.82-0.4c0.47-0.37,0.77-0.8,0.88-1.32c0.11-0.51-0.01-1-0.36-1.44
		c-1.29-1.62-3.12-2.13-5.41-1.54c-2.29,0.59-4.97,2.29-8.06,5.02c-0.32,0.28-0.5,0.47-0.53,0.56c0.63,0.72,1.19,1.37,1.68,1.95
		s0.96,1.16,1.43,1.73c-0.04,0.09-0.16,0.21-0.35,0.37c-0.3,0.24-0.57,0.34-0.82,0.31c-0.83-0.68-1.5-1.2-2-1.57
		c-0.51-0.37-0.91-0.63-1.21-0.78c-0.3-0.15-0.53-0.2-0.69-0.16c-0.16,0.05-0.33,0.16-0.52,0.33c-0.26,0.23-0.5,0.46-0.74,0.7
		c-0.24,0.24-0.55,0.53-0.94,0.87c-2.69,2.36-5.47,3.52-8.29,3.68c-2.82,0.15-5.38-0.7-7.84-2.53c-0.36-0.39-0.64-0.89-0.86-1.49
		c-0.22-0.6-0.37-1.25-0.45-1.94c-0.08-0.69-0.08-1.38,0-2.07c0.08-0.69,0.25-1.32,0.51-1.88c1.04-1.26,2.28-2.26,3.74-2.97
		c1.46-0.71,3.01-1.11,4.64-1.18c1.63-0.07,3.31,0.21,4.99,0.84c1.68,0.64,3.23,1.68,4.59,3.13c0.78-0.74,1.46-1.54,2.05-2.42
		c0.59-0.88,1.14-1.75,1.65-2.61c0.51-0.86,1.02-1.7,1.51-2.52c0.49-0.82,1.06-1.55,1.7-2.18c0.83-0.81,1.83-1.42,3.04-1.81
		c1.21-0.39,2.48-0.58,3.83-0.55c1.35,0.03,2.71,0.29,4.07,0.8c1.37,0.5,2.61,1.22,3.72,2.15c0.29,0.54,0.51,1.4,0.66,2.58
		c0.15,1.17,0.22,2.38,0.2,3.62c-0.02,1.24-0.12,2.39-0.31,3.46C300.61,79.94,300.35,80.68,300.03,81.11z M263.4,83.63
		c0.97,0.32,2.04,0.48,3.22,0.5c1.18,0.01,2.36-0.1,3.55-0.35c1.19-0.25,2.34-0.62,3.45-1.13c1.11-0.5,2.08-1.13,2.89-1.89
		c-0.69-0.55-1.64-0.97-2.84-1.24c-1.2-0.27-2.43-0.38-3.7-0.32c-1.27,0.05-2.45,0.26-3.53,0.6c-1.08,0.34-1.86,0.79-2.35,1.33
		C263.46,81.83,263.24,82.66,263.4,83.63z"/>
	<path class="st0" d="M63.99,121.21c-0.34,0-0.67,0.03-1.01,0.1c-0.89,0.17-1.47,0.41-1.73,0.75c-0.15,0.28-0.38,0.88-0.69,1.77
		c-0.3,0.89-0.6,1.95-0.88,3.16c-0.28,1.21-0.53,2.54-0.76,3.98c-0.22,1.44-0.33,2.87-0.33,4.32c0,0.23,0,0.47,0,0.7
		c0,1.13,0.09,2.24,0.27,3.34c0.18,1.1,0.48,2.14,0.89,3.15c0.41,1.01,0.95,1.92,1.6,2.75c0.65,0.82,1.45,1.51,2.39,2.06
		c0.62,0.36,1.25,0.54,1.88,0.54c0.07,0,0.14,0,0.2-0.01c0.7-0.04,1.38-0.24,2.06-0.6c0.67-0.36,1.31-0.86,1.92-1.51
		c0.61-0.65,1.18-1.34,1.72-2.07c0.3,2.24,0.88,4.3,1.74,6.2c0.86,1.9,2.16,3.32,3.91,4.19c0.66,0.32,1.29,0.49,1.9,0.49
		c0.39,0,0.78-0.07,1.15-0.21c0.96-0.35,1.87-1.03,2.73-2.05c0.86-1.01,1.66-2.27,2.39-3.76c0.73-1.49,1.39-3.1,1.98-4.81
		c0.26,0.19,0.53,0.36,0.79,0.5c0.27,0.14,0.51,0.25,0.74,0.32c1.02,0.33,2.02,0.5,2.98,0.5c0.37,0,0.73-0.02,1.09-0.07
		c0.96-0.13,1.87-0.37,2.72-0.72c0.29-1.27,0.69-2.55,1.2-3.85c0.01-0.03,0.02-0.06,0.03-0.09c-0.16,0.09-0.32,0.18-0.48,0.27
		c-0.71,0.38-1.49,0.63-2.35,0.75c-0.26,0.04-0.52,0.06-0.79,0.06c-0.63,0-1.29-0.1-1.99-0.3c-1.07-0.31-1.95-0.78-2.62-1.4
		c0.65-2.47,1.16-4.74,1.53-6.77c0.37-2.03,0.57-3.49,0.59-4.34c0.03-1.18-0.43-1.86-1.39-2.04c-0.16-0.03-0.32-0.04-0.49-0.04
		c-0.4,0-0.83,0.09-1.29,0.26c-0.65,0.24-1.26,0.68-1.83,1.3c-0.58,0.63-1.05,1.46-1.43,2.5c-0.37,1.04-0.58,2.34-0.62,3.91
		c-0.02,0.71,0,1.34,0.07,1.9c0.06,0.56,0.14,1.13,0.24,1.72c-0.26,1.26-0.63,2.66-1.09,4.21c-0.46,1.55-0.99,2.97-1.57,4.25
		c-0.59,1.28-1.24,2.29-1.96,3.02c-0.47,0.48-0.96,0.71-1.48,0.71c-0.27,0-0.55-0.07-0.83-0.2c-0.56-0.26-1.04-0.76-1.44-1.49
		c-0.4-0.73-0.74-1.58-1.02-2.53c-0.28-0.95-0.5-1.95-0.65-3c-0.15-1.05-0.27-2.04-0.37-2.96c0.04-0.17,0.12-0.33,0.24-0.47
		c1.23-2.81,2.31-5.54,3.22-8.1c0.92-2.56,1.4-4.67,1.44-6.22c0.01-0.63-0.13-1.15-0.43-1.55c-0.3-0.4-0.68-0.65-1.14-0.74
		c-0.29-0.06-0.57-0.09-0.83-0.09c-0.78,0-1.44,0.26-1.98,0.77c-0.72,0.68-1.3,1.68-1.72,2.99c-0.42,1.32-0.72,2.88-0.88,4.7
		c-0.17,1.82-0.27,3.75-0.3,5.79c-0.01,0.32-0.01,0.61-0.02,0.88c0,0.27,0.01,0.55,0.04,0.84c-1.14,2.61-2.28,4.22-3.42,4.9
		c-0.66,0.39-1.28,0.58-1.86,0.58c-0.43,0-0.84-0.1-1.23-0.3c-0.77-0.4-1.33-0.99-1.7-1.76c-0.36-0.77-0.54-1.8-0.53-3.12
		c0.01-1.07,0.16-2.33,0.47-3.82c0.31-1.49,0.67-2.99,1.07-4.53c0.41-1.53,0.81-2.97,1.2-4.3c0.39-1.33,0.67-2.35,0.83-3.04
		c0.12-0.48,0.17-0.9,0.16-1.25c-0.02-0.35-0.23-0.59-0.65-0.73C65.08,121.3,64.53,121.21,63.99,121.21"/>
	<path class="st0" d="M100.37,146.54c0.34-2.32,0.81-4.35,1.41-6.09c0.6-1.74,1.23-3.21,1.89-4.39c0.66-1.18,1.32-2.07,1.99-2.66
		c0.58-0.52,1.09-0.78,1.53-0.78c0.06,0,0.11,0,0.17,0.01c0.43,0.07,0.75,0.38,0.97,0.93c0.22,0.55,0.27,1.38,0.16,2.5
		c-0.11,1.06-0.52,2.27-1.23,3.62c-0.71,1.34-1.93,2.81-3.65,4.31c-0.56,0.51-1.12,0.96-1.68,1.37
		C101.36,145.76,100.85,146.16,100.37,146.54 M108.44,127.75c-1.33,0-2.67,0.53-4.01,1.56c-1.58,1.21-3.01,2.78-4.3,4.69
		c-1.27,1.89-2.35,3.98-3.25,6.27c-0.01,0.03-0.02,0.06-0.03,0.09c-0.51,1.31-0.91,2.59-1.2,3.85c-0.23,0.99-0.39,1.97-0.49,2.94
		c-0.27,2.71-0.2,5.09,0.22,7.2c0.42,2.11,1.02,3.94,1.78,5.47c0.77,1.54,1.63,2.8,2.6,3.78c0.96,0.97,1.87,1.62,2.72,1.94
		c0.83,0.31,1.68,0.47,2.54,0.47c0.83,0,1.67-0.14,2.53-0.44c1.76-0.6,3.5-1.64,5.22-3.14c1.72-1.5,3.36-3.36,4.92-5.58
		c0.23-0.33,0.46-0.67,0.69-1.01c0.01-1.25,0.04-2.6,0.11-4.05c0.02-0.52,0.05-1.04,0.08-1.57c-0.35,0.52-0.72,1.06-1.12,1.62
		c-1.25,1.79-2.6,3.44-4.04,4.94c-1.44,1.5-2.9,2.67-4.38,3.52c-0.96,0.55-1.89,0.83-2.78,0.83c-0.48,0-0.95-0.08-1.41-0.23
		c-0.62-0.21-1.22-0.54-1.81-1.01c-0.59-0.46-1.11-1.08-1.55-1.84c-0.44-0.76-0.81-1.68-1.08-2.75c-0.28-1.07-0.42-2.33-0.41-3.76
		c0.6-0.45,1.29-0.95,2.09-1.5c0.8-0.56,1.63-1.16,2.51-1.81c0.8-0.61,1.65-1.31,2.56-2.11c0.9-0.8,1.77-1.74,2.58-2.83
		c0.82-1.09,1.53-2.37,2.15-3.85c0.61-1.47,1.01-3.15,1.18-5.02c0.13-1.7-0.12-3.18-0.75-4.43c-0.63-1.25-1.68-1.97-3.16-2.18
		C108.91,127.76,108.68,127.75,108.44,127.75"/>
	<path class="st0" d="M132.31,100.52c-0.29,0-0.6,0.06-0.93,0.17c-0.45,0.16-0.92,0.43-1.4,0.78c-0.48,0.36-0.9,0.89-1.27,1.6
		c-0.29,0.52-0.72,1.68-1.3,3.48c-0.58,1.8-1.22,4.02-1.92,6.66c-0.7,2.63-1.44,5.57-2.22,8.79c-0.78,3.22-1.49,6.54-2.14,9.94
		c-0.65,3.41-1.22,6.8-1.71,10.19c-0.41,2.81-0.69,5.51-0.85,8.09c-0.03,0.53-0.06,1.05-0.08,1.57c-0.07,1.45-0.1,2.8-0.11,4.05
		c-0.01,2.68,0.12,4.9,0.39,6.68c0.4,2.61,0.91,4.58,1.55,5.91c0.63,1.33,1.3,2.19,2.01,2.59c0.7,0.39,1.27,0.65,1.71,0.77
		c0.31,0.09,0.63,0.13,0.94,0.13c1.09,0,2.21-0.51,3.36-1.54c1.49-1.34,2.86-3.19,4.12-5.55c1.26-2.36,2.34-5.03,3.25-7.99
		c0.91-2.96,1.47-5.79,1.7-8.45c0.29,0.04,0.6,0.06,0.92,0.06c0.46,0,0.95-0.04,1.47-0.13c0.88-0.15,1.8-0.4,2.76-0.76
		c0.96-0.35,1.93-0.84,2.92-1.45c0.99-0.61,1.94-1.31,2.87-2.12c0.36-0.24,0.61-0.61,0.74-1.12c0.13-0.51,0.15-0.97,0.06-1.4
		c-0.09-0.42-0.27-0.72-0.55-0.88c-0.1-0.06-0.2-0.09-0.32-0.09c-0.22,0-0.47,0.1-0.75,0.29c-1.57,1.02-3.23,1.81-4.99,2.35
		c-1.39,0.43-2.73,0.65-4.01,0.65c-0.34,0-0.67-0.01-1-0.04c-0.1-2.24-0.37-4.1-0.81-5.6c-0.44-1.49-0.99-2.27-1.66-2.35
		c-0.07-0.01-0.13-0.01-0.2-0.01c-0.38,0-0.79,0.12-1.23,0.35c-0.52,0.27-1.01,0.68-1.45,1.22c-0.45,0.54-0.84,1.2-1.18,1.98
		c-0.34,0.78-0.52,1.63-0.54,2.54c-0.04,1.38,0.19,2.51,0.68,3.42c0.49,0.9,1.11,1.58,1.85,2.03c-0.17,1.9-0.53,4.02-1.09,6.34
		c-0.56,2.32-1.22,4.46-1.98,6.41c-0.77,1.95-1.62,3.54-2.57,4.75c-0.79,1.01-1.58,1.52-2.37,1.52c-0.16,0-0.31-0.02-0.47-0.06
		c-1.14-0.29-1.87-1.9-2.18-4.8c-0.31-2.9-0.21-6.58,0.32-11.1c0.64-1.73,1.38-3.78,2.22-6.15c0.84-2.38,1.68-5.05,2.53-8.03
		c0.85-2.98,1.69-6.21,2.51-9.71c0.82-3.5,1.58-7.21,2.27-11.13c0.77-4.11,1.24-7.51,1.41-10.15c0.17-2.64,0.14-4.1-0.09-4.36
		c-0.15-0.13-0.42-0.23-0.81-0.3C132.54,100.52,132.43,100.52,132.31,100.52"/>
	<path class="st0" d="M171.86,129.69c-0.33,0-0.68,0.12-1.05,0.35c-0.8,0.51-1.58,1.29-2.34,2.33c-0.77,1.04-1.43,2.21-2.01,3.51
		c-0.57,1.3-0.95,2.44-1.12,3.43c-0.22,1.2-0.18,2.28,0.11,3.22c0.29,0.95,0.39,1.7,0.3,2.27c-0.04,0.21-0.27,0.83-0.68,1.83
		c-0.41,1.01-0.87,2.15-1.36,3.44c-0.5,1.28-0.99,2.53-1.49,3.73c-0.5,1.2-0.87,2.07-1.12,2.62c-0.33,0.82-0.49,1.54-0.48,2.14
		c0.01,0.6,0.11,1.08,0.31,1.42c0.16,0.28,0.35,0.41,0.58,0.41c0.05,0,0.11-0.01,0.16-0.02c0.3-0.08,0.62-0.42,0.95-1.03
		c0.21-0.41,0.58-1.18,1.11-2.31c0.54-1.13,1.1-2.37,1.7-3.72c0.6-1.35,1.15-2.65,1.67-3.91c0.52-1.26,0.87-2.16,1.08-2.73
		c0.08,0.29,0.18,0.82,0.31,1.58c0.13,0.76,0.27,1.54,0.42,2.34c0.15,0.94,0.34,1.96,0.56,3.05c0.26,1.46,0.58,3.06,0.97,4.81
		c0.38,1.75,0.73,3.49,1.06,5.2c0.32,1.72,0.56,3.32,0.7,4.81c0.14,1.49,0.13,2.62-0.04,3.4c-0.17,0.78-0.43,1.41-0.78,1.88
		c-0.35,0.48-0.72,0.84-1.1,1.09c-0.34,0.22-0.68,0.33-1.01,0.33c-0.05,0-0.09,0-0.14-0.01c-0.38-0.04-0.69-0.21-0.93-0.52
		c-0.2-0.3-0.41-0.86-0.65-1.68c-0.19-0.73-0.44-1.75-0.75-3.03c-0.31-1.28-0.65-3.05-1.02-5.3c-0.49,0.24-0.91,0.45-1.27,0.63
		c-0.36,0.18-0.65,0.37-0.85,0.56c-0.24,0.26-0.45,0.49-0.61,0.69c-0.41,0.6-0.72,1.14-0.93,1.61c-0.21,0.48-0.44,1.13-0.69,1.95
		c-0.21,0.62-0.19,1.54,0.05,2.78c0.24,1.24,0.63,2.51,1.15,3.82c0.53,1.31,1.18,2.48,1.95,3.49c0.77,1.02,1.59,1.58,2.44,1.67
		c0.13,0.01,0.27,0.02,0.4,0.02c1.07,0,2.1-0.47,3.11-1.39c1.13-1.05,2.13-2.35,3.01-3.91c0.88-1.56,1.63-3.19,2.23-4.88
		c0.6-1.7,0.97-3.16,1.1-4.38c0.09-0.79,0.03-1.77-0.16-2.94c-0.19-1.17-0.44-2.43-0.75-3.79c-0.31-1.36-0.66-2.73-1.05-4.12
		c-0.39-1.39-0.75-2.75-1.1-4.07c-0.27-1.03-0.52-2.16-0.75-3.39c-0.19-1.02-0.39-2.22-0.59-3.6c-0.21-1.38-0.36-2.9-0.46-4.56
		c0.61-1.27,1.08-2.31,1.4-3.13c0.33-0.81,0.57-1.51,0.74-2.08c0.16-0.57,0.29-1.04,0.37-1.4c0.09-0.72-0.03-1.43-0.34-2.12
		c-0.31-0.7-0.72-1.34-1.23-1.93C172.61,129.85,172.25,129.69,171.86,129.69"/>
	<path class="st0" d="M186.68,159.2c0.29-3.05,0.72-5.76,1.29-8.11c0.57-2.36,1.17-4.35,1.82-5.99c0.64-1.63,1.29-2.89,1.95-3.76
		c0.66-0.87,1.22-1.3,1.7-1.3c0,0,0,0,0,0c0.44,0,0.78,0.31,1.01,0.93c0.24,0.62,0.32,1.63,0.24,3.01c-0.08,1.31-0.46,2.88-1.14,4.7
		c-0.68,1.82-1.88,3.93-3.61,6.32c-0.56,0.8-1.13,1.53-1.69,2.21C187.69,157.9,187.16,158.56,186.68,159.2 M195.11,133.81
		c-1.59,0-3.17,0.91-4.74,2.72c-1.57,1.81-2.99,4.09-4.26,6.83c-1.27,2.75-2.34,5.75-3.22,9.04c-0.88,3.28-1.41,6.4-1.59,9.37
		c-0.22,3.62-0.09,6.71,0.39,9.28c0.49,2.57,1.15,4.67,2,6.3c0.84,1.63,1.78,2.85,2.81,3.65c1.03,0.8,1.99,1.21,2.89,1.22
		c0.04,0,0.08,0,0.12,0c1.67,0,3.38-0.71,5.14-2.13c1.8-1.46,3.56-3.39,5.28-5.79c0.61-0.86,1.22-1.76,1.81-2.71
		c0.23-0.84,0.47-1.74,0.72-2.7c0.58-2.16,1.2-4.51,1.88-7.04c0.28-1.05,0.55-2.08,0.82-3.09c-0.26,0.52-0.52,1.06-0.8,1.62
		c-1.22,2.43-2.54,4.78-3.96,7.03c-1.43,2.25-2.89,4.16-4.38,5.73c-1.48,1.56-2.91,2.34-4.27,2.34c-0.01,0-0.03,0-0.04,0
		c-0.65-0.01-1.28-0.18-1.91-0.52c-0.63-0.34-1.18-0.9-1.66-1.67c-0.48-0.78-0.88-1.79-1.2-3.04c-0.32-1.25-0.49-2.78-0.53-4.6
		c0.61-0.78,1.31-1.66,2.12-2.63c0.81-0.97,1.65-1.99,2.54-3.08c0.81-1.01,1.66-2.13,2.56-3.37c0.9-1.24,1.75-2.62,2.55-4.16
		c0.8-1.53,1.49-3.25,2.06-5.15c0.58-1.9,0.92-3.98,1.04-6.24c0.08-2.04-0.23-3.75-0.9-5.13
		C197.71,134.5,196.62,133.81,195.11,133.81"/>
	<path class="st0" d="M212.92,127.58c-0.02,0-0.04,0-0.06,0c-0.59,0.01-1.2,0.53-1.83,1.56c-0.63,1.03-1.19,2.26-1.7,3.68
		c-0.51,1.43-0.91,2.91-1.22,4.44c-0.31,1.53-0.42,2.77-0.34,3.71c0.09,1.09,0.21,1.79,0.37,2.12c0.16,0.32,0.46,0.84,0.91,1.55
		c-0.23,0.81-0.61,2.11-1.11,3.9c-0.51,1.8-1.07,3.83-1.68,6.1c-0.36,1.33-0.72,2.7-1.1,4.11c-0.27,1.01-0.54,2.04-0.82,3.09
		c-0.67,2.53-1.3,4.88-1.88,7.04c-0.26,0.96-0.5,1.86-0.72,2.7c-0.28,1.05-0.54,2-0.77,2.86c-0.42,1.54-0.69,2.53-0.81,2.97
		c-0.24,0.88-0.32,1.61-0.24,2.19c0.08,0.58,0.26,0.96,0.52,1.14c0.11,0.07,0.22,0.11,0.34,0.11c0.18,0,0.37-0.08,0.57-0.23
		c0.34-0.27,0.66-0.8,0.94-1.61c0.12-0.29,0.43-1.2,0.93-2.7c0.5-1.51,1.11-3.35,1.83-5.52c0.72-2.17,1.48-4.51,2.29-7.01
		c0.81-2.5,1.58-4.89,2.3-7.17c0.73-2.28,1.36-4.26,1.91-5.95c0.55-1.69,0.9-2.79,1.05-3.3c0.32,0.13,0.66,0.34,1.02,0.61
		c0.33,0.25,0.73,0.38,1.2,0.38c0.04,0,0.08,0,0.12,0c0.36-0.02,0.63-0.05,0.81-0.09c0.18-0.04,0.32-0.07,0.42-0.07
		c0.1,0,0.2-0.03,0.3-0.07c0.1-0.04,0.27-0.07,0.51-0.08c0.01,0,0.03,0,0.04,0c0.34,0,0.59,0.24,0.75,0.72
		c0.16,0.5,0.25,1.07,0.26,1.72c0.01,1.01-0.19,2.26-0.59,3.76c-0.4,1.5-0.94,3.32-1.6,5.45c-0.27,1.03-0.57,2.08-0.9,3.14
		c-0.33,1.07-0.64,2.14-0.94,3.2c-0.29,1.07-0.55,2.09-0.76,3.08c-0.21,0.99-0.34,1.92-0.37,2.79c-0.03,1.09,0.05,2.26,0.24,3.52
		c0.19,1.25,0.51,2.4,0.94,3.41c0.43,1.02,1,1.86,1.69,2.53c0.61,0.58,1.36,0.88,2.24,0.88c0.12,0,0.25-0.01,0.38-0.02
		c1.01-0.09,2.07-0.73,3.17-1.92c1.1-1.19,2.19-2.68,3.28-4.48c1.09-1.79,2.12-3.77,3.09-5.9c0.97-2.13,1.85-4.19,2.64-6.19
		c-0.14-1.49-0.24-3.02-0.31-4.61c-0.03-0.59-0.05-1.16-0.07-1.73c-0.28,0.71-0.59,1.46-0.91,2.25c-0.7,1.67-1.45,3.38-2.27,5.13
		c-0.82,1.76-1.65,3.38-2.5,4.85c-0.85,1.48-1.68,2.71-2.49,3.68c-0.82,0.97-1.57,1.49-2.25,1.55c-0.12,0.01-0.23,0.02-0.33,0.02
		c-0.73,0-1.19-0.25-1.37-0.74c-0.21-0.56-0.36-1.31-0.45-2.24c-0.1-1.44,0.13-3.08,0.67-4.92c0.54-1.84,1.09-3.5,1.63-4.98
		c0.9-2.37,1.65-4.54,2.27-6.52c0.61-1.98,0.85-3.86,0.71-5.64c-0.05-0.86-0.15-1.8-0.31-2.83c-0.15-1.03-0.37-1.98-0.66-2.86
		c-0.29-0.88-0.66-1.61-1.1-2.2c-0.42-0.55-0.95-0.83-1.58-0.83c-0.03,0-0.07,0-0.1,0c-0.56,0.03-0.96,0.12-1.22,0.27
		c-0.26,0.16-0.71,0.25-1.34,0.28c-0.04,0-0.09,0-0.13,0c-0.37,0-0.65-0.08-0.83-0.23c-0.2-0.17-0.36-0.33-0.48-0.47
		c0.43-1.17,0.71-2.48,0.86-3.93c0.14-1.45,0.17-2.64,0.08-3.58c-0.09-1.37-0.37-2.7-0.84-3.98
		C214.76,128.21,213.99,127.58,212.92,127.58"/>
	<path class="st0" d="M249.95,133.01c-0.09,0-0.19,0-0.29,0.01c-0.51,0.05-1.08,0.46-1.72,1.23c-0.63,0.78-1.24,1.84-1.83,3.2
		c-0.58,1.36-1.09,3.01-1.53,4.94c-0.43,1.94-0.69,4.09-0.76,6.44c-0.01,1.52,0.12,2.82,0.38,3.88c-0.63,2.22-1.31,4.39-2.05,6.5
		c-0.74,2.11-1.44,3.99-2.11,5.61c-0.67,1.63-1.26,2.96-1.79,3.98c-0.52,1.02-0.88,1.55-1.08,1.58c-0.01,0-0.01,0-0.02,0
		c-0.16,0-0.38-0.32-0.66-0.96c-0.29-0.66-0.57-1.66-0.84-2.99c-0.26-1.33-0.47-3-0.63-4.98c-0.16-1.99-0.2-4.32-0.13-7
		c0.05-1.55,0.15-3.18,0.3-4.88c0.15-1.7,0.31-3.33,0.48-4.89c0.17-1.56,0.33-2.96,0.49-4.2c0.16-1.24,0.27-2.18,0.33-2.81
		c0.11-0.71,0.08-1.23-0.09-1.57c-0.17-0.34-0.4-0.55-0.7-0.63c-0.14-0.04-0.28-0.06-0.44-0.06c-0.17,0-0.36,0.03-0.55,0.08
		c-0.35,0.09-0.67,0.22-0.94,0.38c-0.63,0.32-1.15,0.71-1.56,1.16c-0.41,0.45-0.75,1.15-1.04,2.09c-0.28,0.94-0.51,2.25-0.68,3.92
		c-0.17,1.68-0.32,3.9-0.43,6.68c-0.06,2.31-0.05,4.87,0.05,7.67c0.02,0.57,0.04,1.14,0.07,1.73c0.07,1.58,0.17,3.12,0.31,4.61
		c0.16,1.8,0.37,3.52,0.63,5.18c0.47,3.02,1.12,5.53,1.94,7.5c0.74,1.79,1.67,2.68,2.77,2.68c0.11,0,0.22-0.01,0.33-0.03
		c0.52-0.08,1.2-0.81,2.04-2.17c0.84-1.36,1.75-3.12,2.73-5.26c0.98-2.14,1.99-4.54,3.04-7.19c1.04-2.65,2.05-5.35,3.03-8.1
		c0.4,0.15,0.78,0.23,1.14,0.24c0.09,0,0.18,0.01,0.27,0.01c0.24,0,0.45-0.01,0.63-0.04c2.74-0.43,5.1-1.75,7.09-3.88
		c0.41-0.44,0.81-0.91,1.2-1.4c0.04-0.55,0.08-1.11,0.12-1.67c0.08-1.02,0.17-2.02,0.27-3c-0.36,0.48-0.75,0.94-1.17,1.4
		c-0.79,0.86-1.72,1.64-2.8,2.34c-1.07,0.7-2.29,1.16-3.63,1.36c-0.1,0.01-0.2,0.02-0.29,0.02c-0.2,0-0.38-0.03-0.55-0.1
		c-0.24-0.1-0.46-0.21-0.66-0.31c0.96-3.06,1.74-5.86,2.33-8.41c0.59-2.54,0.91-4.52,0.96-5.94c0.06-0.95-0.05-1.86-0.33-2.75
		C251.37,133.41,250.81,133.01,249.95,133.01"/>
	<path class="st0" d="M265.08,132.1c-0.15,0-0.37,0.03-0.68,0.09c-0.49,0.09-1.03,0.26-1.61,0.49c-0.58,0.23-1.15,0.51-1.69,0.84
		c-0.54,0.33-0.91,0.7-1.09,1.11c-0.59,1.39-1.1,3.46-1.52,6.23c-0.28,1.85-0.52,3.76-0.72,5.74c-0.1,0.99-0.19,1.99-0.27,3
		c-0.04,0.56-0.08,1.12-0.12,1.67c-0.17,2.48-0.27,4.91-0.3,7.29c-0.04,2.91,0.01,5.18,0.18,6.81c0.07,1.12,0.29,2.15,0.68,3.1
		c0.38,0.95,0.85,1.73,1.41,2.36c0.55,0.63,1.16,1.07,1.83,1.33c0.34,0.13,0.69,0.2,1.03,0.2c0.32,0,0.65-0.06,0.97-0.17
		c0.83-0.28,1.88-1.42,3.16-3.37c1.27-1.95,2.57-4.24,3.88-6.84c0.64-1.27,1.26-2.56,1.86-3.85c-0.17-1.32-0.28-2.65-0.31-3.99
		c-0.02-0.59-0.01-1.22,0.02-1.91c-0.82,1.74-1.69,3.48-2.62,5.23c-1.18,2.23-2.35,4.2-3.51,5.9c-1.16,1.71-2.14,2.67-2.93,2.86
		c-0.06,0.01-0.12,0.02-0.18,0.02c-0.21,0-0.41-0.09-0.6-0.28c-0.25-0.24-0.48-0.73-0.7-1.47c-0.22-0.61-0.3-1.54-0.25-2.81
		c0.04-1.26,0.16-2.61,0.34-4.06c0.18-1.45,0.39-2.93,0.62-4.45c0.24-1.52,0.44-2.88,0.6-4.08c0.17-1.21,0.42-2.77,0.76-4.68
		c0.34-1.91,0.67-3.76,0.97-5.55c0.3-1.79,0.56-3.34,0.76-4.66c0.2-1.32,0.28-2,0.24-2.06C265.22,132.11,265.17,132.1,265.08,132.1
		 M265.8,106.82c-0.1,0-0.2,0.02-0.31,0.05c-0.43,0.14-0.92,0.59-1.49,1.34c-0.57,0.76-1.03,1.68-1.39,2.76
		c-0.36,1.08-0.51,2.23-0.43,3.42c0.07,1.2,0.53,2.29,1.38,3.27c0.2,0.26,0.43,0.39,0.7,0.39c0.12,0,0.24-0.02,0.37-0.07
		c0.43-0.16,0.84-0.46,1.24-0.9c0.4-0.44,0.76-1.01,1.07-1.7c0.31-0.69,0.52-1.38,0.62-2.09c0.1-0.64,0.13-1.37,0.08-2.2
		c-0.04-0.82-0.15-1.57-0.33-2.23c-0.17-0.66-0.42-1.19-0.72-1.6C266.35,106.97,266.09,106.82,265.8,106.82"/>
	<path class="st0" d="M284.6,127.04c-0.16,0-0.33,0.01-0.5,0.04c-2.22,0.32-4.12,1.49-5.7,3.59c-1.58,2.09-2.87,4.54-3.87,7.36
		c-1,2.81-1.73,5.72-2.19,8.71c-0.32,2.08-0.52,3.92-0.59,5.5c-0.03,0.68-0.04,1.32-0.02,1.91c0.04,1.34,0.14,2.67,0.31,3.99
		c0.08,0.59,0.17,1.19,0.27,1.78c0.33,1.9,0.86,3.57,1.6,4.98c0.73,1.42,1.69,2.45,2.87,3.1c0.61,0.34,1.3,0.5,2.06,0.5
		c0.7,0,1.46-0.14,2.28-0.43c1.24-0.43,2.49-1.31,3.74-2.62c1.25-1.31,2.45-2.83,3.61-4.55c1.16-1.72,2.26-3.55,3.31-5.48
		c0.73-1.35,1.41-2.66,2.04-3.92c-0.12-1.19-0.15-2.51-0.09-3.98c0.02-0.42,0.04-0.85,0.08-1.29c-0.98,2.01-2.06,4.04-3.23,6.1
		c-1.31,2.31-2.67,4.43-4.07,6.33c-1.41,1.91-2.71,3.08-3.91,3.47c-0.48,0.16-0.97,0.24-1.48,0.24c-0.19,0-0.38-0.01-0.58-0.03
		c-0.71-0.08-1.37-0.4-1.97-0.95c-0.61-0.56-1.13-1.42-1.55-2.6c-0.43-1.18-0.65-2.79-0.68-4.83c-0.07-3.51,0.23-6.67,0.89-9.45
		c0.66-2.78,1.44-5.12,2.35-7.01c0.9-1.9,1.8-3.34,2.69-4.36c0.89-1.02,1.51-1.55,1.86-1.61c0.06-0.01,0.13-0.02,0.18-0.02
		c0.26,0,0.45,0.11,0.59,0.33c0.16,0.27,0.25,0.6,0.27,1.01c0.01,0.41-0.04,0.8-0.17,1.18c-0.13,0.38-0.3,0.67-0.53,0.9
		c-0.3,0.29-0.57,0.55-0.8,0.77c-0.23,0.22-0.43,0.56-0.61,1.01c-0.07,0.25-0.12,0.74-0.16,1.46c-0.04,0.72-0.01,1.45,0.07,2.18
		c0.08,0.73,0.25,1.35,0.53,1.85c0.22,0.41,0.51,0.61,0.89,0.61c0.09,0,0.18-0.01,0.28-0.03c0.62-0.14,1.19-0.51,1.69-1.1
		c0.51-0.59,0.95-1.32,1.31-2.18c0.36-0.87,0.65-1.83,0.85-2.88c0.2-1.05,0.29-2.09,0.26-3.13c-0.03-2.18-0.5-3.82-1.41-4.95
		C286.55,127.53,285.64,127.04,284.6,127.04"/>
	<path class="st0" d="M298.79,143.9c0.2-2.34,0.55-4.46,1.03-6.34c0.49-1.88,1.02-3.48,1.6-4.81c0.58-1.33,1.18-2.38,1.8-3.14
		c0.62-0.76,1.16-1.19,1.62-1.29c0.08-0.02,0.16-0.03,0.23-0.03c0.31,0,0.57,0.15,0.76,0.46c0.24,0.38,0.34,1.06,0.29,2.04
		c-0.05,0.93-0.39,2.12-1,3.57c-0.62,1.46-1.72,3.27-3.32,5.49c-0.52,0.74-1.04,1.44-1.56,2.11
		C299.72,142.63,299.24,143.27,298.79,143.9 M307.36,123.53c-0.32,0-0.66,0.03-1.02,0.1c-1.54,0.29-3.05,1.2-4.54,2.81
		c-1.49,1.61-2.8,3.56-3.96,5.89c-1.15,2.32-2.11,4.85-2.86,7.58c-0.62,2.23-1.01,4.35-1.18,6.32c-0.04,0.44-0.06,0.87-0.08,1.29
		c-0.06,1.46-0.03,2.79,0.09,3.98c0.11,1.12,0.29,2.11,0.56,2.98c0.54,1.78,1.23,3.12,2.06,4.01c0.84,0.89,1.75,1.41,2.74,1.57
		c0.28,0.04,0.56,0.07,0.84,0.07c0.67,0,1.3-0.13,1.89-0.4c1.59-0.7,3.21-1.97,4.86-3.75c1.65-1.78,3.25-3.83,4.8-6.12
		c1.56-2.29,3.02-4.71,4.41-7.23c1.06-1.94,2.04-3.83,2.93-5.69c-0.32,0.63-0.55,1.08-0.69,1.35c-0.29,0.53-0.58,0.88-0.86,1.06
		c-0.16,0.1-0.3,0.15-0.43,0.15c-0.1,0-0.19-0.03-0.27-0.09c-0.19-0.14-0.3-0.4-0.33-0.79c-0.03-0.39,0.1-0.92,0.39-1.58
		c0.04-0.09,0.09-0.19,0.14-0.29c-0.41,0.72-0.85,1.5-1.32,2.35c-1.12,1.97-2.32,3.97-3.62,5.99c-1.3,2.02-2.63,3.87-4,5.54
		c-1.37,1.67-2.69,2.79-3.98,3.33c-0.61,0.25-1.21,0.38-1.8,0.38c0,0,0,0,0,0c-0.59,0-1.13-0.19-1.6-0.57
		c-0.47-0.38-0.87-0.97-1.21-1.78c-0.33-0.8-0.54-1.87-0.61-3.21c0.56-0.79,1.21-1.67,1.95-2.64c0.74-0.97,1.52-1.99,2.34-3.04
		c0.74-0.98,1.53-2.04,2.36-3.18c0.83-1.14,1.62-2.35,2.35-3.63c0.73-1.28,1.36-2.64,1.88-4.07c0.52-1.43,0.82-2.92,0.9-4.46
		c0.04-1.39-0.27-2.47-0.95-3.27C309.04,123.83,308.31,123.53,307.36,123.53"/>
	<path class="st0" d="M326.82,117.33c-0.45,0-0.94,0.16-1.46,0.48c-0.76,0.47-1.5,1.1-2.21,1.9c-0.71,0.8-1.33,1.67-1.85,2.61
		c-0.52,0.94-0.85,1.75-0.99,2.41c-0.18,0.81-0.12,1.47,0.17,1.97c0.29,0.5,0.4,0.93,0.33,1.31c-0.04,0.14-0.24,0.59-0.6,1.35
		c-0.37,0.76-0.77,1.63-1.21,2.62c-0.44,0.98-0.87,1.96-1.31,2.91c-0.35,0.77-0.63,1.38-0.84,1.83c-0.05,0.11-0.1,0.21-0.14,0.29
		c-0.29,0.67-0.42,1.2-0.39,1.58c0.03,0.39,0.14,0.65,0.33,0.79c0.08,0.06,0.17,0.09,0.27,0.09c0.13,0,0.28-0.05,0.43-0.15
		c0.28-0.18,0.56-0.53,0.86-1.06c0.14-0.27,0.37-0.72,0.69-1.35c0.09-0.18,0.19-0.37,0.29-0.57c0.47-0.93,0.98-1.92,1.51-2.98
		c0.53-1.06,1.02-2.05,1.48-3c0.46-0.94,0.78-1.61,0.96-2.01c0.08,0.15,0.18,0.43,0.32,0.84c0.14,0.41,0.28,0.83,0.44,1.25
		c0.16,0.51,0.35,1.04,0.58,1.6c0.27,0.76,0.6,1.57,0.98,2.43c0.38,0.86,0.73,1.71,1.06,2.55c0.32,0.84,0.56,1.64,0.71,2.42
		c0.15,0.78,0.16,1.42,0.01,1.95c-0.14,0.53-0.37,1.02-0.68,1.47c-0.31,0.45-0.64,0.86-0.98,1.21c-0.35,0.35-0.69,0.62-1.04,0.8
		c-0.26,0.14-0.49,0.2-0.68,0.2c-0.06,0-0.12-0.01-0.18-0.02c-0.19-0.08-0.39-0.3-0.62-0.67c-0.19-0.34-0.44-0.82-0.74-1.45
		c-0.31-0.62-0.66-1.54-1.05-2.75c-0.44,0.37-0.83,0.69-1.16,0.97c-0.33,0.28-0.59,0.53-0.77,0.74c-0.22,0.28-0.4,0.52-0.55,0.72
		c-0.37,0.57-0.64,1.06-0.82,1.46c-0.18,0.4-0.38,0.93-0.59,1.58c-0.18,0.5-0.14,1.09,0.12,1.76c0.26,0.67,0.64,1.28,1.16,1.83
		c0.51,0.54,1.13,0.92,1.86,1.11c0.22,0.06,0.44,0.09,0.67,0.09c0.51,0,1.04-0.15,1.57-0.45c1.1-0.62,2.14-1.56,3.14-2.8
		c1-1.24,1.88-2.53,2.66-3.88c0.78-1.34,1.43-2.62,1.96-3.85c0.53-1.22,0.85-2.18,0.96-2.9c0.07-0.47,0.02-0.96-0.17-1.51
		c-0.18-0.54-0.42-1.11-0.72-1.71c-0.3-0.6-0.63-1.21-1-1.82c-0.37-0.61-0.73-1.23-1.07-1.83c-0.26-0.47-0.51-1.02-0.74-1.64
		c-0.19-0.51-0.39-1.12-0.6-1.84c-0.21-0.72-0.38-1.54-0.5-2.47c0.56-0.9,0.99-1.62,1.29-2.17c0.3-0.55,0.52-1,0.67-1.36
		c0.15-0.36,0.26-0.65,0.34-0.87c0.07-0.42-0.04-0.79-0.35-1.11c-0.31-0.32-0.71-0.59-1.2-0.82
		C327.22,117.37,327.02,117.33,326.82,117.33"/>
	<path class="st2" d="M85.32,141.68c-0.59,1.71-1.25,3.32-1.98,4.81c-0.73,1.5-1.53,2.75-2.39,3.76c-0.87,1.01-1.78,1.69-2.73,2.05
		c-0.96,0.35-1.97,0.25-3.05-0.28c-1.75-0.87-3.05-2.29-3.91-4.19c-0.86-1.9-1.44-3.96-1.74-6.2c-0.54,0.72-1.11,1.42-1.72,2.07
		c-0.61,0.65-1.25,1.16-1.92,1.51c-0.67,0.36-1.36,0.55-2.06,0.6c-0.7,0.04-1.39-0.14-2.08-0.53c-0.95-0.54-1.74-1.24-2.39-2.06
		c-0.65-0.82-1.18-1.74-1.6-2.75c-0.42-1.01-0.71-2.06-0.9-3.15c-0.18-1.1-0.27-2.2-0.27-3.34c0-0.23,0-0.47,0-0.7
		c0-1.44,0.11-2.88,0.33-4.32c0.22-1.44,0.48-2.77,0.76-3.98c0.28-1.21,0.58-2.26,0.88-3.16c0.3-0.89,0.53-1.49,0.69-1.77
		c0.27-0.33,0.84-0.58,1.73-0.75c0.89-0.17,1.77-0.12,2.65,0.17c0.42,0.14,0.63,0.39,0.65,0.73c0.01,0.35-0.04,0.77-0.16,1.25
		c-0.16,0.69-0.44,1.71-0.83,3.04c-0.39,1.33-0.79,2.77-1.2,4.3c-0.41,1.53-0.76,3.04-1.07,4.53c-0.31,1.49-0.46,2.75-0.47,3.82
		c-0.01,1.32,0.17,2.35,0.53,3.12c0.36,0.77,0.93,1.36,1.7,1.76c0.92,0.47,1.94,0.41,3.08-0.28c1.14-0.68,2.28-2.29,3.42-4.9
		c-0.03-0.29-0.05-0.57-0.04-0.84s0.01-0.57,0.02-0.88c0.04-2.04,0.14-3.96,0.3-5.79c0.16-1.82,0.46-3.38,0.88-4.7
		c0.42-1.31,1-2.31,1.72-2.99c0.72-0.68,1.66-0.91,2.81-0.68c0.46,0.09,0.84,0.34,1.14,0.74c0.3,0.4,0.44,0.92,0.43,1.55
		c-0.04,1.55-0.52,3.66-1.44,6.22c-0.92,2.56-2,5.29-3.22,8.1c-0.12,0.14-0.2,0.3-0.24,0.47c0.1,0.93,0.22,1.91,0.37,2.96
		c0.15,1.05,0.36,2.05,0.65,3c0.28,0.95,0.62,1.8,1.02,2.53c0.4,0.73,0.88,1.23,1.44,1.49c0.82,0.38,1.59,0.21,2.31-0.52
		c0.72-0.73,1.37-1.74,1.96-3.02c0.58-1.28,1.11-2.7,1.57-4.25c0.46-1.55,0.82-2.96,1.09-4.21c-0.1-0.59-0.18-1.17-0.24-1.72
		c-0.06-0.56-0.08-1.19-0.07-1.9c0.04-1.57,0.25-2.87,0.62-3.91c0.37-1.04,0.85-1.87,1.43-2.5c0.58-0.63,1.19-1.06,1.83-1.3
		c0.65-0.24,1.24-0.31,1.78-0.21c0.96,0.18,1.43,0.86,1.4,2.04c-0.02,0.85-0.22,2.31-0.59,4.34c-0.37,2.03-0.88,4.3-1.53,6.77
		c0.68,0.62,1.55,1.09,2.62,1.4c1,0.29,1.92,0.37,2.78,0.25c0.86-0.12,1.64-0.38,2.35-0.75c0.71-0.38,1.37-0.83,1.97-1.37
		c0.6-0.54,1.18-1.06,1.74-1.56c0.44-0.36,0.79-0.31,1.05,0.15c0.26,0.46,0.2,1.08-0.17,1.86c-0.33,0.67-0.89,1.4-1.67,2.18
		c-0.78,0.77-1.72,1.45-2.8,2.02c-1.09,0.57-2.28,0.94-3.58,1.12c-1.3,0.18-2.66,0.03-4.07-0.43c-0.23-0.08-0.48-0.18-0.74-0.32
		C85.85,142.04,85.59,141.88,85.32,141.68z"/>
	<path class="st2" d="M119.93,147.66c-1.26,2.56-2.67,4.97-4.23,7.19c-1.56,2.23-3.21,4.09-4.92,5.58c-1.72,1.5-3.46,2.54-5.22,3.14
		c-1.76,0.6-3.45,0.58-5.07-0.03c-0.85-0.32-1.75-0.97-2.72-1.94s-1.83-2.24-2.6-3.78c-0.77-1.54-1.36-3.36-1.78-5.47
		c-0.42-2.11-0.49-4.5-0.22-7.2c0.22-2.22,0.78-4.47,1.69-6.79c0.91-2.33,2-4.44,3.29-6.36c1.29-1.92,2.72-3.48,4.3-4.69
		c1.58-1.21,3.15-1.73,4.71-1.51c1.48,0.21,2.54,0.93,3.16,2.18c0.63,1.25,0.88,2.73,0.75,4.43c-0.17,1.87-0.57,3.55-1.18,5.02
		c-0.61,1.47-1.33,2.75-2.15,3.85c-0.82,1.09-1.68,2.04-2.58,2.83c-0.9,0.8-1.76,1.5-2.56,2.11c-0.88,0.65-1.72,1.25-2.51,1.81
		c-0.8,0.56-1.49,1.05-2.09,1.5c-0.01,1.44,0.13,2.69,0.41,3.76c0.28,1.08,0.64,1.99,1.08,2.75c0.44,0.76,0.96,1.38,1.55,1.84
		c0.59,0.46,1.2,0.8,1.81,1.01c1.32,0.44,2.71,0.26,4.19-0.59c1.48-0.85,2.94-2.02,4.38-3.52c1.44-1.5,2.79-3.15,4.04-4.94
		c1.25-1.79,2.3-3.38,3.12-4.74c0.29-0.45,0.58-0.7,0.88-0.74c0.3-0.04,0.53,0.07,0.7,0.32c0.17,0.26,0.25,0.66,0.23,1.2
		C120.38,146.42,120.22,147.02,119.93,147.66z M105.35,130.63c-0.47-0.08-1.03,0.18-1.69,0.77c-0.66,0.59-1.33,1.48-1.99,2.66
		c-0.66,1.18-1.29,2.65-1.89,4.39c-0.6,1.74-1.07,3.77-1.41,6.09c0.48-0.39,1-0.78,1.56-1.19c0.56-0.41,1.12-0.86,1.68-1.37
		c1.72-1.51,2.94-2.97,3.65-4.31c0.71-1.34,1.11-2.56,1.23-3.62c0.11-1.12,0.06-1.95-0.16-2.5
		C106.1,131.01,105.78,130.7,105.35,130.63z"/>
	<path class="st2" d="M130.14,113.35c-0.69,3.92-1.45,7.63-2.27,11.13c-0.82,3.5-1.66,6.73-2.51,9.71
		c-0.85,2.98-1.69,5.65-2.53,8.03c-0.84,2.38-1.57,4.42-2.22,6.15c-0.52,4.51-0.63,8.19-0.32,11.1c0.31,2.9,1.04,4.51,2.18,4.8
		c0.95,0.24,1.89-0.24,2.84-1.46c0.95-1.22,1.8-2.8,2.57-4.75c0.77-1.95,1.43-4.09,1.98-6.41c0.56-2.32,0.92-4.44,1.09-6.34
		c-0.74-0.45-1.36-1.12-1.85-2.03c-0.49-0.9-0.72-2.04-0.68-3.42c0.02-0.92,0.2-1.76,0.54-2.54c0.34-0.78,0.73-1.44,1.18-1.98
		c0.45-0.54,0.93-0.94,1.45-1.22c0.52-0.27,1-0.38,1.43-0.33c0.67,0.08,1.22,0.86,1.66,2.35c0.44,1.5,0.71,3.36,0.81,5.6
		c1.58,0.14,3.25-0.05,5.01-0.6c1.76-0.55,3.42-1.33,4.99-2.35c0.44-0.3,0.8-0.37,1.08-0.21c0.27,0.17,0.46,0.46,0.55,0.88
		c0.09,0.42,0.07,0.89-0.06,1.4c-0.13,0.51-0.38,0.88-0.74,1.12c-0.93,0.8-1.89,1.51-2.88,2.12c-0.99,0.61-1.96,1.09-2.92,1.45
		c-0.96,0.36-1.88,0.61-2.76,0.76c-0.88,0.15-1.67,0.17-2.38,0.07c-0.22,2.66-0.79,5.49-1.7,8.45c-0.91,2.96-1.99,5.63-3.25,7.99
		c-1.26,2.36-2.63,4.21-4.12,5.55c-1.49,1.34-2.92,1.8-4.3,1.42c-0.43-0.12-1-0.38-1.71-0.77c-0.7-0.39-1.37-1.26-2.01-2.59
		c-0.64-1.33-1.15-3.3-1.55-5.91c-0.4-2.61-0.49-6.18-0.28-10.74c0.13-3.06,0.44-6.28,0.93-9.66c0.49-3.39,1.06-6.78,1.71-10.19
		c0.65-3.41,1.36-6.72,2.14-9.94c0.78-3.22,1.52-6.16,2.22-8.79c0.7-2.63,1.34-4.86,1.92-6.66c0.58-1.8,1.01-2.96,1.3-3.48
		c0.37-0.71,0.8-1.25,1.27-1.6c0.48-0.36,0.94-0.62,1.4-0.78c0.45-0.16,0.87-0.21,1.26-0.15c0.39,0.07,0.66,0.17,0.81,0.3
		c0.23,0.26,0.26,1.72,0.09,4.36C131.39,105.84,130.92,109.24,130.14,113.35z"/>
	<path class="st2" d="M166.19,172.66c0.24,0.31,0.55,0.48,0.93,0.52c0.38,0.04,0.77-0.07,1.15-0.33c0.39-0.25,0.75-0.62,1.1-1.09
		c0.35-0.47,0.61-1.1,0.78-1.88c0.17-0.78,0.18-1.92,0.04-3.4c-0.15-1.49-0.38-3.09-0.7-4.81c-0.32-1.71-0.68-3.45-1.06-5.2
		c-0.38-1.75-0.7-3.35-0.97-4.81c-0.23-1.09-0.42-2.11-0.56-3.05c-0.15-0.8-0.29-1.58-0.42-2.34c-0.13-0.76-0.23-1.29-0.31-1.58
		c-0.21,0.56-0.57,1.47-1.08,2.73c-0.52,1.25-1.07,2.56-1.67,3.91c-0.6,1.35-1.17,2.59-1.7,3.72c-0.54,1.13-0.91,1.9-1.11,2.31
		c-0.33,0.61-0.65,0.95-0.95,1.03c-0.3,0.08-0.55-0.05-0.75-0.39s-0.3-0.81-0.31-1.42c-0.01-0.6,0.15-1.32,0.48-2.14
		c0.25-0.55,0.62-1.42,1.12-2.62c0.5-1.2,0.99-2.44,1.49-3.73c0.5-1.28,0.95-2.43,1.36-3.44c0.41-1.01,0.64-1.62,0.68-1.83
		c0.09-0.57-0.01-1.32-0.3-2.27c-0.29-0.95-0.32-2.02-0.11-3.22c0.17-0.99,0.54-2.13,1.12-3.43c0.57-1.29,1.24-2.46,2.01-3.51
		c0.77-1.04,1.55-1.82,2.34-2.33c0.8-0.51,1.51-0.47,2.14,0.13c0.51,0.59,0.92,1.24,1.23,1.93c0.31,0.7,0.42,1.41,0.34,2.12
		c-0.08,0.36-0.21,0.82-0.37,1.4c-0.16,0.57-0.41,1.27-0.74,2.08c-0.33,0.82-0.79,1.86-1.4,3.13c0.1,1.66,0.25,3.18,0.46,4.56
		c0.2,1.38,0.4,2.58,0.59,3.6c0.23,1.24,0.48,2.37,0.75,3.39c0.35,1.32,0.71,2.68,1.1,4.07c0.39,1.39,0.74,2.77,1.05,4.12
		c0.31,1.36,0.56,2.62,0.75,3.79c0.19,1.17,0.24,2.15,0.16,2.94c-0.13,1.22-0.5,2.69-1.1,4.38c-0.6,1.7-1.34,3.33-2.23,4.88
		c-0.89,1.56-1.89,2.86-3.01,3.91c-1.13,1.05-2.3,1.5-3.51,1.37c-0.85-0.09-1.66-0.65-2.44-1.67c-0.77-1.02-1.42-2.19-1.95-3.49
		c-0.53-1.31-0.91-2.58-1.15-3.82c-0.24-1.24-0.26-2.16-0.05-2.78c0.25-0.83,0.48-1.48,0.69-1.95c0.21-0.47,0.52-1.01,0.93-1.61
		c0.16-0.2,0.37-0.43,0.61-0.69c0.2-0.19,0.49-0.38,0.85-0.56c0.36-0.18,0.79-0.39,1.27-0.63c0.37,2.25,0.71,4.02,1.02,5.3
		c0.31,1.28,0.55,2.29,0.75,3.03C165.78,171.8,165.99,172.36,166.19,172.66z"/>
	<path class="st2" d="M206.83,154.64c-1.18,3.24-2.53,6.4-4.05,9.46c-1.52,3.07-3.13,5.81-4.85,8.2c-1.71,2.4-3.48,4.33-5.28,5.79
		c-1.8,1.46-3.56,2.16-5.27,2.13c-0.89-0.02-1.86-0.43-2.89-1.22c-1.03-0.8-1.97-2.02-2.81-3.65c-0.84-1.63-1.51-3.73-2-6.3
		s-0.62-5.66-0.39-9.28c0.18-2.97,0.71-6.09,1.59-9.37c0.88-3.28,1.95-6.29,3.22-9.04c1.27-2.74,2.69-5.02,4.26-6.83
		c1.57-1.81,3.15-2.72,4.74-2.72c1.51,0,2.6,0.69,3.28,2.07c0.68,1.38,0.98,3.09,0.9,5.13c-0.11,2.26-0.46,4.34-1.04,6.24
		c-0.58,1.9-1.26,3.62-2.06,5.15c-0.8,1.53-1.65,2.92-2.55,4.16c-0.9,1.24-1.76,2.36-2.56,3.37c-0.89,1.08-1.73,2.11-2.54,3.08
		c-0.81,0.97-1.52,1.84-2.12,2.63c0.03,1.82,0.21,3.36,0.53,4.6c0.32,1.25,0.72,2.26,1.2,3.04c0.48,0.78,1.04,1.33,1.66,1.67
		c0.63,0.34,1.26,0.51,1.91,0.52c1.37,0.02,2.81-0.76,4.31-2.33c1.49-1.57,2.96-3.48,4.38-5.73c1.42-2.25,2.74-4.59,3.96-7.03
		c1.21-2.43,2.21-4.54,3.01-6.31c0.28-0.59,0.57-0.94,0.87-1.06c0.3-0.12,0.54-0.05,0.72,0.19c0.18,0.25,0.27,0.68,0.28,1.3
		C207.24,153.12,207.1,153.83,206.83,154.64z M191.44,138.04c-0.48,0-1.05,0.43-1.7,1.3c-0.66,0.87-1.31,2.12-1.95,3.76
		c-0.64,1.63-1.25,3.63-1.82,5.99c-0.57,2.36-1,5.06-1.29,8.11c0.48-0.64,1.01-1.3,1.57-1.99c0.56-0.68,1.13-1.42,1.69-2.21
		c1.73-2.38,2.93-4.49,3.61-6.32c0.68-1.82,1.06-3.39,1.14-4.7c0.08-1.38,0-2.39-0.24-3.01
		C192.21,138.35,191.88,138.04,191.44,138.04z"/>
	<path class="st2" d="M200.29,177.01c-0.28,0.81-0.59,1.34-0.94,1.61c-0.34,0.26-0.65,0.3-0.91,0.13c-0.26-0.18-0.44-0.56-0.52-1.14
		c-0.08-0.58,0-1.31,0.24-2.19c0.12-0.44,0.39-1.43,0.81-2.97s0.92-3.39,1.5-5.55c0.58-2.16,1.2-4.51,1.88-7.04
		c0.67-2.53,1.31-4.93,1.92-7.2c0.61-2.27,1.17-4.3,1.68-6.1c0.51-1.79,0.88-3.09,1.11-3.9c-0.44-0.71-0.75-1.23-0.91-1.55
		c-0.16-0.32-0.29-1.03-0.37-2.12c-0.09-0.94,0.03-2.18,0.34-3.71c0.31-1.53,0.72-3.01,1.22-4.44c0.5-1.43,1.07-2.65,1.7-3.68
		c0.63-1.03,1.23-1.55,1.83-1.56c1.11-0.03,1.89,0.6,2.36,1.89c0.47,1.29,0.75,2.61,0.84,3.98c0.09,0.93,0.06,2.13-0.08,3.58
		c-0.14,1.45-0.43,2.76-0.86,3.93c0.12,0.14,0.28,0.3,0.48,0.47c0.2,0.17,0.52,0.25,0.96,0.23c0.64-0.03,1.08-0.12,1.34-0.28
		c0.26-0.16,0.66-0.25,1.22-0.27c0.68-0.03,1.23,0.25,1.68,0.83c0.44,0.59,0.81,1.32,1.1,2.2c0.29,0.88,0.51,1.84,0.66,2.86
		c0.15,1.03,0.25,1.97,0.31,2.83c0.14,1.78-0.09,3.66-0.71,5.64c-0.62,1.98-1.37,4.16-2.27,6.52c-0.55,1.48-1.09,3.14-1.63,4.98
		c-0.54,1.84-0.77,3.48-0.67,4.92c0.09,0.93,0.24,1.68,0.45,2.24c0.21,0.56,0.78,0.8,1.7,0.72c0.69-0.06,1.44-0.58,2.25-1.55
		c0.81-0.97,1.64-2.2,2.49-3.68c0.85-1.48,1.68-3.1,2.5-4.85c0.82-1.75,1.57-3.47,2.27-5.13c0.7-1.67,1.28-3.16,1.76-4.48
		c0.48-1.32,0.83-2.27,1.06-2.86c0.19-0.58,0.44-1,0.76-1.24s0.59-0.27,0.84-0.08c0.24,0.19,0.4,0.59,0.47,1.22
		c0.07,0.63-0.06,1.48-0.4,2.58c-0.23,0.73-0.62,1.9-1.17,3.51c-0.55,1.61-1.23,3.42-2.01,5.42c-0.79,2-1.67,4.07-2.65,6.21
		c-0.97,2.14-2,4.11-3.09,5.9c-1.09,1.8-2.18,3.29-3.28,4.48c-1.1,1.19-2.16,1.83-3.17,1.92c-1.05,0.09-1.93-0.2-2.62-0.86
		c-0.7-0.67-1.26-1.52-1.69-2.53c-0.43-1.02-0.75-2.16-0.94-3.41c-0.19-1.25-0.27-2.43-0.24-3.52c0.03-0.87,0.16-1.8,0.37-2.79
		c0.21-0.99,0.47-2.02,0.76-3.08c0.29-1.06,0.6-2.13,0.94-3.2c0.33-1.07,0.63-2.11,0.9-3.14c0.66-2.13,1.19-3.95,1.6-5.45
		c0.41-1.5,0.6-2.75,0.59-3.76c-0.01-0.65-0.09-1.22-0.26-1.72c-0.17-0.49-0.43-0.74-0.79-0.72c-0.24,0.01-0.41,0.04-0.51,0.08
		c-0.1,0.04-0.2,0.06-0.3,0.07c-0.1,0-0.24,0.03-0.42,0.07c-0.18,0.05-0.45,0.08-0.81,0.09c-0.52,0.02-0.96-0.1-1.32-0.38
		c-0.36-0.27-0.7-0.48-1.02-0.61c-0.16,0.51-0.51,1.61-1.05,3.3c-0.55,1.69-1.18,3.67-1.91,5.95c-0.73,2.28-1.5,4.67-2.3,7.17
		c-0.81,2.5-1.58,4.84-2.29,7.01c-0.72,2.17-1.32,4.01-1.83,5.52C200.72,175.81,200.41,176.71,200.29,177.01z"/>
	<path class="st2" d="M245.04,154.34c-0.97,2.75-1.98,5.45-3.03,8.1c-1.04,2.65-2.06,5.05-3.04,7.19c-0.98,2.14-1.89,3.9-2.73,5.26
		c-0.84,1.36-1.52,2.09-2.04,2.17c-1.25,0.2-2.28-0.69-3.1-2.66c-0.82-1.97-1.46-4.47-1.94-7.5c-0.47-3.03-0.78-6.29-0.94-9.79
		c-0.16-3.49-0.2-6.63-0.12-9.4c0.12-2.78,0.26-5,0.43-6.68c0.17-1.68,0.4-2.99,0.68-3.92c0.28-0.94,0.63-1.63,1.04-2.09
		c0.41-0.45,0.93-0.84,1.56-1.16c0.27-0.16,0.59-0.29,0.94-0.38c0.36-0.09,0.68-0.1,0.98-0.02c0.3,0.08,0.53,0.29,0.7,0.63
		c0.16,0.34,0.19,0.86,0.09,1.57c-0.07,0.64-0.18,1.57-0.33,2.81c-0.16,1.24-0.32,2.64-0.49,4.2c-0.17,1.56-0.33,3.19-0.48,4.89
		c-0.15,1.7-0.25,3.33-0.3,4.88c-0.07,2.68-0.03,5.02,0.13,7c0.16,1.99,0.37,3.65,0.63,4.98c0.26,1.34,0.54,2.33,0.84,2.99
		c0.29,0.66,0.52,0.98,0.68,0.96c0.2-0.03,0.56-0.55,1.08-1.58s1.12-2.35,1.79-3.98c0.67-1.63,1.37-3.5,2.11-5.61
		c0.74-2.11,1.42-4.28,2.05-6.5c-0.26-1.07-0.39-2.36-0.38-3.88c0.07-2.35,0.32-4.5,0.76-6.44c0.43-1.94,0.94-3.59,1.53-4.94
		c0.58-1.36,1.19-2.42,1.83-3.2c0.63-0.77,1.21-1.18,1.72-1.23c1.03-0.1,1.67,0.3,1.95,1.18c0.28,0.88,0.39,1.8,0.33,2.75
		c-0.05,1.42-0.36,3.39-0.96,5.94c-0.59,2.54-1.37,5.34-2.33,8.41c0.2,0.11,0.42,0.21,0.66,0.31c0.24,0.1,0.52,0.13,0.84,0.08
		c1.35-0.2,2.56-0.65,3.63-1.36c1.07-0.7,2.01-1.48,2.8-2.34c0.79-0.86,1.46-1.74,2.01-2.65c0.55-0.91,1-1.65,1.33-2.23
		c0.23-0.43,0.46-0.66,0.69-0.7c0.24-0.04,0.44,0.03,0.6,0.21s0.25,0.45,0.26,0.84c0.01,0.39-0.1,0.83-0.32,1.33
		c-1.34,3.1-3,5.73-4.99,7.86c-1.99,2.14-4.35,3.46-7.09,3.88c-0.24,0.04-0.54,0.05-0.9,0.04
		C245.83,154.57,245.45,154.49,245.04,154.34z"/>
	<path class="st2" d="M258,132.62c0.19-0.42,0.55-0.79,1.09-1.11c0.54-0.33,1.11-0.61,1.69-0.84c0.58-0.23,1.12-0.39,1.61-0.49
		c0.49-0.09,0.77-0.11,0.85-0.06c0.04,0.06-0.04,0.75-0.24,2.06c-0.2,1.32-0.45,2.87-0.76,4.66c-0.3,1.79-0.63,3.64-0.97,5.55
		c-0.34,1.91-0.6,3.47-0.76,4.68c-0.17,1.21-0.37,2.57-0.6,4.08c-0.24,1.52-0.44,3-0.62,4.45c-0.18,1.45-0.29,2.81-0.34,4.06
		c-0.05,1.26,0.04,2.2,0.25,2.81c0.22,0.74,0.45,1.23,0.7,1.47c0.24,0.24,0.5,0.32,0.78,0.26c0.79-0.19,1.77-1.15,2.93-2.86
		c1.16-1.7,2.33-3.68,3.51-5.9c1.18-2.23,2.27-4.44,3.27-6.64c1-2.2,1.73-3.93,2.21-5.21c0.29-0.68,0.6-1.15,0.93-1.4
		c0.33-0.25,0.6-0.28,0.82-0.08c0.22,0.2,0.35,0.57,0.39,1.12c0.04,0.55-0.07,1.22-0.32,2.01c-0.57,1.85-1.43,4.11-2.57,6.79
		c-1.14,2.68-2.37,5.33-3.67,7.92c-1.31,2.6-2.6,4.88-3.88,6.84c-1.28,1.96-2.33,3.09-3.16,3.37c-0.67,0.24-1.34,0.23-2-0.03
		c-0.66-0.26-1.27-0.71-1.83-1.33c-0.55-0.63-1.02-1.42-1.41-2.36c-0.38-0.95-0.61-1.98-0.68-3.1c-0.16-1.63-0.22-3.9-0.18-6.81
		c0.04-2.91,0.19-5.89,0.42-8.95c0.24-3.06,0.57-5.98,0.99-8.75C256.9,136.08,257.41,134.01,258,132.62z M265.55,111.3
		c-0.1,0.71-0.3,1.4-0.62,2.09c-0.31,0.69-0.67,1.25-1.07,1.7c-0.4,0.44-0.81,0.74-1.24,0.9c-0.43,0.16-0.78,0.05-1.07-0.32
		c-0.85-0.98-1.31-2.07-1.38-3.27c-0.07-1.2,0.07-2.34,0.43-3.42s0.83-2,1.39-2.76c0.57-0.76,1.06-1.2,1.49-1.34
		c0.43-0.14,0.79,0,1.1,0.4c0.31,0.41,0.55,0.94,0.72,1.6s0.28,1.41,0.33,2.23C265.67,109.93,265.65,110.66,265.55,111.3z"/>
	<path class="st2" d="M280.59,160.12c1.2-0.39,2.51-1.56,3.91-3.47c1.41-1.91,2.76-4.02,4.07-6.33s2.5-4.59,3.58-6.83
		c1.08-2.25,1.89-4,2.43-5.31c0.33-0.8,0.64-1.31,0.94-1.53c0.3-0.22,0.54-0.21,0.7,0.02c0.16,0.23,0.23,0.63,0.21,1.21
		c-0.02,0.58-0.18,1.26-0.46,2.05c-0.25,0.73-0.67,1.79-1.27,3.21c-0.6,1.42-1.3,3-2.13,4.75c-0.82,1.75-1.75,3.58-2.8,5.51
		c-1.05,1.93-2.15,3.76-3.31,5.48s-2.36,3.24-3.61,4.55c-1.25,1.31-2.5,2.19-3.74,2.62c-1.71,0.59-3.16,0.57-4.34-0.08
		c-1.18-0.65-2.14-1.68-2.87-3.1c-0.73-1.42-1.27-3.08-1.6-4.98s-0.53-3.83-0.58-5.77c-0.06-1.94,0.15-4.42,0.61-7.41
		c0.46-2.98,1.19-5.89,2.19-8.71c1-2.81,2.29-5.26,3.87-7.36s3.48-3.26,5.7-3.59c1.25-0.18,2.32,0.31,3.24,1.43
		c0.91,1.13,1.38,2.77,1.41,4.95c0.03,1.03-0.05,2.07-0.26,3.13c-0.2,1.05-0.49,2.01-0.85,2.88c-0.36,0.87-0.8,1.6-1.31,2.18
		c-0.51,0.59-1.07,0.96-1.69,1.1c-0.5,0.12-0.89-0.07-1.16-0.58c-0.27-0.5-0.45-1.12-0.53-1.85c-0.08-0.73-0.1-1.46-0.07-2.18
		c0.04-0.72,0.09-1.21,0.16-1.46c0.18-0.45,0.39-0.79,0.61-1.01c0.23-0.22,0.49-0.48,0.8-0.77c0.23-0.22,0.4-0.52,0.53-0.9
		c0.13-0.38,0.18-0.77,0.17-1.18c-0.01-0.41-0.1-0.75-0.27-1.01c-0.16-0.27-0.42-0.37-0.77-0.31c-0.35,0.06-0.97,0.59-1.86,1.61
		c-0.89,1.02-1.78,2.47-2.69,4.36c-0.9,1.9-1.69,4.23-2.35,7.01c-0.66,2.78-0.96,5.94-0.89,9.45c0.02,2.04,0.25,3.65,0.68,4.83
		c0.43,1.18,0.95,2.04,1.55,2.6c0.61,0.55,1.26,0.87,1.97,0.95C279.25,160.41,279.93,160.33,280.59,160.12z"/>
	<path class="st2" d="M317.68,133.25c-1.09,2.39-2.33,4.84-3.71,7.36c-1.38,2.52-2.85,4.94-4.41,7.23c-1.56,2.29-3.16,4.34-4.8,6.12
		c-1.65,1.78-3.26,3.05-4.86,3.75c-0.83,0.37-1.74,0.49-2.73,0.33s-1.9-0.67-2.74-1.57c-0.84-0.89-1.53-2.23-2.06-4.01
		c-0.54-1.78-0.75-4.11-0.64-6.95c0.08-2.33,0.5-4.88,1.26-7.61c0.75-2.73,1.71-5.26,2.86-7.58c1.15-2.32,2.47-4.28,3.96-5.89
		c1.48-1.6,3-2.52,4.54-2.81c1.46-0.27,2.53,0,3.2,0.8c0.67,0.8,0.99,1.89,0.95,3.27c-0.08,1.54-0.38,3.03-0.9,4.46
		c-0.52,1.44-1.15,2.79-1.88,4.07c-0.74,1.28-1.52,2.49-2.35,3.63c-0.83,1.14-1.62,2.2-2.36,3.18c-0.82,1.05-1.6,2.07-2.34,3.04
		c-0.74,0.97-1.39,1.85-1.95,2.64c0.08,1.33,0.28,2.41,0.61,3.21c0.33,0.8,0.73,1.39,1.21,1.78c0.47,0.38,1,0.57,1.6,0.57
		c0.59,0,1.19-0.13,1.8-0.38c1.29-0.53,2.61-1.66,3.98-3.33c1.37-1.67,2.7-3.52,4-5.54c1.3-2.02,2.51-4.01,3.62-5.99
		c1.11-1.97,2.04-3.62,2.77-4.97c0.26-0.46,0.53-0.76,0.81-0.92c0.28-0.16,0.51-0.19,0.68-0.09c0.17,0.1,0.26,0.34,0.27,0.72
		C318.05,132.18,317.93,132.66,317.68,133.25z M302.84,126.32c-0.46,0.1-1,0.53-1.62,1.29c-0.62,0.76-1.22,1.81-1.8,3.14
		c-0.58,1.33-1.12,2.94-1.6,4.81c-0.49,1.88-0.83,3.99-1.03,6.34c0.45-0.63,0.93-1.27,1.45-1.94c0.52-0.67,1.04-1.37,1.56-2.11
		c1.59-2.22,2.7-4.03,3.32-5.49c0.62-1.45,0.95-2.64,1-3.57c0.05-0.98-0.04-1.66-0.29-2.04
		C303.6,126.37,303.26,126.22,302.84,126.32z"/>
	<path class="st2" d="M321.69,143.06c0.22,0.06,0.51,0,0.86-0.18c0.35-0.18,0.69-0.45,1.04-0.8c0.35-0.35,0.67-0.75,0.98-1.21
		c0.31-0.45,0.53-0.94,0.68-1.47c0.14-0.53,0.14-1.17-0.01-1.95s-0.39-1.58-0.71-2.42c-0.32-0.84-0.67-1.69-1.06-2.55
		c-0.38-0.86-0.71-1.68-0.98-2.43c-0.23-0.56-0.43-1.09-0.58-1.6c-0.16-0.42-0.3-0.84-0.44-1.25c-0.14-0.41-0.24-0.69-0.32-0.84
		c-0.18,0.41-0.51,1.07-0.96,2.01c-0.46,0.94-0.96,1.94-1.48,3c-0.53,1.06-1.03,2.05-1.51,2.98c-0.47,0.93-0.8,1.57-0.98,1.92
		c-0.29,0.53-0.58,0.88-0.86,1.06c-0.28,0.18-0.52,0.2-0.71,0.06c-0.19-0.14-0.3-0.4-0.33-0.79s0.1-0.92,0.39-1.58
		c0.22-0.45,0.55-1.16,0.98-2.12s0.87-1.93,1.31-2.91c0.44-0.98,0.84-1.85,1.21-2.62c0.37-0.76,0.57-1.21,0.6-1.35
		c0.07-0.38-0.04-0.81-0.33-1.31s-0.35-1.16-0.17-1.97c0.14-0.66,0.47-1.47,0.99-2.41c0.52-0.94,1.14-1.81,1.85-2.61
		c0.71-0.8,1.45-1.43,2.21-1.9c0.76-0.47,1.44-0.59,2.06-0.38c0.5,0.23,0.9,0.5,1.2,0.82c0.31,0.32,0.42,0.69,0.35,1.11
		c-0.08,0.22-0.19,0.51-0.34,0.87c-0.15,0.36-0.37,0.81-0.67,1.36c-0.3,0.55-0.73,1.27-1.29,2.17c0.12,0.92,0.29,1.75,0.5,2.47
		c0.21,0.72,0.41,1.33,0.6,1.84c0.23,0.62,0.47,1.17,0.74,1.64c0.34,0.61,0.7,1.22,1.07,1.83c0.37,0.61,0.71,1.22,1,1.82
		c0.3,0.6,0.53,1.17,0.72,1.71c0.18,0.54,0.24,1.04,0.17,1.51c-0.11,0.72-0.43,1.68-0.96,2.9c-0.53,1.22-1.18,2.5-1.96,3.85
		c-0.78,1.34-1.66,2.64-2.66,3.88c-1,1.24-2.04,2.19-3.14,2.8c-0.77,0.43-1.51,0.56-2.24,0.36c-0.73-0.19-1.35-0.57-1.86-1.11
		c-0.51-0.54-0.9-1.16-1.16-1.83c-0.26-0.67-0.3-1.26-0.12-1.76c0.21-0.65,0.41-1.18,0.59-1.58c0.18-0.4,0.45-0.89,0.82-1.46
		c0.15-0.2,0.33-0.44,0.55-0.72c0.18-0.22,0.44-0.46,0.77-0.74c0.33-0.28,0.72-0.6,1.16-0.97c0.39,1.21,0.74,2.12,1.05,2.75
		c0.31,0.63,0.55,1.11,0.74,1.45C321.29,142.76,321.5,142.98,321.69,143.06z"/>
</g>
</svg>
