<?xml version="1.0" encoding="utf-8"?>
<!-- Generator: Adobe Illustrator 24.0.1, SVG Export Plug-In . SVG Version: 6.00 Build 0)  -->
<svg version="1.1" id="Camada_2" xmlns="http://www.w3.org/2000/svg" xmlns:xlink="http://www.w3.org/1999/xlink" x="0px" y="0px"
	 viewBox="0 0 150 50" style="enable-background:new 0 0 150 50;" xml:space="preserve">
<style type="text/css">
	.st0{opacity:0.702;fill:#494849;}
	.st1{fill:#F0F0F0;}
	.st2{fill:#B08027;}
</style>
<g>
	<path class="st0" d="M67.89,39.21L67.89,39.21L67.89,39.21C67.89,39.21,67.89,39.21,67.89,39.21 M120.33,36.86
		c-0.11,0.05-0.22,0.1-0.33,0.14l0.17,0.38c-0.61,0.27-1.23,0.53-1.86,0.78c-5.6,2.24-13.69,4.44-24.67,4.44c0,0,0,0,0,0
		c-7.27,0-15.8-0.96-25.72-3.51l-0.03,0.11c10.14,2.65,18.85,3.65,26.25,3.65c0,0,0,0,0,0c10.98,0,19.07-2.2,24.67-4.44
		c0.63-0.25,1.25-0.51,1.86-0.78L120.33,36.86"/>
	<path class="st1" d="M119.83,36.61c-0.6,0.27-1.21,0.52-1.83,0.77c-5.52,2.21-13.49,4.38-24.36,4.38c-7.32,0-15.96-0.99-26.04-3.62
		l-0.21,0.82c0.18,0.05,0.35,0.09,0.53,0.14c9.92,2.55,18.45,3.51,25.72,3.51c0,0,0,0,0,0c10.98,0,19.07-2.2,24.67-4.44
		c0.63-0.25,1.25-0.51,1.86-0.78L120,37.01L119.83,36.61"/>
	<path class="st0" d="M18.1,19.34c-0.28,0-0.53-0.01-0.78-0.04c-0.24-0.02-0.44-0.06-0.61-0.13c0-0.33,0.15-0.93,0.46-1.8
		c0.31-0.87,0.8-2.06,1.49-3.57c0.26-0.59,0.53-1.17,0.81-1.74c0.28-0.56,0.54-1.08,0.78-1.56c0.25-0.48,0.46-0.88,0.65-1.21
		c0.19-0.33,0.33-0.56,0.42-0.7c-0.13-0.12-0.37-0.28-0.72-0.49c-0.35-0.21-0.79-0.41-1.32-0.6C19.83,7.35,20.4,7.26,21,7.26
		c1.31,0,2.35,0.34,3.12,1.02c0.77,0.68,1.15,1.63,1.15,2.85c0,1.09-0.19,2.14-0.57,3.13c-0.38,0.99-0.9,1.86-1.55,2.61
		c-0.66,0.75-1.42,1.35-2.29,1.79C19.99,19.12,19.07,19.34,18.1,19.34 M20.23,6.37c-0.76,0-1.47,0.09-2.13,0.26
		c-0.66,0.17-1.24,0.42-1.75,0.74c-0.5,0.32-0.92,0.71-1.25,1.16c-0.33,0.45-0.56,0.95-0.68,1.5c0.07,0.37,0.22,0.68,0.45,0.92
		c0.23,0.24,0.48,0.41,0.76,0.51c0.28-0.95,0.69-1.74,1.23-2.37c0.54-0.63,1.19-1.1,1.95-1.41c-0.08,0.29-0.22,0.7-0.41,1.23
		c-0.19,0.54-0.41,1.14-0.66,1.82c-0.25,0.68-0.52,1.39-0.81,2.15c-0.29,0.76-0.57,1.49-0.85,2.21c-0.28,0.72-0.54,1.39-0.79,2.01
		s-0.47,1.12-0.65,1.52c0.35,0.75,0.87,1.32,1.58,1.7c0.7,0.39,1.55,0.58,2.53,0.58c1.07,0,2.09-0.24,3.06-0.72
		c0.97-0.48,1.83-1.13,2.57-1.94c0.74-0.81,1.33-1.74,1.76-2.8c0.43-1.06,0.65-2.17,0.65-3.34c0-0.86-0.16-1.63-0.49-2.34
		c-0.32-0.7-0.78-1.3-1.35-1.8c-0.58-0.5-1.27-0.89-2.07-1.17C22.07,6.51,21.19,6.37,20.23,6.37"/>
	<path class="st0" d="M30.43,11.08c-0.38,0.27-0.75,0.65-1.09,1.13c-0.34,0.48-0.65,1-0.93,1.55c-0.28,0.55-0.52,1.11-0.73,1.69
		c-0.21,0.57-0.37,1.08-0.48,1.53c-0.06,0.25-0.1,0.48-0.12,0.7c-0.02,0.21-0.03,0.49-0.03,0.82c0.05,0.22,0.14,0.41,0.28,0.57
		c0.14,0.17,0.3,0.31,0.49,0.43c0.19,0.12,0.38,0.21,0.59,0.28c0.21,0.07,0.41,0.1,0.6,0.1c0.08-0.01,0.2-0.07,0.33-0.16
		c0.14-0.1,0.29-0.23,0.44-0.39c0.1-0.12,0.24-0.3,0.43-0.55s0.39-0.5,0.59-0.76c0.2-0.26,0.38-0.49,0.55-0.68
		c0.17-0.19,0.28-0.28,0.32-0.28c-0.06,0.18-0.09,0.39-0.09,0.64c0,0.2,0.04,0.45,0.12,0.73c0.08,0.29,0.23,0.52,0.46,0.71
		c0.14,0.1,0.3,0.18,0.46,0.27c0.16,0.08,0.32,0.16,0.49,0.22c0.16,0.06,0.31,0.12,0.44,0.15c0.13,0.04,0.24,0.05,0.32,0.05
		l0.04-0.02l0.04-0.05l-0.06-0.21c-0.04-0.08-0.09-0.19-0.14-0.31c-0.05-0.12-0.09-0.28-0.14-0.46c-0.04-0.18-0.06-0.4-0.06-0.65
		c0-0.46,0.08-0.94,0.23-1.43c0.16-0.49,0.35-0.98,0.58-1.47c0.23-0.49,0.47-1,0.74-1.51c0.26-0.51,0.5-1.03,0.72-1.55
		c-0.06-0.07-0.15-0.14-0.27-0.21c-0.12-0.06-0.26-0.12-0.42-0.18c-0.16-0.05-0.33-0.1-0.51-0.13c-0.18-0.04-0.35-0.05-0.5-0.05
		c-0.2,0.19-0.38,0.4-0.53,0.62c-0.15,0.22-0.28,0.44-0.4,0.65c-0.11,0.21-0.21,0.42-0.29,0.62c-0.08,0.2-0.14,0.37-0.19,0.51
		c-0.1,0.26-0.22,0.52-0.37,0.78c-0.15,0.26-0.31,0.51-0.48,0.76c-0.17,0.24-0.33,0.47-0.5,0.69c-0.16,0.21-0.3,0.4-0.42,0.57
		c-0.49,0.67-0.88,1.16-1.15,1.48c-0.28,0.32-0.5,0.52-0.69,0.59l-0.08-0.11c-0.03-0.05-0.04-0.12-0.04-0.21
		c0-0.15,0.03-0.36,0.08-0.62c0.05-0.26,0.12-0.53,0.21-0.8c0.08-0.27,0.17-0.53,0.25-0.78c0.08-0.25,0.16-0.44,0.22-0.57
		c0.54-1.27,1.03-2.25,1.47-2.92c0.44-0.68,0.71-1.08,0.82-1.19c-0.1-0.11-0.21-0.19-0.35-0.26c-0.14-0.07-0.28-0.12-0.43-0.17
		c-0.15-0.05-0.3-0.08-0.44-0.1C30.66,11.09,30.54,11.08,30.43,11.08"/>
	<path class="st0" d="M40.38,11.38c-0.49,0-1,0.21-1.53,0.64c-0.53,0.42-1.02,0.95-1.47,1.58c-0.45,0.63-0.82,1.32-1.11,2.06
		c-0.29,0.74-0.43,1.44-0.43,2.11c0,0.62,0.14,1.13,0.41,1.53c0.28,0.4,0.64,0.6,1.08,0.6c0.28-0.05,0.58-0.19,0.91-0.42
		c0.33-0.23,0.66-0.53,0.98-0.9c0.32-0.37,0.64-0.79,0.96-1.27c0.31-0.48,0.59-0.99,0.83-1.54c-0.46,1.18-0.69,2.1-0.69,2.78
		c0,0.88,0.32,1.32,0.97,1.32c0.18,0,0.38-0.03,0.61-0.09c0.23-0.06,0.41-0.14,0.56-0.23c-0.17-0.1-0.29-0.25-0.36-0.47
		C42.04,18.88,42,18.6,42,18.27c0-0.3,0.04-0.65,0.12-1.05c0.08-0.4,0.19-0.84,0.33-1.3c0.14-0.46,0.32-0.95,0.52-1.45
		c0.2-0.51,0.43-1.01,0.67-1.51c0-0.06-0.04-0.13-0.14-0.2c-0.09-0.07-0.2-0.14-0.33-0.21s-0.28-0.12-0.44-0.16
		c-0.16-0.04-0.3-0.06-0.42-0.06c-0.13,0.27-0.27,0.56-0.42,0.85c-0.15,0.29-0.3,0.58-0.46,0.87c-0.16,0.29-0.31,0.56-0.46,0.82
		c-0.15,0.26-0.29,0.5-0.41,0.71c-0.65,1.08-1.2,1.88-1.66,2.4c-0.46,0.52-0.86,0.81-1.21,0.88c-0.17-0.06-0.25-0.2-0.25-0.43
		c0-0.55,0.13-1.13,0.4-1.76c0.26-0.63,0.6-1.22,1.02-1.77c0.41-0.55,0.88-1.02,1.39-1.41c0.51-0.39,1.01-0.62,1.49-0.69
		c-0.01-0.11-0.07-0.23-0.16-0.38c-0.1-0.15-0.21-0.29-0.35-0.44c-0.14-0.14-0.28-0.27-0.43-0.37
		C40.63,11.49,40.5,11.42,40.38,11.38"/>
	<path class="st0" d="M47.1,10.97c-0.14,0.14-0.28,0.32-0.4,0.53c-0.12,0.21-0.26,0.5-0.41,0.86c-0.22,0.51-0.44,1.09-0.67,1.73
		c-0.23,0.64-0.44,1.28-0.65,1.92c-0.2,0.64-0.38,1.24-0.53,1.8c-0.15,0.56-0.26,1.02-0.32,1.36c0.04,0.1,0.11,0.2,0.23,0.3
		c0.12,0.11,0.25,0.21,0.41,0.3c0.15,0.1,0.3,0.18,0.45,0.24c0.15,0.07,0.28,0.1,0.39,0.12c0.18-0.82,0.37-1.53,0.57-2.12
		c0.2-0.59,0.44-1.12,0.72-1.58c0.28-0.46,0.62-0.87,1.02-1.25c0.4-0.37,0.88-0.76,1.44-1.15c0.12,0.34,0.31,0.66,0.56,0.95
		c0.25,0.29,0.54,0.52,0.87,0.69c0.18-0.18,0.35-0.37,0.5-0.57c0.15-0.2,0.23-0.34,0.24-0.41c-0.16-0.26-0.23-0.65-0.23-1.18
		c0-0.56,0.11-1.12,0.32-1.69c-0.06-0.09-0.17-0.17-0.32-0.22c-0.16-0.05-0.32-0.08-0.49-0.08c-0.18,0-0.31,0.03-0.38,0.09
		c-0.43,0.64-0.9,1.23-1.4,1.75c-0.5,0.52-1.07,1.07-1.72,1.64c0.25-0.76,0.5-1.38,0.75-1.87c0.25-0.49,0.53-0.92,0.86-1.3
		c-0.07-0.08-0.17-0.17-0.31-0.26c-0.13-0.09-0.28-0.18-0.45-0.26c-0.17-0.08-0.34-0.15-0.52-0.21C47.44,11.04,47.27,11,47.1,10.97"
		/>
	<path class="st0" d="M56.51,8.6c-0.1,0.06-0.23,0.19-0.41,0.39c-0.17,0.2-0.36,0.44-0.56,0.73c-0.2,0.29-0.4,0.61-0.61,0.95
		c-0.21,0.35-0.41,0.7-0.59,1.05c-0.24,0-0.5,0-0.79,0s-0.59-0.02-0.9-0.07c0,0.17,0.02,0.37,0.07,0.6c0.05,0.23,0.1,0.38,0.16,0.45
		h1.03c-0.23,0.55-0.44,1.1-0.63,1.66c-0.19,0.56-0.36,1.1-0.5,1.61c-0.14,0.51-0.26,0.98-0.33,1.42c-0.08,0.43-0.12,0.79-0.12,1.08
		c0,0.21,0.08,0.43,0.23,0.65s0.36,0.42,0.6,0.6c0.25,0.18,0.52,0.33,0.82,0.45c0.3,0.12,0.6,0.18,0.9,0.18
		c0.1-0.01,0.24-0.07,0.43-0.16c0.19-0.1,0.39-0.21,0.59-0.35c0.2-0.14,0.39-0.27,0.57-0.42c0.17-0.14,0.3-0.27,0.37-0.37
		c-0.01-0.07-0.05-0.16-0.13-0.27c-0.25,0.2-0.54,0.37-0.87,0.5c-0.32,0.13-0.67,0.22-1.03,0.27c-0.4-0.06-0.59-0.35-0.59-0.88
		c0-0.37,0.04-0.79,0.14-1.25c0.09-0.46,0.22-0.96,0.38-1.48c0.16-0.52,0.36-1.07,0.59-1.64c0.23-0.57,0.5-1.14,0.8-1.71
		c0.84,0,1.56-0.11,2.15-0.34c0-0.1-0.02-0.19-0.05-0.28l-0.14-0.22c-0.25,0.04-0.5,0.05-0.75,0.05c-0.25,0-0.49,0-0.73,0
		c0.3-0.5,0.58-0.94,0.84-1.32c0.26-0.38,0.57-0.8,0.93-1.25c-0.06-0.07-0.17-0.14-0.32-0.21c-0.16-0.07-0.33-0.14-0.52-0.21
		s-0.38-0.12-0.57-0.16C56.78,8.62,56.63,8.6,56.51,8.6"/>
	<path class="st0" d="M59.95,16.77c0.14-0.55,0.34-1.06,0.59-1.53c0.25-0.48,0.53-0.89,0.84-1.25c0.31-0.36,0.63-0.64,0.98-0.86
		c0.35-0.21,0.69-0.34,1.01-0.39c-0.05,0.82-0.39,1.58-1.03,2.27C61.71,15.71,60.92,16.3,59.95,16.77 M63.07,11.13
		c-0.4,0-0.8,0.09-1.2,0.27c-0.4,0.18-0.79,0.42-1.17,0.73c-0.38,0.31-0.73,0.67-1.06,1.09c-0.33,0.42-0.62,0.86-0.87,1.33
		c-0.25,0.47-0.44,0.96-0.58,1.46c-0.14,0.51-0.21,1-0.21,1.49c0,0.71,0.23,1.32,0.69,1.83c0.46,0.51,1.11,0.81,1.94,0.9
		c0.58-0.13,1.19-0.43,1.83-0.9c0.64-0.47,1.23-1.06,1.78-1.77c-0.08-0.1-0.19-0.2-0.31-0.3c-0.19,0.2-0.41,0.43-0.66,0.67
		c-0.25,0.24-0.51,0.47-0.79,0.68c-0.28,0.21-0.58,0.38-0.89,0.53c-0.31,0.14-0.63,0.21-0.96,0.21c-0.17,0-0.31-0.04-0.42-0.13
		c-0.11-0.09-0.19-0.21-0.25-0.35c-0.06-0.14-0.1-0.3-0.13-0.46c-0.02-0.17-0.04-0.33-0.04-0.48l0.01-0.24l0.01-0.22
		c0.77-0.3,1.44-0.61,2.02-0.93c0.58-0.32,1.07-0.68,1.47-1.08c0.4-0.4,0.71-0.86,0.93-1.39c0.22-0.53,0.35-1.16,0.4-1.9
		C64.14,11.54,63.63,11.21,63.07,11.13"/>
	<path class="st0" d="M68.08,4.7c0.07,0.57,0.11,1.09,0.11,1.57c0,0.63-0.07,1.2-0.2,1.7c-0.13,0.51-0.35,1.01-0.65,1.51
		c0,0.12,0.03,0.25,0.09,0.38c0.06,0.14,0.13,0.23,0.2,0.29c1.55-0.81,2.55-2.21,3.01-4.19c-0.04-0.14-0.13-0.29-0.29-0.44
		C70.2,5.38,70,5.25,69.77,5.13c-0.23-0.11-0.5-0.21-0.79-0.29C68.68,4.77,68.38,4.72,68.08,4.7"/>
	<path class="st0" d="M68.55,20.54c-0.24-0.17-0.36-0.38-0.36-0.64c0-0.2,0.08-0.44,0.25-0.71c0.17-0.27,0.38-0.54,0.63-0.79
		c0.25-0.26,0.52-0.48,0.81-0.66c0.29-0.18,0.55-0.29,0.79-0.33c0,0.31-0.06,0.62-0.17,0.95c-0.11,0.32-0.27,0.62-0.46,0.91
		c-0.19,0.29-0.42,0.54-0.68,0.77C69.11,20.25,68.84,20.42,68.55,20.54 M72.43,10.32c-0.31,0.07-0.61,0.2-0.9,0.39
		c-0.29,0.19-0.54,0.42-0.76,0.69c-0.22,0.27-0.39,0.56-0.52,0.88c-0.13,0.32-0.2,0.64-0.2,0.96c0,0.25,0.03,0.5,0.09,0.76
		c0.06,0.26,0.12,0.52,0.19,0.79c0.07,0.27,0.13,0.55,0.19,0.83c0.06,0.29,0.09,0.58,0.09,0.88c-0.53,0-1.02,0.1-1.47,0.3
		c-0.45,0.2-0.84,0.46-1.17,0.77c-0.33,0.32-0.59,0.68-0.78,1.1c-0.19,0.41-0.29,0.85-0.29,1.3c0.05,0.17,0.13,0.33,0.25,0.49
		c0.12,0.16,0.26,0.31,0.42,0.44s0.33,0.24,0.51,0.32c0.18,0.08,0.35,0.13,0.52,0.14c0.97-0.1,1.73-0.45,2.28-1.05
		c0.55-0.61,0.82-1.41,0.82-2.4c0-0.14,0-0.26-0.01-0.35c-0.01-0.09-0.01-0.19-0.01-0.28l0.03-0.17l0.15-0.12
		c0.08-0.04,0.21-0.07,0.37-0.12c0.16-0.04,0.38-0.09,0.66-0.15c0.05-0.05,0.07-0.12,0.07-0.23l-0.02-0.14c-0.19,0-0.39,0-0.59,0
		c-0.2,0-0.42,0-0.68,0c-0.01-0.02-0.02-0.09-0.02-0.21c0-1.15,0.13-2.02,0.38-2.61c0.25-0.59,0.62-0.89,1.1-0.89
		c0.13,0,0.24,0.06,0.32,0.17c0.08,0.11,0.12,0.25,0.12,0.42c0,0.07-0.01,0.15-0.04,0.25c-0.03,0.1-0.06,0.19-0.1,0.29
		c-0.04,0.1-0.07,0.18-0.1,0.26l-0.04,0.17c0.02,0.17,0.1,0.26,0.23,0.27c0.1,0,0.2-0.06,0.31-0.2c0.11-0.13,0.21-0.29,0.31-0.49
		c0.1-0.2,0.18-0.42,0.24-0.66c0.07-0.24,0.1-0.48,0.12-0.7c-0.04-0.14-0.14-0.32-0.31-0.54c-0.17-0.22-0.36-0.44-0.58-0.65
		c-0.22-0.21-0.44-0.41-0.66-0.58C72.74,10.46,72.56,10.36,72.43,10.32"/>
	<path class="st2" d="M14.14,18.36c0.18-0.39,0.4-0.9,0.65-1.52s0.52-1.29,0.79-2.01s0.56-1.46,0.85-2.21
		c0.29-0.75,0.56-1.47,0.81-2.15c0.25-0.68,0.47-1.28,0.66-1.82c0.19-0.54,0.32-0.95,0.41-1.23c-0.76,0.31-1.41,0.78-1.95,1.41
		c-0.54,0.63-0.95,1.42-1.23,2.37c-0.28-0.09-0.53-0.26-0.76-0.51c-0.23-0.24-0.38-0.55-0.45-0.92c0.12-0.55,0.35-1.05,0.68-1.5
		c0.33-0.45,0.75-0.84,1.25-1.16c0.5-0.32,1.09-0.57,1.75-0.74c0.66-0.17,1.37-0.26,2.13-0.26c0.96,0,1.84,0.14,2.65,0.42
		c0.8,0.28,1.5,0.67,2.07,1.17s1.03,1.1,1.35,1.8c0.32,0.7,0.49,1.48,0.49,2.34c0,1.17-0.22,2.28-0.65,3.34s-1.02,1.99-1.76,2.8
		c-0.74,0.81-1.6,1.45-2.57,1.94c-0.97,0.48-2,0.72-3.06,0.72c-0.99,0-1.83-0.19-2.53-0.58C15.01,19.67,14.49,19.11,14.14,18.36z
		 M20.5,7.01c-0.6,0-1.17,0.08-1.71,0.25c0.53,0.19,0.97,0.39,1.32,0.6s0.59,0.37,0.72,0.49c-0.1,0.13-0.24,0.36-0.42,0.7
		c-0.19,0.33-0.4,0.74-0.65,1.21c-0.25,0.48-0.51,1-0.78,1.56c-0.28,0.56-0.55,1.14-0.81,1.74c-0.69,1.51-1.18,2.7-1.49,3.57
		c-0.31,0.87-0.46,1.47-0.46,1.8c0.17,0.06,0.37,0.1,0.61,0.13c0.24,0.02,0.5,0.04,0.78,0.04c0.97,0,1.9-0.22,2.77-0.67
		c0.87-0.45,1.63-1.04,2.29-1.79c0.65-0.75,1.17-1.62,1.55-2.61c0.38-0.99,0.57-2.04,0.57-3.13c0-1.22-0.38-2.18-1.15-2.85
		S21.81,7.01,20.5,7.01z"/>
	<path class="st2" d="M31.68,18.89c-0.23-0.19-0.38-0.43-0.46-0.71c-0.08-0.29-0.12-0.53-0.12-0.73c0-0.25,0.03-0.46,0.09-0.64
		c-0.05,0-0.16,0.09-0.32,0.28c-0.17,0.19-0.35,0.41-0.55,0.68c-0.2,0.26-0.39,0.52-0.59,0.76s-0.34,0.43-0.43,0.55
		c-0.16,0.17-0.3,0.3-0.44,0.39c-0.14,0.09-0.25,0.15-0.33,0.16c-0.19,0-0.39-0.03-0.6-0.1c-0.21-0.07-0.41-0.16-0.59-0.28
		c-0.19-0.12-0.35-0.26-0.49-0.43s-0.23-0.36-0.28-0.57c0-0.33,0.01-0.61,0.03-0.82c0.02-0.21,0.06-0.45,0.12-0.7
		c0.11-0.45,0.27-0.96,0.48-1.53c0.21-0.57,0.45-1.13,0.73-1.69c0.28-0.55,0.59-1.07,0.93-1.55c0.34-0.48,0.71-0.86,1.09-1.13
		c0.11,0,0.23,0.01,0.38,0.03c0.14,0.02,0.29,0.05,0.44,0.1c0.15,0.05,0.29,0.1,0.43,0.17s0.26,0.15,0.35,0.26
		c-0.11,0.12-0.38,0.52-0.82,1.19c-0.44,0.68-0.93,1.65-1.47,2.92c-0.06,0.13-0.13,0.32-0.22,0.57c-0.08,0.25-0.17,0.51-0.25,0.78
		c-0.08,0.27-0.15,0.54-0.21,0.8c-0.05,0.26-0.08,0.47-0.08,0.62c0,0.1,0.02,0.17,0.04,0.21l0.08,0.11
		c0.18-0.07,0.41-0.27,0.69-0.59c0.28-0.32,0.66-0.81,1.15-1.48c0.12-0.17,0.26-0.36,0.42-0.57c0.16-0.21,0.33-0.44,0.5-0.69
		c0.17-0.24,0.33-0.5,0.48-0.76c0.15-0.26,0.27-0.52,0.37-0.78c0.05-0.14,0.11-0.31,0.19-0.51s0.17-0.4,0.29-0.62
		s0.25-0.43,0.4-0.65s0.33-0.43,0.53-0.62c0.16,0,0.32,0.02,0.5,0.05s0.35,0.08,0.51,0.13c0.16,0.05,0.3,0.11,0.42,0.18
		c0.12,0.07,0.21,0.13,0.27,0.21c-0.22,0.52-0.46,1.04-0.72,1.55c-0.26,0.51-0.51,1.01-0.74,1.51c-0.23,0.49-0.42,0.98-0.58,1.47
		c-0.16,0.49-0.23,0.96-0.23,1.43c0,0.25,0.02,0.47,0.06,0.65c0.04,0.18,0.09,0.34,0.14,0.46c0.05,0.13,0.09,0.23,0.14,0.31
		l0.06,0.21l-0.04,0.05l-0.04,0.02c-0.08,0-0.19-0.02-0.32-0.05c-0.13-0.04-0.28-0.09-0.44-0.15c-0.16-0.07-0.32-0.14-0.49-0.22
		C31.97,19.08,31.82,18.99,31.68,18.89z"/>
	<path class="st2" d="M41.81,12.08c0.12,0,0.26,0.02,0.42,0.06c0.16,0.04,0.31,0.1,0.44,0.16s0.24,0.13,0.33,0.21
		s0.14,0.14,0.14,0.2c-0.24,0.5-0.46,1-0.67,1.51c-0.2,0.51-0.38,0.99-0.52,1.45c-0.14,0.46-0.26,0.9-0.33,1.3s-0.12,0.75-0.12,1.05
		c0,0.33,0.04,0.61,0.11,0.83c0.07,0.22,0.19,0.38,0.36,0.47c-0.14,0.1-0.33,0.17-0.56,0.23c-0.23,0.06-0.43,0.09-0.61,0.09
		c-0.65,0-0.97-0.44-0.97-1.32c0-0.68,0.23-1.61,0.69-2.78c-0.24,0.54-0.52,1.06-0.83,1.54c-0.31,0.48-0.63,0.9-0.96,1.27
		c-0.32,0.37-0.65,0.67-0.98,0.9c-0.33,0.23-0.63,0.37-0.91,0.42c-0.44,0-0.81-0.2-1.08-0.6s-0.41-0.91-0.41-1.53
		c0-0.67,0.14-1.37,0.43-2.11s0.66-1.43,1.11-2.06s0.94-1.16,1.47-1.58s1.04-0.64,1.53-0.64c0.12,0.04,0.26,0.11,0.41,0.21
		c0.15,0.11,0.29,0.23,0.43,0.37c0.14,0.14,0.25,0.29,0.35,0.44c0.1,0.15,0.15,0.28,0.16,0.38c-0.48,0.07-0.98,0.3-1.49,0.69
		c-0.51,0.39-0.97,0.86-1.39,1.41c-0.42,0.55-0.75,1.14-1.02,1.77c-0.26,0.63-0.4,1.22-0.4,1.76c0,0.23,0.08,0.37,0.25,0.43
		c0.35-0.07,0.75-0.37,1.21-0.88c0.46-0.52,1.01-1.32,1.66-2.4c0.12-0.21,0.26-0.45,0.41-0.71c0.15-0.26,0.3-0.54,0.46-0.82
		c0.16-0.29,0.31-0.57,0.46-0.87C41.53,12.64,41.68,12.35,41.81,12.08z"/>
	<path class="st2" d="M43.63,18.93c0.06-0.34,0.17-0.8,0.32-1.36c0.15-0.56,0.33-1.17,0.53-1.8c0.2-0.64,0.42-1.28,0.65-1.92
		c0.23-0.64,0.45-1.22,0.67-1.73c0.16-0.37,0.29-0.66,0.41-0.86s0.25-0.38,0.4-0.53c0.17,0.02,0.34,0.07,0.52,0.13
		c0.18,0.06,0.35,0.13,0.52,0.21c0.17,0.08,0.32,0.17,0.45,0.26c0.13,0.09,0.23,0.18,0.31,0.26c-0.32,0.38-0.61,0.81-0.86,1.3
		c-0.25,0.49-0.5,1.11-0.75,1.87c0.65-0.57,1.22-1.12,1.72-1.64c0.5-0.52,0.96-1.11,1.4-1.75c0.07-0.06,0.2-0.09,0.38-0.09
		c0.17,0,0.33,0.03,0.49,0.08c0.16,0.05,0.26,0.13,0.32,0.22c-0.22,0.57-0.32,1.14-0.32,1.69c0,0.52,0.08,0.92,0.23,1.18
		c-0.01,0.07-0.09,0.21-0.24,0.41c-0.15,0.2-0.32,0.39-0.5,0.57c-0.32-0.17-0.61-0.4-0.87-0.69c-0.25-0.29-0.44-0.61-0.56-0.95
		c-0.56,0.39-1.05,0.78-1.44,1.15s-0.74,0.79-1.02,1.25c-0.28,0.46-0.52,0.98-0.72,1.58c-0.2,0.59-0.39,1.3-0.57,2.12
		c-0.11-0.01-0.24-0.05-0.39-0.12s-0.3-0.15-0.45-0.24s-0.29-0.2-0.41-0.3C43.74,19.12,43.66,19.02,43.63,18.93z"/>
	<path class="st2" d="M52.39,12.45c-0.06-0.07-0.11-0.22-0.16-0.45c-0.05-0.23-0.07-0.43-0.07-0.6c0.31,0.05,0.61,0.07,0.9,0.07
		s0.55,0,0.79,0c0.18-0.35,0.38-0.7,0.59-1.05c0.21-0.35,0.41-0.66,0.61-0.95c0.2-0.29,0.38-0.53,0.56-0.73
		c0.17-0.2,0.31-0.33,0.41-0.39c0.12,0,0.27,0.02,0.46,0.06c0.19,0.04,0.38,0.1,0.57,0.16s0.37,0.13,0.52,0.21
		c0.16,0.07,0.26,0.14,0.32,0.21c-0.36,0.45-0.67,0.87-0.93,1.25s-0.54,0.82-0.84,1.32c0.24,0,0.48,0,0.73,0
		c0.25,0,0.5-0.02,0.75-0.05l0.14,0.22c0.04,0.09,0.05,0.18,0.05,0.28c-0.59,0.23-1.3,0.34-2.15,0.34c-0.3,0.57-0.57,1.14-0.8,1.71
		c-0.23,0.57-0.43,1.11-0.59,1.64s-0.29,1.02-0.38,1.48c-0.09,0.46-0.14,0.88-0.14,1.25c0,0.52,0.2,0.82,0.59,0.88
		c0.36-0.05,0.7-0.14,1.03-0.27c0.32-0.13,0.61-0.3,0.87-0.5c0.07,0.11,0.11,0.2,0.13,0.27c-0.07,0.11-0.2,0.23-0.37,0.37
		c-0.17,0.14-0.36,0.28-0.57,0.42c-0.2,0.14-0.4,0.25-0.59,0.35c-0.19,0.09-0.34,0.15-0.43,0.16c-0.3,0-0.6-0.06-0.9-0.18
		c-0.3-0.12-0.57-0.27-0.82-0.45c-0.25-0.18-0.45-0.38-0.6-0.6s-0.23-0.44-0.23-0.65c0-0.29,0.04-0.65,0.12-1.08
		s0.19-0.91,0.33-1.42c0.14-0.51,0.31-1.05,0.5-1.61c0.19-0.56,0.4-1.11,0.63-1.66H52.39z"/>
	<path class="st2" d="M64.12,11.9c-0.05,0.74-0.18,1.37-0.4,1.9c-0.22,0.53-0.53,0.99-0.93,1.39c-0.4,0.4-0.89,0.76-1.47,1.08
		s-1.25,0.63-2.02,0.93l-0.01,0.22l-0.01,0.24c0,0.15,0.01,0.32,0.04,0.48c0.02,0.17,0.07,0.32,0.13,0.46
		c0.06,0.14,0.14,0.26,0.25,0.35c0.11,0.09,0.25,0.13,0.42,0.13c0.32,0,0.64-0.07,0.96-0.21s0.61-0.32,0.89-0.53
		c0.28-0.21,0.55-0.43,0.79-0.68c0.25-0.24,0.47-0.47,0.66-0.67c0.12,0.11,0.22,0.21,0.31,0.3c-0.54,0.71-1.13,1.3-1.78,1.77
		c-0.64,0.47-1.25,0.77-1.83,0.9c-0.83-0.1-1.48-0.4-1.94-0.9c-0.46-0.51-0.69-1.11-0.69-1.83c0-0.49,0.07-0.98,0.21-1.49
		s0.33-0.99,0.58-1.46c0.25-0.47,0.53-0.91,0.87-1.33c0.33-0.42,0.68-0.78,1.06-1.09c0.38-0.31,0.77-0.55,1.17-0.73
		c0.4-0.18,0.8-0.27,1.2-0.27C63.13,10.96,63.64,11.29,64.12,11.9z M62.88,12.49c-0.32,0.05-0.66,0.18-1.01,0.39
		s-0.68,0.5-0.98,0.86c-0.31,0.36-0.59,0.77-0.84,1.25s-0.45,0.99-0.59,1.53c0.96-0.48,1.76-1.06,2.4-1.76
		C62.49,14.07,62.83,13.31,62.88,12.49z"/>
	<path class="st2" d="M67.13,9.9c-0.07-0.06-0.14-0.16-0.2-0.29c-0.06-0.14-0.09-0.26-0.09-0.38c0.3-0.5,0.52-1,0.65-1.51
		c0.13-0.5,0.2-1.07,0.2-1.7c0-0.48-0.04-1-0.11-1.57c0.3,0.02,0.6,0.07,0.89,0.15c0.29,0.08,0.56,0.17,0.79,0.29
		s0.43,0.24,0.59,0.39c0.16,0.15,0.25,0.29,0.29,0.44C69.69,7.7,68.68,9.1,67.13,9.9z"/>
	<path class="st2" d="M74,12.16c-0.01,0.23-0.05,0.46-0.12,0.7c-0.07,0.24-0.15,0.46-0.24,0.66c-0.1,0.2-0.2,0.36-0.31,0.49
		c-0.11,0.13-0.21,0.2-0.31,0.2c-0.13-0.01-0.21-0.1-0.23-0.27l0.04-0.17c0.03-0.08,0.06-0.16,0.1-0.26c0.04-0.1,0.07-0.19,0.1-0.29
		c0.03-0.09,0.04-0.18,0.04-0.25c0-0.17-0.04-0.31-0.12-0.42c-0.08-0.11-0.18-0.17-0.32-0.17c-0.48,0-0.85,0.3-1.1,0.89
		c-0.25,0.59-0.38,1.46-0.38,2.61c0,0.12,0.01,0.19,0.02,0.21c0.25,0,0.48,0,0.68,0s0.39,0,0.59,0l0.02,0.14
		c0,0.11-0.02,0.18-0.07,0.23c-0.28,0.06-0.5,0.11-0.66,0.15c-0.16,0.04-0.29,0.08-0.37,0.12l-0.15,0.12l-0.03,0.17
		c0,0.09,0,0.19,0.01,0.28s0.01,0.21,0.01,0.35c0,0.99-0.27,1.79-0.82,2.4c-0.55,0.6-1.31,0.96-2.28,1.05
		c-0.17-0.01-0.34-0.06-0.52-0.14c-0.18-0.08-0.35-0.19-0.51-0.32s-0.3-0.28-0.42-0.44c-0.12-0.16-0.21-0.32-0.25-0.49
		c0-0.46,0.1-0.89,0.29-1.3c0.19-0.41,0.45-0.78,0.78-1.1c0.33-0.32,0.72-0.58,1.17-0.77c0.45-0.2,0.94-0.3,1.47-0.3
		c0-0.3-0.03-0.59-0.09-0.88c-0.06-0.29-0.12-0.56-0.19-0.83c-0.07-0.27-0.13-0.53-0.19-0.79c-0.06-0.26-0.09-0.51-0.09-0.76
		c0-0.32,0.07-0.64,0.2-0.96c0.13-0.32,0.31-0.61,0.52-0.88c0.22-0.27,0.47-0.5,0.76-0.69c0.29-0.19,0.59-0.32,0.9-0.39
		c0.13,0.04,0.31,0.14,0.53,0.31s0.44,0.37,0.66,0.58c0.22,0.21,0.41,0.43,0.58,0.65C73.86,11.84,73.96,12.02,74,12.16z
		 M68.05,20.29c0.29-0.12,0.56-0.29,0.82-0.52c0.26-0.23,0.48-0.48,0.68-0.77c0.19-0.29,0.35-0.59,0.46-0.91
		c0.11-0.32,0.17-0.64,0.17-0.95c-0.24,0.04-0.5,0.15-0.79,0.33c-0.29,0.18-0.56,0.4-0.81,0.66c-0.25,0.26-0.46,0.52-0.63,0.79
		c-0.17,0.27-0.25,0.51-0.25,0.71C67.69,19.91,67.81,20.13,68.05,20.29z"/>
	<path class="st0" d="M68.86,25.77l-0.22,0.02l-0.23,0.04c-0.12,0.03-0.23,0.06-0.33,0.1c-0.2,0.06-0.36,0.15-0.48,0.25
		c0.07,0.3,0.12,0.64,0.15,1.01c0.03,0.37,0.04,0.72,0.04,1.05c0,0.38-0.01,0.77-0.04,1.16c-0.04,0.47-0.11,1-0.22,1.59
		c-0.11,0.59-0.25,1.18-0.42,1.79c-0.17,0.61-0.36,1.2-0.56,1.77s-0.42,1.09-0.64,1.54c-0.22,0.45-0.44,0.81-0.66,1.09
		c-0.22,0.27-0.44,0.41-0.64,0.41c-0.17,0-0.32-0.15-0.44-0.44c-0.12-0.3-0.21-0.72-0.26-1.26c-0.05-0.54-0.06-1.19-0.02-1.96
		c0.04-0.76,0.14-1.61,0.3-2.55c0.1-0.36,0.21-0.73,0.31-1.11c0.11-0.39,0.21-0.77,0.29-1.15c0.09-0.38,0.16-0.73,0.23-1.07
		c0.06-0.33,0.1-0.62,0.12-0.85c0.01-0.18-0.01-0.33-0.07-0.44c-0.05-0.11-0.15-0.16-0.27-0.16c-0.18,0.01-0.4,0.13-0.64,0.36
		c-0.25,0.23-0.46,0.59-0.64,1.09c-0.09,0.25-0.16,0.54-0.22,0.84c-0.05,0.31-0.1,0.62-0.13,0.93c-0.03,0.31-0.05,0.62-0.06,0.93
		c-0.01,0.31-0.01,0.59-0.01,0.87c-0.07,0.22-0.16,0.46-0.25,0.73c-0.09,0.27-0.18,0.54-0.28,0.81c-0.1,0.27-0.19,0.54-0.29,0.8
		c-0.1,0.26-0.18,0.49-0.27,0.7c-0.14,0.33-0.28,0.66-0.44,1c-0.16,0.34-0.31,0.64-0.47,0.92c-0.16,0.27-0.32,0.5-0.47,0.67
		c-0.16,0.17-0.3,0.26-0.44,0.26c-0.28,0-0.5-0.28-0.66-0.83c-0.16-0.55-0.2-1.39-0.12-2.51c0.05-0.56,0.13-1.15,0.27-1.78
		c0.13-0.63,0.29-1.26,0.46-1.87c0.18-0.62,0.37-1.2,0.57-1.74c0.2-0.55,0.39-1.01,0.57-1.39c0.08-0.19,0.17-0.37,0.27-0.53
		c0.08-0.15,0.17-0.29,0.27-0.42c0.1-0.13,0.19-0.23,0.29-0.29l-0.19-0.08L61.72,26c-0.08-0.01-0.17-0.01-0.26-0.01
		c-0.11,0-0.23,0.01-0.35,0.03c-0.12,0.02-0.24,0.05-0.34,0.09c-0.1,0.04-0.2,0.08-0.27,0.13l-0.16,0.14
		c-0.02,0.04-0.07,0.16-0.16,0.38c-0.09,0.22-0.2,0.51-0.33,0.87c-0.13,0.36-0.28,0.77-0.43,1.24c-0.16,0.46-0.3,0.96-0.44,1.48
		s-0.26,1.07-0.37,1.63c-0.11,0.56-0.18,1.11-0.22,1.65c-0.06,0.81-0.07,1.53-0.01,2.17c0.06,0.63,0.16,1.17,0.3,1.6
		c0.14,0.43,0.32,0.77,0.55,1c0.22,0.23,0.47,0.35,0.73,0.35c0.26,0,0.53-0.11,0.8-0.33c0.27-0.22,0.53-0.52,0.79-0.89
		c0.26-0.37,0.51-0.79,0.75-1.26c0.24-0.47,0.47-0.97,0.68-1.48c-0.01,0.39,0,0.82,0.03,1.29c0.03,0.46,0.09,0.9,0.19,1.31
		c0.1,0.41,0.25,0.74,0.44,1.01c0.19,0.27,0.45,0.4,0.77,0.4c0.3,0,0.62-0.14,0.95-0.42c0.33-0.28,0.67-0.68,1-1.19
		c0.33-0.51,0.66-1.11,0.97-1.81c0.31-0.7,0.6-1.46,0.85-2.3c0.25-0.83,0.47-1.72,0.65-2.65c0.18-0.93,0.3-1.88,0.38-2.84
		c0.02-0.25,0.02-0.48,0.01-0.71c-0.01-0.19-0.03-0.39-0.05-0.59c-0.02-0.2-0.06-0.36-0.12-0.49L68.86,25.77"/>
	<path class="st0" d="M70.61,33.59c0.06-0.38,0.16-0.72,0.29-1.02c0.13-0.3,0.26-0.55,0.41-0.75c0.15-0.21,0.29-0.36,0.44-0.47
		c0.15-0.11,0.28-0.16,0.39-0.16c0.1,0,0.18,0.04,0.23,0.12c0.05,0.08,0.07,0.2,0.05,0.38c-0.02,0.16-0.1,0.36-0.26,0.59
		c-0.16,0.23-0.43,0.49-0.82,0.79c-0.13,0.1-0.26,0.19-0.38,0.28C70.84,33.43,70.72,33.51,70.61,33.59 M72.52,30.41
		c-0.36,0-0.73,0.11-1.09,0.34c-0.36,0.23-0.68,0.51-0.97,0.86c-0.29,0.35-0.53,0.73-0.72,1.14c-0.2,0.42-0.31,0.81-0.35,1.18
		c-0.05,0.46-0.01,0.84,0.1,1.16c0.11,0.32,0.27,0.58,0.46,0.78c0.19,0.2,0.4,0.35,0.64,0.44c0.23,0.1,0.45,0.14,0.65,0.14
		c0.38,0,0.78-0.09,1.18-0.27c0.41-0.18,0.8-0.42,1.19-0.72c0.39-0.3,0.75-0.63,1.1-1.01c0.05-0.06,0.1-0.11,0.15-0.17
		c-0.01-0.18-0.01-0.38,0-0.59c0-0.08,0-0.15,0.01-0.23c-0.08,0.09-0.16,0.18-0.25,0.27c-0.28,0.3-0.58,0.59-0.9,0.87
		c-0.32,0.28-0.65,0.51-0.99,0.71c-0.34,0.2-0.66,0.29-0.97,0.29c-0.15,0-0.29-0.02-0.43-0.06c-0.14-0.04-0.27-0.11-0.38-0.21
		c-0.11-0.1-0.2-0.22-0.27-0.38c-0.07-0.16-0.11-0.35-0.12-0.57c0.14-0.1,0.3-0.21,0.48-0.33c0.18-0.12,0.37-0.25,0.57-0.39
		c0.18-0.13,0.38-0.27,0.58-0.42c0.21-0.16,0.4-0.33,0.58-0.52c0.18-0.19,0.34-0.41,0.47-0.64c0.13-0.24,0.21-0.5,0.24-0.78
		c0.02-0.25-0.05-0.47-0.21-0.64C73.12,30.49,72.87,30.41,72.52,30.41"/>
	<path class="st0" d="M77.74,26.25c-0.07,0-0.14,0.01-0.22,0.02c-0.1,0.02-0.21,0.06-0.32,0.11c-0.11,0.05-0.21,0.12-0.29,0.23
		c-0.06,0.07-0.16,0.24-0.28,0.49c-0.12,0.25-0.26,0.57-0.4,0.95c-0.15,0.38-0.3,0.8-0.46,1.27c-0.16,0.47-0.3,0.96-0.43,1.46
		c-0.13,0.5-0.24,1-0.33,1.5c-0.08,0.42-0.12,0.81-0.14,1.19c0,0.08-0.01,0.15-0.01,0.23c-0.01,0.21-0.01,0.41,0,0.59
		c0.02,0.39,0.06,0.7,0.13,0.95c0.11,0.36,0.24,0.62,0.4,0.79c0.15,0.16,0.31,0.26,0.48,0.29c0.16,0.03,0.3,0.04,0.4,0.04
		c0.32,0,0.64-0.12,0.98-0.36c0.33-0.24,0.64-0.54,0.91-0.9s0.51-0.75,0.7-1.18c0.19-0.42,0.3-0.82,0.34-1.18
		c0.16,0,0.35-0.02,0.55-0.05c0.2-0.04,0.41-0.09,0.63-0.15c0.22-0.06,0.44-0.14,0.66-0.24c0.22-0.1,0.44-0.2,0.65-0.32l0.16-0.16
		l0.01-0.18l-0.13-0.11c-0.02-0.01-0.04-0.01-0.06-0.01c-0.05,0-0.12,0.02-0.19,0.05c-0.36,0.16-0.73,0.28-1.13,0.38
		c-0.4,0.1-0.79,0.16-1.15,0.16c-0.04-0.3-0.11-0.55-0.22-0.75c-0.11-0.2-0.24-0.29-0.4-0.29c-0.1,0-0.21,0.02-0.33,0.07
		c-0.12,0.05-0.23,0.11-0.33,0.19c-0.1,0.08-0.19,0.18-0.26,0.29c-0.07,0.11-0.11,0.23-0.11,0.36c0,0.19,0.06,0.34,0.18,0.46
		c0.12,0.11,0.26,0.19,0.44,0.24c-0.03,0.26-0.1,0.56-0.21,0.9c-0.11,0.33-0.25,0.64-0.42,0.94c-0.16,0.29-0.35,0.54-0.56,0.74
		c-0.21,0.2-0.42,0.3-0.64,0.3c-0.27,0-0.44-0.2-0.53-0.6c-0.09-0.4-0.09-0.93,0-1.59c0.14-0.26,0.29-0.57,0.47-0.93
		c0.18-0.36,0.36-0.75,0.53-1.18c0.18-0.43,0.35-0.9,0.52-1.39c0.17-0.5,0.32-1.02,0.46-1.57c0.15-0.57,0.24-1.04,0.27-1.41
		c0.02-0.36,0.01-0.57-0.05-0.6l-0.19-0.04C77.79,26.25,77.76,26.25,77.74,26.25"/>
	<path class="st0" d="M89.19,25.75c-0.32,0-0.68,0.04-1.08,0.12c-0.27,0.05-0.57,0.18-0.91,0.38c-0.34,0.2-0.66,0.46-0.94,0.78
		c-0.29,0.32-0.51,0.69-0.68,1.11c-0.17,0.42-0.22,0.89-0.14,1.4c0.05,0.36,0.16,0.7,0.32,1.01c0.16,0.31,0.34,0.6,0.54,0.86
		c0.2,0.26,0.4,0.51,0.61,0.73c0.21,0.22,0.38,0.43,0.53,0.62c0.14,0.19,0.29,0.42,0.43,0.69c0.14,0.27,0.26,0.56,0.34,0.87
		c0.09,0.31,0.13,0.63,0.12,0.97c0,0.34-0.08,0.67-0.24,1c-0.46,1.04-1.01,1.56-1.66,1.56c-0.01,0-0.02,0-0.03,0
		c-0.27-0.01-0.49-0.09-0.66-0.25c-0.16-0.16-0.29-0.35-0.38-0.57c-0.09-0.22-0.14-0.46-0.15-0.7c-0.01-0.24,0-0.45,0.04-0.62
		l0.08-0.19c0.05-0.14,0.15-0.28,0.29-0.44c-0.09-0.03-0.18-0.05-0.28-0.05c-0.01,0-0.03,0-0.04,0c-0.11,0-0.22,0.02-0.32,0.03
		c-0.12,0.03-0.24,0.06-0.36,0.1c-0.1,0.05-0.2,0.1-0.29,0.15l-0.25,0.16l-0.23,0.22c-0.1,0.32-0.12,0.63-0.08,0.92
		c0.05,0.3,0.13,0.56,0.23,0.79c0.11,0.26,0.26,0.51,0.45,0.74c0.16,0.2,0.35,0.35,0.56,0.44c0.21,0.1,0.42,0.16,0.62,0.19
		c0.12,0.02,0.24,0.03,0.35,0.03c0.08,0,0.16,0,0.24-0.01c0.19-0.02,0.35-0.05,0.49-0.08c0.17-0.04,0.39-0.12,0.66-0.24
		c0.26-0.12,0.53-0.32,0.79-0.59s0.5-0.64,0.72-1.09c0.22-0.45,0.38-1.01,0.48-1.69c0.06-0.46,0.07-0.89,0.01-1.27
		c-0.05-0.38-0.15-0.73-0.29-1.04c-0.14-0.31-0.3-0.59-0.48-0.83c-0.18-0.25-0.37-0.47-0.55-0.66c-0.18-0.2-0.35-0.37-0.51-0.53
		c-0.16-0.16-0.27-0.3-0.34-0.42c-0.05-0.09-0.12-0.2-0.18-0.31c-0.06-0.12-0.12-0.25-0.18-0.38c-0.05-0.14-0.1-0.29-0.13-0.45
		c-0.03-0.16-0.04-0.34-0.02-0.53c0.02-0.24,0.1-0.47,0.24-0.7c0.14-0.23,0.31-0.44,0.51-0.62c0.2-0.19,0.42-0.35,0.66-0.49
		c0.24-0.14,0.47-0.25,0.7-0.31c0.19-0.06,0.36-0.09,0.51-0.09c0.03,0,0.06,0,0.09,0c0.18,0.01,0.31,0.08,0.4,0.18
		c0.15,0.21,0.25,0.43,0.29,0.66c0.04,0.23,0.04,0.46,0.01,0.68c-0.03,0.23-0.09,0.45-0.16,0.66c-0.08,0.21-0.15,0.41-0.23,0.57
		c-0.08,0.17-0.15,0.31-0.21,0.42c-0.06,0.11-0.09,0.18-0.08,0.21l0.19,0.05l0.21,0.01l0.22-0.03c0.26-0.05,0.46-0.11,0.57-0.18
		c0.12-0.06,0.21-0.12,0.26-0.18c0.03-0.02,0.08-0.13,0.17-0.32c0.09-0.2,0.16-0.44,0.22-0.72c0.06-0.29,0.08-0.6,0.06-0.94
		c-0.02-0.34-0.12-0.66-0.31-0.96C90.66,26.04,90.06,25.75,89.19,25.75"/>
	<path class="st0" d="M92.2,33.59c0.06-0.38,0.16-0.72,0.29-1.02c0.13-0.3,0.26-0.55,0.41-0.75c0.15-0.21,0.29-0.36,0.44-0.47
		c0.15-0.11,0.28-0.16,0.39-0.16c0.1,0,0.18,0.04,0.23,0.12c0.05,0.08,0.07,0.2,0.05,0.38c-0.02,0.16-0.1,0.36-0.26,0.59
		c-0.16,0.23-0.43,0.49-0.82,0.79c-0.13,0.1-0.25,0.19-0.38,0.28C92.43,33.43,92.31,33.51,92.2,33.59 M94.11,30.41
		c-0.36,0-0.73,0.11-1.09,0.34s-0.68,0.51-0.97,0.86c-0.29,0.35-0.53,0.73-0.72,1.14c-0.2,0.42-0.31,0.81-0.35,1.18
		c-0.05,0.46-0.01,0.84,0.1,1.16c0.11,0.32,0.27,0.58,0.46,0.78c0.19,0.2,0.4,0.35,0.64,0.44c0.23,0.1,0.45,0.14,0.65,0.14
		c0.38,0,0.78-0.09,1.18-0.27c0.41-0.18,0.8-0.42,1.19-0.72c0.14-0.11,0.28-0.22,0.41-0.33c0.05-0.1,0.11-0.22,0.17-0.34
		c0.13-0.27,0.28-0.56,0.43-0.87c0.06-0.13,0.13-0.26,0.19-0.38c-0.06,0.06-0.12,0.13-0.18,0.2c-0.28,0.3-0.58,0.59-0.9,0.87
		s-0.65,0.51-0.99,0.71c-0.34,0.2-0.66,0.29-0.97,0.29c-0.15,0-0.29-0.02-0.43-0.06c-0.14-0.04-0.27-0.11-0.38-0.21
		c-0.11-0.1-0.2-0.22-0.27-0.38c-0.07-0.16-0.11-0.35-0.12-0.57c0.14-0.1,0.3-0.21,0.48-0.33c0.18-0.12,0.37-0.25,0.57-0.39
		c0.18-0.13,0.38-0.27,0.58-0.42c0.21-0.16,0.4-0.33,0.58-0.52c0.18-0.19,0.34-0.41,0.47-0.64c0.13-0.24,0.21-0.5,0.24-0.78
		c0.02-0.25-0.05-0.47-0.21-0.64C94.71,30.49,94.46,30.41,94.11,30.41"/>
	<path class="st0" d="M98.2,29.66c-0.14,0-0.28,0.06-0.42,0.19c-0.15,0.13-0.28,0.28-0.4,0.46c-0.12,0.18-0.21,0.36-0.29,0.55
		c-0.07,0.19-0.1,0.35-0.08,0.46c0.02,0.14,0.05,0.23,0.08,0.27c0.04,0.04,0.1,0.11,0.21,0.2c-0.05,0.1-0.14,0.26-0.26,0.49
		c-0.12,0.22-0.25,0.48-0.39,0.76c-0.08,0.16-0.17,0.34-0.25,0.51c-0.06,0.13-0.13,0.25-0.19,0.38c-0.16,0.31-0.3,0.61-0.43,0.87
		c-0.06,0.12-0.11,0.23-0.17,0.34c-0.06,0.13-0.12,0.25-0.18,0.36c-0.1,0.19-0.16,0.31-0.18,0.37c-0.05,0.11-0.07,0.2-0.05,0.27
		l0.12,0.14l0.21-0.01c0.08-0.03,0.15-0.1,0.21-0.2c0.03-0.04,0.1-0.15,0.21-0.33c0.11-0.19,0.25-0.42,0.42-0.68
		c0.16-0.27,0.34-0.56,0.53-0.87c0.19-0.31,0.36-0.61,0.53-0.89c0.17-0.28,0.32-0.53,0.44-0.74c0.13-0.21,0.21-0.35,0.25-0.41
		l0.23,0.08c0.08,0.04,0.18,0.05,0.3,0.05l0.18-0.01l0.1-0.01l0.07-0.01l0.12-0.01l0.18,0.1l0.05,0.22c0,0.13-0.05,0.29-0.14,0.47
		c-0.1,0.19-0.22,0.41-0.38,0.68c-0.06,0.13-0.13,0.26-0.21,0.39c-0.08,0.13-0.15,0.26-0.22,0.4c-0.07,0.13-0.13,0.26-0.18,0.38
		c-0.05,0.12-0.08,0.24-0.09,0.35c-0.01,0.14,0.01,0.29,0.05,0.44c0.04,0.16,0.11,0.31,0.21,0.44c0.1,0.13,0.22,0.24,0.38,0.33
		c0.16,0.09,0.35,0.14,0.59,0.14c0.23,0,0.47-0.07,0.72-0.21c0.25-0.14,0.5-0.31,0.75-0.53c0.25-0.21,0.49-0.45,0.72-0.71
		c0.23-0.26,0.43-0.51,0.62-0.76c-0.03-0.19-0.04-0.39-0.05-0.6c0-0.08-0.01-0.15-0.01-0.22c-0.07,0.09-0.14,0.18-0.22,0.28
		c-0.16,0.21-0.34,0.42-0.53,0.63c-0.19,0.21-0.38,0.41-0.58,0.59c-0.2,0.18-0.39,0.32-0.57,0.44c-0.19,0.11-0.36,0.17-0.51,0.17
		c-0.21,0-0.34-0.04-0.38-0.11c-0.05-0.07-0.08-0.17-0.1-0.29c-0.02-0.18,0.04-0.39,0.16-0.62c0.13-0.23,0.25-0.43,0.38-0.62
		c0.21-0.29,0.39-0.56,0.53-0.81c0.15-0.25,0.21-0.48,0.18-0.71c-0.01-0.11-0.03-0.23-0.06-0.36c-0.03-0.13-0.08-0.25-0.14-0.37
		c-0.06-0.11-0.15-0.21-0.25-0.29c-0.1-0.08-0.23-0.12-0.38-0.12c-0.13,0-0.22,0.01-0.28,0.03c-0.06,0.02-0.16,0.03-0.31,0.03
		c-0.1,0-0.17-0.01-0.22-0.03l-0.11-0.06c0.1-0.15,0.17-0.31,0.21-0.49c0.04-0.18,0.05-0.33,0.03-0.45
		c-0.02-0.17-0.08-0.34-0.18-0.51C98.64,29.74,98.46,29.66,98.2,29.66"/>
	<path class="st0" d="M106.66,30.63c-0.12,0-0.25,0.05-0.4,0.14c-0.15,0.1-0.3,0.23-0.44,0.4c-0.14,0.17-0.27,0.38-0.38,0.64
		c-0.11,0.25-0.18,0.53-0.21,0.84c-0.01,0.2,0.01,0.37,0.07,0.52c-0.16,0.28-0.32,0.56-0.5,0.82c-0.18,0.26-0.35,0.5-0.51,0.7
		c-0.16,0.2-0.3,0.36-0.42,0.49c-0.12,0.12-0.21,0.18-0.25,0.18c-0.04,0-0.09-0.05-0.15-0.14c-0.06-0.09-0.12-0.23-0.18-0.4
		c-0.05-0.18-0.1-0.4-0.12-0.66c-0.03-0.26-0.03-0.56,0-0.91c0.02-0.2,0.05-0.41,0.09-0.63c0.04-0.22,0.08-0.43,0.13-0.63
		c0.05-0.2,0.09-0.38,0.13-0.54c0.04-0.16,0.07-0.28,0.09-0.36c0.03-0.09,0.02-0.16-0.01-0.21l-0.16-0.09l-0.23-0.01L103,30.83
		c-0.15,0.04-0.27,0.08-0.36,0.14c-0.1,0.05-0.18,0.14-0.25,0.26c-0.07,0.12-0.13,0.29-0.17,0.5c-0.05,0.21-0.09,0.5-0.12,0.85
		c-0.02,0.3-0.03,0.62-0.02,0.99c0,0.07,0.01,0.15,0.01,0.22c0.01,0.2,0.03,0.4,0.05,0.6c0.03,0.23,0.07,0.46,0.12,0.67
		c0.1,0.4,0.23,0.73,0.41,1c0.18,0.27,0.41,0.4,0.69,0.4c0.12,0,0.28-0.08,0.47-0.24c0.2-0.16,0.41-0.37,0.64-0.63
		c0.23-0.26,0.47-0.55,0.72-0.88c0.25-0.33,0.49-0.67,0.73-1.01c0.09,0.03,0.18,0.05,0.26,0.05l0.21,0.01
		c0.63,0,1.18-0.12,1.65-0.37c0.1-0.05,0.19-0.11,0.28-0.16c0.01-0.08,0.02-0.15,0.04-0.23c0.02-0.14,0.05-0.27,0.08-0.41
		c-0.08,0.06-0.18,0.11-0.28,0.17c-0.19,0.1-0.41,0.19-0.66,0.26c-0.25,0.07-0.53,0.11-0.84,0.11l-0.19-0.03l-0.15-0.05
		c0.24-0.39,0.43-0.75,0.58-1.09c0.15-0.33,0.23-0.59,0.25-0.79c0.02-0.13,0-0.25-0.06-0.38C107.05,30.69,106.9,30.63,106.66,30.63"
		/>
	<path class="st0" d="M110.17,30.73c-0.03,0-0.06,0-0.1,0c-0.11,0-0.24,0.02-0.38,0.04s-0.27,0.05-0.4,0.09
		c-0.13,0.04-0.21,0.08-0.26,0.14c-0.15,0.18-0.28,0.46-0.39,0.83c-0.08,0.25-0.14,0.51-0.2,0.78c-0.03,0.13-0.06,0.27-0.08,0.41
		c-0.01,0.08-0.03,0.15-0.04,0.23c-0.05,0.34-0.09,0.67-0.11,0.99c-0.03,0.4-0.03,0.71,0,0.94c0.01,0.16,0.05,0.3,0.14,0.44
		c0.08,0.14,0.18,0.26,0.31,0.37c0.12,0.1,0.26,0.19,0.41,0.25c0.13,0.05,0.26,0.08,0.4,0.08c0.02,0,0.04,0,0.06,0
		c0.19-0.01,0.44-0.13,0.75-0.36c0.31-0.23,0.62-0.5,0.94-0.83c0.16-0.16,0.31-0.32,0.46-0.49c-0.03-0.2-0.05-0.39-0.05-0.59
		c0-0.09,0.01-0.18,0.02-0.27c-0.2,0.22-0.41,0.45-0.64,0.66c-0.29,0.28-0.57,0.52-0.85,0.72c-0.28,0.2-0.51,0.3-0.69,0.3
		l-0.18-0.06c-0.05-0.04-0.1-0.12-0.15-0.23c-0.05-0.09-0.06-0.22-0.04-0.4c0.02-0.17,0.05-0.36,0.1-0.55
		c0.05-0.2,0.11-0.4,0.17-0.6c0.06-0.21,0.12-0.39,0.16-0.55c0.05-0.16,0.11-0.38,0.21-0.64s0.18-0.51,0.26-0.76
		c0.08-0.25,0.15-0.46,0.21-0.64c0.05-0.18,0.08-0.28,0.07-0.29C110.26,30.73,110.23,30.73,110.17,30.73 M110.56,27.15
		c-0.02,0-0.04,0-0.07,0.01c-0.1,0.02-0.22,0.08-0.36,0.18c-0.14,0.1-0.25,0.23-0.34,0.38c-0.09,0.15-0.13,0.31-0.12,0.48
		c0.01,0.17,0.11,0.33,0.3,0.47c0.05,0.04,0.11,0.06,0.17,0.06c0.02,0,0.05,0,0.07-0.01c0.1-0.02,0.2-0.06,0.29-0.12
		s0.18-0.14,0.26-0.23c0.08-0.1,0.13-0.19,0.16-0.29c0.03-0.09,0.04-0.2,0.03-0.31c0-0.12-0.03-0.23-0.06-0.32
		c-0.04-0.1-0.09-0.17-0.16-0.23C110.69,27.17,110.63,27.15,110.56,27.15"/>
	<path class="st0" d="M114.69,30.37c-0.52,0-0.97,0.14-1.35,0.42c-0.38,0.28-0.7,0.61-0.95,1c-0.25,0.39-0.44,0.79-0.57,1.21
		c-0.09,0.29-0.15,0.55-0.17,0.78c-0.01,0.1-0.02,0.19-0.02,0.27c0,0.19,0.02,0.39,0.05,0.59c0.01,0.09,0.03,0.18,0.05,0.27
		c0.06,0.29,0.18,0.55,0.33,0.79c0.16,0.24,0.37,0.43,0.64,0.58c0.27,0.15,0.6,0.23,1,0.23c0.29,0,0.59-0.07,0.89-0.2
		c0.3-0.13,0.59-0.3,0.87-0.51c0.28-0.21,0.55-0.43,0.81-0.68c0.18-0.18,0.35-0.35,0.51-0.52c-0.02-0.2-0.02-0.41,0.01-0.65
		c0.01-0.07,0.02-0.14,0.03-0.21c-0.24,0.28-0.51,0.55-0.8,0.82c-0.32,0.3-0.66,0.56-1,0.79c-0.34,0.22-0.65,0.33-0.94,0.33
		c-0.16,0-0.31-0.02-0.48-0.07c-0.16-0.05-0.31-0.12-0.45-0.23c-0.14-0.11-0.25-0.26-0.34-0.45c-0.09-0.19-0.13-0.44-0.12-0.74
		c0.01-0.52,0.1-0.98,0.27-1.37c0.17-0.39,0.37-0.72,0.59-0.98c0.22-0.26,0.44-0.46,0.66-0.59c0.21-0.13,0.36-0.2,0.44-0.2
		l0.18,0.07l0.05,0.16l-0.05,0.18l-0.13,0.12l-0.19,0.1l-0.15,0.14c-0.02,0.04-0.03,0.11-0.05,0.22c-0.01,0.11-0.01,0.22,0,0.33
		c0.01,0.11,0.05,0.21,0.11,0.3c0.06,0.09,0.15,0.13,0.27,0.13c0.15,0,0.28-0.04,0.4-0.11c0.12-0.07,0.23-0.17,0.32-0.29
		c0.09-0.12,0.16-0.26,0.22-0.42c0.05-0.16,0.08-0.32,0.08-0.49c0.01-0.35-0.09-0.62-0.29-0.82
		C115.23,30.47,114.98,30.37,114.69,30.37"/>
	<path class="st0" d="M118.01,33.59c0.06-0.38,0.16-0.72,0.29-1.02c0.13-0.3,0.26-0.55,0.41-0.75c0.15-0.21,0.29-0.36,0.44-0.47
		c0.15-0.11,0.28-0.16,0.39-0.16c0.1,0,0.18,0.04,0.23,0.12c0.05,0.08,0.07,0.2,0.05,0.38c-0.02,0.16-0.1,0.36-0.26,0.59
		c-0.16,0.23-0.43,0.49-0.82,0.79c-0.13,0.1-0.25,0.19-0.38,0.28C118.24,33.43,118.12,33.51,118.01,33.59 M119.93,30.41
		c-0.36,0-0.73,0.11-1.09,0.34c-0.36,0.23-0.68,0.51-0.97,0.86c-0.29,0.35-0.53,0.73-0.72,1.14c-0.16,0.34-0.27,0.67-0.32,0.98
		c-0.01,0.07-0.02,0.14-0.03,0.21c-0.02,0.23-0.03,0.45-0.01,0.65c0.02,0.19,0.05,0.36,0.11,0.51c0.11,0.32,0.27,0.58,0.46,0.78
		c0.19,0.2,0.4,0.35,0.64,0.44c0.23,0.1,0.45,0.14,0.65,0.14c0.38,0,0.78-0.09,1.18-0.27c0.41-0.18,0.8-0.42,1.19-0.72
		c0.39-0.3,0.75-0.63,1.1-1.01c0.27-0.29,0.51-0.59,0.73-0.89c-0.08,0.1-0.14,0.17-0.17,0.22l-0.21,0.14l-0.17-0.04l-0.08-0.18
		c0-0.08,0.03-0.17,0.1-0.28c0.01-0.01,0.02-0.03,0.03-0.05c-0.1,0.11-0.21,0.23-0.33,0.36c-0.28,0.3-0.58,0.59-0.9,0.87
		s-0.65,0.51-0.99,0.71c-0.34,0.2-0.66,0.29-0.97,0.29c-0.15,0-0.29-0.02-0.43-0.06c-0.14-0.04-0.27-0.11-0.38-0.21
		c-0.11-0.1-0.2-0.22-0.27-0.38c-0.07-0.16-0.11-0.35-0.12-0.57c0.14-0.1,0.3-0.21,0.48-0.33c0.18-0.12,0.37-0.25,0.57-0.39
		c0.18-0.13,0.38-0.27,0.58-0.42c0.21-0.16,0.4-0.33,0.58-0.52c0.18-0.19,0.34-0.41,0.47-0.64c0.13-0.24,0.21-0.5,0.24-0.78
		c0.02-0.25-0.05-0.47-0.21-0.64C120.52,30.49,120.27,30.41,119.93,30.41"/>
	<path class="st0" d="M124.72,29.94c-0.08,0-0.16,0.02-0.25,0.05c-0.18,0.07-0.36,0.17-0.53,0.31c-0.17,0.14-0.32,0.29-0.45,0.46
		c-0.13,0.17-0.21,0.32-0.25,0.44c-0.05,0.16-0.03,0.29,0.03,0.41c0.07,0.12,0.09,0.21,0.08,0.29c-0.01,0.03-0.06,0.11-0.15,0.24
		c-0.09,0.13-0.19,0.28-0.3,0.45c-0.11,0.17-0.22,0.33-0.33,0.49c-0.09,0.13-0.16,0.23-0.21,0.3c-0.01,0.02-0.02,0.03-0.03,0.05
		c-0.07,0.11-0.11,0.2-0.1,0.28l0.08,0.18l0.17,0.04l0.21-0.14c0.04-0.04,0.09-0.11,0.17-0.22c0.02-0.03,0.05-0.06,0.07-0.09
		c0.12-0.15,0.24-0.31,0.38-0.49c0.13-0.18,0.25-0.35,0.37-0.51s0.19-0.28,0.24-0.36c0.02,0.04,0.04,0.1,0.08,0.2
		c0.03,0.1,0.07,0.19,0.1,0.29c0.04,0.12,0.08,0.25,0.14,0.38c0.06,0.18,0.14,0.38,0.23,0.6c0.09,0.22,0.18,0.44,0.25,0.65
		c0.08,0.21,0.13,0.42,0.17,0.6c0.04,0.19,0.04,0.33,0,0.43c-0.04,0.1-0.09,0.18-0.17,0.25l-0.25,0.15l-0.26,0.05l-0.21-0.05
		c-0.05-0.04-0.1-0.1-0.15-0.21c-0.05-0.09-0.1-0.22-0.18-0.38c-0.07-0.16-0.16-0.38-0.25-0.66c-0.11,0.04-0.21,0.07-0.29,0.1
		l-0.19,0.08l-0.14,0.1c-0.09,0.08-0.16,0.16-0.21,0.22c-0.05,0.06-0.1,0.15-0.15,0.26c-0.05,0.08-0.04,0.2,0.02,0.36
		c0.06,0.16,0.15,0.31,0.27,0.47c0.12,0.16,0.27,0.3,0.45,0.42c0.18,0.12,0.36,0.18,0.55,0.18c0.27,0,0.54-0.07,0.79-0.22
		c0.25-0.15,0.47-0.32,0.67-0.53c0.2-0.21,0.36-0.42,0.49-0.64c0.13-0.22,0.21-0.41,0.24-0.56c0.02-0.1,0-0.22-0.04-0.37
		c-0.05-0.15-0.1-0.3-0.18-0.47c-0.07-0.17-0.16-0.34-0.25-0.51c-0.09-0.17-0.18-0.34-0.26-0.51c-0.06-0.13-0.12-0.27-0.18-0.42
		c-0.05-0.13-0.09-0.28-0.14-0.45c-0.05-0.17-0.09-0.36-0.12-0.57c0.14-0.16,0.24-0.3,0.31-0.4c0.07-0.1,0.13-0.19,0.16-0.27
		l0.08-0.18c0.02-0.09-0.01-0.18-0.08-0.27c-0.07-0.09-0.17-0.17-0.29-0.24C124.88,29.96,124.8,29.94,124.72,29.94"/>
	<path class="st1" d="M59.47,38.5c-0.26,0-0.51-0.12-0.73-0.35c-0.22-0.23-0.41-0.57-0.55-1c-0.14-0.43-0.24-0.97-0.3-1.6
		c-0.06-0.63-0.06-1.36,0.01-2.17c0.04-0.54,0.11-1.09,0.22-1.65s0.23-1.1,0.37-1.63s0.28-1.02,0.44-1.48
		c0.15-0.46,0.3-0.88,0.43-1.24c0.13-0.36,0.24-0.65,0.33-0.87c0.09-0.22,0.14-0.35,0.16-0.38L60,25.99
		c0.08-0.05,0.17-0.09,0.27-0.13c0.1-0.04,0.22-0.07,0.34-0.09s0.24-0.03,0.35-0.03c0.09,0,0.18,0,0.26,0.01l0.22,0.04l0.19,0.08
		c-0.1,0.06-0.2,0.16-0.29,0.29s-0.18,0.27-0.27,0.42c-0.1,0.16-0.19,0.34-0.27,0.53c-0.18,0.38-0.37,0.85-0.57,1.39
		c-0.2,0.55-0.39,1.13-0.57,1.74s-0.33,1.24-0.46,1.87c-0.13,0.63-0.22,1.23-0.27,1.78c-0.07,1.12-0.03,1.96,0.12,2.51
		c0.15,0.55,0.37,0.83,0.66,0.83c0.14,0,0.28-0.09,0.44-0.26c0.15-0.17,0.31-0.4,0.47-0.67c0.16-0.27,0.32-0.58,0.47-0.92
		c0.15-0.34,0.3-0.67,0.44-1c0.08-0.21,0.17-0.44,0.27-0.7s0.19-0.53,0.29-0.8s0.19-0.54,0.28-0.81c0.09-0.27,0.17-0.51,0.25-0.73
		c0-0.27,0-0.56,0.01-0.87c0.01-0.31,0.03-0.62,0.06-0.93c0.03-0.31,0.08-0.62,0.13-0.93s0.13-0.59,0.22-0.84
		c0.18-0.49,0.4-0.85,0.64-1.09s0.46-0.35,0.64-0.36c0.13,0,0.22,0.05,0.27,0.16s0.08,0.25,0.07,0.44
		c-0.02,0.24-0.06,0.52-0.12,0.85c-0.06,0.33-0.14,0.69-0.23,1.07c-0.09,0.38-0.18,0.76-0.29,1.15s-0.21,0.76-0.31,1.11
		c-0.16,0.94-0.26,1.79-0.3,2.55c-0.04,0.76-0.03,1.41,0.02,1.96c0.05,0.54,0.14,0.96,0.26,1.26s0.27,0.44,0.44,0.44
		c0.2,0,0.41-0.14,0.64-0.41c0.22-0.27,0.44-0.64,0.66-1.09s0.43-0.96,0.64-1.54s0.39-1.16,0.56-1.77c0.17-0.61,0.31-1.2,0.42-1.79
		s0.18-1.12,0.22-1.59c0.03-0.39,0.04-0.78,0.04-1.16c0-0.33-0.01-0.68-0.04-1.05s-0.08-0.71-0.15-1.01
		c0.12-0.1,0.28-0.18,0.48-0.25c0.1-0.04,0.21-0.07,0.33-0.1l0.23-0.04l0.22-0.02l0.21,0.02c0.05,0.13,0.09,0.29,0.12,0.49
		c0.02,0.2,0.04,0.4,0.05,0.59c0.01,0.23,0,0.46-0.01,0.71c-0.07,0.97-0.2,1.91-0.38,2.84s-0.39,1.81-0.65,2.65
		c-0.26,0.83-0.54,1.6-0.85,2.3s-0.64,1.3-0.97,1.81c-0.33,0.51-0.67,0.91-1,1.19c-0.33,0.28-0.65,0.42-0.95,0.42
		c-0.32,0-0.57-0.13-0.77-0.4s-0.34-0.61-0.44-1.01c-0.1-0.41-0.16-0.84-0.19-1.31s-0.04-0.89-0.03-1.29
		c-0.21,0.51-0.44,1-0.68,1.48c-0.24,0.47-0.49,0.9-0.75,1.26s-0.52,0.67-0.79,0.89C60,38.39,59.74,38.5,59.47,38.5z"/>
	<path class="st1" d="M75.14,33.04c-0.27,0.4-0.58,0.79-0.93,1.17c-0.35,0.38-0.71,0.72-1.1,1.01c-0.39,0.3-0.78,0.54-1.19,0.72
		c-0.41,0.18-0.8,0.27-1.18,0.27c-0.2,0-0.42-0.05-0.65-0.14s-0.44-0.24-0.64-0.44s-0.34-0.46-0.46-0.78s-0.15-0.71-0.1-1.16
		c0.04-0.37,0.15-0.77,0.35-1.18c0.2-0.42,0.44-0.79,0.72-1.14s0.61-0.63,0.97-0.86c0.36-0.23,0.72-0.34,1.09-0.34
		c0.35,0,0.6,0.09,0.75,0.26c0.15,0.17,0.22,0.39,0.21,0.64c-0.03,0.28-0.11,0.54-0.24,0.78c-0.13,0.24-0.29,0.45-0.47,0.64
		c-0.18,0.19-0.38,0.36-0.58,0.52s-0.4,0.3-0.58,0.42c-0.2,0.14-0.39,0.27-0.57,0.39c-0.18,0.12-0.34,0.23-0.48,0.33
		c0.01,0.23,0.05,0.42,0.12,0.57c0.07,0.16,0.16,0.28,0.27,0.38s0.23,0.16,0.38,0.21c0.14,0.04,0.28,0.06,0.43,0.06
		c0.31,0,0.63-0.1,0.97-0.29c0.34-0.2,0.67-0.43,0.99-0.71c0.32-0.28,0.62-0.57,0.9-0.87c0.28-0.3,0.51-0.56,0.69-0.78l0.2-0.13
		l0.16,0.03l0.06,0.16C75.24,32.85,75.21,32.94,75.14,33.04z M71.64,30.94c-0.11,0-0.24,0.05-0.39,0.16s-0.3,0.27-0.44,0.47
		c-0.15,0.21-0.28,0.46-0.41,0.75c-0.13,0.3-0.22,0.64-0.29,1.02c0.11-0.08,0.23-0.17,0.36-0.25c0.13-0.09,0.25-0.18,0.38-0.28
		c0.39-0.3,0.67-0.57,0.82-0.79c0.15-0.23,0.24-0.42,0.26-0.59c0.02-0.17,0-0.3-0.05-0.38S71.74,30.94,71.64,30.94z"/>
	<path class="st1" d="M77.29,28.05c-0.14,0.55-0.29,1.07-0.46,1.57c-0.17,0.5-0.34,0.96-0.52,1.39s-0.35,0.83-0.53,1.18
		s-0.33,0.67-0.47,0.93c-0.09,0.66-0.09,1.18,0,1.59c0.09,0.4,0.27,0.6,0.53,0.6c0.22,0,0.43-0.1,0.64-0.3
		c0.21-0.2,0.4-0.45,0.56-0.74s0.3-0.6,0.42-0.94c0.11-0.33,0.19-0.63,0.21-0.9c-0.17-0.05-0.32-0.13-0.44-0.24
		c-0.12-0.11-0.18-0.27-0.18-0.46c0-0.13,0.04-0.25,0.11-0.36c0.07-0.11,0.16-0.21,0.26-0.29c0.1-0.08,0.21-0.15,0.33-0.19
		c0.12-0.05,0.23-0.07,0.33-0.07c0.15,0,0.29,0.1,0.4,0.29s0.18,0.44,0.22,0.75c0.36-0.01,0.75-0.06,1.15-0.16
		c0.4-0.1,0.78-0.23,1.13-0.38c0.1-0.05,0.18-0.06,0.25-0.04l0.13,0.11l-0.01,0.18l-0.16,0.16c-0.21,0.12-0.43,0.23-0.65,0.32
		c-0.22,0.1-0.44,0.18-0.66,0.24s-0.43,0.11-0.63,0.15c-0.2,0.04-0.38,0.05-0.55,0.05c-0.04,0.36-0.15,0.76-0.34,1.18
		s-0.42,0.82-0.7,1.18s-0.58,0.66-0.91,0.9c-0.33,0.24-0.66,0.36-0.98,0.36c-0.1,0-0.23-0.01-0.4-0.04s-0.32-0.12-0.48-0.29
		c-0.16-0.16-0.29-0.43-0.4-0.79s-0.16-0.87-0.14-1.54c0.01-0.45,0.06-0.92,0.15-1.42c0.09-0.5,0.2-1,0.33-1.5
		c0.13-0.5,0.27-0.99,0.43-1.46c0.16-0.47,0.31-0.89,0.46-1.27c0.15-0.38,0.28-0.7,0.4-0.95s0.22-0.42,0.28-0.49
		c0.08-0.1,0.18-0.18,0.29-0.23s0.22-0.09,0.32-0.11c0.11-0.02,0.2-0.03,0.29-0.02l0.19,0.04c0.05,0.04,0.07,0.24,0.05,0.6
		C77.53,27.01,77.44,27.48,77.29,28.05z"/>
	<path class="st1" d="M88.91,29.61c-0.01-0.03,0.02-0.1,0.08-0.21c0.06-0.11,0.13-0.25,0.21-0.42c0.08-0.17,0.16-0.36,0.23-0.57
		c0.08-0.21,0.13-0.44,0.16-0.66c0.03-0.23,0.03-0.46-0.01-0.68c-0.04-0.23-0.13-0.45-0.29-0.66c-0.09-0.11-0.23-0.17-0.4-0.18
		s-0.38,0.01-0.6,0.08c-0.22,0.07-0.46,0.17-0.7,0.31c-0.24,0.14-0.46,0.31-0.66,0.49c-0.2,0.19-0.37,0.39-0.51,0.62
		c-0.14,0.23-0.22,0.46-0.24,0.7c-0.02,0.19-0.01,0.37,0.02,0.53c0.03,0.16,0.08,0.31,0.13,0.45s0.11,0.26,0.18,0.38
		c0.06,0.12,0.12,0.22,0.18,0.31c0.07,0.13,0.19,0.27,0.34,0.42c0.15,0.16,0.32,0.33,0.51,0.53c0.18,0.2,0.36,0.42,0.55,0.66
		c0.18,0.25,0.34,0.52,0.48,0.83s0.23,0.66,0.29,1.04s0.05,0.81-0.01,1.27c-0.1,0.67-0.26,1.24-0.48,1.69s-0.46,0.81-0.72,1.09
		s-0.52,0.47-0.79,0.59c-0.27,0.12-0.48,0.2-0.66,0.24c-0.14,0.03-0.3,0.05-0.49,0.08c-0.19,0.02-0.38,0.02-0.59-0.01
		s-0.41-0.1-0.62-0.19c-0.21-0.1-0.4-0.24-0.56-0.44c-0.19-0.23-0.34-0.47-0.45-0.74c-0.1-0.23-0.18-0.49-0.23-0.79
		c-0.05-0.3-0.02-0.6,0.08-0.92l0.23-0.22l0.25-0.16c0.09-0.05,0.19-0.1,0.29-0.15c0.12-0.04,0.24-0.07,0.36-0.1
		c0.1-0.02,0.21-0.03,0.32-0.03c0.11,0,0.22,0.01,0.32,0.05c-0.14,0.16-0.23,0.3-0.29,0.44l-0.08,0.19
		c-0.04,0.17-0.05,0.38-0.04,0.62s0.06,0.47,0.15,0.7c0.09,0.22,0.21,0.42,0.38,0.57s0.38,0.24,0.66,0.25
		c0.66,0.02,1.23-0.5,1.7-1.56c0.15-0.33,0.23-0.66,0.24-1c0-0.34-0.04-0.66-0.12-0.97c-0.09-0.31-0.2-0.6-0.34-0.87
		c-0.14-0.27-0.29-0.5-0.43-0.69c-0.15-0.19-0.32-0.4-0.53-0.62s-0.41-0.47-0.61-0.73c-0.2-0.26-0.38-0.55-0.54-0.86
		c-0.16-0.31-0.27-0.65-0.32-1.01c-0.07-0.51-0.03-0.98,0.14-1.4c0.17-0.42,0.4-0.79,0.68-1.11s0.6-0.58,0.94-0.78
		s0.64-0.33,0.91-0.38c1.47-0.29,2.43-0.05,2.88,0.74c0.19,0.3,0.29,0.62,0.31,0.96c0.02,0.34,0,0.65-0.06,0.94
		c-0.06,0.29-0.13,0.53-0.22,0.72c-0.09,0.2-0.14,0.3-0.17,0.32c-0.05,0.05-0.14,0.11-0.26,0.18c-0.12,0.06-0.31,0.12-0.57,0.18
		l-0.22,0.03l-0.21-0.01L88.91,29.61z"/>
	<path class="st1" d="M96.73,33.04c-0.27,0.4-0.58,0.79-0.93,1.17s-0.71,0.72-1.1,1.01s-0.78,0.54-1.19,0.72s-0.8,0.27-1.18,0.27
		c-0.2,0-0.42-0.05-0.65-0.14s-0.44-0.24-0.64-0.44s-0.34-0.46-0.46-0.78s-0.15-0.71-0.1-1.16c0.04-0.37,0.15-0.77,0.35-1.18
		s0.44-0.79,0.72-1.14s0.61-0.63,0.97-0.86s0.72-0.34,1.09-0.34c0.35,0,0.6,0.09,0.75,0.26s0.22,0.39,0.21,0.64
		c-0.03,0.28-0.11,0.54-0.24,0.78s-0.29,0.45-0.47,0.64s-0.38,0.36-0.58,0.52s-0.4,0.3-0.58,0.42c-0.2,0.14-0.39,0.27-0.57,0.39
		s-0.34,0.23-0.48,0.33c0.01,0.23,0.05,0.42,0.12,0.57s0.16,0.28,0.27,0.38s0.23,0.16,0.38,0.21s0.29,0.06,0.43,0.06
		c0.31,0,0.63-0.1,0.97-0.29s0.67-0.43,0.99-0.71s0.62-0.57,0.9-0.87s0.51-0.56,0.69-0.78l0.2-0.13l0.16,0.03l0.06,0.16
		C96.83,32.85,96.79,32.94,96.73,33.04z M93.23,30.94c-0.11,0-0.24,0.05-0.39,0.16s-0.3,0.27-0.44,0.47s-0.28,0.46-0.41,0.75
		s-0.22,0.64-0.29,1.02c0.11-0.08,0.23-0.17,0.36-0.25s0.25-0.18,0.38-0.28c0.39-0.3,0.67-0.57,0.82-0.79s0.24-0.42,0.26-0.59
		c0.02-0.17,0-0.3-0.05-0.38S93.33,30.94,93.23,30.94z"/>
	<path class="st1" d="M95.23,35.82c-0.06,0.1-0.13,0.17-0.21,0.2l-0.21,0.01l-0.12-0.14c-0.02-0.07,0-0.16,0.05-0.27
		c0.03-0.05,0.09-0.18,0.18-0.37s0.21-0.42,0.34-0.69s0.28-0.56,0.43-0.88s0.3-0.61,0.44-0.9s0.27-0.54,0.39-0.76
		s0.21-0.38,0.26-0.49c-0.1-0.09-0.17-0.16-0.21-0.2s-0.06-0.13-0.08-0.27c-0.02-0.12,0.01-0.27,0.08-0.46s0.17-0.38,0.29-0.55
		s0.25-0.33,0.4-0.46s0.29-0.19,0.42-0.19c0.25,0,0.44,0.08,0.54,0.25s0.17,0.33,0.18,0.51c0.02,0.12,0.01,0.27-0.03,0.45
		s-0.1,0.35-0.21,0.49l0.11,0.06c0.05,0.02,0.12,0.03,0.22,0.03c0.15,0,0.25-0.01,0.31-0.03s0.15-0.03,0.28-0.03
		c0.16,0,0.28,0.04,0.38,0.12s0.18,0.17,0.25,0.29s0.11,0.24,0.14,0.37s0.05,0.25,0.06,0.36c0.03,0.23-0.03,0.46-0.18,0.71
		s-0.32,0.51-0.53,0.81c-0.13,0.18-0.25,0.39-0.38,0.62s-0.18,0.43-0.16,0.62c0.02,0.12,0.05,0.21,0.1,0.29s0.17,0.11,0.38,0.11
		c0.16,0,0.33-0.06,0.51-0.17s0.38-0.26,0.57-0.44s0.39-0.37,0.58-0.59s0.37-0.42,0.53-0.63s0.3-0.39,0.42-0.55s0.2-0.28,0.25-0.36
		l0.18-0.15h0.19l0.1,0.16c0.01,0.08-0.02,0.19-0.1,0.33c-0.05,0.09-0.15,0.24-0.28,0.44s-0.29,0.42-0.48,0.67s-0.39,0.5-0.62,0.76
		s-0.47,0.5-0.72,0.71s-0.5,0.39-0.75,0.53s-0.49,0.21-0.72,0.21c-0.24,0-0.43-0.05-0.59-0.14s-0.28-0.2-0.38-0.33
		s-0.16-0.28-0.21-0.44s-0.06-0.31-0.05-0.44c0.01-0.11,0.04-0.23,0.09-0.35s0.11-0.25,0.18-0.38s0.14-0.26,0.22-0.4
		s0.15-0.26,0.21-0.39c0.16-0.26,0.28-0.49,0.38-0.68s0.14-0.34,0.14-0.47l-0.05-0.22L98.6,32l-0.12,0.01l-0.07,0.01l-0.1,0.01
		l-0.18,0.01c-0.12,0-0.22-0.02-0.3-0.05l-0.23-0.08c-0.04,0.06-0.12,0.2-0.25,0.41s-0.28,0.46-0.44,0.74s-0.35,0.58-0.53,0.89
		s-0.36,0.6-0.53,0.87s-0.3,0.5-0.42,0.68S95.25,35.78,95.23,35.82z"/>
	<path class="st1" d="M105.44,33.45c-0.24,0.35-0.48,0.68-0.73,1.01s-0.49,0.62-0.72,0.88s-0.45,0.47-0.64,0.63
		s-0.35,0.24-0.47,0.24c-0.28,0-0.51-0.13-0.69-0.4s-0.31-0.6-0.41-1s-0.16-0.82-0.18-1.27s-0.02-0.85,0.01-1.21
		c0.04-0.36,0.08-0.64,0.12-0.85s0.1-0.38,0.17-0.5s0.15-0.21,0.25-0.26s0.22-0.1,0.36-0.14l0.22-0.04l0.23,0.01l0.16,0.09
		c0.04,0.05,0.04,0.11,0.01,0.21c-0.02,0.08-0.05,0.2-0.09,0.36s-0.08,0.34-0.13,0.54s-0.09,0.41-0.13,0.63s-0.07,0.43-0.09,0.63
		c-0.03,0.35-0.03,0.65,0,0.91s0.07,0.48,0.12,0.66s0.11,0.31,0.18,0.4s0.11,0.14,0.15,0.14c0.05,0,0.13-0.06,0.25-0.18
		s0.26-0.29,0.42-0.49s0.33-0.43,0.51-0.7s0.34-0.54,0.5-0.82c-0.05-0.15-0.08-0.32-0.07-0.52c0.03-0.31,0.1-0.59,0.21-0.84
		s0.23-0.46,0.38-0.64s0.29-0.31,0.44-0.4s0.29-0.14,0.4-0.14c0.24,0,0.38,0.06,0.44,0.18s0.08,0.25,0.06,0.38
		c-0.02,0.19-0.1,0.45-0.25,0.79s-0.34,0.7-0.58,1.09l0.15,0.05l0.19,0.03c0.31,0,0.59-0.04,0.84-0.11s0.47-0.16,0.66-0.26
		s0.35-0.21,0.48-0.32s0.24-0.21,0.32-0.28l0.16-0.08l0.14,0.04l0.05,0.12l-0.08,0.18c-0.33,0.4-0.73,0.72-1.2,0.97
		s-1.02,0.37-1.65,0.37l-0.21-0.01C105.62,33.5,105.53,33.48,105.44,33.45z"/>
	<path class="st1" d="M108.54,30.75c0.05-0.05,0.13-0.1,0.26-0.14s0.26-0.07,0.4-0.09s0.26-0.04,0.38-0.04s0.18,0,0.2,0.01
		c0.01,0.01-0.01,0.1-0.07,0.29s-0.12,0.4-0.21,0.64s-0.17,0.5-0.26,0.76s-0.16,0.47-0.21,0.64s-0.1,0.35-0.16,0.55
		s-0.12,0.41-0.17,0.6s-0.08,0.38-0.1,0.55s0,0.31,0.04,0.4c0.05,0.11,0.1,0.18,0.15,0.23l0.18,0.06c0.18,0,0.41-0.1,0.69-0.3
		s0.56-0.44,0.85-0.72s0.55-0.56,0.8-0.85s0.43-0.52,0.55-0.69c0.07-0.09,0.15-0.15,0.23-0.18l0.19,0.01l0.08,0.18
		c0,0.08-0.03,0.18-0.09,0.29c-0.15,0.25-0.36,0.56-0.64,0.91s-0.58,0.69-0.9,1.01s-0.63,0.6-0.94,0.83s-0.55,0.35-0.75,0.36
		c-0.16,0.01-0.31-0.02-0.46-0.08s-0.29-0.14-0.41-0.25s-0.23-0.23-0.31-0.37s-0.13-0.29-0.14-0.44c-0.03-0.23-0.03-0.54,0-0.94
		s0.08-0.8,0.15-1.22s0.17-0.81,0.28-1.18S108.4,30.93,108.54,30.75z M110.43,27.83c-0.03,0.1-0.08,0.2-0.16,0.29
		s-0.16,0.17-0.26,0.23s-0.19,0.1-0.29,0.12s-0.18,0-0.25-0.05c-0.19-0.15-0.29-0.3-0.3-0.47s0.03-0.33,0.12-0.48
		s0.21-0.28,0.34-0.38s0.25-0.17,0.36-0.18s0.18,0,0.25,0.06s0.12,0.14,0.16,0.23s0.06,0.2,0.06,0.32S110.46,27.74,110.43,27.83z"/>
	<path class="st1" d="M113.59,35.42c0.28,0,0.59-0.11,0.94-0.33s0.67-0.49,1-0.79s0.62-0.61,0.89-0.92s0.47-0.57,0.61-0.76
		c0.08-0.12,0.16-0.19,0.23-0.21l0.16,0.03c0.04,0.05,0.05,0.12,0.04,0.21s-0.05,0.2-0.12,0.32c-0.06,0.11-0.17,0.27-0.32,0.47
		s-0.33,0.43-0.53,0.67s-0.44,0.49-0.7,0.74s-0.53,0.48-0.81,0.68s-0.57,0.37-0.88,0.51s-0.6,0.2-0.89,0.2c-0.4,0-0.74-0.08-1-0.23
		s-0.48-0.34-0.64-0.58s-0.27-0.5-0.33-0.79s-0.1-0.57-0.1-0.85s0.06-0.63,0.19-1.05s0.32-0.82,0.57-1.21s0.57-0.72,0.95-1
		s0.83-0.42,1.35-0.42c0.29,0,0.54,0.1,0.75,0.3s0.3,0.47,0.29,0.82c0,0.16-0.03,0.33-0.08,0.49s-0.13,0.3-0.22,0.42
		s-0.2,0.22-0.32,0.29s-0.26,0.11-0.4,0.11c-0.12,0-0.21-0.04-0.27-0.13s-0.1-0.19-0.11-0.3s-0.01-0.23,0-0.33s0.03-0.18,0.05-0.22
		l0.15-0.14l0.19-0.1l0.13-0.12l0.05-0.18l-0.05-0.16l-0.18-0.07c-0.08,0-0.23,0.07-0.44,0.2s-0.43,0.33-0.66,0.59
		s-0.42,0.59-0.59,0.98s-0.26,0.85-0.27,1.37c-0.01,0.3,0.03,0.55,0.12,0.74s0.21,0.34,0.34,0.45s0.29,0.19,0.45,0.23
		S113.43,35.42,113.59,35.42z"/>
	<path class="st1" d="M122.54,33.04c-0.27,0.4-0.58,0.79-0.93,1.17s-0.71,0.72-1.1,1.01s-0.78,0.54-1.19,0.72s-0.8,0.27-1.18,0.27
		c-0.2,0-0.42-0.05-0.65-0.14s-0.44-0.24-0.64-0.44s-0.34-0.46-0.46-0.78s-0.15-0.71-0.1-1.16c0.04-0.37,0.15-0.77,0.35-1.18
		s0.44-0.79,0.72-1.14s0.61-0.63,0.97-0.86s0.72-0.34,1.09-0.34c0.35,0,0.6,0.09,0.75,0.26s0.22,0.39,0.21,0.64
		c-0.03,0.28-0.11,0.54-0.24,0.78s-0.29,0.45-0.47,0.64s-0.38,0.36-0.58,0.52s-0.4,0.3-0.58,0.42c-0.2,0.14-0.39,0.27-0.57,0.39
		s-0.34,0.23-0.48,0.33c0.01,0.23,0.05,0.42,0.12,0.57s0.16,0.28,0.27,0.38s0.23,0.16,0.38,0.21s0.29,0.06,0.43,0.06
		c0.31,0,0.63-0.1,0.97-0.29s0.67-0.43,0.99-0.71s0.62-0.57,0.9-0.87s0.51-0.56,0.69-0.78l0.2-0.13l0.16,0.03l0.06,0.16
		C122.64,32.85,122.61,32.94,122.54,33.04z M119.04,30.94c-0.11,0-0.24,0.05-0.39,0.16s-0.3,0.27-0.44,0.47s-0.28,0.46-0.41,0.75
		s-0.22,0.64-0.29,1.02c0.11-0.08,0.23-0.17,0.36-0.25s0.25-0.18,0.38-0.28c0.39-0.3,0.67-0.57,0.82-0.79s0.24-0.42,0.26-0.59
		c0.02-0.17,0-0.3-0.05-0.38S119.14,30.94,119.04,30.94z"/>
	<path class="st1" d="M123.49,35.42l0.21,0.05l0.26-0.05l0.25-0.15c0.08-0.06,0.13-0.15,0.17-0.25s0.04-0.24,0-0.43
		s-0.09-0.39-0.17-0.6s-0.16-0.43-0.25-0.65s-0.17-0.42-0.23-0.6c-0.05-0.14-0.1-0.26-0.14-0.38c-0.04-0.1-0.07-0.2-0.1-0.29
		s-0.06-0.16-0.08-0.2c-0.05,0.07-0.13,0.19-0.24,0.36s-0.24,0.33-0.37,0.51s-0.26,0.34-0.38,0.49s-0.2,0.25-0.25,0.31l-0.21,0.14
		l-0.17-0.04l-0.08-0.18c0-0.08,0.03-0.17,0.1-0.28c0.05-0.07,0.14-0.19,0.25-0.35s0.22-0.32,0.33-0.49s0.21-0.32,0.3-0.45
		s0.14-0.21,0.15-0.24c0.02-0.07-0.01-0.17-0.08-0.29s-0.08-0.25-0.03-0.41c0.04-0.13,0.12-0.28,0.25-0.44s0.28-0.32,0.45-0.46
		s0.35-0.24,0.53-0.31s0.35-0.07,0.49,0.01c0.12,0.07,0.21,0.15,0.29,0.24s0.1,0.18,0.08,0.27l-0.08,0.18
		c-0.04,0.07-0.09,0.16-0.16,0.27s-0.18,0.24-0.31,0.4c0.03,0.21,0.07,0.4,0.12,0.57s0.1,0.32,0.14,0.45
		c0.05,0.16,0.11,0.3,0.18,0.42c0.08,0.16,0.17,0.33,0.26,0.51s0.17,0.34,0.25,0.51s0.13,0.33,0.18,0.47s0.06,0.27,0.04,0.37
		c-0.03,0.16-0.11,0.34-0.24,0.56s-0.3,0.43-0.49,0.64s-0.42,0.38-0.67,0.53s-0.51,0.22-0.79,0.22c-0.19,0-0.38-0.06-0.55-0.18
		s-0.33-0.26-0.45-0.42s-0.21-0.32-0.27-0.47s-0.07-0.27-0.02-0.36c0.05-0.11,0.1-0.2,0.15-0.26s0.11-0.14,0.21-0.22l0.14-0.1
		l0.19-0.08c0.08-0.03,0.18-0.06,0.29-0.1c0.09,0.28,0.17,0.5,0.25,0.66s0.13,0.29,0.18,0.38
		C123.39,35.32,123.44,35.38,123.49,35.42z"/>
	<path d="M114.01,20.82l-0.28-0.09c-0.34,1.04-1.07,1.85-1.98,2.31c-0.91,0.46-1.99,0.57-3.03,0.23s-1.85-1.07-2.31-1.98
		c-0.46-0.91-0.57-1.99-0.23-3.03c0.34-1.04,1.07-1.85,1.98-2.31c0.91-0.46,1.99-0.57,3.03-0.23c1.04,0.34,1.85,1.07,2.31,1.98
		c0.46,0.91,0.57,1.99,0.23,3.03L114.01,20.82l0.28,0.09c0.39-1.19,0.26-2.44-0.26-3.48c-0.53-1.04-1.45-1.88-2.64-2.27
		c-1.19-0.39-2.44-0.26-3.48,0.26s-1.88,1.45-2.27,2.65s-0.26,2.44,0.26,3.48c0.53,1.04,1.45,1.88,2.64,2.27s2.44,0.26,3.48-0.26
		c1.04-0.53,1.88-1.45,2.27-2.65L114.01,20.82z"/>
	<path d="M99.29,16.09L99.01,16c-0.34,1.04-1.07,1.85-1.98,2.31c-0.91,0.46-1.99,0.57-3.03,0.23c-1.04-0.34-1.85-1.07-2.31-1.98
		c-0.46-0.91-0.57-1.99-0.23-3.03c0.34-1.04,1.07-1.85,1.98-2.31c0.91-0.46,1.99-0.57,3.03-0.23c1.04,0.34,1.85,1.07,2.31,1.98
		c0.46,0.91,0.57,1.99,0.23,3.03L99.29,16.09l0.28,0.09c0.39-1.19,0.26-2.44-0.26-3.48c-0.53-1.04-1.45-1.88-2.64-2.27
		c-1.19-0.39-2.44-0.26-3.48,0.26c-1.04,0.53-1.88,1.45-2.27,2.65c-0.39,1.19-0.26,2.44,0.26,3.48c0.53,1.04,1.45,1.88,2.64,2.27
		c1.19,0.39,2.44,0.26,3.48-0.26s1.88-1.45,2.27-2.65L99.29,16.09z"/>
	<path d="M99.66,15.21c0.11-0.14,0.32-0.36,0.62-0.6c0.3-0.23,0.7-0.46,1.19-0.61c0.09-0.03,0.2-0.06,0.33-0.09
		c0.2-0.04,0.44-0.08,0.71-0.08s0.57,0.04,0.89,0.14l0.02,0.01c0.51,0.17,0.88,0.46,1.16,0.75c0.14,0.15,0.25,0.29,0.35,0.42
		c0.09,0.13,0.17,0.25,0.22,0.34c0.29,0.48,0.44,0.96,0.51,1.37c0.07,0.41,0.07,0.75,0.05,0.95l0.58,0.03
		c0.01-0.23,0.02-0.62-0.06-1.09c-0.08-0.47-0.25-1.02-0.59-1.58c-0.06-0.09-0.14-0.22-0.24-0.37c-0.16-0.23-0.38-0.49-0.67-0.75
		s-0.67-0.49-1.12-0.64l-0.03-0.01c-0.51-0.17-0.99-0.19-1.38-0.15c-0.2,0.02-0.37,0.05-0.52,0.08c-0.15,0.03-0.28,0.07-0.37,0.1
		c-0.58,0.17-1.04,0.44-1.38,0.7c-0.35,0.27-0.58,0.53-0.71,0.69L99.66,15.21z"/>
	<path d="M92.52,11.85c2.55-1.94,4.83-3.27,6.52-4.15c0.41-0.21,0.93-0.48,1.55-0.77c0.62-0.28,1.34-0.58,2.17-0.84
		c0.36-0.11,0.7-0.22,1.06-0.31c0.36-0.09,0.75-0.16,1.19-0.21c1.38-0.14,2.51,0.08,3.26,0.29c0.15,0.04,0.32-0.05,0.36-0.2
		c0.04-0.15-0.05-0.31-0.2-0.36c-0.79-0.22-2-0.46-3.48-0.31c-0.47,0.05-0.89,0.13-1.27,0.22c-0.38,0.1-0.74,0.21-1.09,0.32
		c-0.85,0.27-1.6,0.57-2.23,0.86c-0.63,0.29-1.16,0.56-1.57,0.78c-1.72,0.89-4.03,2.23-6.61,4.2c-0.13,0.1-0.15,0.28-0.06,0.41
		C92.21,11.92,92.39,11.95,92.52,11.85z"/>
	<path d="M114.39,18.76c1.98-1.39,3.74-2.33,5.06-2.95c0.32-0.15,0.72-0.34,1.2-0.54c0.48-0.2,1.04-0.4,1.69-0.58
		c0.28-0.08,0.54-0.15,0.83-0.21c0.28-0.06,0.58-0.11,0.93-0.13c1.08-0.08,1.97,0.1,2.56,0.27c0.16,0.04,0.32-0.05,0.36-0.2
		c0.04-0.15-0.05-0.32-0.2-0.36c-0.63-0.18-1.6-0.38-2.76-0.29c-0.37,0.03-0.7,0.08-1,0.14c-0.3,0.06-0.58,0.14-0.86,0.22
		c-0.67,0.19-1.26,0.4-1.75,0.6c-0.5,0.2-0.91,0.4-1.23,0.55c-1.34,0.63-3.14,1.59-5.15,3c-0.13,0.09-0.16,0.27-0.07,0.4
		S114.26,18.85,114.39,18.76z"/>
</g>
</svg>
