<?xml version="1.0" encoding="utf-8"?>
<!-- Generator: Adobe Illustrator 24.0.1, SVG Export Plug-In . SVG Version: 6.00 Build 0)  -->
<svg version="1.1" id="Camada_2" xmlns="http://www.w3.org/2000/svg" xmlns:xlink="http://www.w3.org/1999/xlink" x="0px" y="0px"
	 viewBox="0 0 400 200" style="enable-background:new 0 0 400 200;" xml:space="preserve">
<style type="text/css">
	.st0{fill:#020202;}
	.st1{fill:#010101;}
	.st2{fill:#F0F0F0;}
	.st3{fill:#B09704;}
</style>
<g>
	<path class="st0" d="M74.57,132c-0.57,0.82-1.15,1.4-1.72,1.75c-0.07,0.04-0.15,0.09-0.22,0.12c-0.56,0.57-1.14,1.01-1.75,1.33
		c-0.67,0.36-1.36,0.55-2.06,0.6c-0.07,0-0.14,0.01-0.2,0.01c-0.63,0-1.26-0.18-1.88-0.54c-0.23-0.13-0.46-0.28-0.67-0.43
		c0.09,0.13,0.18,0.25,0.28,0.37c0.65,0.82,1.45,1.51,2.39,2.06c0.62,0.36,1.25,0.54,1.88,0.54c0.07,0,0.14,0,0.2-0.01
		c0.7-0.04,1.38-0.24,2.06-0.6c0.67-0.35,1.31-0.86,1.92-1.51c0.16-0.17,0.31-0.34,0.47-0.52C74.97,134.16,74.74,133.11,74.57,132
		 M90.32,131.68c-0.59,1.71-1.25,3.32-1.98,4.81c-0.73,1.5-1.53,2.75-2.39,3.76c-0.87,1.01-1.78,1.69-2.73,2.05
		c-0.37,0.14-0.76,0.21-1.15,0.21c-0.61,0-1.24-0.16-1.9-0.49c-0.35-0.18-0.69-0.37-1-0.59c0.79,1.11,1.79,1.99,3,2.59
		c0.66,0.32,1.29,0.49,1.9,0.49c0.39,0,0.78-0.07,1.15-0.21c0.96-0.35,1.87-1.03,2.73-2.05c0.86-1.01,1.66-2.27,2.39-3.76
		c0.73-1.49,1.39-3.1,1.98-4.81c0.26,0.19,0.53,0.36,0.79,0.5c0.27,0.14,0.51,0.25,0.74,0.32c1.02,0.33,2.02,0.5,2.98,0.5
		c0.37,0,0.73-0.02,1.09-0.07c0.09-0.01,0.17-0.02,0.26-0.04c0.1-0.89,0.25-1.78,0.46-2.68c-0.85,0.35-1.75,0.59-2.72,0.72
		c-0.36,0.05-0.72,0.07-1.09,0.07c-0.97,0-1.96-0.17-2.98-0.5c-0.23-0.08-0.48-0.18-0.74-0.32
		C90.85,132.04,90.59,131.88,90.32,131.68 M93.88,116.44c-0.04,0-0.08,0-0.12,0c0,0.03,0,0.05,0,0.08
		c-0.02,0.85-0.22,2.31-0.59,4.34c-0.37,2.03-0.88,4.3-1.53,6.77c0.58,0.54,1.31,0.96,2.19,1.26c0.56-2.19,1-4.21,1.34-6.04
		c0.37-2.03,0.56-3.49,0.59-4.34c0.03-1.18-0.43-1.86-1.39-2.04C94.21,116.46,94.05,116.44,93.88,116.44 M81.51,112.9
		c0.01,0.09,0.01,0.18,0.01,0.27c0,0.03,0,0.06,0,0.09c-0.04,1.55-0.52,3.66-1.44,6.22c-0.92,2.56-2,5.29-3.22,8.1
		c-0.12,0.14-0.2,0.3-0.24,0.47c0.1,0.93,0.22,1.91,0.37,2.96c0.15,1.05,0.36,2.05,0.64,3c0.28,0.95,0.62,1.8,1.02,2.53
		c0.4,0.73,0.88,1.23,1.44,1.49c0.12,0.06,0.25,0.1,0.37,0.13c-0.32-0.64-0.59-1.36-0.82-2.15c-0.28-0.95-0.5-1.95-0.64-3
		c-0.15-1.05-0.27-2.04-0.37-2.96c0.04-0.17,0.12-0.33,0.24-0.47c1.23-2.81,2.31-5.54,3.22-8.1c0.92-2.56,1.4-4.67,1.44-6.22
		c0.01-0.63-0.13-1.15-0.43-1.55c-0.3-0.4-0.68-0.65-1.14-0.74C81.8,112.94,81.65,112.92,81.51,112.9 M69.17,111.21
		c-0.02,0.08-0.04,0.17-0.06,0.25c-0.16,0.69-0.44,1.71-0.83,3.04c-0.39,1.33-0.79,2.77-1.2,4.3c-0.41,1.53-0.76,3.04-1.07,4.53
		c-0.31,1.49-0.46,2.75-0.47,3.82c0,0.03,0,0.06,0,0.09c0,1.27,0.18,2.28,0.53,3.03c0.36,0.77,0.93,1.36,1.7,1.76
		c0.08,0.04,0.16,0.08,0.25,0.11c-0.32-0.75-0.48-1.75-0.47-2.99c0.01-1.07,0.16-2.33,0.47-3.82c0.31-1.49,0.66-2.99,1.07-4.53
		c0.41-1.53,0.81-2.97,1.2-4.3c0.39-1.33,0.67-2.35,0.83-3.04c0.12-0.48,0.17-0.9,0.16-1.25c-0.02-0.35-0.23-0.59-0.65-0.73
		C70.14,111.32,69.66,111.23,69.17,111.21"/>
	<path class="st0" d="M121.38,143.85c-0.23,0.34-0.46,0.67-0.69,1.01c-1.56,2.23-3.21,4.09-4.92,5.58c-1.72,1.5-3.46,2.54-5.22,3.14
		c-0.86,0.29-1.7,0.44-2.53,0.44c-0.87,0-1.71-0.16-2.54-0.47c-0.5-0.19-1.03-0.49-1.57-0.92c0.28,0.35,0.56,0.68,0.86,0.97
		c0.96,0.97,1.87,1.62,2.72,1.94c0.83,0.31,1.68,0.47,2.54,0.47c0.83,0,1.67-0.14,2.53-0.44c1.76-0.6,3.5-1.64,5.22-3.14
		c1.3-1.13,2.55-2.47,3.76-4.02c-0.1-1.25-0.15-2.66-0.15-4.23C121.38,144.08,121.38,143.96,121.38,143.85 M110.18,120.62
		c-0.43,0-0.94,0.26-1.53,0.78c-0.66,0.59-1.33,1.48-1.99,2.66c-0.66,1.18-1.29,2.65-1.89,4.39c-0.6,1.74-1.07,3.77-1.41,6.09
		c0.48-0.39,1-0.78,1.56-1.19c0.43-0.31,0.86-0.65,1.29-1.02c0.17-0.66,0.37-1.29,0.57-1.89c0.6-1.74,1.23-3.21,1.89-4.39
		c0.66-1.18,1.32-2.07,1.99-2.66c0.31-0.28,0.61-0.48,0.88-0.61c-0.02-0.5-0.09-0.91-0.21-1.23c-0.22-0.54-0.54-0.86-0.97-0.93
		C110.3,120.62,110.24,120.62,110.18,120.62 M115.38,118.13c0.47,1,0.7,2.14,0.7,3.41c0,0.28-0.01,0.56-0.03,0.86
		c-0.17,1.87-0.57,3.55-1.18,5.02c-0.61,1.47-1.33,2.75-2.15,3.85c-0.82,1.09-1.68,2.04-2.58,2.83c-0.9,0.8-1.76,1.5-2.56,2.11
		c-0.88,0.65-1.72,1.25-2.51,1.81c-0.8,0.56-1.49,1.05-2.09,1.5c0,0.02,0,0.04,0,0.07c0,1.41,0.14,2.64,0.41,3.7
		c0.28,1.08,0.64,1.99,1.08,2.75c0.44,0.76,0.96,1.38,1.55,1.84c0.2,0.16,0.41,0.31,0.62,0.44c-0.06-0.09-0.11-0.18-0.17-0.28
		c-0.44-0.76-0.81-1.68-1.08-2.75c-0.28-1.07-0.42-2.33-0.41-3.76c0.6-0.45,1.29-0.95,2.09-1.5c0.8-0.56,1.63-1.16,2.51-1.81
		c0.8-0.61,1.65-1.31,2.56-2.11c0.9-0.8,1.77-1.74,2.58-2.83c0.82-1.09,1.53-2.37,2.15-3.85c0.61-1.47,1.01-3.15,1.18-5.02
		c0.13-1.7-0.12-3.18-0.75-4.43C116.87,119.11,116.23,118.5,115.38,118.13"/>
	<path class="st0" d="M153.26,130.5c-0.22,0-0.47,0.1-0.75,0.29c-0.17,0.11-0.34,0.22-0.51,0.32c-0.14,0.38-0.36,0.68-0.66,0.87
		c-0.93,0.8-1.89,1.51-2.87,2.12c-0.99,0.61-1.96,1.09-2.92,1.45c-0.96,0.36-1.88,0.61-2.76,0.76c-0.52,0.09-1.01,0.13-1.47,0.13
		c-0.32,0-0.62-0.02-0.92-0.06c-0.22,2.66-0.79,5.49-1.7,8.45c-0.91,2.96-1.99,5.63-3.25,7.99c-1.26,2.36-2.63,4.21-4.12,5.55
		c-1.15,1.04-2.27,1.54-3.36,1.54c-0.32,0-0.63-0.04-0.94-0.13c-0.34-0.09-0.77-0.28-1.29-0.54c0.51,0.88,1.03,1.47,1.58,1.78
		c0.7,0.39,1.27,0.65,1.71,0.77c0.31,0.09,0.63,0.13,0.94,0.13c1.09,0,2.21-0.51,3.36-1.54c1.49-1.34,2.86-3.19,4.12-5.55
		c1.26-2.36,2.34-5.03,3.25-7.99c0.91-2.96,1.47-5.79,1.7-8.45c0.29,0.04,0.6,0.06,0.92,0.06c0.46,0,0.95-0.04,1.47-0.13
		c0.88-0.15,1.8-0.4,2.76-0.76c0.96-0.35,1.93-0.84,2.92-1.45c0.99-0.61,1.94-1.31,2.88-2.12c0.36-0.24,0.61-0.61,0.74-1.12
		c0.13-0.51,0.15-0.97,0.06-1.4c-0.09-0.42-0.27-0.72-0.55-0.88C153.49,130.53,153.38,130.5,153.26,130.5 M139.84,125.79
		c-0.08,0-0.16,0.01-0.25,0.02c0.04,0.11,0.07,0.23,0.11,0.34c0.44,1.5,0.71,3.36,0.81,5.6c0.33,0.03,0.66,0.04,1,0.04
		c0.28,0,0.57-0.01,0.85-0.03c-0.14-1.38-0.37-2.58-0.67-3.61c-0.44-1.49-0.99-2.27-1.66-2.35
		C139.97,125.79,139.91,125.79,139.84,125.79 M137.31,90.52c-0.21,0-0.43,0.03-0.65,0.09c0,0.68-0.04,1.54-0.1,2.6
		c-0.17,2.64-0.64,6.04-1.41,10.15c-0.69,3.92-1.45,7.63-2.27,11.13c-0.82,3.5-1.66,6.73-2.51,9.71c-0.85,2.98-1.69,5.65-2.53,8.03
		c-0.84,2.38-1.57,4.42-2.22,6.15c-0.33,2.82-0.49,5.32-0.49,7.5c0,1.31,0.06,2.51,0.18,3.6c0.31,2.9,1.04,4.51,2.18,4.8
		c0.13,0.03,0.26,0.05,0.39,0.06c-0.26-0.75-0.45-1.7-0.57-2.86c-0.31-2.9-0.21-6.58,0.32-11.1c0.64-1.73,1.38-3.78,2.22-6.15
		c0.84-2.38,1.68-5.05,2.53-8.03c0.85-2.98,1.69-6.21,2.51-9.71c0.82-3.5,1.58-7.21,2.27-11.13c0.77-4.11,1.24-7.51,1.41-10.15
		c0.17-2.64,0.14-4.1-0.09-4.36c-0.15-0.13-0.42-0.23-0.81-0.3C137.54,90.52,137.43,90.52,137.31,90.52"/>
	<path class="st0" d="M170.78,154.66c-0.49,0.24-0.91,0.45-1.27,0.63c-0.09,0.04-0.17,0.08-0.24,0.13c0.19,0.99,0.37,1.84,0.53,2.54
		c0.31,1.28,0.55,2.29,0.75,3.03c0.23,0.81,0.45,1.37,0.64,1.68c0.24,0.31,0.55,0.48,0.93,0.52c0.05,0,0.09,0.01,0.14,0.01
		c0.11,0,0.22-0.01,0.33-0.04c-0.02-0.05-0.03-0.11-0.05-0.16c-0.19-0.73-0.44-1.75-0.75-3.03
		C171.49,158.68,171.15,156.91,170.78,154.66 M171.17,134.67c-0.21,0.56-0.57,1.47-1.08,2.73c-0.52,1.25-1.07,2.56-1.67,3.91
		c-0.6,1.35-1.17,2.59-1.7,3.72c-0.09,0.19-0.18,0.38-0.26,0.55c-0.15,0.34-0.27,0.62-0.37,0.84c-0.33,0.82-0.49,1.54-0.48,2.14
		c0.01,0.6,0.11,1.08,0.31,1.42c0.16,0.28,0.35,0.41,0.58,0.41c0.05,0,0.11-0.01,0.16-0.02c0.3-0.08,0.62-0.42,0.95-1.03
		c0.21-0.41,0.58-1.18,1.11-2.31c0.54-1.13,1.1-2.37,1.7-3.72c0.58-1.32,1.13-2.59,1.63-3.81c-0.05-0.31-0.1-0.61-0.15-0.9
		c-0.15-0.8-0.29-1.58-0.42-2.34C171.35,135.49,171.25,134.96,171.17,134.67 M176.98,119.69c0.07,0.13,0.14,0.27,0.2,0.41
		c0.24,0.54,0.36,1.1,0.36,1.65c0,0.16-0.01,0.31-0.03,0.47c-0.08,0.36-0.21,0.82-0.37,1.4c-0.16,0.57-0.41,1.27-0.74,2.08
		c-0.33,0.82-0.79,1.86-1.4,3.13c0.1,1.66,0.25,3.18,0.46,4.56c0.2,1.38,0.4,2.58,0.59,3.6c0.23,1.24,0.48,2.37,0.75,3.39
		c0.35,1.32,0.71,2.68,1.1,4.07c0.39,1.39,0.74,2.77,1.05,4.12c0.31,1.36,0.56,2.62,0.75,3.79c0.13,0.8,0.2,1.52,0.2,2.14
		c0,0.28-0.01,0.55-0.04,0.8c-0.13,1.22-0.5,2.69-1.1,4.38c-0.6,1.7-1.34,3.33-2.23,4.88c-0.89,1.56-1.89,2.86-3.01,3.91
		c-1,0.93-2.04,1.39-3.11,1.39c-0.13,0-0.27-0.01-0.4-0.02c-0.29-0.03-0.58-0.12-0.86-0.26c0.14,0.2,0.28,0.4,0.42,0.59
		c0.77,1.02,1.59,1.58,2.44,1.67c0.13,0.01,0.27,0.02,0.4,0.02c1.07,0,2.1-0.47,3.11-1.39c1.13-1.05,2.13-2.35,3.01-3.91
		c0.88-1.56,1.63-3.19,2.23-4.88c0.6-1.7,0.96-3.16,1.1-4.38c0.09-0.79,0.04-1.77-0.16-2.94c-0.19-1.17-0.44-2.43-0.75-3.79
		c-0.31-1.36-0.66-2.73-1.05-4.12c-0.39-1.39-0.75-2.75-1.1-4.07c-0.27-1.03-0.52-2.16-0.75-3.39c-0.19-1.02-0.39-2.22-0.59-3.6
		c-0.21-1.38-0.36-2.9-0.46-4.56c0.61-1.27,1.08-2.31,1.4-3.13c0.33-0.81,0.57-1.51,0.74-2.08c0.16-0.57,0.29-1.04,0.37-1.4
		c0.09-0.72-0.03-1.43-0.34-2.12c-0.31-0.7-0.72-1.34-1.23-1.93C177.64,119.88,177.32,119.72,176.98,119.69"/>
	<path class="st0" d="M204.74,159.59c-0.59,0.95-1.19,1.85-1.81,2.71c-1.71,2.4-3.47,4.33-5.28,5.79c-1.76,1.42-3.48,2.13-5.14,2.13
		c-0.04,0-0.08,0-0.12,0c-0.79-0.02-1.64-0.34-2.54-0.97c0.52,0.71,1.07,1.29,1.65,1.74c1.03,0.8,1.99,1.21,2.89,1.22
		c0.04,0,0.08,0,0.12,0c1.67,0,3.38-0.71,5.14-2.13c1.09-0.88,2.17-1.94,3.24-3.17c0.02-0.44,0.11-0.94,0.26-1.5
		c0.12-0.44,0.39-1.43,0.81-2.97C204.2,161.59,204.46,160.64,204.74,159.59 M196.44,128.04c-0.48,0-1.04,0.44-1.7,1.3
		c-0.66,0.87-1.31,2.12-1.95,3.76c-0.64,1.63-1.25,3.63-1.82,5.99c-0.57,2.36-1,5.06-1.29,8.11c0.48-0.64,1.01-1.3,1.57-1.99
		c0.39-0.47,0.78-0.97,1.17-1.49c0.17-0.92,0.35-1.8,0.55-2.63c0.57-2.36,1.17-4.35,1.82-5.99c0.64-1.63,1.29-2.89,1.95-3.76
		c0.35-0.46,0.67-0.8,0.97-1.02c-0.04-0.57-0.12-1.02-0.25-1.36C197.21,128.35,196.88,128.04,196.44,128.04
		C196.44,128.04,196.44,128.04,196.44,128.04 M201.46,124.03c0.56,1.21,0.84,2.67,0.84,4.37c0,0.2,0,0.4-0.01,0.61
		c-0.12,2.26-0.46,4.34-1.04,6.24c-0.58,1.9-1.26,3.62-2.06,5.15c-0.8,1.53-1.65,2.92-2.55,4.16c-0.9,1.24-1.76,2.36-2.56,3.37
		c-0.89,1.08-1.73,2.11-2.54,3.08c-0.81,0.97-1.52,1.84-2.12,2.63c0.03,1.82,0.21,3.36,0.53,4.6c0.32,1.25,0.72,2.26,1.2,3.04
		c0.48,0.78,1.04,1.33,1.66,1.67c0.07,0.04,0.14,0.07,0.21,0.11c-0.42-0.74-0.78-1.68-1.07-2.82c-0.32-1.25-0.49-2.78-0.53-4.6
		c0.61-0.79,1.31-1.66,2.12-2.63c0.81-0.97,1.65-1.99,2.54-3.08c0.81-1.01,1.66-2.13,2.56-3.37c0.9-1.24,1.75-2.62,2.56-4.16
		c0.8-1.53,1.49-3.25,2.06-5.15c0.58-1.9,0.92-3.98,1.04-6.24c0.08-2.04-0.23-3.75-0.9-5.13
		C202.93,124.95,202.29,124.33,201.46,124.03"/>
	<path class="st0" d="M233.54,151.73c-0.79,2-1.67,4.06-2.64,6.19c-0.97,2.14-2,4.11-3.09,5.9c-1.09,1.8-2.18,3.29-3.28,4.48
		c-1.1,1.19-2.16,1.83-3.17,1.92c-0.13,0.01-0.26,0.02-0.38,0.02c-0.49,0-0.94-0.09-1.35-0.28c0.32,0.53,0.69,0.99,1.11,1.4
		c0.61,0.58,1.36,0.88,2.24,0.88c0.12,0,0.25-0.01,0.38-0.02c1.01-0.09,2.07-0.73,3.17-1.92c1.1-1.19,2.19-2.68,3.28-4.48
		c1.09-1.79,2.12-3.77,3.09-5.9c0.45-0.98,0.88-1.96,1.29-2.91c-0.01-0.03-0.01-0.07-0.02-0.1
		C233.91,155.25,233.7,153.52,233.54,151.73 M215.6,135.35c-0.16,0.51-0.51,1.61-1.05,3.3c-0.55,1.69-1.18,3.67-1.91,5.95
		c-0.73,2.28-1.5,4.67-2.3,7.17c-0.81,2.5-1.58,4.84-2.29,7.01c-0.72,2.17-1.32,4.01-1.83,5.52c-0.5,1.51-0.81,2.41-0.93,2.7
		c-0.03,0.08-0.05,0.15-0.08,0.23c-0.02,0.07-0.04,0.13-0.05,0.18c-0.24,0.88-0.32,1.61-0.24,2.19c0.08,0.58,0.25,0.96,0.52,1.14
		c0.11,0.07,0.22,0.11,0.34,0.11c0.18,0,0.37-0.08,0.57-0.23c0.34-0.27,0.66-0.8,0.94-1.61c0.12-0.29,0.43-1.2,0.93-2.7
		c0.5-1.51,1.11-3.35,1.83-5.52c0.72-2.17,1.48-4.51,2.29-7.01c0.81-2.5,1.58-4.89,2.3-7.17c0.73-2.28,1.36-4.26,1.91-5.95
		c0.55-1.69,0.9-2.79,1.05-3.3c0.32,0.13,0.66,0.34,1.02,0.61c0.33,0.25,0.73,0.38,1.2,0.38c0.04,0,0.08,0,0.12,0
		c0.36-0.02,0.63-0.05,0.81-0.09c0.1-0.02,0.19-0.04,0.26-0.06c-0.03-0.54-0.11-1.02-0.25-1.45c-0.16-0.48-0.41-0.72-0.75-0.72
		c-0.01,0-0.03,0-0.04,0c-0.24,0.01-0.41,0.04-0.51,0.08c-0.1,0.04-0.2,0.06-0.3,0.07c-0.1,0-0.24,0.03-0.42,0.07
		c-0.18,0.05-0.45,0.08-0.81,0.09c-0.04,0-0.08,0-0.12,0c-0.47,0-0.87-0.13-1.2-0.38C216.26,135.69,215.92,135.49,215.6,135.35
		 M224.5,131.13c0.15,0.31,0.28,0.65,0.4,1.02c0.29,0.88,0.51,1.84,0.66,2.86c0.15,1.03,0.25,1.97,0.31,2.83
		c0.03,0.33,0.04,0.67,0.04,1.01c0,1.48-0.25,3.02-0.75,4.63c-0.62,1.98-1.37,4.16-2.27,6.52c-0.55,1.48-1.09,3.14-1.63,4.98
		c-0.46,1.57-0.7,2.99-0.7,4.27c0,0.22,0.01,0.44,0.02,0.65c0.09,0.93,0.24,1.68,0.45,2.24c0.18,0.49,0.64,0.74,1.37,0.74
		c0.1,0,0.2,0,0.31-0.01c-0.05-0.29-0.09-0.62-0.12-0.96c-0.1-1.44,0.13-3.08,0.67-4.92c0.54-1.84,1.09-3.5,1.63-4.98
		c0.9-2.37,1.65-4.54,2.27-6.52c0.61-1.98,0.85-3.86,0.71-5.64c-0.05-0.86-0.15-1.8-0.31-2.83c-0.15-1.03-0.37-1.98-0.66-2.86
		c-0.29-0.88-0.66-1.61-1.1-2.2C225.44,131.47,225.01,131.2,224.5,131.13 M218.26,117.6c0.44,1.25,0.7,2.53,0.79,3.85
		c0.03,0.35,0.05,0.75,0.05,1.17c0,0.7-0.04,1.5-0.13,2.4c-0.14,1.45-0.43,2.76-0.86,3.93c0.12,0.14,0.28,0.3,0.48,0.47
		c0.18,0.16,0.46,0.23,0.83,0.23c0.04,0,0.08,0,0.13,0c0.41-0.02,0.74-0.06,1-0.13c0.19-0.78,0.33-1.61,0.42-2.5
		c0.14-1.45,0.17-2.64,0.08-3.58c-0.09-1.37-0.37-2.7-0.84-3.98C219.81,118.35,219.16,117.72,218.26,117.6"/>
	<path class="st0" d="M260.37,139.26c-0.39,0.49-0.78,0.95-1.2,1.4c-1.99,2.14-4.35,3.46-7.09,3.88c-0.18,0.03-0.38,0.04-0.63,0.04
		c-0.09,0-0.18,0-0.27-0.01c-0.36-0.01-0.74-0.09-1.14-0.24c-0.97,2.75-1.98,5.45-3.03,8.1c-1.04,2.65-2.06,5.05-3.04,7.19
		c-0.98,2.14-1.89,3.9-2.73,5.26c-0.84,1.36-1.52,2.09-2.04,2.17c-0.11,0.02-0.22,0.03-0.33,0.03c-0.16,0-0.32-0.02-0.48-0.06
		c0.69,1.37,1.52,2.06,2.48,2.06c0.11,0,0.22-0.01,0.33-0.03c0.52-0.08,1.2-0.81,2.04-2.17c0.84-1.36,1.75-3.12,2.73-5.26
		c0.98-2.14,1.99-4.54,3.04-7.19c1.04-2.65,2.05-5.35,3.03-8.1c0.4,0.15,0.78,0.23,1.14,0.24c0.09,0,0.18,0.01,0.27,0.01
		c0.24,0,0.45-0.01,0.63-0.04c2.28-0.36,4.3-1.33,6.06-2.88C260.2,142.21,260.27,140.75,260.37,139.26 M240.3,125.41
		c-0.17,0-0.36,0.03-0.55,0.08c-0.07,0.02-0.15,0.04-0.22,0.06c-0.01,0.04-0.01,0.08-0.02,0.12c-0.07,0.64-0.18,1.57-0.33,2.81
		c-0.16,1.24-0.32,2.64-0.49,4.2c-0.17,1.56-0.33,3.19-0.48,4.89c-0.15,1.7-0.25,3.33-0.3,4.88c-0.02,0.85-0.03,1.66-0.03,2.44
		c0,1.68,0.05,3.2,0.16,4.56c0.16,1.99,0.37,3.65,0.63,4.98c0.27,1.34,0.54,2.33,0.84,2.99c0.28,0.64,0.5,0.96,0.66,0.96
		c0.01,0,0.01,0,0.02,0c0.15-0.02,0.39-0.32,0.71-0.89c-0.08-0.33-0.16-0.68-0.23-1.06c-0.26-1.33-0.47-3-0.63-4.98
		c-0.16-1.99-0.2-4.32-0.13-7c0.05-1.55,0.15-3.18,0.3-4.88c0.15-1.7,0.31-3.33,0.48-4.89c0.17-1.56,0.33-2.96,0.49-4.2
		c0.16-1.24,0.27-2.18,0.33-2.81c0.11-0.71,0.08-1.23-0.09-1.57c-0.17-0.34-0.4-0.55-0.7-0.63
		C240.6,125.43,240.46,125.41,240.3,125.41 M254.95,123.01c-0.04,0-0.09,0-0.13,0c0.09,0.48,0.14,0.97,0.14,1.47
		c0,0.15,0,0.31-0.01,0.46c-0.05,1.42-0.36,3.39-0.96,5.94c-0.59,2.54-1.37,5.34-2.33,8.41c0.2,0.11,0.42,0.21,0.66,0.31
		c0.16,0.07,0.35,0.1,0.55,0.1c0.09,0,0.19-0.01,0.29-0.02c0.36-0.05,0.72-0.13,1.06-0.22c0.71-2.36,1.3-4.56,1.77-6.59
		c0.59-2.54,0.91-4.52,0.96-5.94c0.06-0.95-0.06-1.86-0.33-2.75C256.37,123.41,255.81,123.01,254.95,123.01"/>
	<path class="st0" d="M275.05,146.12c-0.6,1.29-1.22,2.58-1.86,3.85c-1.31,2.6-2.6,4.88-3.87,6.84c-1.28,1.96-2.33,3.09-3.16,3.37
		c-0.32,0.12-0.65,0.17-0.97,0.17c-0.34,0-0.69-0.07-1.03-0.2c-0.17-0.07-0.34-0.15-0.5-0.24c0.21,0.33,0.43,0.63,0.67,0.9
		c0.55,0.63,1.16,1.07,1.83,1.33c0.34,0.13,0.69,0.2,1.03,0.2c0.32,0,0.65-0.06,0.97-0.17c0.83-0.28,1.88-1.42,3.16-3.37
		c1.27-1.95,2.57-4.24,3.87-6.84c0.25-0.5,0.5-1,0.75-1.5c-0.25-0.8-0.46-1.66-0.61-2.57C275.22,147.3,275.13,146.71,275.05,146.12
		 M270.08,122.1c-0.15,0-0.37,0.03-0.68,0.09c-0.44,0.08-0.93,0.23-1.45,0.42c-0.19,1.22-0.42,2.64-0.69,4.24
		c-0.3,1.79-0.63,3.64-0.97,5.55c-0.34,1.91-0.6,3.47-0.76,4.68c-0.17,1.2-0.37,2.57-0.6,4.08c-0.24,1.52-0.45,3-0.62,4.45
		c-0.18,1.45-0.29,2.81-0.34,4.06c-0.01,0.23-0.01,0.44-0.01,0.65c0,0.94,0.09,1.66,0.27,2.16c0.22,0.74,0.45,1.23,0.7,1.47
		c0.19,0.19,0.39,0.28,0.6,0.28c0.06,0,0.12-0.01,0.18-0.02c0.13-0.03,0.26-0.08,0.4-0.15c-0.13-0.59-0.17-1.38-0.13-2.37
		c0.04-1.26,0.16-2.61,0.34-4.06c0.18-1.45,0.39-2.93,0.62-4.45c0.24-1.52,0.44-2.88,0.6-4.08c0.17-1.21,0.42-2.77,0.76-4.68
		c0.34-1.91,0.67-3.76,0.97-5.55c0.3-1.79,0.56-3.34,0.76-4.66c0.2-1.32,0.28-2,0.24-2.06C270.22,122.11,270.17,122.1,270.08,122.1
		 M270.8,96.82c-0.1,0-0.2,0.02-0.31,0.05c-0.05,0.02-0.11,0.04-0.17,0.07c0.16,0.65,0.27,1.37,0.31,2.16
		c0.01,0.25,0.02,0.49,0.02,0.73c0,0.53-0.03,1.02-0.1,1.47c-0.1,0.71-0.3,1.4-0.62,2.09c-0.31,0.69-0.67,1.25-1.07,1.7
		c-0.4,0.44-0.81,0.74-1.24,0.9c-0.03,0.01-0.06,0.02-0.09,0.03c0.23,0.58,0.57,1.13,1.03,1.65c0.2,0.26,0.43,0.39,0.7,0.39
		c0.12,0,0.24-0.02,0.37-0.07c0.43-0.16,0.84-0.46,1.24-0.9c0.4-0.44,0.76-1.01,1.07-1.7c0.31-0.69,0.52-1.38,0.62-2.09
		c0.1-0.64,0.13-1.37,0.08-2.2c-0.04-0.82-0.15-1.56-0.33-2.23c-0.18-0.66-0.42-1.19-0.72-1.6
		C271.35,96.97,271.09,96.82,270.8,96.82"/>
	<path class="st0" d="M296.87,139.99c-0.42,0.77-0.85,1.55-1.29,2.34c-0.89,1.57-1.81,3.06-2.74,4.44c-0.44,0.72-0.9,1.43-1.36,2.11
		c-1.16,1.72-2.36,3.24-3.61,4.55c-1.25,1.31-2.5,2.19-3.74,2.62c-0.82,0.28-1.58,0.43-2.28,0.43c-0.76,0-1.44-0.17-2.06-0.5
		c-0.12-0.06-0.23-0.13-0.35-0.2c0.65,0.97,1.43,1.7,2.35,2.2c0.61,0.34,1.3,0.5,2.06,0.5c0.7,0,1.46-0.14,2.28-0.43
		c1.24-0.43,2.49-1.31,3.74-2.62c1.25-1.31,2.45-2.83,3.61-4.55c1.16-1.72,2.26-3.55,3.31-5.48c0.34-0.62,0.66-1.22,0.97-1.82
		c-0.13-0.35-0.26-0.72-0.38-1.12C297.15,141.73,296.98,140.91,296.87,139.99 M287.31,119.48c-0.06,0-0.12,0.01-0.18,0.02
		c-0.35,0.06-0.97,0.59-1.86,1.61c-0.89,1.02-1.78,2.47-2.69,4.36c-0.9,1.9-1.69,4.23-2.35,7.01c-0.6,2.52-0.9,5.35-0.9,8.48
		c0,0.32,0,0.65,0.01,0.98c0.02,2.04,0.25,3.65,0.68,4.83c0.43,1.18,0.95,2.04,1.55,2.6c0.32,0.3,0.66,0.52,1.02,0.69
		c-0.2-0.38-0.39-0.8-0.57-1.28c-0.43-1.18-0.65-2.79-0.68-4.83c-0.07-3.51,0.23-6.67,0.89-9.45c0.66-2.78,1.44-5.12,2.35-7.01
		c0.48-1.01,0.96-1.89,1.44-2.65c0.01-0.05,0.02-0.1,0.03-0.14c0.18-0.45,0.39-0.79,0.61-1.01c0.22-0.21,0.47-0.45,0.75-0.73
		c0.08-0.09,0.15-0.17,0.23-0.25c0.14-0.19,0.26-0.42,0.35-0.69c0.11-0.34,0.17-0.7,0.17-1.06c0-0.04,0-0.08,0-0.11
		c-0.01-0.41-0.1-0.75-0.27-1.01C287.76,119.59,287.56,119.48,287.31,119.48 M290.87,117.31c0.56,1.06,0.86,2.44,0.88,4.15
		c0,0.14,0.01,0.27,0.01,0.41c0,0.9-0.09,1.8-0.26,2.71c-0.2,1.05-0.49,2.01-0.85,2.88c-0.36,0.87-0.8,1.6-1.31,2.18
		c-0.41,0.48-0.86,0.81-1.34,0.99c0.09,0.59,0.25,1.1,0.48,1.53c0.22,0.41,0.51,0.61,0.89,0.61c0.09,0,0.18-0.01,0.28-0.03
		c0.62-0.14,1.19-0.51,1.69-1.1c0.51-0.59,0.95-1.32,1.31-2.18c0.36-0.87,0.65-1.83,0.85-2.88c0.2-1.05,0.29-2.09,0.26-3.13
		c-0.03-2.18-0.5-3.82-1.41-4.95C291.89,117.95,291.4,117.55,290.87,117.31"/>
	<path class="st0" d="M321.84,126.72c-0.41,0.72-0.84,1.5-1.32,2.34c-1.12,1.97-2.32,3.97-3.62,5.99c-1.3,2.02-2.63,3.87-4,5.54
		c-0.67,0.81-1.32,1.5-1.97,2.05c-0.39,0.46-0.78,0.9-1.17,1.32c-1.65,1.78-3.26,3.05-4.86,3.75c-0.59,0.26-1.22,0.4-1.89,0.4
		c-0.27,0-0.55-0.02-0.84-0.07c-0.51-0.08-1.01-0.26-1.48-0.54c0.23,0.37,0.48,0.69,0.75,0.97c0.84,0.89,1.75,1.41,2.74,1.57
		c0.28,0.04,0.56,0.07,0.84,0.07c0.67,0,1.3-0.13,1.89-0.4c1.59-0.7,3.21-1.97,4.86-3.75c1.65-1.78,3.25-3.83,4.8-6.12
		c1.34-1.98,2.62-4.05,3.84-6.21c0.21-0.63,0.4-1.14,0.57-1.53c0.18-0.4,0.45-0.89,0.82-1.46c0.15-0.2,0.33-0.44,0.55-0.72
		c0.04-0.05,0.09-0.11,0.15-0.16c0.49-0.96,0.96-1.9,1.41-2.84c-0.32,0.63-0.55,1.08-0.69,1.35c-0.29,0.53-0.58,0.88-0.86,1.06
		c-0.16,0.1-0.3,0.15-0.43,0.15c-0.1,0-0.19-0.03-0.27-0.09c-0.19-0.14-0.3-0.4-0.33-0.79c-0.03-0.39,0.1-0.92,0.39-1.58
		C321.75,126.93,321.79,126.83,321.84,126.72 M308.08,116.29c-0.07,0-0.15,0.01-0.23,0.03c-0.46,0.1-1,0.53-1.62,1.29
		c-0.62,0.76-1.22,1.81-1.8,3.14c-0.58,1.33-1.12,2.94-1.6,4.81c-0.49,1.88-0.83,3.99-1.03,6.34c0.45-0.63,0.93-1.27,1.45-1.94
		c0.49-0.63,0.99-1.3,1.48-2c0.03-0.13,0.07-0.27,0.1-0.4c0.49-1.88,1.02-3.48,1.6-4.81c0.58-1.33,1.18-2.38,1.8-3.14
		c0.32-0.4,0.62-0.71,0.9-0.92c0.01-0.13,0.01-0.26,0.01-0.38c0-0.72-0.1-1.24-0.3-1.55C308.64,116.44,308.39,116.29,308.08,116.29
		 M313.21,113.62c0.19,0.54,0.28,1.15,0.28,1.84c0,0.08,0,0.16,0,0.24c-0.08,1.54-0.38,3.03-0.9,4.46
		c-0.52,1.44-1.15,2.79-1.88,4.07c-0.74,1.28-1.52,2.49-2.35,3.63c-0.83,1.14-1.62,2.2-2.36,3.18c-0.82,1.05-1.6,2.07-2.34,3.04
		c-0.74,0.97-1.39,1.85-1.95,2.64c0.08,1.33,0.28,2.41,0.61,3.21c0.33,0.8,0.73,1.39,1.21,1.78c0.28,0.23,0.58,0.39,0.9,0.48
		c-0.04-0.08-0.07-0.17-0.11-0.25c-0.33-0.8-0.54-1.87-0.61-3.21c0.56-0.79,1.21-1.67,1.95-2.64c0.74-0.97,1.52-1.99,2.34-3.04
		c0.74-0.98,1.53-2.04,2.36-3.18c0.83-1.14,1.62-2.35,2.35-3.63c0.73-1.28,1.36-2.64,1.88-4.07c0.52-1.43,0.82-2.91,0.9-4.46
		c0.04-1.39-0.27-2.47-0.95-3.27C314.2,114.03,313.76,113.76,313.21,113.62"/>
	<path class="st0" d="M326.28,130.2c-0.35,0.29-0.66,0.55-0.94,0.78c0.3,0.61,0.54,1.08,0.73,1.41c0.23,0.37,0.43,0.59,0.62,0.67
		c0.06,0.01,0.11,0.02,0.18,0.02c0.14,0,0.3-0.04,0.47-0.11c0-0.01-0.01-0.02-0.01-0.03C327.02,132.32,326.67,131.41,326.28,130.2
		 M326.14,116.36c-0.1,0.22-0.24,0.51-0.41,0.88c0.1,0.28,0.12,0.54,0.08,0.77c-0.04,0.14-0.24,0.59-0.6,1.35
		c-0.37,0.76-0.77,1.63-1.21,2.62c-0.44,0.98-0.87,1.96-1.31,2.91c-0.35,0.77-0.63,1.38-0.84,1.83c-0.05,0.11-0.1,0.2-0.14,0.29
		c-0.29,0.67-0.42,1.2-0.39,1.58c0.03,0.39,0.14,0.65,0.33,0.79c0.08,0.06,0.17,0.09,0.27,0.09c0.13,0,0.27-0.05,0.43-0.15
		c0.28-0.18,0.56-0.53,0.86-1.06c0.14-0.27,0.37-0.72,0.69-1.35c0.09-0.18,0.19-0.37,0.29-0.57c0.47-0.93,0.98-1.92,1.51-2.98
		c0.53-1.06,1.02-2.05,1.48-3c0.08-0.17,0.16-0.34,0.24-0.49c-0.2-0.5-0.37-0.98-0.51-1.43c-0.16-0.42-0.3-0.84-0.44-1.25
		C326.33,116.79,326.22,116.51,326.14,116.36 M331.96,107.34c0,0,0,0.01,0,0.01c-0.08,0.22-0.19,0.51-0.34,0.87
		c-0.15,0.36-0.38,0.81-0.67,1.36c-0.3,0.55-0.73,1.27-1.29,2.17c0.12,0.92,0.29,1.75,0.5,2.47c0.21,0.72,0.41,1.33,0.6,1.84
		c0.23,0.62,0.47,1.17,0.74,1.64c0.34,0.61,0.7,1.22,1.07,1.83c0.37,0.61,0.71,1.22,1,1.82c0.3,0.6,0.53,1.17,0.72,1.71
		c0.13,0.38,0.2,0.75,0.2,1.09c0,0.14-0.01,0.28-0.03,0.41c-0.11,0.72-0.43,1.68-0.96,2.9c-0.34,0.8-0.74,1.62-1.19,2.47
		c0.07,0.56,0.04,1.03-0.07,1.44c-0.14,0.53-0.37,1.02-0.68,1.47c-0.31,0.45-0.64,0.86-0.98,1.21c-0.35,0.35-0.69,0.62-1.04,0.8
		c-0.2,0.11-0.38,0.17-0.54,0.19c-0.04,0.05-0.07,0.09-0.11,0.14c-1,1.24-2.04,2.19-3.14,2.8c-0.53,0.3-1.06,0.45-1.57,0.45
		c-0.23,0-0.45-0.03-0.67-0.09c-0.25-0.07-0.48-0.15-0.7-0.26c0.23,0.41,0.51,0.79,0.84,1.15c0.51,0.54,1.13,0.92,1.86,1.11
		c0.22,0.06,0.45,0.09,0.67,0.09c0.51,0,1.04-0.15,1.57-0.45c1.1-0.62,2.14-1.56,3.14-2.8c1-1.24,1.88-2.53,2.66-3.88
		c0.78-1.34,1.43-2.62,1.96-3.85c0.53-1.22,0.85-2.18,0.96-2.9c0.07-0.47,0.02-0.96-0.17-1.51c-0.18-0.54-0.42-1.11-0.72-1.71
		c-0.3-0.6-0.63-1.21-1-1.82c-0.37-0.61-0.73-1.23-1.07-1.83c-0.26-0.47-0.51-1.02-0.74-1.64c-0.19-0.51-0.39-1.12-0.6-1.84
		c-0.21-0.72-0.38-1.54-0.5-2.47c0.56-0.9,0.99-1.62,1.29-2.17c0.3-0.55,0.52-1,0.67-1.36c0.15-0.36,0.26-0.65,0.34-0.87
		c0.07-0.42-0.04-0.79-0.35-1.11c-0.31-0.32-0.71-0.59-1.2-0.82C332.27,107.38,332.12,107.35,331.96,107.34"/>
	<path class="st0" d="M326.14,116.36c-0.18,0.41-0.5,1.07-0.96,2.01c-0.46,0.94-0.95,1.94-1.48,3c-0.53,1.06-1.03,2.05-1.51,2.98
		c-0.1,0.2-0.2,0.39-0.29,0.57l0,0c0.09-0.18,0.19-0.37,0.29-0.57c0.47-0.93,0.98-1.92,1.51-2.98c0.53-1.06,1.02-2.05,1.48-3
		c0.21-0.44,0.4-0.82,0.55-1.14C325.9,116.87,326.04,116.58,326.14,116.36c0.08,0.15,0.18,0.43,0.32,0.84
		c0.14,0.41,0.28,0.83,0.44,1.25c0.14,0.46,0.31,0.93,0.51,1.43c0.02,0.06,0.04,0.11,0.07,0.17c0.27,0.76,0.6,1.57,0.98,2.43
		c0.38,0.86,0.73,1.71,1.06,2.55c0.32,0.84,0.56,1.64,0.71,2.42c0.08,0.4,0.12,0.77,0.12,1.1c0-0.33-0.04-0.7-0.12-1.1
		c-0.15-0.78-0.39-1.58-0.71-2.42c-0.32-0.84-0.67-1.69-1.06-2.55c-0.38-0.86-0.71-1.68-0.98-2.43c-0.23-0.56-0.43-1.09-0.58-1.6
		c-0.16-0.42-0.3-0.84-0.44-1.25C326.33,116.79,326.22,116.51,326.14,116.36"/>
	<path class="st1" d="M66.99,109.21c-0.34,0-0.67,0.03-1.01,0.1c-0.89,0.17-1.47,0.41-1.73,0.75c-0.15,0.28-0.38,0.88-0.69,1.77
		c-0.3,0.89-0.6,1.95-0.88,3.16c-0.28,1.21-0.53,2.54-0.76,3.98c-0.22,1.44-0.33,2.87-0.33,4.32c0,0.23,0,0.47,0,0.7
		c0,1.13,0.09,2.24,0.27,3.34c0.18,1.1,0.48,2.14,0.9,3.15c0.41,1.01,0.95,1.92,1.6,2.75c0.65,0.82,1.45,1.51,2.39,2.06
		c0.62,0.36,1.25,0.54,1.88,0.54c0.07,0,0.14,0,0.2-0.01c0.7-0.04,1.38-0.24,2.06-0.6c0.67-0.35,1.31-0.86,1.92-1.51
		c0.61-0.65,1.18-1.34,1.72-2.07c0.3,2.24,0.88,4.3,1.74,6.2c0.86,1.9,2.16,3.32,3.91,4.19c0.66,0.32,1.29,0.49,1.9,0.49
		c0.39,0,0.78-0.07,1.15-0.21c0.96-0.35,1.87-1.03,2.73-2.05c0.86-1.01,1.66-2.27,2.39-3.76c0.73-1.49,1.39-3.1,1.98-4.81
		c0.26,0.19,0.53,0.36,0.79,0.5c0.27,0.14,0.51,0.25,0.74,0.32c1.02,0.33,2.02,0.5,2.98,0.5c0.37,0,0.73-0.02,1.09-0.07
		c0.96-0.13,1.87-0.37,2.72-0.72c0.29-1.27,0.69-2.55,1.2-3.86c0.01-0.03,0.02-0.06,0.03-0.09c-0.16,0.09-0.32,0.18-0.48,0.27
		c-0.71,0.38-1.49,0.63-2.35,0.75c-0.26,0.04-0.52,0.06-0.79,0.06c-0.63,0-1.29-0.1-1.99-0.3c-1.07-0.31-1.95-0.78-2.62-1.4l0,0l0,0
		c0.65-2.47,1.16-4.74,1.53-6.77c0.37-2.03,0.56-3.49,0.59-4.34c0-0.04,0-0.08,0-0.12c0-1.1-0.47-1.74-1.4-1.91
		c-0.16-0.03-0.32-0.04-0.49-0.04c-0.4,0-0.83,0.09-1.29,0.26c-0.65,0.24-1.26,0.68-1.83,1.3c-0.58,0.63-1.05,1.46-1.43,2.5
		c-0.37,1.04-0.58,2.34-0.62,3.91c0,0.17-0.01,0.33-0.01,0.49c0,0.52,0.02,0.99,0.07,1.41c0.06,0.56,0.14,1.13,0.24,1.72l0,0l0,0
		c-0.26,1.26-0.63,2.66-1.09,4.21c-0.46,1.55-0.99,2.97-1.57,4.25c-0.59,1.28-1.24,2.29-1.96,3.02c-0.47,0.48-0.96,0.71-1.48,0.71
		c-0.27,0-0.55-0.07-0.83-0.2c-0.56-0.26-1.04-0.76-1.44-1.49c-0.4-0.73-0.74-1.58-1.02-2.53c-0.28-0.95-0.5-1.95-0.64-3
		c-0.15-1.05-0.27-2.04-0.37-2.96l0,0l0,0c0.04-0.17,0.12-0.33,0.24-0.47c1.23-2.81,2.31-5.54,3.22-8.1
		c0.92-2.56,1.4-4.67,1.44-6.22c0-0.03,0-0.06,0-0.09c0-0.59-0.14-1.08-0.43-1.46c-0.3-0.4-0.68-0.65-1.14-0.74
		c-0.29-0.06-0.57-0.09-0.83-0.09c-0.78,0-1.44,0.26-1.98,0.77c-0.72,0.68-1.3,1.68-1.72,2.99c-0.42,1.32-0.72,2.88-0.88,4.7
		c-0.17,1.82-0.27,3.75-0.3,5.79c-0.01,0.32-0.01,0.61-0.02,0.88c0,0.03,0,0.07,0,0.1c0,0.24,0.01,0.48,0.04,0.74l0,0l0,0
		c-1.14,2.61-2.28,4.22-3.42,4.9c-0.66,0.39-1.28,0.58-1.86,0.58c-0.43,0-0.84-0.1-1.23-0.3c-0.77-0.4-1.33-0.99-1.7-1.76
		c-0.35-0.75-0.53-1.76-0.53-3.03c0-0.03,0-0.06,0-0.09c0.01-1.07,0.16-2.33,0.47-3.82c0.31-1.49,0.67-2.99,1.07-4.53
		c0.41-1.53,0.81-2.97,1.2-4.3c0.39-1.33,0.67-2.35,0.83-3.04c0.11-0.43,0.16-0.81,0.16-1.13c0-0.04,0-0.08,0-0.12
		c-0.02-0.35-0.23-0.59-0.65-0.73C68.08,109.3,67.53,109.21,66.99,109.21"/>
	<path class="st1" d="M103.37,134.54c0.34-2.32,0.81-4.35,1.41-6.09c0.6-1.74,1.23-3.21,1.89-4.39c0.66-1.18,1.32-2.07,1.99-2.66
		c0.58-0.52,1.09-0.78,1.53-0.78c0.06,0,0.11,0,0.17,0.01c0.43,0.07,0.75,0.38,0.97,0.93c0.14,0.36,0.22,0.85,0.22,1.46
		c0,0.31-0.02,0.66-0.06,1.04c-0.11,1.06-0.52,2.27-1.23,3.62c-0.71,1.34-1.92,2.81-3.65,4.31c-0.56,0.51-1.12,0.96-1.68,1.37
		C104.36,133.76,103.85,134.16,103.37,134.54L103.37,134.54L103.37,134.54 M111.44,115.75c-1.33,0-2.67,0.53-4.01,1.56
		c-1.58,1.21-3.01,2.78-4.3,4.69c-1.27,1.89-2.35,3.98-3.25,6.27c-0.01,0.03-0.02,0.06-0.03,0.09c-0.51,1.31-0.91,2.59-1.2,3.86
		c-0.23,0.99-0.39,1.97-0.49,2.94c-0.11,1.07-0.16,2.09-0.16,3.06c0,1.49,0.13,2.87,0.38,4.15c0.42,2.11,1.02,3.94,1.78,5.47
		c0.77,1.54,1.63,2.8,2.6,3.78c0.96,0.97,1.87,1.63,2.72,1.94c0.83,0.31,1.68,0.47,2.54,0.47c0.83,0,1.67-0.14,2.53-0.44
		c1.76-0.6,3.5-1.64,5.22-3.14c1.72-1.5,3.36-3.36,4.92-5.58c0.23-0.33,0.46-0.67,0.69-1.01c0.01-1.25,0.04-2.6,0.11-4.05
		c0.02-0.52,0.05-1.04,0.08-1.57c-0.35,0.52-0.72,1.06-1.12,1.62c-1.25,1.79-2.6,3.44-4.04,4.94c-1.44,1.5-2.9,2.67-4.38,3.52
		c-0.96,0.55-1.89,0.83-2.78,0.83c-0.48,0-0.95-0.08-1.41-0.23c-0.62-0.21-1.22-0.54-1.81-1.01c-0.59-0.47-1.11-1.08-1.55-1.84
		c-0.44-0.76-0.81-1.68-1.08-2.75c-0.27-1.06-0.41-2.29-0.41-3.7c0-0.02,0-0.04,0-0.07c0.6-0.45,1.29-0.95,2.09-1.5
		c0.8-0.56,1.63-1.16,2.51-1.81c0.8-0.61,1.65-1.31,2.56-2.11c0.9-0.8,1.77-1.74,2.58-2.83c0.82-1.09,1.53-2.37,2.15-3.85
		c0.61-1.47,1.01-3.15,1.18-5.02c0.02-0.29,0.03-0.58,0.03-0.86c0-1.28-0.24-2.42-0.7-3.41c-0.02-0.05-0.05-0.11-0.08-0.16
		c-0.63-1.25-1.68-1.97-3.16-2.18C111.91,115.76,111.68,115.75,111.44,115.75"/>
	<path class="st1" d="M135.31,88.52c-0.29,0-0.6,0.06-0.93,0.17c-0.45,0.16-0.92,0.43-1.4,0.78c-0.48,0.36-0.9,0.89-1.27,1.6
		c-0.29,0.52-0.72,1.68-1.3,3.48c-0.58,1.8-1.22,4.02-1.92,6.66c-0.7,2.63-1.44,5.57-2.22,8.79c-0.78,3.22-1.49,6.54-2.14,9.94
		c-0.65,3.41-1.22,6.8-1.71,10.19c-0.41,2.81-0.69,5.51-0.85,8.09c-0.03,0.53-0.06,1.05-0.08,1.57c-0.07,1.45-0.1,2.8-0.11,4.05
		c0,0.11,0,0.23,0,0.34c0,2.53,0.13,4.64,0.39,6.34c0.4,2.61,0.91,4.58,1.55,5.91c0.63,1.33,1.3,2.19,2.01,2.59
		c0.7,0.39,1.27,0.65,1.71,0.77c0.31,0.09,0.63,0.13,0.94,0.13c1.09,0,2.21-0.51,3.36-1.54c1.49-1.34,2.86-3.19,4.12-5.55
		c1.26-2.36,2.34-5.03,3.25-7.99c0.91-2.96,1.47-5.79,1.7-8.45c0.29,0.04,0.6,0.06,0.92,0.06c0.46,0,0.95-0.04,1.47-0.13
		c0.88-0.15,1.8-0.4,2.76-0.76c0.96-0.35,1.93-0.84,2.92-1.45c0.99-0.61,1.94-1.31,2.87-2.12c0.36-0.24,0.61-0.61,0.74-1.12
		c0.08-0.3,0.11-0.58,0.11-0.85c0-0.19-0.02-0.37-0.06-0.55c-0.09-0.42-0.27-0.72-0.55-0.88c-0.1-0.06-0.2-0.09-0.32-0.09
		c-0.22,0-0.47,0.1-0.75,0.29c-1.57,1.02-3.23,1.81-4.99,2.35c-1.09,0.34-2.14,0.54-3.15,0.62c-0.29,0.02-0.57,0.03-0.85,0.03
		c-0.34,0-0.67-0.01-1-0.04c-0.1-2.24-0.37-4.1-0.81-5.6c-0.04-0.12-0.07-0.23-0.11-0.34c-0.42-1.27-0.94-1.94-1.55-2
		c-0.07-0.01-0.13-0.01-0.2-0.01c-0.38,0-0.79,0.12-1.23,0.35c-0.52,0.27-1,0.68-1.45,1.22c-0.45,0.54-0.84,1.2-1.18,1.98
		c-0.34,0.78-0.52,1.63-0.54,2.54c0,0.1,0,0.19,0,0.29c0,1.25,0.23,2.29,0.68,3.13c0.49,0.9,1.11,1.58,1.85,2.03l0,0l0,0
		c-0.17,1.9-0.53,4.02-1.09,6.34c-0.56,2.32-1.22,4.46-1.98,6.41c-0.77,1.95-1.62,3.54-2.57,4.75c-0.79,1.01-1.58,1.52-2.37,1.52
		c-0.16,0-0.31-0.02-0.47-0.06c-1.14-0.29-1.87-1.9-2.18-4.8c-0.12-1.09-0.18-2.29-0.18-3.6c0-2.18,0.16-4.68,0.49-7.5
		c0.64-1.73,1.38-3.78,2.22-6.15c0.84-2.38,1.68-5.05,2.53-8.03c0.85-2.98,1.69-6.21,2.51-9.71c0.82-3.5,1.58-7.21,2.27-11.13
		c0.77-4.11,1.24-7.51,1.41-10.15c0.07-1.11,0.1-2.02,0.1-2.71c0-0.95-0.07-1.5-0.2-1.65c-0.15-0.13-0.42-0.23-0.81-0.3
		C135.54,88.52,135.43,88.52,135.31,88.52"/>
	<path class="st1" d="M174.86,117.69c-0.33,0-0.68,0.12-1.05,0.36c-0.8,0.51-1.58,1.29-2.34,2.33c-0.77,1.04-1.43,2.21-2.01,3.51
		c-0.57,1.3-0.95,2.44-1.12,3.43c-0.09,0.52-0.14,1.01-0.14,1.48c0,0.62,0.08,1.2,0.24,1.74c0.22,0.72,0.33,1.34,0.33,1.84
		c0,0.15-0.01,0.3-0.03,0.43c-0.04,0.21-0.27,0.83-0.68,1.83c-0.41,1.01-0.87,2.15-1.36,3.44c-0.5,1.28-0.99,2.53-1.49,3.73
		c-0.5,1.2-0.87,2.07-1.12,2.62c-0.32,0.8-0.48,1.49-0.48,2.08c0,0.02,0,0.04,0,0.06c0.01,0.6,0.11,1.08,0.31,1.42
		c0.16,0.28,0.35,0.41,0.58,0.41c0.05,0,0.11-0.01,0.16-0.02c0.3-0.08,0.62-0.42,0.95-1.03c0.21-0.41,0.58-1.18,1.11-2.31
		c0.54-1.13,1.1-2.37,1.7-3.72c0.6-1.35,1.15-2.65,1.67-3.91c0.52-1.26,0.87-2.16,1.08-2.73c0.08,0.29,0.18,0.82,0.31,1.58
		c0.13,0.76,0.27,1.54,0.42,2.34c0.15,0.94,0.34,1.96,0.56,3.05c0.26,1.46,0.58,3.06,0.97,4.81c0.38,1.75,0.73,3.49,1.06,5.2
		c0.32,1.72,0.56,3.32,0.7,4.81c0.07,0.69,0.1,1.3,0.1,1.83c0,0.63-0.05,1.15-0.14,1.57c-0.17,0.78-0.43,1.41-0.78,1.88
		c-0.35,0.48-0.72,0.84-1.1,1.09c-0.23,0.15-0.46,0.25-0.68,0.3c-0.11,0.02-0.22,0.04-0.33,0.04c-0.05,0-0.09,0-0.14-0.01
		c-0.38-0.04-0.69-0.21-0.93-0.52c-0.2-0.3-0.41-0.86-0.64-1.68c-0.19-0.73-0.44-1.75-0.75-3.03c-0.17-0.7-0.35-1.55-0.53-2.54
		c-0.15-0.82-0.32-1.74-0.48-2.76c-0.49,0.24-0.91,0.45-1.27,0.63c-0.36,0.18-0.65,0.37-0.85,0.56c-0.24,0.26-0.45,0.49-0.61,0.69
		c-0.41,0.6-0.72,1.14-0.93,1.61c-0.21,0.48-0.44,1.13-0.69,1.95c-0.1,0.29-0.15,0.64-0.15,1.06c0,0.48,0.07,1.06,0.2,1.72
		c0.24,1.24,0.63,2.51,1.15,3.82c0.53,1.31,1.18,2.48,1.95,3.49c0.77,1.02,1.59,1.58,2.44,1.67c0.13,0.01,0.27,0.02,0.4,0.02
		c1.07,0,2.1-0.47,3.11-1.39c1.12-1.05,2.13-2.35,3.01-3.91c0.88-1.56,1.63-3.19,2.23-4.88c0.6-1.7,0.96-3.16,1.1-4.38
		c0.03-0.25,0.04-0.51,0.04-0.8c0-0.63-0.07-1.34-0.2-2.14c-0.19-1.17-0.44-2.43-0.75-3.79c-0.31-1.36-0.66-2.73-1.05-4.12
		c-0.39-1.39-0.75-2.75-1.1-4.07c-0.27-1.03-0.52-2.16-0.75-3.39c-0.19-1.02-0.39-2.22-0.59-3.6c-0.21-1.38-0.36-2.9-0.46-4.56l0,0
		l0,0c0.61-1.27,1.08-2.31,1.4-3.13c0.33-0.81,0.57-1.51,0.74-2.08c0.16-0.57,0.29-1.04,0.37-1.4c0.02-0.16,0.03-0.31,0.03-0.47
		c0-0.56-0.12-1.11-0.36-1.65c-0.31-0.7-0.72-1.34-1.23-1.93C175.61,117.85,175.25,117.69,174.86,117.69"/>
	<path class="st1" d="M189.68,147.2c0.29-3.05,0.72-5.76,1.29-8.11c0.57-2.36,1.17-4.35,1.82-5.99c0.64-1.63,1.29-2.89,1.95-3.76
		c0.66-0.87,1.22-1.3,1.7-1.3c0,0,0,0,0,0c0.44,0,0.78,0.31,1.01,0.93c0.18,0.47,0.27,1.15,0.27,2.04c0,0.3-0.01,0.62-0.03,0.97
		c-0.08,1.31-0.46,2.88-1.14,4.7c-0.68,1.82-1.88,3.93-3.61,6.32c-0.56,0.8-1.13,1.53-1.69,2.21
		C190.69,145.9,190.16,146.56,189.68,147.2L189.68,147.2L189.68,147.2 M198.11,121.81c-1.59,0-3.17,0.91-4.74,2.72
		c-1.57,1.81-2.99,4.09-4.26,6.83c-1.27,2.75-2.34,5.75-3.22,9.04c-0.88,3.28-1.41,6.4-1.59,9.37c-0.07,1.15-0.11,2.24-0.11,3.28
		c0,2.25,0.17,4.25,0.5,6c0.49,2.57,1.15,4.67,2,6.3c0.84,1.63,1.78,2.85,2.81,3.65c1.03,0.8,1.99,1.21,2.89,1.22
		c0.04,0,0.08,0,0.12,0c1.67,0,3.38-0.71,5.14-2.13c1.8-1.46,3.56-3.39,5.28-5.79c0.62-0.86,1.22-1.76,1.81-2.71
		c0.23-0.84,0.47-1.74,0.72-2.7c0.58-2.16,1.2-4.51,1.88-7.04c0.28-1.05,0.55-2.08,0.82-3.09c-0.26,0.52-0.52,1.06-0.8,1.62
		c-1.22,2.43-2.54,4.78-3.96,7.03c-1.43,2.25-2.89,4.16-4.38,5.73c-1.48,1.56-2.91,2.34-4.27,2.34c-0.01,0-0.03,0-0.04,0
		c-0.65-0.01-1.28-0.18-1.91-0.52c-0.63-0.34-1.18-0.9-1.66-1.67c-0.48-0.78-0.88-1.79-1.2-3.04c-0.32-1.25-0.49-2.78-0.53-4.6l0,0
		l0,0c0.61-0.79,1.31-1.66,2.12-2.63c0.81-0.97,1.65-1.99,2.54-3.08c0.81-1.01,1.66-2.13,2.56-3.37c0.9-1.24,1.75-2.62,2.55-4.16
		c0.8-1.53,1.49-3.25,2.06-5.15c0.58-1.9,0.92-3.98,1.04-6.24c0.01-0.21,0.01-0.41,0.01-0.61c0-1.77-0.31-3.28-0.92-4.52
		C200.71,122.5,199.62,121.81,198.11,121.81"/>
	<path class="st1" d="M215.92,115.58c-0.02,0-0.04,0-0.06,0c-0.59,0.01-1.2,0.54-1.83,1.56c-0.62,1.03-1.19,2.26-1.7,3.68
		c-0.51,1.43-0.91,2.91-1.22,4.44c-0.24,1.2-0.36,2.22-0.36,3.05c0,0.23,0.01,0.45,0.03,0.66c0.09,1.09,0.21,1.79,0.37,2.12
		c0.16,0.32,0.46,0.84,0.91,1.55l0,0l0,0c-0.23,0.81-0.61,2.11-1.11,3.9c-0.51,1.8-1.07,3.83-1.68,6.1c-0.36,1.33-0.72,2.7-1.1,4.11
		c-0.27,1.01-0.54,2.04-0.82,3.09c-0.67,2.53-1.3,4.88-1.88,7.04c-0.26,0.96-0.5,1.86-0.72,2.7c-0.28,1.05-0.54,2-0.77,2.86
		c-0.42,1.54-0.69,2.53-0.81,2.97c-0.18,0.65-0.27,1.22-0.27,1.71c0,0.17,0.01,0.33,0.03,0.48c0.08,0.58,0.25,0.96,0.52,1.14
		c0.11,0.07,0.22,0.11,0.34,0.11c0.18,0,0.37-0.08,0.57-0.23c0.34-0.27,0.66-0.8,0.94-1.61c0.12-0.29,0.43-1.2,0.93-2.7
		c0.5-1.51,1.11-3.35,1.83-5.52c0.72-2.17,1.48-4.51,2.29-7.01c0.81-2.5,1.58-4.89,2.3-7.17c0.73-2.28,1.36-4.26,1.91-5.95
		c0.55-1.69,0.9-2.79,1.05-3.3c0.32,0.13,0.66,0.34,1.02,0.61c0.33,0.25,0.73,0.38,1.2,0.38c0.04,0,0.08,0,0.12,0
		c0.36-0.02,0.63-0.05,0.81-0.09c0.18-0.04,0.32-0.07,0.42-0.07c0.1,0,0.2-0.03,0.3-0.07c0.1-0.04,0.27-0.07,0.51-0.08
		c0.01,0,0.03,0,0.04,0c0.34,0,0.59,0.24,0.75,0.72c0.16,0.5,0.25,1.07,0.26,1.72c0,0.03,0,0.06,0,0.08c0,1-0.2,2.22-0.59,3.68
		c-0.4,1.5-0.94,3.32-1.6,5.45c-0.27,1.03-0.57,2.08-0.9,3.14c-0.33,1.07-0.64,2.14-0.94,3.2c-0.29,1.07-0.55,2.09-0.76,3.08
		c-0.21,0.99-0.34,1.92-0.37,2.79c0,0.15-0.01,0.31-0.01,0.46c0,0.96,0.08,1.97,0.25,3.05c0.19,1.25,0.5,2.4,0.94,3.41
		c0.43,1.02,1,1.86,1.69,2.53c0.61,0.58,1.36,0.88,2.24,0.88c0.12,0,0.25-0.01,0.38-0.02c1.01-0.09,2.07-0.73,3.17-1.92
		c1.1-1.19,2.19-2.68,3.28-4.48c1.09-1.79,2.12-3.77,3.09-5.9c0.97-2.13,1.85-4.19,2.64-6.19c-0.14-1.49-0.24-3.02-0.31-4.61
		c-0.03-0.59-0.05-1.16-0.07-1.73c-0.28,0.71-0.59,1.46-0.91,2.25c-0.7,1.67-1.45,3.38-2.27,5.13c-0.82,1.76-1.65,3.38-2.5,4.85
		c-0.85,1.48-1.68,2.71-2.49,3.68c-0.82,0.97-1.57,1.49-2.25,1.55c-0.01,0-0.02,0-0.03,0c-0.11,0.01-0.21,0.01-0.31,0.01
		c-0.73,0-1.19-0.25-1.37-0.74c-0.21-0.56-0.36-1.31-0.45-2.24c-0.01-0.21-0.02-0.43-0.02-0.65c0-1.27,0.23-2.7,0.7-4.27
		c0.54-1.84,1.09-3.5,1.63-4.98c0.9-2.37,1.65-4.54,2.27-6.52c0.5-1.61,0.75-3.15,0.75-4.63c0-0.34-0.01-0.68-0.04-1.01
		c-0.05-0.86-0.15-1.8-0.31-2.83c-0.15-1.03-0.37-1.98-0.66-2.86c-0.29-0.88-0.66-1.61-1.1-2.2c-0.42-0.55-0.95-0.83-1.58-0.83
		c-0.03,0-0.07,0-0.1,0c-0.56,0.03-0.96,0.12-1.22,0.27c-0.09,0.06-0.21,0.1-0.35,0.14c-0.25,0.07-0.59,0.12-1,0.13
		c-0.04,0-0.09,0-0.13,0c-0.37,0-0.65-0.08-0.83-0.23c-0.2-0.17-0.36-0.33-0.48-0.47l0,0l0,0c0.43-1.17,0.71-2.48,0.86-3.93
		c0.09-0.9,0.13-1.7,0.13-2.4c0-0.43-0.02-0.82-0.05-1.17c-0.09-1.37-0.37-2.7-0.84-3.98C217.76,116.21,216.99,115.58,215.92,115.58
		"/>
	<path class="st1" d="M252.95,121.01c-0.09,0-0.19,0-0.29,0.01c-0.51,0.05-1.08,0.46-1.72,1.23c-0.63,0.78-1.24,1.84-1.83,3.2
		c-0.58,1.36-1.09,3.01-1.53,4.94c-0.43,1.94-0.69,4.09-0.76,6.44c0,0.04,0,0.08,0,0.12c0,1.47,0.13,2.72,0.38,3.76l0,0l0,0
		c-0.63,2.22-1.31,4.39-2.05,6.5c-0.74,2.11-1.44,3.99-2.11,5.61c-0.67,1.63-1.26,2.96-1.79,3.98c-0.13,0.26-0.26,0.49-0.37,0.69
		c-0.33,0.57-0.56,0.86-0.71,0.89c-0.01,0-0.01,0-0.02,0c-0.16,0-0.38-0.32-0.66-0.96c-0.29-0.66-0.57-1.66-0.84-2.99
		c-0.26-1.33-0.47-3-0.63-4.98c-0.11-1.36-0.16-2.88-0.16-4.56c0-0.78,0.01-1.59,0.03-2.44c0.05-1.55,0.15-3.18,0.3-4.88
		c0.15-1.7,0.31-3.33,0.48-4.89c0.17-1.56,0.33-2.96,0.49-4.2c0.16-1.24,0.27-2.18,0.33-2.81c0.04-0.28,0.06-0.52,0.06-0.74
		c0-0.34-0.05-0.62-0.15-0.82c-0.17-0.34-0.4-0.55-0.7-0.63c-0.14-0.04-0.28-0.06-0.44-0.06c-0.17,0-0.36,0.03-0.55,0.08
		c-0.35,0.09-0.67,0.22-0.94,0.38c-0.63,0.32-1.15,0.71-1.56,1.16c-0.41,0.45-0.75,1.15-1.04,2.09c-0.28,0.94-0.51,2.25-0.68,3.92
		c-0.17,1.68-0.32,3.9-0.43,6.68c-0.02,0.91-0.04,1.86-0.04,2.84c0,2.02,0.05,4.21,0.16,6.56c0.15,3.5,0.47,6.76,0.94,9.79
		c0.47,3.03,1.12,5.53,1.94,7.5c0.74,1.79,1.67,2.68,2.77,2.68c0.11,0,0.22-0.01,0.33-0.03c0.52-0.08,1.2-0.81,2.04-2.17
		c0.84-1.36,1.75-3.12,2.73-5.26c0.98-2.14,1.99-4.54,3.04-7.19c1.04-2.65,2.05-5.35,3.03-8.1c0.4,0.15,0.78,0.23,1.14,0.24
		c0.09,0,0.18,0.01,0.27,0.01c0.24,0,0.45-0.01,0.63-0.04c2.74-0.43,5.1-1.75,7.09-3.88c0.41-0.44,0.81-0.91,1.2-1.4
		c0.04-0.55,0.08-1.11,0.12-1.67c0.08-1.02,0.17-2.02,0.27-3c-0.36,0.48-0.75,0.94-1.17,1.4c-0.79,0.86-1.72,1.64-2.8,2.34
		c-0.78,0.51-1.64,0.9-2.57,1.14c-0.34,0.09-0.7,0.16-1.06,0.22c-0.1,0.01-0.2,0.02-0.29,0.02c-0.2,0-0.38-0.03-0.55-0.1
		c-0.24-0.1-0.46-0.21-0.66-0.31l0,0l0,0c0.96-3.06,1.74-5.86,2.33-8.41c0.59-2.54,0.91-4.52,0.96-5.94
		c0.01-0.16,0.01-0.31,0.01-0.46c0-0.5-0.05-0.99-0.14-1.47c-0.05-0.27-0.12-0.54-0.21-0.81
		C254.37,121.41,253.81,121.01,252.95,121.01"/>
	<path class="st1" d="M268.8,94.82c-0.1,0-0.2,0.02-0.31,0.05c-0.43,0.14-0.92,0.59-1.49,1.34c-0.57,0.76-1.03,1.68-1.39,2.76
		c-0.3,0.91-0.45,1.85-0.45,2.84c0,0.19,0.01,0.39,0.02,0.58c0.07,1.2,0.53,2.29,1.38,3.27c0.2,0.26,0.43,0.39,0.7,0.39
		c0.12,0,0.24-0.02,0.37-0.07c0.43-0.16,0.84-0.46,1.24-0.9c0.4-0.44,0.76-1.01,1.07-1.7c0.31-0.69,0.52-1.38,0.62-2.09
		c0.07-0.44,0.1-0.93,0.1-1.47c0-0.23-0.01-0.48-0.02-0.73c-0.04-0.8-0.15-1.52-0.31-2.16c-0.01-0.02-0.01-0.04-0.02-0.07
		c-0.18-0.66-0.41-1.19-0.72-1.6C269.35,94.97,269.09,94.82,268.8,94.82"/>
	<path class="st1" d="M268.08,120.1c-0.15,0-0.37,0.03-0.68,0.09c-0.49,0.09-1.03,0.26-1.61,0.49c-0.58,0.23-1.15,0.51-1.69,0.84
		c-0.54,0.33-0.91,0.7-1.09,1.11c-0.59,1.39-1.1,3.46-1.52,6.23c-0.28,1.85-0.52,3.76-0.72,5.74c-0.1,0.99-0.19,1.99-0.27,3
		c-0.04,0.56-0.08,1.12-0.12,1.67c-0.17,2.48-0.27,4.91-0.3,7.29c-0.01,0.62-0.01,1.22-0.01,1.79c0,2.07,0.06,3.74,0.19,5.02
		c0.07,1.12,0.29,2.15,0.68,3.1c0.38,0.95,0.85,1.73,1.41,2.36c0.55,0.63,1.16,1.07,1.83,1.33c0.34,0.13,0.69,0.2,1.03,0.2
		c0.32,0,0.65-0.06,0.97-0.17c0.83-0.28,1.88-1.42,3.16-3.37c1.27-1.95,2.57-4.24,3.87-6.84c0.64-1.27,1.26-2.56,1.86-3.85
		c-0.17-1.32-0.27-2.65-0.31-3.99c-0.01-0.21-0.01-0.43-0.01-0.66c0-0.4,0.01-0.82,0.03-1.25c-0.82,1.74-1.69,3.48-2.62,5.23
		c-1.18,2.23-2.35,4.2-3.51,5.9c-0.97,1.43-1.81,2.33-2.52,2.7c-0.14,0.07-0.27,0.12-0.4,0.15c-0.06,0.01-0.12,0.02-0.18,0.02
		c-0.21,0-0.41-0.09-0.6-0.28c-0.25-0.24-0.48-0.73-0.7-1.47c-0.18-0.5-0.27-1.22-0.27-2.16c0-0.21,0-0.42,0.01-0.65
		c0.04-1.26,0.16-2.61,0.34-4.06c0.18-1.45,0.39-2.93,0.62-4.45c0.24-1.52,0.44-2.88,0.6-4.08c0.17-1.21,0.42-2.77,0.76-4.68
		c0.34-1.91,0.67-3.76,0.97-5.55c0.3-1.79,0.56-3.34,0.76-4.66c0.17-1.09,0.25-1.75,0.25-1.98c0-0.05,0-0.07-0.01-0.08
		C268.22,120.11,268.17,120.1,268.08,120.1"/>
	<path class="st1" d="M287.6,115.04c-0.16,0-0.33,0.01-0.5,0.04c-2.22,0.32-4.12,1.49-5.7,3.59c-1.58,2.09-2.87,4.54-3.87,7.36
		c-1,2.81-1.73,5.72-2.19,8.71c-0.32,2.08-0.52,3.92-0.59,5.5c-0.02,0.44-0.03,0.86-0.03,1.25c0,0.23,0,0.44,0.01,0.66
		c0.06,1.94,0.25,3.87,0.58,5.77c0.33,1.9,0.86,3.57,1.6,4.98c0.73,1.42,1.69,2.45,2.87,3.1c0.61,0.34,1.3,0.5,2.06,0.5
		c0.7,0,1.46-0.14,2.28-0.43c1.24-0.43,2.49-1.31,3.74-2.62c1.25-1.31,2.45-2.83,3.61-4.55c1.16-1.72,2.26-3.55,3.31-5.48
		c0.73-1.35,1.41-2.66,2.04-3.92c-0.08-0.8-0.12-1.66-0.12-2.59c0-0.45,0.01-0.91,0.03-1.39c0.02-0.42,0.04-0.85,0.08-1.29
		c-0.98,2.01-2.06,4.04-3.23,6.1c-1.31,2.31-2.67,4.43-4.07,6.33c-1.41,1.91-2.71,3.08-3.91,3.47c-0.48,0.16-0.97,0.24-1.48,0.24
		c-0.19,0-0.38-0.01-0.58-0.03c-0.71-0.08-1.37-0.4-1.97-0.95c-0.61-0.56-1.12-1.42-1.55-2.6c-0.43-1.18-0.65-2.79-0.68-4.83
		c-0.01-0.33-0.01-0.66-0.01-0.98c0-3.12,0.3-5.96,0.9-8.48c0.66-2.78,1.44-5.12,2.35-7.01c0.9-1.9,1.8-3.34,2.69-4.36
		c0.89-1.02,1.51-1.55,1.86-1.61c0.06-0.01,0.12-0.02,0.18-0.02c0.26,0,0.45,0.11,0.59,0.33c0.16,0.27,0.25,0.6,0.27,1.01
		c0,0.04,0,0.08,0,0.11c0,0.37-0.06,0.72-0.17,1.06c-0.13,0.38-0.3,0.67-0.53,0.9c-0.02,0.01-0.03,0.03-0.05,0.04
		c-0.29,0.28-0.54,0.52-0.75,0.73c-0.23,0.22-0.43,0.56-0.61,1.01c-0.01,0.04-0.02,0.09-0.03,0.14c-0.05,0.28-0.1,0.71-0.13,1.32
		c-0.01,0.23-0.02,0.45-0.02,0.68c0,0.5,0.03,1,0.08,1.5c0.08,0.73,0.25,1.35,0.53,1.85c0.22,0.41,0.51,0.61,0.89,0.61
		c0.09,0,0.18-0.01,0.28-0.03c0.62-0.14,1.19-0.51,1.69-1.1c0.51-0.59,0.95-1.32,1.31-2.18c0.36-0.87,0.65-1.83,0.85-2.88
		c0.18-0.91,0.26-1.82,0.26-2.71c0-0.14,0-0.27-0.01-0.41c-0.02-1.71-0.32-3.09-0.88-4.15c-0.16-0.29-0.33-0.56-0.53-0.8
		C289.55,115.53,288.64,115.04,287.6,115.04"/>
	<path class="st1" d="M301.79,131.9c0.2-2.34,0.55-4.46,1.03-6.34c0.49-1.88,1.02-3.48,1.6-4.81c0.58-1.33,1.18-2.38,1.8-3.14
		c0.62-0.76,1.16-1.19,1.62-1.29c0.08-0.02,0.16-0.03,0.23-0.03c0.31,0,0.57,0.15,0.76,0.46c0.2,0.31,0.3,0.83,0.3,1.55
		c0,0.15,0,0.32-0.01,0.49c-0.05,0.93-0.39,2.12-1,3.57c-0.62,1.46-1.72,3.27-3.32,5.49c-0.52,0.74-1.04,1.44-1.56,2.11
		C302.72,130.62,302.24,131.27,301.79,131.9L301.79,131.9L301.79,131.9 M310.36,111.53c-0.32,0-0.66,0.03-1.02,0.1
		c-1.54,0.29-3.05,1.2-4.54,2.81c-1.49,1.61-2.8,3.56-3.96,5.89c-1.15,2.32-2.11,4.85-2.86,7.58c-0.62,2.23-1.01,4.35-1.18,6.32
		c-0.04,0.44-0.06,0.87-0.08,1.29c-0.02,0.48-0.03,0.94-0.03,1.39c0,2.22,0.22,4.09,0.67,5.56c0.54,1.78,1.23,3.12,2.06,4.01
		c0.84,0.89,1.75,1.41,2.74,1.57c0.28,0.04,0.56,0.07,0.84,0.07c0.67,0,1.3-0.13,1.89-0.4c1.59-0.7,3.21-1.97,4.86-3.75
		c1.65-1.78,3.25-3.83,4.8-6.12c1.56-2.29,3.02-4.71,4.41-7.23c1.06-1.94,2.04-3.83,2.93-5.69c-0.32,0.63-0.55,1.08-0.69,1.35
		c-0.29,0.53-0.58,0.88-0.86,1.06c-0.16,0.1-0.3,0.15-0.43,0.15c-0.1,0-0.19-0.03-0.27-0.09c-0.19-0.14-0.3-0.4-0.33-0.79
		c0-0.03,0-0.07,0-0.1c0-0.38,0.13-0.87,0.4-1.48c0.04-0.09,0.09-0.18,0.14-0.29c-0.41,0.72-0.84,1.5-1.32,2.34
		c-1.12,1.97-2.32,3.97-3.62,5.99c-1.3,2.02-2.63,3.87-4,5.54c-1.37,1.67-2.69,2.79-3.98,3.33c-0.61,0.25-1.21,0.38-1.8,0.38
		c0,0,0,0,0,0c-0.59,0-1.13-0.19-1.6-0.57c-0.47-0.38-0.88-0.97-1.21-1.78c-0.33-0.8-0.54-1.87-0.61-3.21l0,0l0,0
		c0.56-0.79,1.21-1.67,1.95-2.64c0.74-0.97,1.52-1.99,2.34-3.04c0.74-0.98,1.53-2.04,2.36-3.18c0.83-1.14,1.62-2.35,2.35-3.63
		c0.73-1.28,1.36-2.64,1.88-4.07c0.52-1.43,0.82-2.92,0.9-4.46c0-0.08,0-0.16,0-0.24c0-0.69-0.09-1.31-0.28-1.84
		c-0.16-0.45-0.38-0.84-0.67-1.19C312.04,111.83,311.31,111.53,310.36,111.53"/>
	<path class="st1" d="M329.82,105.33c-0.45,0-0.94,0.16-1.46,0.48c-0.76,0.47-1.5,1.1-2.21,1.9c-0.71,0.8-1.33,1.67-1.85,2.61
		c-0.52,0.94-0.85,1.75-0.99,2.41c-0.07,0.3-0.1,0.58-0.1,0.85c0,0.43,0.09,0.81,0.27,1.12c0.24,0.4,0.35,0.76,0.35,1.08
		c0,0.08-0.01,0.15-0.02,0.23c-0.04,0.14-0.24,0.59-0.6,1.35c-0.37,0.76-0.77,1.63-1.21,2.62c-0.44,0.98-0.87,1.96-1.31,2.91
		c-0.35,0.77-0.63,1.38-0.84,1.83c-0.05,0.11-0.1,0.2-0.14,0.29c-0.27,0.61-0.4,1.1-0.4,1.48c0,0.04,0,0.07,0,0.1
		c0.03,0.39,0.14,0.65,0.33,0.79c0.08,0.06,0.17,0.09,0.27,0.09c0.13,0,0.27-0.05,0.43-0.15c0.28-0.18,0.56-0.53,0.86-1.06
		c0.14-0.27,0.37-0.72,0.69-1.35c0.09-0.18,0.19-0.37,0.29-0.57c0.47-0.93,0.98-1.92,1.51-2.98c0.53-1.06,1.02-2.05,1.48-3
		c0.46-0.94,0.78-1.61,0.96-2.01c0.08,0.15,0.18,0.43,0.32,0.84c0.14,0.41,0.28,0.83,0.44,1.25c0.16,0.51,0.35,1.04,0.58,1.6
		c0.27,0.76,0.6,1.57,0.98,2.43c0.38,0.86,0.73,1.71,1.06,2.55c0.32,0.84,0.56,1.64,0.71,2.42c0.08,0.4,0.12,0.77,0.12,1.1
		c0,0.31-0.03,0.6-0.1,0.85c-0.14,0.53-0.37,1.02-0.68,1.47c-0.31,0.45-0.64,0.86-0.98,1.21c-0.35,0.35-0.69,0.62-1.04,0.8
		c-0.07,0.04-0.14,0.07-0.21,0.1c-0.18,0.07-0.33,0.11-0.47,0.11c-0.06,0-0.12-0.01-0.18-0.02c-0.19-0.08-0.39-0.3-0.62-0.67
		c-0.19-0.33-0.43-0.8-0.73-1.41c-0.01-0.01-0.01-0.02-0.02-0.03c-0.31-0.62-0.66-1.54-1.05-2.75c-0.44,0.37-0.83,0.69-1.16,0.97
		c-0.25,0.21-0.46,0.41-0.63,0.58c-0.05,0.06-0.1,0.11-0.15,0.16c-0.22,0.28-0.4,0.52-0.55,0.72c-0.37,0.57-0.64,1.06-0.82,1.46
		c-0.18,0.39-0.37,0.9-0.57,1.53c-0.01,0.02-0.01,0.03-0.02,0.05c-0.07,0.2-0.11,0.42-0.11,0.65c0,0.34,0.08,0.71,0.23,1.1
		c0.26,0.67,0.64,1.28,1.16,1.83c0.51,0.54,1.13,0.92,1.86,1.11c0.22,0.06,0.45,0.09,0.67,0.09c0.51,0,1.04-0.15,1.57-0.45
		c1.1-0.62,2.14-1.56,3.14-2.8c1-1.24,1.88-2.53,2.66-3.88c0.78-1.34,1.43-2.62,1.96-3.85c0.53-1.22,0.85-2.18,0.96-2.9
		c0.02-0.13,0.03-0.27,0.03-0.41c0-0.35-0.07-0.71-0.2-1.09c-0.18-0.54-0.42-1.11-0.72-1.71c-0.3-0.6-0.63-1.21-1-1.82
		c-0.37-0.61-0.73-1.23-1.07-1.83c-0.26-0.47-0.51-1.02-0.74-1.64c-0.19-0.51-0.39-1.12-0.6-1.84c-0.21-0.72-0.38-1.54-0.5-2.47l0,0
		l0,0c0.56-0.9,0.99-1.62,1.29-2.17c0.3-0.55,0.52-1,0.67-1.36c0.15-0.36,0.26-0.65,0.34-0.87c0.01-0.08,0.02-0.16,0.02-0.24
		c0-0.32-0.12-0.61-0.37-0.87c-0.31-0.32-0.71-0.59-1.2-0.82C330.22,105.37,330.02,105.33,329.82,105.33"/>
	<path class="st2" d="M88.32,129.68c-0.59,1.71-1.25,3.32-1.98,4.81c-0.73,1.5-1.53,2.75-2.39,3.76c-0.87,1.01-1.78,1.69-2.73,2.05
		c-0.96,0.35-1.97,0.25-3.05-0.28c-1.75-0.87-3.05-2.29-3.91-4.19c-0.86-1.9-1.44-3.96-1.74-6.2c-0.54,0.72-1.11,1.42-1.72,2.07
		c-0.61,0.65-1.25,1.16-1.92,1.51c-0.67,0.36-1.36,0.55-2.06,0.6c-0.7,0.04-1.39-0.14-2.08-0.53c-0.95-0.54-1.74-1.24-2.39-2.06
		c-0.65-0.82-1.18-1.74-1.6-2.75c-0.42-1.01-0.71-2.06-0.9-3.15c-0.18-1.1-0.27-2.2-0.27-3.34c0-0.23,0-0.47,0-0.7
		c0-1.44,0.11-2.88,0.33-4.32c0.22-1.44,0.48-2.77,0.76-3.98c0.28-1.21,0.58-2.26,0.88-3.16c0.3-0.89,0.53-1.49,0.69-1.77
		c0.27-0.33,0.84-0.58,1.73-0.75c0.89-0.17,1.77-0.12,2.65,0.17c0.42,0.14,0.63,0.39,0.65,0.73c0.01,0.35-0.04,0.77-0.16,1.25
		c-0.16,0.69-0.44,1.71-0.83,3.04c-0.39,1.33-0.79,2.77-1.2,4.3c-0.41,1.53-0.76,3.04-1.07,4.53c-0.31,1.49-0.46,2.75-0.47,3.82
		c-0.01,1.32,0.17,2.35,0.53,3.12c0.36,0.77,0.93,1.36,1.7,1.76c0.92,0.47,1.94,0.41,3.08-0.28c1.14-0.68,2.28-2.29,3.42-4.9
		c-0.03-0.29-0.05-0.57-0.04-0.84s0.01-0.57,0.02-0.88c0.04-2.04,0.14-3.96,0.3-5.79c0.16-1.82,0.46-3.38,0.88-4.7
		c0.43-1.31,1-2.31,1.72-2.99c0.72-0.68,1.66-0.91,2.81-0.68c0.46,0.09,0.84,0.34,1.14,0.74c0.3,0.4,0.44,0.92,0.43,1.55
		c-0.04,1.55-0.52,3.66-1.44,6.22c-0.92,2.56-2,5.29-3.22,8.1c-0.12,0.14-0.2,0.3-0.24,0.47c0.1,0.93,0.22,1.91,0.37,2.96
		c0.15,1.05,0.36,2.05,0.65,3c0.28,0.95,0.62,1.8,1.02,2.53c0.4,0.73,0.88,1.23,1.44,1.49c0.82,0.38,1.59,0.21,2.31-0.52
		c0.72-0.73,1.37-1.74,1.96-3.02c0.58-1.28,1.11-2.7,1.57-4.25c0.46-1.55,0.82-2.96,1.09-4.21c-0.1-0.59-0.18-1.17-0.24-1.72
		c-0.06-0.56-0.08-1.19-0.07-1.9c0.04-1.57,0.25-2.87,0.62-3.91c0.37-1.04,0.85-1.87,1.43-2.5c0.58-0.63,1.19-1.06,1.83-1.3
		c0.65-0.24,1.24-0.31,1.78-0.21c0.96,0.18,1.43,0.86,1.4,2.04c-0.02,0.85-0.22,2.31-0.59,4.34c-0.37,2.03-0.88,4.3-1.53,6.77
		c0.68,0.62,1.55,1.09,2.62,1.4c1,0.29,1.92,0.37,2.78,0.25c0.86-0.13,1.64-0.38,2.35-0.75c0.71-0.38,1.37-0.83,1.97-1.37
		c0.6-0.54,1.18-1.06,1.74-1.56c0.44-0.36,0.79-0.31,1.05,0.15c0.26,0.46,0.2,1.08-0.17,1.86c-0.33,0.67-0.89,1.4-1.67,2.18
		c-0.78,0.77-1.72,1.45-2.8,2.02c-1.09,0.57-2.28,0.94-3.58,1.12c-1.3,0.18-2.66,0.03-4.07-0.43c-0.23-0.08-0.48-0.18-0.74-0.32
		C88.85,130.04,88.59,129.88,88.32,129.68z"/>
	<path class="st2" d="M122.93,135.66c-1.26,2.56-2.67,4.97-4.23,7.19c-1.56,2.23-3.21,4.09-4.92,5.58c-1.72,1.5-3.46,2.54-5.22,3.14
		c-1.76,0.6-3.45,0.58-5.07-0.03c-0.85-0.32-1.75-0.97-2.72-1.94c-0.96-0.97-1.83-2.24-2.6-3.78c-0.77-1.54-1.36-3.36-1.78-5.47
		c-0.42-2.11-0.49-4.5-0.22-7.2c0.22-2.22,0.78-4.47,1.69-6.79c0.91-2.33,2-4.44,3.29-6.36c1.29-1.92,2.72-3.48,4.3-4.69
		c1.58-1.21,3.15-1.73,4.71-1.51c1.48,0.21,2.54,0.93,3.16,2.18c0.63,1.25,0.88,2.73,0.75,4.43c-0.17,1.87-0.57,3.55-1.18,5.02
		c-0.61,1.47-1.33,2.75-2.15,3.85c-0.82,1.09-1.68,2.04-2.58,2.83c-0.9,0.8-1.76,1.5-2.56,2.11c-0.88,0.65-1.72,1.25-2.51,1.81
		c-0.8,0.56-1.49,1.05-2.09,1.5c-0.01,1.44,0.13,2.69,0.41,3.76c0.28,1.08,0.64,1.99,1.08,2.75c0.44,0.76,0.96,1.38,1.55,1.84
		c0.59,0.46,1.2,0.8,1.81,1.01c1.32,0.44,2.71,0.26,4.19-0.59c1.48-0.85,2.94-2.02,4.38-3.52c1.44-1.5,2.79-3.15,4.04-4.94
		c1.25-1.79,2.3-3.38,3.12-4.74c0.29-0.45,0.58-0.7,0.88-0.74c0.3-0.04,0.53,0.07,0.7,0.32c0.17,0.26,0.25,0.66,0.23,1.2
		C123.38,134.42,123.22,135.02,122.93,135.66z M108.35,118.63c-0.47-0.08-1.03,0.18-1.69,0.77c-0.66,0.59-1.33,1.48-1.99,2.66
		c-0.66,1.18-1.29,2.65-1.89,4.39c-0.6,1.74-1.07,3.77-1.41,6.09c0.48-0.39,1-0.78,1.56-1.19c0.56-0.41,1.12-0.86,1.68-1.37
		c1.72-1.51,2.94-2.97,3.65-4.31c0.71-1.34,1.11-2.56,1.23-3.62c0.11-1.12,0.06-1.95-0.16-2.5
		C109.1,119.01,108.78,118.7,108.35,118.63z"/>
	<path class="st2" d="M133.14,101.35c-0.69,3.92-1.45,7.63-2.27,11.13c-0.82,3.5-1.66,6.73-2.51,9.71
		c-0.85,2.98-1.69,5.65-2.53,8.03c-0.84,2.38-1.57,4.42-2.22,6.15c-0.52,4.51-0.63,8.19-0.32,11.1c0.31,2.9,1.04,4.51,2.18,4.8
		c0.95,0.24,1.89-0.24,2.84-1.46c0.95-1.22,1.8-2.8,2.57-4.75c0.77-1.95,1.43-4.09,1.98-6.41c0.56-2.32,0.92-4.44,1.09-6.34
		c-0.74-0.45-1.36-1.12-1.85-2.03c-0.49-0.9-0.72-2.04-0.68-3.42c0.02-0.92,0.2-1.76,0.54-2.54c0.34-0.78,0.73-1.44,1.18-1.98
		c0.45-0.54,0.93-0.94,1.45-1.22c0.52-0.27,1-0.38,1.43-0.33c0.67,0.08,1.22,0.86,1.66,2.35c0.44,1.5,0.71,3.36,0.81,5.6
		c1.58,0.14,3.25-0.05,5.01-0.6c1.76-0.55,3.42-1.33,4.99-2.35c0.44-0.3,0.8-0.37,1.08-0.21c0.27,0.17,0.46,0.46,0.55,0.88
		c0.09,0.42,0.07,0.89-0.06,1.4c-0.13,0.51-0.38,0.88-0.74,1.12c-0.93,0.8-1.89,1.51-2.88,2.12c-0.99,0.61-1.96,1.09-2.92,1.45
		c-0.96,0.36-1.88,0.61-2.76,0.76c-0.88,0.15-1.67,0.17-2.38,0.07c-0.22,2.66-0.79,5.49-1.7,8.45c-0.91,2.96-1.99,5.63-3.25,7.99
		c-1.26,2.36-2.63,4.21-4.12,5.55c-1.49,1.34-2.92,1.8-4.3,1.42c-0.43-0.12-1-0.38-1.71-0.77c-0.7-0.39-1.37-1.26-2.01-2.59
		c-0.64-1.33-1.15-3.3-1.55-5.91c-0.4-2.61-0.49-6.18-0.28-10.74c0.13-3.06,0.44-6.28,0.93-9.66c0.49-3.39,1.06-6.78,1.71-10.19
		c0.65-3.41,1.36-6.72,2.14-9.94c0.78-3.22,1.52-6.16,2.22-8.79c0.7-2.63,1.34-4.86,1.92-6.66c0.58-1.8,1.01-2.96,1.3-3.48
		c0.37-0.71,0.8-1.25,1.27-1.6c0.48-0.36,0.94-0.62,1.4-0.78c0.45-0.16,0.87-0.21,1.26-0.15c0.39,0.07,0.66,0.17,0.81,0.3
		c0.23,0.26,0.26,1.72,0.09,4.36C134.39,93.84,133.92,97.24,133.14,101.35z"/>
	<path class="st2" d="M169.19,160.66c0.24,0.31,0.55,0.48,0.93,0.52c0.38,0.04,0.77-0.07,1.15-0.33c0.39-0.25,0.75-0.62,1.1-1.09
		c0.35-0.47,0.61-1.1,0.78-1.88c0.17-0.78,0.18-1.92,0.04-3.4c-0.15-1.49-0.38-3.09-0.7-4.81c-0.32-1.71-0.68-3.45-1.06-5.2
		c-0.38-1.75-0.7-3.35-0.97-4.81c-0.23-1.09-0.42-2.11-0.56-3.05c-0.15-0.8-0.29-1.58-0.42-2.34c-0.13-0.76-0.23-1.29-0.31-1.58
		c-0.21,0.56-0.57,1.47-1.08,2.73c-0.52,1.25-1.07,2.56-1.67,3.91c-0.6,1.35-1.17,2.59-1.7,3.72c-0.54,1.13-0.91,1.9-1.11,2.31
		c-0.33,0.61-0.65,0.95-0.95,1.03c-0.3,0.08-0.55-0.05-0.75-0.39s-0.3-0.81-0.31-1.42c-0.01-0.6,0.15-1.32,0.48-2.14
		c0.25-0.55,0.62-1.42,1.12-2.62c0.5-1.2,0.99-2.44,1.49-3.73c0.5-1.28,0.95-2.43,1.36-3.44c0.41-1.01,0.64-1.62,0.68-1.83
		c0.09-0.57-0.01-1.32-0.3-2.27c-0.29-0.95-0.32-2.02-0.11-3.22c0.17-0.99,0.54-2.13,1.12-3.43c0.57-1.29,1.24-2.46,2.01-3.51
		c0.77-1.04,1.55-1.82,2.34-2.33c0.8-0.51,1.51-0.47,2.14,0.13c0.51,0.59,0.92,1.24,1.23,1.93c0.31,0.7,0.42,1.41,0.34,2.12
		c-0.08,0.36-0.21,0.82-0.37,1.4c-0.16,0.57-0.41,1.27-0.74,2.08c-0.33,0.82-0.79,1.86-1.4,3.13c0.1,1.66,0.25,3.18,0.46,4.56
		c0.2,1.38,0.4,2.58,0.59,3.6c0.23,1.24,0.48,2.37,0.75,3.39c0.35,1.32,0.71,2.68,1.1,4.07c0.39,1.39,0.74,2.77,1.05,4.12
		c0.31,1.36,0.56,2.62,0.75,3.79c0.19,1.17,0.24,2.15,0.16,2.94c-0.13,1.22-0.5,2.69-1.1,4.38c-0.6,1.7-1.34,3.33-2.23,4.88
		c-0.89,1.56-1.89,2.86-3.01,3.91c-1.13,1.05-2.3,1.5-3.51,1.37c-0.85-0.09-1.66-0.65-2.44-1.67c-0.77-1.02-1.42-2.19-1.95-3.49
		c-0.53-1.31-0.91-2.58-1.15-3.82c-0.24-1.24-0.26-2.16-0.05-2.78c0.25-0.83,0.48-1.48,0.69-1.95c0.21-0.47,0.52-1.01,0.93-1.61
		c0.16-0.2,0.37-0.43,0.61-0.69c0.2-0.19,0.49-0.38,0.85-0.56c0.36-0.18,0.79-0.39,1.27-0.63c0.37,2.25,0.71,4.02,1.02,5.3
		c0.31,1.28,0.55,2.29,0.75,3.03C168.78,159.8,168.99,160.36,169.19,160.66z"/>
	<path class="st2" d="M209.83,142.64c-1.18,3.24-2.53,6.4-4.05,9.46c-1.52,3.07-3.13,5.81-4.85,8.2c-1.71,2.4-3.48,4.33-5.28,5.79
		c-1.81,1.46-3.56,2.16-5.27,2.13c-0.89-0.02-1.86-0.43-2.89-1.22c-1.03-0.8-1.97-2.02-2.81-3.65c-0.84-1.63-1.51-3.73-2-6.3
		c-0.49-2.57-0.62-5.66-0.39-9.28c0.18-2.97,0.71-6.09,1.59-9.37c0.88-3.28,1.95-6.29,3.22-9.04c1.27-2.74,2.69-5.02,4.26-6.83
		c1.57-1.81,3.15-2.72,4.74-2.72c1.51,0,2.6,0.69,3.28,2.07c0.68,1.38,0.98,3.09,0.9,5.13c-0.11,2.26-0.46,4.34-1.04,6.24
		c-0.58,1.9-1.26,3.62-2.06,5.15c-0.8,1.53-1.65,2.92-2.55,4.16c-0.9,1.24-1.76,2.36-2.56,3.37c-0.89,1.08-1.73,2.11-2.54,3.08
		c-0.81,0.97-1.52,1.84-2.12,2.63c0.03,1.82,0.21,3.36,0.53,4.6c0.32,1.25,0.72,2.26,1.2,3.04c0.48,0.78,1.04,1.33,1.66,1.67
		c0.63,0.34,1.26,0.51,1.91,0.52c1.37,0.02,2.81-0.76,4.31-2.33c1.49-1.57,2.96-3.48,4.38-5.73c1.42-2.25,2.74-4.59,3.96-7.03
		c1.21-2.43,2.21-4.54,3.01-6.31c0.28-0.59,0.57-0.94,0.87-1.06c0.3-0.12,0.54-0.05,0.72,0.19c0.18,0.25,0.27,0.68,0.28,1.3
		C210.24,141.12,210.1,141.83,209.83,142.64z M194.44,126.04c-0.48,0-1.05,0.43-1.7,1.3c-0.66,0.87-1.31,2.12-1.95,3.76
		c-0.64,1.63-1.25,3.63-1.82,5.99c-0.57,2.36-1,5.06-1.29,8.11c0.48-0.64,1.01-1.3,1.57-1.99c0.56-0.68,1.13-1.42,1.69-2.21
		c1.73-2.38,2.93-4.49,3.61-6.32c0.68-1.82,1.06-3.39,1.14-4.7c0.08-1.38,0-2.39-0.24-3.01
		C195.21,126.35,194.88,126.04,194.44,126.04z"/>
	<path class="st2" d="M203.29,165.01c-0.28,0.81-0.59,1.34-0.94,1.61c-0.34,0.26-0.65,0.3-0.91,0.13c-0.26-0.18-0.44-0.56-0.52-1.14
		c-0.08-0.58,0-1.31,0.24-2.19c0.12-0.44,0.39-1.43,0.81-2.97c0.42-1.54,0.92-3.39,1.5-5.55c0.58-2.16,1.2-4.51,1.88-7.04
		c0.67-2.53,1.31-4.93,1.92-7.2c0.61-2.27,1.17-4.3,1.68-6.1c0.51-1.79,0.88-3.09,1.11-3.9c-0.44-0.71-0.75-1.23-0.91-1.55
		c-0.16-0.32-0.29-1.03-0.37-2.12c-0.09-0.94,0.03-2.18,0.34-3.71c0.31-1.53,0.72-3.01,1.22-4.44c0.5-1.43,1.07-2.65,1.7-3.68
		c0.63-1.03,1.23-1.55,1.83-1.56c1.11-0.03,1.89,0.6,2.36,1.89c0.47,1.29,0.75,2.61,0.84,3.98c0.09,0.94,0.06,2.13-0.08,3.58
		c-0.14,1.45-0.43,2.76-0.86,3.93c0.12,0.14,0.28,0.3,0.48,0.47c0.2,0.17,0.52,0.25,0.96,0.23c0.64-0.03,1.08-0.12,1.34-0.28
		c0.26-0.16,0.66-0.25,1.22-0.27c0.68-0.03,1.23,0.25,1.68,0.83c0.45,0.59,0.81,1.32,1.1,2.2c0.29,0.88,0.51,1.84,0.66,2.86
		c0.15,1.03,0.25,1.97,0.31,2.83c0.14,1.78-0.09,3.66-0.71,5.64c-0.62,1.98-1.37,4.16-2.27,6.52c-0.55,1.48-1.09,3.14-1.63,4.98
		c-0.54,1.84-0.77,3.48-0.67,4.92c0.09,0.93,0.24,1.68,0.45,2.24c0.21,0.56,0.78,0.8,1.7,0.72c0.69-0.06,1.44-0.58,2.25-1.55
		c0.81-0.97,1.64-2.2,2.49-3.68c0.85-1.48,1.68-3.1,2.5-4.85c0.82-1.75,1.57-3.47,2.27-5.13c0.7-1.67,1.28-3.16,1.76-4.48
		c0.48-1.32,0.83-2.27,1.06-2.86c0.19-0.58,0.44-1,0.76-1.24s0.59-0.27,0.84-0.08c0.24,0.19,0.4,0.59,0.47,1.22
		c0.07,0.63-0.06,1.48-0.4,2.58c-0.23,0.73-0.62,1.9-1.17,3.51c-0.55,1.61-1.23,3.42-2.01,5.42c-0.79,2-1.67,4.07-2.65,6.21
		c-0.97,2.14-2,4.11-3.09,5.9c-1.09,1.8-2.18,3.29-3.28,4.48c-1.1,1.19-2.16,1.83-3.17,1.92c-1.05,0.09-1.93-0.2-2.62-0.86
		c-0.7-0.67-1.26-1.52-1.69-2.53c-0.43-1.02-0.75-2.16-0.94-3.41c-0.19-1.25-0.27-2.43-0.24-3.52c0.03-0.87,0.16-1.8,0.37-2.79
		c0.21-0.99,0.47-2.02,0.76-3.08c0.29-1.06,0.6-2.13,0.94-3.2c0.33-1.07,0.63-2.11,0.9-3.14c0.66-2.13,1.19-3.95,1.6-5.45
		c0.41-1.5,0.6-2.75,0.59-3.76c-0.01-0.65-0.09-1.22-0.26-1.72c-0.17-0.49-0.43-0.74-0.79-0.72c-0.24,0.01-0.41,0.04-0.51,0.08
		c-0.1,0.04-0.2,0.06-0.3,0.07c-0.1,0-0.24,0.03-0.42,0.07c-0.18,0.05-0.45,0.08-0.81,0.09c-0.52,0.02-0.96-0.1-1.32-0.38
		c-0.36-0.27-0.7-0.48-1.02-0.61c-0.16,0.51-0.51,1.61-1.05,3.3c-0.55,1.69-1.18,3.67-1.91,5.95c-0.73,2.28-1.5,4.67-2.3,7.17
		c-0.81,2.5-1.58,4.84-2.29,7.01c-0.72,2.17-1.32,4.01-1.83,5.52C203.72,163.81,203.41,164.71,203.29,165.01z"/>
	<path class="st2" d="M248.04,142.34c-0.97,2.75-1.98,5.45-3.03,8.1c-1.04,2.65-2.06,5.05-3.04,7.19c-0.98,2.14-1.89,3.9-2.73,5.26
		c-0.84,1.36-1.52,2.09-2.04,2.17c-1.25,0.2-2.28-0.69-3.1-2.66c-0.82-1.97-1.46-4.47-1.94-7.5c-0.47-3.03-0.78-6.29-0.94-9.79
		c-0.16-3.5-0.2-6.63-0.12-9.4c0.12-2.78,0.26-5,0.43-6.68c0.17-1.68,0.4-2.99,0.68-3.92c0.28-0.94,0.63-1.63,1.04-2.09
		c0.41-0.45,0.93-0.84,1.56-1.16c0.27-0.16,0.59-0.29,0.94-0.38c0.36-0.09,0.68-0.1,0.98-0.02c0.3,0.08,0.53,0.29,0.7,0.63
		c0.16,0.34,0.19,0.86,0.09,1.57c-0.07,0.64-0.18,1.57-0.33,2.81c-0.16,1.24-0.32,2.64-0.49,4.2c-0.17,1.56-0.33,3.19-0.48,4.89
		c-0.15,1.7-0.25,3.33-0.3,4.88c-0.07,2.68-0.03,5.02,0.13,7c0.16,1.99,0.37,3.65,0.63,4.98c0.27,1.34,0.54,2.33,0.84,2.99
		c0.29,0.66,0.52,0.98,0.68,0.96c0.2-0.03,0.56-0.55,1.08-1.58s1.12-2.35,1.79-3.98c0.67-1.63,1.37-3.5,2.11-5.61
		c0.74-2.11,1.42-4.28,2.05-6.5c-0.26-1.07-0.39-2.36-0.38-3.88c0.07-2.35,0.32-4.5,0.76-6.44c0.43-1.94,0.94-3.59,1.53-4.94
		c0.58-1.36,1.19-2.42,1.83-3.2c0.63-0.77,1.21-1.18,1.72-1.23c1.02-0.1,1.67,0.3,1.95,1.18c0.28,0.88,0.39,1.8,0.33,2.75
		c-0.05,1.42-0.36,3.39-0.96,5.94c-0.59,2.54-1.37,5.34-2.33,8.41c0.2,0.11,0.42,0.21,0.66,0.31c0.24,0.1,0.52,0.13,0.84,0.08
		c1.35-0.2,2.56-0.65,3.63-1.36c1.07-0.7,2.01-1.48,2.8-2.34c0.79-0.86,1.46-1.74,2.01-2.65c0.55-0.91,1-1.65,1.33-2.23
		c0.23-0.43,0.46-0.66,0.69-0.7c0.24-0.04,0.44,0.03,0.6,0.21s0.25,0.45,0.26,0.84c0.01,0.39-0.1,0.83-0.32,1.33
		c-1.34,3.1-3,5.73-4.99,7.86c-1.99,2.14-4.35,3.46-7.09,3.88c-0.24,0.04-0.54,0.05-0.9,0.04
		C248.83,142.57,248.45,142.49,248.04,142.34z"/>
	<path class="st2" d="M261,120.62c0.19-0.42,0.55-0.79,1.09-1.11c0.54-0.33,1.11-0.61,1.69-0.84c0.58-0.23,1.12-0.39,1.61-0.49
		c0.49-0.09,0.77-0.11,0.85-0.06c0.04,0.06-0.04,0.75-0.24,2.06c-0.2,1.32-0.45,2.87-0.76,4.66c-0.3,1.79-0.63,3.64-0.97,5.55
		c-0.34,1.91-0.6,3.47-0.76,4.68c-0.17,1.2-0.37,2.57-0.6,4.08c-0.24,1.52-0.45,3-0.62,4.45c-0.18,1.45-0.29,2.81-0.34,4.06
		c-0.05,1.26,0.04,2.2,0.25,2.81c0.22,0.74,0.45,1.23,0.7,1.47c0.24,0.24,0.5,0.32,0.78,0.26c0.79-0.19,1.77-1.15,2.93-2.86
		c1.16-1.7,2.33-3.68,3.51-5.9c1.18-2.23,2.27-4.44,3.27-6.64s1.73-3.93,2.21-5.21c0.29-0.68,0.6-1.15,0.93-1.4
		c0.33-0.25,0.6-0.28,0.82-0.08c0.22,0.2,0.35,0.57,0.39,1.12c0.04,0.55-0.07,1.22-0.32,2.01c-0.57,1.85-1.43,4.11-2.57,6.79
		c-1.14,2.68-2.37,5.33-3.67,7.92c-1.31,2.6-2.6,4.88-3.88,6.84c-1.28,1.96-2.33,3.09-3.16,3.37c-0.67,0.24-1.34,0.23-2-0.03
		c-0.66-0.26-1.27-0.71-1.83-1.33c-0.55-0.63-1.02-1.42-1.41-2.36c-0.38-0.95-0.61-1.98-0.68-3.1c-0.16-1.63-0.22-3.9-0.18-6.81
		c0.04-2.91,0.19-5.89,0.42-8.95c0.24-3.06,0.57-5.98,0.99-8.75C259.9,124.08,260.41,122.01,261,120.62z M268.55,99.3
		c-0.1,0.71-0.3,1.4-0.62,2.09c-0.31,0.69-0.67,1.25-1.07,1.7c-0.4,0.44-0.81,0.74-1.24,0.9c-0.43,0.16-0.78,0.05-1.07-0.32
		c-0.85-0.98-1.31-2.07-1.38-3.27c-0.07-1.2,0.07-2.34,0.43-3.42s0.83-2,1.39-2.76c0.57-0.76,1.06-1.2,1.49-1.34
		c0.43-0.14,0.79,0,1.1,0.4c0.31,0.41,0.54,0.94,0.72,1.6c0.17,0.66,0.28,1.4,0.33,2.23C268.67,97.93,268.65,98.66,268.55,99.3z"/>
	<path class="st2" d="M283.59,148.12c1.2-0.39,2.51-1.56,3.91-3.47c1.41-1.91,2.76-4.02,4.07-6.33s2.5-4.59,3.58-6.83
		c1.08-2.25,1.89-4,2.43-5.31c0.33-0.8,0.64-1.31,0.94-1.53c0.3-0.22,0.54-0.21,0.7,0.02c0.16,0.23,0.23,0.63,0.21,1.21
		c-0.02,0.58-0.18,1.26-0.46,2.05c-0.25,0.73-0.67,1.79-1.27,3.21c-0.6,1.42-1.31,3-2.13,4.75c-0.82,1.75-1.75,3.58-2.8,5.51
		c-1.05,1.93-2.15,3.76-3.31,5.48c-1.16,1.72-2.36,3.24-3.61,4.55c-1.25,1.31-2.5,2.19-3.74,2.62c-1.71,0.59-3.16,0.57-4.34-0.08
		c-1.18-0.65-2.14-1.68-2.87-3.1c-0.73-1.42-1.27-3.08-1.6-4.98c-0.33-1.9-0.53-3.83-0.58-5.77c-0.06-1.94,0.15-4.42,0.61-7.41
		c0.46-2.98,1.19-5.89,2.19-8.71c1-2.81,2.29-5.26,3.87-7.36s3.48-3.26,5.7-3.59c1.25-0.18,2.32,0.31,3.24,1.43
		c0.91,1.13,1.38,2.77,1.41,4.95c0.03,1.03-0.05,2.07-0.26,3.13c-0.2,1.05-0.49,2.01-0.85,2.88c-0.36,0.87-0.8,1.6-1.31,2.18
		c-0.51,0.59-1.07,0.96-1.69,1.1c-0.5,0.12-0.89-0.07-1.16-0.58c-0.27-0.5-0.45-1.12-0.53-1.85c-0.08-0.73-0.1-1.46-0.07-2.18
		c0.04-0.72,0.09-1.21,0.16-1.46c0.18-0.45,0.39-0.79,0.61-1.01c0.23-0.22,0.49-0.48,0.8-0.77c0.23-0.22,0.4-0.52,0.53-0.9
		c0.13-0.38,0.18-0.77,0.17-1.18c-0.01-0.41-0.1-0.75-0.27-1.01c-0.16-0.27-0.42-0.37-0.77-0.31c-0.35,0.06-0.97,0.59-1.86,1.61
		c-0.89,1.02-1.78,2.47-2.69,4.36c-0.9,1.9-1.69,4.23-2.35,7.01c-0.66,2.78-0.96,5.94-0.89,9.45c0.02,2.04,0.25,3.65,0.68,4.83
		c0.43,1.18,0.95,2.04,1.55,2.6c0.61,0.55,1.26,0.87,1.97,0.95C282.25,148.41,282.93,148.33,283.59,148.12z"/>
	<path class="st2" d="M320.68,121.25c-1.09,2.39-2.33,4.84-3.71,7.36c-1.38,2.52-2.85,4.94-4.41,7.23c-1.56,2.29-3.16,4.34-4.8,6.12
		c-1.65,1.78-3.26,3.05-4.86,3.75c-0.83,0.37-1.74,0.49-2.73,0.33c-0.99-0.16-1.9-0.67-2.74-1.57c-0.84-0.89-1.53-2.23-2.06-4.01
		c-0.54-1.78-0.75-4.11-0.64-6.95c0.08-2.33,0.5-4.88,1.26-7.61c0.75-2.73,1.71-5.26,2.86-7.58c1.15-2.32,2.47-4.28,3.96-5.89
		c1.48-1.6,3-2.52,4.54-2.81c1.46-0.27,2.53,0,3.2,0.8c0.67,0.8,0.99,1.89,0.95,3.27c-0.08,1.54-0.38,3.03-0.9,4.46
		c-0.52,1.44-1.15,2.79-1.88,4.07c-0.74,1.28-1.52,2.49-2.35,3.63c-0.83,1.14-1.62,2.2-2.36,3.18c-0.82,1.05-1.6,2.07-2.34,3.04
		c-0.74,0.97-1.39,1.85-1.95,2.64c0.08,1.33,0.28,2.41,0.61,3.21c0.33,0.8,0.73,1.39,1.21,1.78c0.47,0.38,1,0.57,1.6,0.57
		c0.59,0,1.19-0.13,1.8-0.38c1.29-0.53,2.61-1.66,3.98-3.33c1.37-1.67,2.7-3.52,4-5.54c1.3-2.02,2.51-4.01,3.62-5.99
		c1.11-1.97,2.04-3.62,2.77-4.97c0.26-0.46,0.53-0.76,0.81-0.92c0.28-0.16,0.51-0.19,0.68-0.09c0.17,0.1,0.26,0.34,0.27,0.72
		C321.05,120.18,320.93,120.66,320.68,121.25z M305.84,114.32c-0.46,0.1-1,0.53-1.62,1.29c-0.62,0.76-1.22,1.81-1.8,3.14
		c-0.58,1.33-1.12,2.94-1.6,4.81c-0.49,1.88-0.83,3.99-1.03,6.34c0.45-0.63,0.93-1.27,1.45-1.94c0.52-0.67,1.04-1.37,1.56-2.11
		c1.59-2.22,2.7-4.03,3.32-5.49c0.62-1.45,0.95-2.64,1-3.57c0.05-0.98-0.04-1.66-0.29-2.04
		C306.6,114.37,306.26,114.22,305.84,114.32z"/>
	<path class="st2" d="M324.69,131.06c0.22,0.06,0.51,0,0.86-0.18c0.35-0.18,0.69-0.45,1.04-0.8c0.35-0.35,0.67-0.75,0.98-1.21
		c0.31-0.45,0.53-0.94,0.68-1.47c0.14-0.53,0.14-1.17-0.01-1.95c-0.15-0.78-0.39-1.58-0.71-2.42c-0.32-0.84-0.67-1.69-1.06-2.55
		c-0.38-0.86-0.71-1.68-0.98-2.43c-0.23-0.56-0.43-1.09-0.58-1.6c-0.16-0.42-0.3-0.84-0.44-1.25c-0.14-0.41-0.25-0.69-0.32-0.84
		c-0.18,0.41-0.5,1.07-0.96,2.01c-0.46,0.94-0.95,1.94-1.48,3c-0.53,1.06-1.03,2.05-1.51,2.98c-0.47,0.93-0.8,1.57-0.98,1.92
		c-0.29,0.53-0.58,0.88-0.86,1.06c-0.28,0.18-0.52,0.2-0.71,0.06c-0.19-0.14-0.3-0.4-0.33-0.79c-0.03-0.39,0.1-0.92,0.39-1.58
		c0.22-0.45,0.55-1.16,0.98-2.12c0.44-0.96,0.87-1.93,1.31-2.91c0.44-0.98,0.84-1.85,1.21-2.62c0.37-0.76,0.57-1.21,0.6-1.35
		c0.07-0.38-0.04-0.81-0.33-1.31c-0.29-0.5-0.35-1.16-0.17-1.97c0.14-0.66,0.47-1.47,0.99-2.41c0.52-0.94,1.14-1.81,1.85-2.61
		c0.71-0.8,1.45-1.43,2.21-1.9c0.76-0.47,1.44-0.59,2.06-0.38c0.5,0.23,0.9,0.5,1.2,0.82c0.31,0.32,0.42,0.69,0.35,1.11
		c-0.08,0.22-0.19,0.51-0.34,0.87c-0.15,0.36-0.38,0.81-0.67,1.36c-0.3,0.55-0.73,1.27-1.29,2.17c0.12,0.92,0.29,1.75,0.5,2.47
		c0.21,0.72,0.41,1.33,0.6,1.84c0.23,0.62,0.47,1.17,0.74,1.64c0.34,0.61,0.7,1.22,1.07,1.83c0.37,0.61,0.71,1.22,1,1.82
		c0.3,0.6,0.53,1.17,0.72,1.71c0.18,0.54,0.24,1.04,0.17,1.51c-0.11,0.72-0.43,1.68-0.96,2.9c-0.53,1.22-1.18,2.5-1.96,3.85
		c-0.78,1.34-1.66,2.64-2.66,3.88c-1,1.24-2.04,2.19-3.14,2.8c-0.77,0.43-1.51,0.56-2.24,0.36c-0.73-0.19-1.35-0.57-1.86-1.11
		c-0.51-0.54-0.9-1.16-1.16-1.83c-0.26-0.67-0.3-1.26-0.12-1.76c0.21-0.65,0.41-1.18,0.59-1.58c0.18-0.4,0.45-0.89,0.82-1.46
		c0.15-0.2,0.33-0.44,0.55-0.72c0.18-0.22,0.44-0.46,0.77-0.74c0.33-0.28,0.72-0.6,1.16-0.97c0.39,1.21,0.74,2.12,1.05,2.75
		c0.31,0.63,0.55,1.11,0.74,1.45C324.29,130.76,324.5,130.98,324.69,131.06z"/>
	<path class="st0" d="M98.77,41.9c1.75-1.69,3.77-3.19,6.07-4.47c4.19-2.35,8.07-3.48,11.5-3.48c0.66,0,1.31,0.04,1.93,0.13
		c3.88,0.52,6.55,2.63,8.1,6.14c1.39,3.14,2.02,6.44,1.99,9.88c-0.03,3.44-0.62,6.74-1.72,9.92c-1.11,3.18-2.67,6.12-4.69,8.88
		c-2.03,2.76-4.45,5.03-7.36,6.93c-0.83,0.54-1.61,1.02-2.37,1.44c-0.75,0.42-1.43,0.73-2.03,0.92c-0.59-0.86-1.23-2.72-1.82-5.61
		c-0.59-2.89-1.13-7.04-1.38-12.49c-0.12-2.14-0.16-4.25-0.12-6.35c0.04-2.1,0.13-4.05,0.26-5.86c0.13-1.81,0.29-3.36,0.47-4.66
		c0.17-1.3,0.35-2.23,0.51-2.79c-0.17-0.01-0.36-0.02-0.59-0.02c-0.69,0-1.64,0.06-2.87,0.2C103.02,40.78,101.05,41.2,98.77,41.9
		 M117.94,31.45c-2.05,0-4.24,0.26-6.56,0.79c-3.54,0.82-7.21,2.29-10.9,4.45c-2.91,1.7-5.46,3.61-7.64,5.67
		c-2.18,2.06-3.89,4.18-5.13,6.29c-1.25,2.12-2.01,4.19-2.32,6.2c-0.3,2-0.12,3.84,0.53,5.52c0.95,0.73,2.05,1.1,3.27,1.12
		c0.08,0,0.15,0,0.23,0c1.14,0,2.23-0.21,3.26-0.62c-0.84-3.09-0.88-6.12-0.09-9.08c0.79-2.95,2.33-5.76,4.62-8.35
		c0.16,0.95,0.35,2.36,0.58,4.21c0.23,1.85,0.49,3.95,0.78,6.31c0.3,2.36,0.63,4.85,1.01,7.46c0.39,2.61,0.8,5.15,1.24,7.61
		c0.44,2.46,0.87,4.75,1.27,6.88c0.4,2.12,0.72,3.87,0.95,5.25c1.71,0.76,3.48,1.13,5.32,1.13c0.79,0,1.59-0.07,2.41-0.2
		c2.72-0.45,5.47-1.59,8.34-3.4c3.12-1.97,5.75-4.36,8-7.3c2.25-2.93,4.04-6.07,5.36-9.49c1.32-3.42,2.12-6.96,2.33-10.65
		c0.21-3.69-0.3-7.25-1.67-10.64c-1.01-2.49-2.52-4.52-4.61-6.04c-2.09-1.52-4.58-2.51-7.48-2.92
		C120.06,31.52,119.02,31.45,117.94,31.45"/>
	<path class="st0" d="M163.59,30.13c-0.36,0-0.74,0.01-1.12,0.03c-0.72,0.04-1.39,0.13-1.99,0.27c-0.66,0.76-1.19,1.55-1.61,2.36
		c-0.41,0.81-0.75,1.59-1.02,2.35c-0.27,0.76-0.47,1.48-0.61,2.15c-0.14,0.67-0.24,1.25-0.3,1.73c-0.15,0.89-0.39,1.8-0.73,2.74
		c-0.33,0.94-0.7,1.86-1.09,2.77c-0.4,0.91-0.78,1.76-1.17,2.57c-0.38,0.81-0.71,1.53-0.97,2.16c-1.11,2.52-1.93,4.41-2.55,5.68
		c-0.61,1.26-1.17,2.1-1.69,2.52c-0.1-0.04-0.23-0.12-0.38-0.22c-0.15-0.11-0.27-0.3-0.37-0.58c-0.16-0.46-0.29-1.11-0.37-1.95
		c-0.09-0.84-0.13-1.71-0.12-2.63c0.01-0.91,0.04-1.79,0.08-2.63c0.04-0.84,0.11-1.49,0.19-1.95c0.65-4.42,1.56-7.91,2.6-10.43
		c1.04-2.52,1.76-4.02,2.08-4.49c-0.46-0.22-0.98-0.36-1.57-0.4c-0.38-0.03-0.76-0.04-1.15-0.04c-0.22,0-0.44,0-0.67,0.01
		c-0.62,0.03-1.22,0.1-1.79,0.21c-0.57,0.12-1.06,0.24-1.48,0.37c-1.22,1.28-2.24,2.86-3.03,4.73c-0.8,1.87-1.4,3.8-1.8,5.8
		c-0.41,2-0.66,3.97-0.75,5.93c-0.1,1.96-0.06,3.66,0.09,5.13c0.08,0.81,0.22,1.54,0.41,2.19c0.19,0.65,0.47,1.46,0.86,2.43
		c0.41,0.57,0.93,1,1.58,1.32c0.64,0.32,1.33,0.53,2.07,0.66c0.52,0.09,1.04,0.13,1.56,0.13c0.22,0,0.44-0.01,0.67-0.02
		c0.75-0.05,1.44-0.19,2.06-0.4c0.26-0.13,0.57-0.41,0.92-0.85c0.35-0.44,0.7-0.98,1.06-1.65c0.2-0.46,0.5-1.16,0.9-2.11
		c0.4-0.95,0.82-1.92,1.26-2.9c0.43-0.99,0.86-1.85,1.28-2.59c0.41-0.74,0.71-1.13,0.88-1.18c-0.06,0.6,0.03,1.27,0.24,2.03
		c0.17,0.61,0.52,1.31,1.03,2.1c0.51,0.79,1.23,1.36,2.15,1.73c0.56,0.16,1.14,0.29,1.75,0.4c0.61,0.11,1.21,0.2,1.79,0.26
		c0.59,0.06,1.12,0.1,1.58,0.1c0.02,0,0.05,0,0.07,0c0.43,0,0.78-0.03,1.04-0.09l0.11-0.08c0.06-0.09,0.09-0.16,0.08-0.19
		c-0.04-0.18-0.16-0.38-0.36-0.61c-0.2-0.22-0.43-0.51-0.68-0.85c-0.25-0.34-0.52-0.78-0.79-1.31c-0.28-0.53-0.51-1.17-0.69-1.94
		c-0.34-1.42-0.42-2.93-0.22-4.55c0.2-1.62,0.54-3.28,1.04-4.98c0.49-1.7,1.07-3.43,1.74-5.21c0.67-1.77,1.27-3.55,1.8-5.32
		c-0.27-0.18-0.66-0.32-1.17-0.43c-0.5-0.11-1.09-0.19-1.75-0.22C164.24,30.14,163.92,30.13,163.59,30.13"/>
	<path class="st0" d="M184.89,25.92c-1.95,0.17-3.91,1.04-5.81,2.62c-1.9,1.57-3.56,3.48-4.96,5.71c-1.4,2.23-2.41,4.59-3.04,7.06
		c-0.64,2.48-0.73,4.75-0.34,6.81c0.36,1.92,1.14,3.4,2.29,4.47c0.95,0.88,2,1.31,3.17,1.31c0.26,0,0.52-0.02,0.78-0.06
		c0.9-0.29,1.86-0.87,2.88-1.74c1.02-0.87,2.03-1.94,3.02-3.21c0.99-1.27,1.97-2.71,2.94-4.31c0.97-1.6,1.83-3.28,2.59-5.06
		c-1.39,3.81-1.91,6.79-1.73,8.91c0.24,2.61,1.34,3.88,3.32,3.88c0.11,0,0.23,0,0.34-0.01c0.61-0.04,1.29-0.18,2.06-0.41
		c0.76-0.23,1.38-0.5,1.86-0.82c-0.59-0.27-1.02-0.75-1.3-1.42c-0.28-0.68-0.46-1.54-0.51-2.58c-0.05-0.93,0.03-2.04,0.24-3.32
		c0.21-1.28,0.55-2.66,1.01-4.14c0.46-1.48,1.05-3.02,1.76-4.63c0.71-1.61,1.52-3.21,2.42-4.79c0-0.19-0.18-0.39-0.54-0.61
		c-0.35-0.22-0.79-0.42-1.31-0.61c-0.52-0.19-1.1-0.34-1.73-0.45c-0.53-0.09-1-0.13-1.41-0.13c-0.09,0-0.17,0-0.25,0.01
		c-0.48,0.88-0.98,1.79-1.5,2.74c-0.53,0.95-1.06,1.88-1.59,2.82c-0.53,0.93-1.04,1.83-1.54,2.69c-0.5,0.86-0.94,1.65-1.32,2.35
		c-2.09,3.59-3.77,6.3-5.18,8.1c-1.4,1.8-2.65,2.91-3.82,3.31c-0.6-0.1-0.96-0.5-1.07-1.2c-0.26-1.69-0.08-3.59,0.58-5.68
		c0.66-2.09,1.65-4.1,2.98-6c1.33-1.91,2.91-3.57,4.75-4.97c1.83-1.4,3.7-2.27,5.54-2.6c-0.07-0.33-0.3-0.72-0.7-1.16
		c-0.4-0.44-0.89-0.87-1.46-1.27c-0.57-0.41-1.17-0.76-1.79-1.04C185.92,26.17,185.37,25.99,184.89,25.92"/>
	<path class="st0" d="M211.6,24.22c-0.6,0.41-1.16,0.94-1.66,1.57c-0.51,0.63-1.09,1.51-1.75,2.64c-0.91,1.57-1.82,3.35-2.74,5.35
		c-0.91,1.99-1.75,3.99-2.52,5.98c-0.77,1.99-1.41,3.87-1.94,5.65c-0.53,1.77-0.88,3.2-1.08,4.29c0.13,0.3,0.4,0.61,0.81,0.95
		c0.41,0.33,0.87,0.65,1.38,0.96c0.51,0.3,1.01,0.56,1.52,0.77c0.5,0.21,0.94,0.34,1.3,0.39c0.67-2.56,1.4-4.76,2.16-6.6
		c0.76-1.84,1.7-3.45,2.79-4.84c1.1-1.38,2.42-2.61,3.98-3.68c1.56-1.06,3.45-2.11,5.71-3.11c0.34,1.13,0.93,2.19,1.75,3.21
		c0.83,1.02,1.79,1.86,2.9,2.54c0.73-0.46,1.42-0.97,2.07-1.52c0.65-0.55,1.01-0.92,1.09-1.14c-0.45-0.9-0.57-2.16-0.33-3.79
		c0.26-1.73,0.93-3.43,2.05-5.07c-0.19-0.33-0.58-0.63-1.16-0.88c-0.59-0.26-1.21-0.43-1.87-0.52c-0.28-0.04-0.52-0.06-0.74-0.06
		c-0.34,0-0.6,0.05-0.79,0.14c-1.96,1.78-3.96,3.39-6.03,4.84c-2.07,1.45-4.37,2.98-6.89,4.62c1.08-2.33,2.17-4.22,3.23-5.67
		c1.06-1.45,2.29-2.72,3.68-3.78c-0.26-0.29-0.63-0.59-1.13-0.92c-0.5-0.33-1.07-0.65-1.71-0.96c-0.65-0.31-1.32-0.59-2.03-0.82
		C212.95,24.51,212.27,24.34,211.6,24.22"/>
	<path class="st0" d="M250.67,22.97c-0.44,0.07-1.09,0.32-1.94,0.75c-0.86,0.43-1.79,0.98-2.8,1.67c-1,0.69-2.05,1.46-3.12,2.33
		c-1.07,0.87-2.07,1.77-3,2.7c-0.93-0.2-1.96-0.42-3.08-0.64c-1.12-0.22-2.27-0.52-3.46-0.88c-0.09,0.52-0.11,1.15-0.05,1.9
		c0.05,0.75,0.18,1.26,0.37,1.52c1.31,0.24,2.62,0.5,3.92,0.77c-1.22,1.5-2.35,3.05-3.4,4.64c-1.05,1.59-1.97,3.13-2.78,4.61
		c-0.81,1.49-1.46,2.88-1.97,4.18c-0.51,1.3-0.83,2.39-0.99,3.27c-0.11,0.66,0.04,1.38,0.45,2.16c0.41,0.77,0.98,1.51,1.7,2.22
		c0.72,0.71,1.54,1.35,2.46,1.92c0.92,0.57,1.87,0.97,2.86,1.2c0.07,0.01,0.14,0.01,0.22,0.01c0.32,0,0.76-0.06,1.32-0.16
		c0.7-0.14,1.44-0.33,2.22-0.57c0.78-0.24,1.52-0.5,2.21-0.78c0.69-0.28,1.21-0.54,1.54-0.79c0.02-0.23-0.05-0.54-0.2-0.93
		c-1.02,0.38-2.12,0.63-3.3,0.76c-0.58,0.06-1.17,0.09-1.76,0.09c-0.62,0-1.24-0.03-1.87-0.1c-1.28-0.48-1.76-1.52-1.41-3.13
		c0.24-1.13,0.67-2.38,1.3-3.74c0.62-1.36,1.41-2.78,2.35-4.25c0.95-1.47,2.05-2.98,3.33-4.5c1.28-1.52,2.71-3.01,4.29-4.46
		c3.18,0.82,5.96,1.27,8.39,1.27c0.09-0.29,0.11-0.58,0.05-0.89c-0.05-0.31-0.17-0.59-0.34-0.84c-0.99-0.19-1.96-0.41-2.9-0.68
		c-0.94-0.27-1.87-0.53-2.79-0.77c1.55-1.19,3.01-2.22,4.35-3.09c1.34-0.87,2.93-1.76,4.78-2.66c-0.17-0.29-0.54-0.64-1.09-1.04
		c-0.56-0.4-1.19-0.82-1.91-1.24c-0.71-0.42-1.43-0.8-2.14-1.13C251.76,23.33,251.16,23.1,250.67,22.97"/>
	<path class="st0" d="M256.02,51.43c1.06-1.45,2.29-2.72,3.69-3.8c1.4-1.08,2.85-1.93,4.36-2.56c1.5-0.62,3.02-0.99,4.54-1.09
		c0.33-0.02,0.65-0.03,0.96-0.03c1.14,0,2.21,0.15,3.17,0.44c-1.21,2.29-3.38,3.92-6.44,5.03
		C263.24,50.53,259.81,51.17,256.02,51.43 M267.95,38.19c-1.44,0-2.89,0.16-4.34,0.49c-1.75,0.39-3.44,1-5.08,1.82
		c-1.64,0.82-3.13,1.8-4.46,2.92c-1.34,1.12-2.48,2.37-3.43,3.74c-0.95,1.37-1.64,2.79-2.08,4.26c-0.65,2.15-0.41,4.21,0.64,6.21
		c1.04,2,2.83,3.58,5.39,4.83c0.7,0.1,1.43,0.15,2.2,0.15c1.43,0,2.99-0.17,4.7-0.5c2.63-0.51,5.29-1.37,8.01-2.59
		c-0.15-0.4-0.36-0.84-0.62-1.33c-0.9,0.29-1.91,0.61-3.02,0.96c-1.12,0.35-2.26,0.64-3.43,0.86c-1.17,0.22-2.35,0.35-3.53,0.37
		c-0.06,0-0.12,0-0.19,0c-1.11,0-2.16-0.18-3.16-0.55c-0.55-0.2-0.95-0.49-1.21-0.88c-0.26-0.39-0.42-0.83-0.47-1.32
		c-0.05-0.49-0.03-1,0.06-1.52c0.09-0.52,0.21-1.01,0.37-1.47c0.09-0.25,0.18-0.48,0.28-0.7c0.1-0.22,0.19-0.44,0.26-0.65
		c0.45,0,0.89,0.01,1.33,0.01c2.4,0,4.59-0.05,6.57-0.19c2.34-0.16,4.45-0.49,6.34-1.04c1.88-0.54,3.56-1.39,5.01-2.55
		c1.45-1.16,2.76-2.74,3.92-4.75c-0.93-2.54-2.42-4.38-4.39-5.47c-1.48-0.63-3.08-0.99-4.8-1.07
		C268.52,38.2,268.24,38.19,267.95,38.19"/>
	<path class="st0" d="M301.88,30.76c-0.6,1.72-1.27,3.23-2.01,4.53c-0.98,1.72-2.12,3.12-3.39,4.22c-1.28,1.1-2.86,2.02-4.72,2.79
		c-0.18,0.33-0.26,0.74-0.24,1.24c0.01,0.5,0.11,0.9,0.28,1.21c1.34,0.18,2.65,0.27,3.92,0.27c5.24,0,9.9-1.54,14.02-4.85
		c0.11-0.46-0.01-1.08-0.36-1.86c-0.35-0.77-0.88-1.6-1.6-2.46c-0.72-0.86-1.6-1.74-2.63-2.64
		C304.12,32.32,303.03,31.5,301.88,30.76"/>
	<path class="st0" d="M280.56,75.01c-0.61,0-1.21-0.05-1.8-0.15c-0.46-0.87-0.49-1.66-0.08-2.37c0.31-0.55,0.94-1.06,1.88-1.5
		c0.95-0.45,2.01-0.78,3.21-1.01c0.92-0.17,1.84-0.26,2.77-0.26c0.27,0,0.55,0.01,0.82,0.02c1.2,0.07,2.21,0.3,3.02,0.69
		c-0.53,0.82-1.24,1.53-2.13,2.16c-0.89,0.63-1.87,1.13-2.92,1.53c-1.06,0.4-2.15,0.66-3.29,0.8
		C281.54,74.98,281.05,75.01,280.56,75.01 M303.01,54.63c-0.72,0-1.42,0.06-2.09,0.19c-1.21,0.22-2.3,0.61-3.29,1.17
		c-0.98,0.55-1.74,1.26-2.28,2.12c-0.42,0.67-0.74,1.41-0.97,2.22c-0.23,0.81-0.46,1.64-0.7,2.49c-0.24,0.85-0.5,1.72-0.79,2.6
		c-0.29,0.88-0.69,1.72-1.2,2.5c-1.67-1.08-3.4-1.78-5.16-2.11c-0.95-0.18-1.86-0.26-2.75-0.26c-0.76,0-1.5,0.06-2.21,0.19
		c-1.54,0.28-2.92,0.83-4.14,1.64c-1.22,0.82-2.16,1.86-2.83,3.13c-0.1,0.54-0.08,1.13,0.04,1.77c0.12,0.64,0.33,1.27,0.62,1.9
		c0.29,0.63,0.63,1.21,1.04,1.74c0.4,0.53,0.84,0.95,1.32,1.27c2.18,1.02,4.24,1.54,6.22,1.54c0.74,0,1.48-0.07,2.2-0.22
		c2.64-0.55,4.87-2.06,6.62-4.64c0.25-0.37,0.45-0.68,0.6-0.94c0.15-0.26,0.3-0.51,0.47-0.76c0.13-0.18,0.25-0.31,0.38-0.38
		c0.06-0.03,0.14-0.05,0.23-0.05c0.12,0,0.27,0.02,0.45,0.07c0.32,0.09,0.77,0.25,1.35,0.49c0.57,0.24,1.34,0.59,2.3,1.05
		c0.23-0.01,0.45-0.16,0.65-0.43c0.13-0.18,0.2-0.31,0.2-0.4c-0.59-0.43-1.2-0.86-1.81-1.29c-0.62-0.43-1.32-0.92-2.11-1.46
		c0-0.09,0.11-0.28,0.32-0.59c2.02-2.98,3.96-4.97,5.84-5.93c0.86-0.43,1.68-0.65,2.48-0.65c0.96,0,1.88,0.31,2.74,0.94
		c0.43,0.32,0.67,0.71,0.72,1.19c0.04,0.47-0.09,0.92-0.4,1.34c-0.13,0.18-0.34,0.35-0.61,0.52c-0.28,0.17-0.56,0.33-0.85,0.48
		c-0.29,0.15-0.56,0.29-0.8,0.42c-0.24,0.13-0.39,0.23-0.46,0.32c-0.23,0.48-0.15,0.89,0.25,1.23c0.23,0.17,0.54,0.26,0.94,0.26
		c0.12,0,0.26-0.01,0.4-0.03c0.59-0.07,1.22-0.23,1.9-0.49c0.68-0.26,1.36-0.6,2.04-1.05c0.68-0.44,1.26-0.93,1.73-1.46
		c0.16-0.44,0.17-1.15,0.04-2.13c-0.13-0.97-0.36-2-0.69-3.08c-0.32-1.08-0.71-2.11-1.15-3.1c-0.44-0.99-0.87-1.69-1.26-2.1
		c-1.21-0.58-2.49-0.95-3.82-1.13C304.15,54.67,303.57,54.63,303.01,54.63"/>
	<path class="st3" d="M101.06,79.17c-0.23-1.38-0.55-3.13-0.95-5.25c-0.4-2.12-0.82-4.42-1.27-6.88c-0.44-2.46-0.86-5-1.24-7.61
		c-0.38-2.61-0.72-5.1-1.01-7.46c-0.29-2.36-0.55-4.46-0.78-6.31c-0.23-1.85-0.42-3.25-0.58-4.21c-2.29,2.59-3.83,5.4-4.62,8.35
		c-0.79,2.95-0.75,5.99,0.09,9.08c-1.1,0.44-2.26,0.64-3.49,0.61c-1.23-0.03-2.32-0.4-3.27-1.12c-0.65-1.67-0.83-3.51-0.53-5.52
		c0.3-2,1.07-4.08,2.32-6.2c1.24-2.12,2.95-4.23,5.13-6.29c2.18-2.06,4.73-3.97,7.64-5.67c3.69-2.16,7.36-3.64,10.9-4.45
		c3.55-0.82,6.79-0.99,9.69-0.58c2.9,0.41,5.39,1.4,7.48,2.92c2.09,1.52,3.61,3.55,4.61,6.04c1.37,3.39,1.88,6.95,1.67,10.64
		c-0.21,3.69-1.01,7.23-2.33,10.65c-1.32,3.42-3.1,6.56-5.36,9.49c-2.25,2.93-4.89,5.33-8,7.3c-2.87,1.81-5.62,2.95-8.34,3.4
		C106.08,80.55,103.51,80.26,101.06,79.17z M102.84,35.43c-2.29,1.29-4.32,2.79-6.07,4.47c2.29-0.7,4.25-1.13,5.88-1.31
		c1.63-0.18,2.78-0.23,3.46-0.18c-0.16,0.56-0.34,1.49-0.51,2.79c-0.17,1.3-0.33,2.85-0.47,4.66c-0.13,1.81-0.22,3.76-0.26,5.86
		c-0.04,2.1,0,4.22,0.12,6.35c0.25,5.45,0.79,9.6,1.38,12.49c0.59,2.89,1.23,4.75,1.82,5.61c0.6-0.19,1.28-0.5,2.03-0.92
		c0.75-0.42,1.54-0.9,2.37-1.44c2.91-1.89,5.33-4.17,7.36-6.93c2.02-2.75,3.59-5.69,4.69-8.88c1.1-3.18,1.69-6.48,1.72-9.92
		c0.03-3.44-0.6-6.74-1.99-9.88c-1.55-3.51-4.22-5.62-8.1-6.14C112.4,31.56,107.84,32.62,102.84,35.43z"/>
	<path class="st3" d="M157.2,53.16c-0.92-0.37-1.64-0.94-2.15-1.73s-0.85-1.48-1.03-2.1c-0.22-0.75-0.3-1.43-0.24-2.03
		c-0.17,0.05-0.46,0.44-0.88,1.18c-0.41,0.74-0.84,1.61-1.28,2.59c-0.44,0.99-0.85,1.96-1.26,2.9c-0.4,0.95-0.7,1.65-0.9,2.11
		c-0.35,0.66-0.7,1.21-1.06,1.65c-0.35,0.43-0.66,0.72-0.92,0.85c-0.62,0.22-1.31,0.35-2.06,0.4c-0.75,0.05-1.49,0.02-2.23-0.11
		c-0.74-0.12-1.43-0.34-2.07-0.66c-0.64-0.31-1.17-0.75-1.58-1.32c-0.39-0.97-0.67-1.78-0.86-2.43c-0.19-0.65-0.33-1.38-0.41-2.19
		c-0.15-1.46-0.19-3.17-0.09-5.13c0.1-1.95,0.34-3.93,0.75-5.93c0.41-2,1.01-3.93,1.8-5.8c0.8-1.87,1.81-3.45,3.03-4.73
		c0.42-0.13,0.91-0.25,1.48-0.37c0.57-0.12,1.17-0.19,1.79-0.21c0.62-0.03,1.22-0.02,1.81,0.03c0.59,0.05,1.11,0.18,1.57,0.4
		c-0.31,0.47-1.04,1.97-2.08,4.49c-1.04,2.53-1.94,6.01-2.6,10.43c-0.08,0.46-0.15,1.11-0.19,1.95c-0.04,0.84-0.07,1.72-0.08,2.63
		c-0.01,0.91,0.03,1.79,0.12,2.63c0.09,0.84,0.21,1.49,0.37,1.95c0.1,0.28,0.22,0.48,0.37,0.58c0.15,0.11,0.27,0.18,0.38,0.22
		c0.52-0.42,1.08-1.26,1.69-2.52c0.61-1.26,1.44-3.16,2.55-5.68c0.27-0.63,0.59-1.35,0.97-2.16c0.38-0.81,0.77-1.67,1.17-2.57
		c0.4-0.9,0.76-1.83,1.09-2.77c0.33-0.94,0.58-1.85,0.73-2.74c0.06-0.48,0.16-1.05,0.3-1.73c0.14-0.67,0.34-1.39,0.61-2.15
		c0.27-0.76,0.61-1.54,1.02-2.35c0.41-0.81,0.95-1.6,1.61-2.36c0.6-0.14,1.27-0.23,1.99-0.27c0.72-0.04,1.42-0.04,2.08-0.01
		c0.66,0.04,1.25,0.11,1.75,0.22c0.5,0.11,0.89,0.26,1.17,0.43c-0.53,1.77-1.13,3.54-1.8,5.32c-0.67,1.78-1.25,3.51-1.74,5.21
		c-0.5,1.7-0.84,3.36-1.04,4.98c-0.2,1.62-0.12,3.14,0.22,4.55c0.18,0.76,0.41,1.41,0.69,1.94c0.28,0.53,0.54,0.97,0.79,1.31
		c0.25,0.34,0.48,0.63,0.68,0.85c0.2,0.22,0.32,0.42,0.36,0.61c0.01,0.04-0.02,0.1-0.08,0.19l-0.11,0.08
		c-0.28,0.07-0.65,0.09-1.12,0.09c-0.47,0-0.99-0.04-1.58-0.1c-0.59-0.06-1.19-0.15-1.79-0.26
		C158.34,53.45,157.76,53.32,157.2,53.16z"/>
	<path class="st3" d="M190.66,26.37c0.47-0.02,1.02,0.02,1.66,0.13c0.64,0.11,1.21,0.26,1.73,0.45c0.52,0.19,0.96,0.4,1.31,0.61
		c0.35,0.22,0.53,0.42,0.54,0.61c-0.9,1.58-1.71,3.18-2.42,4.79c-0.72,1.61-1.3,3.16-1.76,4.63s-0.8,2.86-1.01,4.14
		c-0.21,1.28-0.29,2.39-0.24,3.32c0.06,1.04,0.23,1.9,0.51,2.58c0.28,0.68,0.72,1.15,1.3,1.42c-0.48,0.32-1.1,0.59-1.86,0.82
		c-0.76,0.23-1.45,0.37-2.06,0.41c-2.19,0.15-3.41-1.11-3.66-3.87c-0.19-2.12,0.33-5.09,1.73-8.91c-0.75,1.77-1.62,3.45-2.59,5.06
		c-0.97,1.6-1.95,3.04-2.94,4.31c-0.99,1.27-1.99,2.34-3.02,3.21c-1.02,0.87-1.98,1.45-2.88,1.74c-1.49,0.23-2.8-0.18-3.96-1.25
		c-1.16-1.07-1.93-2.55-2.29-4.47c-0.39-2.06-0.3-4.33,0.34-6.81c0.64-2.47,1.64-4.84,3.04-7.06c1.4-2.23,3.06-4.13,4.96-5.71
		c1.9-1.57,3.86-2.44,5.81-2.62c0.48,0.07,1.04,0.25,1.66,0.53c0.62,0.29,1.21,0.63,1.79,1.04c0.57,0.41,1.06,0.83,1.46,1.27
		c0.4,0.44,0.64,0.83,0.7,1.16c-1.84,0.33-3.71,1.2-5.54,2.6c-1.83,1.4-3.42,3.06-4.75,4.97c-1.33,1.91-2.31,3.91-2.98,6
		c-0.66,2.09-0.84,3.98-0.58,5.68c0.11,0.7,0.46,1.1,1.07,1.2c1.16-0.4,2.41-1.5,3.82-3.31c1.4-1.8,3.08-4.51,5.18-8.1
		c0.38-0.71,0.82-1.49,1.32-2.35c0.5-0.86,1.01-1.76,1.54-2.69c0.53-0.93,1.06-1.87,1.59-2.82
		C189.68,28.17,190.18,27.26,190.66,26.37z"/>
	<path class="st3" d="M197.91,47.69c0.2-1.08,0.55-2.51,1.08-4.29c0.53-1.77,1.17-3.66,1.94-5.65c0.77-1.99,1.61-3.98,2.52-5.98
		c0.91-1.99,1.83-3.78,2.74-5.35c0.65-1.13,1.24-2.01,1.75-2.64c0.51-0.63,1.06-1.15,1.66-1.57c0.67,0.11,1.35,0.29,2.06,0.52
		c0.7,0.24,1.38,0.51,2.03,0.82c0.64,0.31,1.21,0.63,1.71,0.96c0.5,0.33,0.87,0.63,1.13,0.92c-1.39,1.07-2.61,2.33-3.68,3.78
		c-1.06,1.45-2.15,3.34-3.23,5.67c2.52-1.64,4.83-3.17,6.89-4.62c2.06-1.45,4.07-3.06,6.03-4.84c0.31-0.15,0.82-0.18,1.52-0.08
		c0.66,0.09,1.29,0.27,1.87,0.52c0.59,0.26,0.97,0.55,1.16,0.88c-1.12,1.64-1.79,3.34-2.05,5.07c-0.24,1.63-0.13,2.89,0.33,3.79
		c-0.08,0.21-0.45,0.59-1.09,1.14c-0.65,0.55-1.34,1.05-2.07,1.52c-1.11-0.68-2.08-1.52-2.9-2.54c-0.83-1.02-1.42-2.09-1.75-3.21
		c-2.26,1-4.16,2.05-5.71,3.11c-1.55,1.06-2.88,2.29-3.98,3.68c-1.1,1.38-2.03,3-2.79,4.84c-0.77,1.84-1.49,4.04-2.16,6.6
		c-0.36-0.05-0.8-0.18-1.3-0.39c-0.5-0.21-1.01-0.47-1.52-0.77c-0.51-0.3-0.97-0.62-1.38-0.96
		C198.31,48.3,198.04,47.99,197.91,47.69z"/>
	<path class="st3" d="M231.58,30.32c-0.19-0.26-0.31-0.77-0.37-1.52c-0.06-0.75-0.04-1.38,0.05-1.9c1.19,0.36,2.34,0.66,3.46,0.88
		c1.12,0.22,2.14,0.44,3.08,0.64c0.93-0.93,1.93-1.83,3-2.7c1.07-0.87,2.11-1.65,3.12-2.33c1.01-0.69,1.94-1.24,2.8-1.67
		c0.86-0.43,1.51-0.68,1.94-0.75c0.49,0.13,1.09,0.36,1.8,0.69c0.72,0.33,1.43,0.71,2.14,1.13c0.71,0.42,1.35,0.83,1.91,1.24
		c0.56,0.4,0.92,0.75,1.09,1.04c-1.85,0.9-3.44,1.79-4.78,2.66c-1.34,0.87-2.8,1.89-4.35,3.09c0.92,0.25,1.85,0.51,2.79,0.77
		c0.94,0.27,1.91,0.5,2.9,0.68c0.17,0.25,0.29,0.53,0.34,0.84c0.05,0.31,0.04,0.61-0.05,0.89c-2.43-0.01-5.21-0.45-8.39-1.27
		c-1.59,1.45-3.01,2.94-4.29,4.46c-1.28,1.52-2.38,3.02-3.33,4.5c-0.94,1.47-1.72,2.9-2.35,4.25c-0.63,1.36-1.05,2.61-1.3,3.74
		c-0.34,1.61,0.13,2.65,1.41,3.13c1.24,0.13,2.45,0.13,3.63,0.01c1.19-0.12,2.29-0.37,3.3-0.76c0.15,0.39,0.22,0.7,0.2,0.93
		c-0.33,0.26-0.84,0.52-1.54,0.79c-0.7,0.27-1.43,0.53-2.21,0.78c-0.78,0.24-1.52,0.43-2.22,0.57c-0.7,0.14-1.21,0.19-1.54,0.15
		c-0.99-0.23-1.94-0.63-2.86-1.2c-0.92-0.57-1.74-1.21-2.46-1.92c-0.72-0.71-1.29-1.45-1.7-2.22s-0.56-1.49-0.45-2.16
		c0.15-0.88,0.48-1.98,0.99-3.27c0.51-1.3,1.16-2.69,1.97-4.18c0.81-1.49,1.73-3.03,2.78-4.61c1.05-1.59,2.18-3.14,3.4-4.64
		C234.2,30.82,232.89,30.56,231.58,30.32z"/>
	<path class="st3" d="M275.99,42.75c-1.16,2.01-2.47,3.59-3.92,4.75c-1.45,1.16-3.13,2-5.01,2.55c-1.89,0.55-4,0.88-6.34,1.04
		s-4.97,0.2-7.89,0.18c-0.07,0.21-0.16,0.43-0.26,0.65c-0.1,0.22-0.19,0.46-0.28,0.7c-0.16,0.46-0.28,0.95-0.37,1.47
		c-0.09,0.52-0.11,1.03-0.06,1.52c0.05,0.49,0.21,0.93,0.47,1.32c0.26,0.39,0.66,0.68,1.21,0.88c1.06,0.39,2.17,0.57,3.35,0.55
		c1.18-0.02,2.35-0.14,3.53-0.37c1.17-0.22,2.32-0.51,3.43-0.86c1.11-0.35,2.12-0.67,3.02-0.96c0.26,0.49,0.47,0.93,0.62,1.33
		c-2.71,1.22-5.37,2.08-8.01,2.59c-2.63,0.51-4.92,0.64-6.9,0.35c-2.55-1.25-4.34-2.83-5.39-4.83c-1.04-2-1.28-4.06-0.64-6.21
		c0.44-1.47,1.13-2.89,2.08-4.26c0.95-1.37,2.09-2.62,3.43-3.74c1.34-1.12,2.83-2.1,4.46-2.92c1.64-0.82,3.33-1.43,5.08-1.82
		c1.74-0.39,3.48-0.55,5.2-0.47c1.71,0.08,3.32,0.44,4.8,1.07C273.58,38.37,275.06,40.21,275.99,42.75z M270.73,42.39
		c-1.23-0.38-2.62-0.52-4.13-0.41c-1.52,0.1-3.03,0.47-4.54,1.09c-1.5,0.62-2.96,1.48-4.36,2.56c-1.4,1.08-2.63,2.35-3.69,3.8
		c3.8-0.25,7.22-0.89,10.28-2C267.35,46.32,269.53,44.68,270.73,42.39z"/>
	<path class="st3" d="M289.79,42.75c-0.17-0.31-0.27-0.71-0.28-1.21c-0.02-0.5,0.07-0.91,0.24-1.24c1.86-0.77,3.44-1.69,4.72-2.79
		c1.28-1.1,2.41-2.5,3.39-4.22c0.74-1.3,1.41-2.8,2.01-4.53c1.15,0.74,2.25,1.56,3.28,2.45c1.03,0.89,1.9,1.78,2.63,2.64
		c0.72,0.86,1.25,1.68,1.6,2.46c0.35,0.77,0.46,1.39,0.36,1.86C302.62,42.29,296.66,43.66,289.79,42.75z"/>
	<path class="st3" d="M309.61,64.28c-0.47,0.53-1.05,1.01-1.73,1.46c-0.68,0.44-1.36,0.79-2.04,1.05c-0.68,0.26-1.31,0.42-1.9,0.49
		c-0.59,0.07-1.04-0.01-1.34-0.23c-0.4-0.34-0.48-0.75-0.25-1.23c0.07-0.09,0.22-0.2,0.46-0.32c0.24-0.13,0.51-0.26,0.8-0.42
		c0.29-0.16,0.58-0.32,0.85-0.48c0.27-0.17,0.48-0.34,0.61-0.52c0.31-0.42,0.45-0.87,0.4-1.34c-0.05-0.47-0.29-0.87-0.72-1.19
		c-1.58-1.15-3.35-1.25-5.23-0.29c-1.89,0.96-3.82,2.94-5.84,5.93c-0.21,0.31-0.32,0.51-0.32,0.59c0.79,0.54,1.49,1.02,2.11,1.46
		c0.62,0.43,1.22,0.86,1.81,1.29c-0.01,0.09-0.07,0.22-0.2,0.4c-0.2,0.27-0.41,0.41-0.65,0.43c-0.96-0.46-1.72-0.8-2.3-1.05
		c-0.58-0.24-1.02-0.4-1.35-0.49c-0.32-0.09-0.55-0.09-0.68-0.02c-0.13,0.07-0.25,0.2-0.38,0.38c-0.17,0.25-0.33,0.5-0.47,0.76
		c-0.15,0.26-0.35,0.57-0.6,0.94c-1.76,2.58-3.98,4.09-6.62,4.64c-2.64,0.55-5.41,0.09-8.42-1.32c-0.48-0.32-0.91-0.75-1.32-1.27
		c-0.41-0.53-0.75-1.11-1.04-1.74c-0.29-0.63-0.5-1.26-0.62-1.9c-0.13-0.64-0.14-1.23-0.04-1.77c0.67-1.26,1.61-2.31,2.83-3.13
		c1.22-0.82,2.6-1.37,4.14-1.64c1.54-0.28,3.2-0.26,4.96,0.07c1.76,0.33,3.49,1.03,5.16,2.11c0.51-0.79,0.91-1.62,1.2-2.5
		c0.29-0.88,0.56-1.75,0.79-2.6c0.24-0.85,0.47-1.68,0.7-2.49c0.23-0.81,0.55-1.55,0.97-2.22c0.54-0.86,1.29-1.57,2.28-2.12
		c0.98-0.55,2.08-0.95,3.29-1.17c1.21-0.22,2.48-0.25,3.82-0.07c1.34,0.18,2.61,0.55,3.82,1.13c0.39,0.41,0.82,1.11,1.26,2.1
		c0.44,0.99,0.83,2.02,1.15,3.1c0.33,1.08,0.55,2.11,0.69,3.08C309.79,63.13,309.77,63.84,309.61,64.28z M276.76,72.87
		c1.05,0.18,2.14,0.19,3.28,0.06c1.14-0.14,2.24-0.4,3.29-0.8c1.05-0.4,2.03-0.9,2.92-1.53c0.89-0.63,1.61-1.34,2.13-2.16
		c-0.81-0.39-1.82-0.62-3.02-0.69c-1.2-0.07-2.41,0.01-3.6,0.24c-1.19,0.22-2.26,0.56-3.21,1.01c-0.95,0.45-1.57,0.95-1.88,1.5
		C276.27,71.21,276.3,72,276.76,72.87z"/>
</g>
</svg>
